<svg viewBox="-400 -256.546 1526.752 875.381" width="1526.752" height="875.381" xmlns="http://www.w3.org/2000/svg"><defs><clipPath id="clippath1" transform=""><path d="M 0 875.381 L 1526.752 875.381 L 1526.752 0 L 0 0 Z" style="fill: none; clip-rule: nonzero;"></path></clipPath></defs><g transform="matrix(1, 0, 0, -1, -399.999548, 618.835214)"><g transform=""><path d="M 0 875.381 L 1526.752 875.381 L 1526.752 0 L 0 0 Z" style="fill: none;"></path></g><g style="clip-path: url(#clippath1);"><g transform="translate(714.4941 443.6922)"><path d="M 0 0 C 0 57.149 -34.538 105.504 -95.455 105.504 C -153.86 105.504 -188.399 54.642 -188.399 0 C -188.399 -55.263 -155.114 -106.754 -95.455 -106.754 C -33.91 -106.754 0 -57.77 0 0 M 53.381 -146.946 L -3.139 -146.946 L -3.139 -101.104 L -4.396 -101.104 C -27.003 -134.389 -62.174 -156.996 -104.247 -156.996 C -194.052 -156.996 -244.918 -82.262 -244.918 1.886 C -244.918 82.27 -191.538 155.746 -106.133 155.746 C -62.798 155.746 -27.631 133.14 -4.396 97.969 L -3.139 97.969 L -3.139 146.954 L 53.381 146.954 Z" style="fill: rgb(0, 110, 220); fill-opacity: 1;"></path></g></g><g style="clip-path: url(#clippath1);"><g transform="translate(1063.6161 443.6922)"><path d="M 0 0 C 0 57.149 -34.538 105.504 -95.455 105.504 C -153.86 105.504 -188.398 54.642 -188.398 0 C -188.398 -55.263 -155.114 -106.754 -95.455 -106.754 C -33.91 -106.754 0 -57.77 0 0 M -241.779 290.249 L -185.259 290.249 L -185.259 97.969 L -184.002 97.969 C -160.767 133.14 -125.596 155.746 -81.641 155.746 C 3.143 155.746 56.52 82.27 56.52 1.886 C 56.52 -82.262 6.282 -156.996 -84.151 -156.996 C -125.596 -156.996 -161.395 -134.389 -184.002 -101.104 L -185.259 -101.104 L -185.259 -146.946 L -241.779 -146.946 Z" style="fill: rgb(0, 110, 220); fill-opacity: 1;"></path></g></g><g style="clip-path: url(#clippath1);"><g transform=""><path d="M 1211.351 296.746 L 1154.831 296.746 L 1154.831 733.94 L 1211.351 733.94 Z" style="fill: rgb(0, 110, 220); fill-opacity: 1;"></path></g><g transform="translate(1470.2318 476.9774)"><path d="M 0 0 C -6.907 43.963 -35.795 73.477 -81.012 73.477 C -124.972 73.477 -157.628 42.078 -164.535 0 Z M -167.674 -42.699 C -167.045 -92.94 -133.136 -140.039 -79.126 -140.039 C -35.795 -140.039 -11.258 -116.721 -1.354 -82.891 L 53.429 -82.681 C 36.344 -161.377 -22.606 -190.281 -79.755 -190.281 C -169.56 -190.281 -224.194 -122.454 -224.194 -35.792 C -224.194 54.642 -175.838 122.461 -81.012 122.461 C 12.561 122.461 56.52 53.385 56.52 -33.906 L 56.52 -42.699 Z" style="fill: rgb(0, 110, 220); fill-opacity: 1;"></path></g><g transform="translate(465.7575 590.5638)"><path d="M 0 0 L -12.545 -39.191 C -13.527 -41.809 -16.03 -43.543 -18.825 -43.543 L -94.686 -43.543 C -127.998 -271.185 -247.371 -590.564 -404.681 -590.564 C -446.324 -590.564 -465.758 -559.099 -465.758 -532.271 C -465.758 -498.03 -441.694 -472.119 -405.612 -472.119 C -363.045 -472.119 -357.129 -520.292 -333.072 -520.292 C -249.611 -520.292 -269.062 -227.904 -218.679 -43.543 L -278.831 -43.543 C -160.386 19.386 -130.903 284.817 32.085 284.817 C 80.199 284.817 111.664 257.06 111.664 209.862 C 111.664 168.219 83.9 133.978 39.487 133.978 C 13.576 133.978 -6.781 152.487 -6.781 182.104 C -6.781 216.333 12.902 227.036 12.902 241.838 C 12.902 254.303 -10.633 252.35 -30.326 238.677 C -48.765 225.876 -66.668 195.16 -72.745 145.405 C -78.53 98.033 -81.011 51.568 -86.359 9.062 L -6.28 9.062 C -1.597 9.062 1.644 4.384 0 0" style="fill: rgb(0, 60, 120); fill-opacity: 1;"></path></g></g></g></svg>
