<svg viewBox="423.155 171.061 240.689 86.283" width="240.689" height="86.283" xmlns="http://www.w3.org/2000/svg"><defs><clipPath id="prefix__a"><path d="M0 0h240.689v86.284H0z"/></clipPath></defs><g clip-path="url(#prefix__a)" transform="translate(423.155 171.061)"><clipPath id="prefix__b"><path fill="#FFF" d="M0 0h240.689v86.284H0z"/></clipPath><g clip-path="url(#prefix__b)"><path d="M8.246 81.229h3.745v-6.358h-.935v5.423H7.317v5.78h.929v-2.951h2.956v2.951h.922v-3.872H8.246v-.973zM1.855 74.858H.906v6.371h3.745v.959H.16v.906h1.191c-.069.993-.483 1.799-1.232 2.398L0 85.587l.824.557.065-.054c.851-.704 1.333-1.711 1.432-2.996h2.33v2.98h.956v-5.779H1.855v-5.437z" fill="#666464"/><path d="M4.041 77.881h4.794v.729H4.041v-.729zm0-1.629h4.794v.729H4.041v-.729zm0-1.622h4.794v.729H4.041v-.729zm5.771-.906H3.084v5.779h6.728v-5.779zM21.448 76.616a20.923 20.923 0 01-.625 3.316l-.025.098.86.337.037-.114c.302-.941.54-2.124.707-3.515l.013-.11-.956-.128-.011.116z" fill="#666464"/><g fill="#666464"><path d="M24.441 85.733h9.094v-.935h-9.094v.935z"/><path d="M31.429 79.125H26.58v-2.059h4.849v2.059zm0 3.188H26.58v-2.239h4.849v2.239zm-6.498-3.383l.679-.741v5.052h6.783v-7.137H25.61v2.049l-.04-.054c-.465-.639-1.09-1.328-1.858-2.05v-2.674h-.963v12.728h.977v-8.718c.381.427.758.907 1.124 1.429l.081.116z"/></g><path d="M33.235 74.602v-.929h-8.512l.019.929h8.493zM44.218 83.531c.222-.263.385-.46.486-.59h1.662a3.553 3.553 0 01-.998 1.015c-.404-.165-.79-.308-1.15-.425zm-.667-8.491h1.57v.66h-1.57v-.66zm0 1.547h1.57v.756h-1.57v-.756zm1.57 3.785h-1.563v-.667h1.563v.667zm.929-3.785h1.536v.756H46.05v-.756zm0-1.547h1.536v.66H46.05v-.66zm1.536 5.332H46.05v-.667h1.536v.667zm-1.228 4.031a5.03 5.03 0 001.151-1.462h1.848v-.858h-1.461c.019-.066.035-.134.046-.205l.015-.102-.914-.224-.03.103a2.287 2.287 0 01-.168.428H45.4c.175-.238.365-.519.565-.84h2.556v-2.41H46.05v-.618h2.464v-1.628h.968V75.7h-.968v-1.504H46.05v-.772h-.929v.772h-2.506V75.7h-1.009v.887h1.009v1.628h2.506v.618h-2.506v2.41h2.186c-.189.276-.396.558-.618.84h-2.577v.858h1.836c-.283.323-.536.604-.754.835l-.125.132.174.053a19.14 19.14 0 011.655.6c-.648.282-1.508.493-2.563.628l-.143.018.35.89.087-.01c1.352-.168 2.491-.527 3.386-1.065.772.322 1.502.676 2.169 1.051l.08.045.618-.701-.122-.069a26.755 26.755 0 00-1.896-.945z" fill="#666464"/><path d="M52.105 83.4c.877-1.604 1.375-3.882 1.48-6.772h.659V75.7H51.22c.246-.814.417-1.512.509-2.076l.018-.109-.904-.165-.024.106c-.541 2.402-1.272 4.214-2.172 5.385l-.07.091.743.55.068-.085c.568-.71 1.084-1.642 1.534-2.769h1.747c-.06 1.296-.155 2.348-.285 3.126-.176 1.072-.456 1.98-.832 2.707-.362-.765-.663-1.876-.894-3.311l-.022-.133-.879.304.009.089c.142 1.366.535 2.7 1.168 3.967-.574.668-1.373 1.332-2.377 1.975l-.101.065.565.764.087-.054a11.336 11.336 0 002.375-1.936c.544.737 1.265 1.388 2.143 1.936l.09.055.545-.763-.094-.065c-.878-.602-1.572-1.26-2.062-1.954zM67.927 77.094h4.872a42.396 42.396 0 01-1.635 7.704h-1.656c-.311-2.332-.843-4.922-1.581-7.704zm5.881.076l.012-.076h.972v-.963h-3.744a19.492 19.492 0 00-.924-2.689l-.041-.095-.932.316.052.114a12.9 12.9 0 01.816 2.354h-4.204v.963h1.269l-.189.104.026.086c.801 2.728 1.331 5.254 1.577 7.514h-2.87v.962h9.394v-.962h-2.856c.683-2.215 1.235-4.78 1.642-7.628z" fill="#666464"/><path d="M66.405 73.734l-.973-.348-.039.102c-.837 2.122-1.925 3.983-3.233 5.531l-.055.065.605.897.096-.115c.528-.633.992-1.252 1.381-1.845v8.081h.984v-9.817l.455-.874c.307-.612.554-1.139.734-1.568l.045-.109zM89.732 77.718l-.085-.061-.617.743.096.071c1.134.837 2.009 1.672 2.6 2.481l.082.112.671-.742-.058-.075c-.673-.878-1.578-1.729-2.689-2.529zM92.124 77.19l.094.103.587-.824-.064-.067c-.845-.886-1.721-1.615-2.605-2.168l-.088-.055-.557.748.098.067a13.955 13.955 0 012.535 2.196z" fill="#666464"/><path d="M94.38 81.476v-8.088h-.978v8.258l-4.754.732.072.964 4.682-.71v3.442h.978V82.48l1.458-.224-.036-.968-1.422.188zM88.931 80.867c-.508-.753-1.211-1.571-2.09-2.435v-.565h2.11v-.956h-2.11v-2.075c.837-.21 1.56-.451 2.148-.717l.133-.061-.633-.776-.078.032c-1.391.576-3.036.972-4.89 1.175l-.171.02.528.926.077-.012a49.478 49.478 0 001.936-.342v1.83h-2.77v.956h2.643c-.58 1.468-1.478 2.91-2.67 4.29l-.062.071.662.808.087-.108a20.919 20.919 0 002.11-3.198v6.33h.95v-6.277c.53.589.991 1.194 1.372 1.804l.08.128.687-.776-.049-.072zM112.518 82.757c-.778-.898-1.372-1.992-1.769-3.255h3.904a6.51 6.51 0 01-2.135 3.255zm.701.674c.496-.425.95-.93 1.351-1.502.43-.613.793-1.457 1.078-2.51l.005-.865h-2.667v-2.101h3.321v-.949h-3.321v-2.13h-.99v2.13h-3.154v.949h3.154v2.101h-2.952v.948h.682c.454 1.501 1.14 2.794 2.04 3.847a15.486 15.486 0 01-4.028 1.92l-.14.043.078.124c.15.24.255.402.316.49.062.086.102.14.132.172l.019.043.129.018.023-.026c1.567-.575 2.966-1.284 4.159-2.109.866.764 2.052 1.481 3.527 2.13l.088.04.553-.844-.129-.05c-1.394-.545-2.495-1.174-3.274-1.869z" fill="#666464"/><path d="M108.71 79.765l-.285-.899-.115.052c-.571.259-1.048.452-1.421.576V76.85h1.608v-.962h-1.608v-2.514h-.957v2.514h-2.039v.962h2.039v3.016c-.611.208-1.306.428-2.07.656l-.116.034.337.885.099-.029c.67-.19 1.257-.371 1.75-.536v3.951c0 .138-.049.185-.086.208-.033.021-.167.07-.678.07-.242 0-.507-.007-.81-.022l-.171-.007.387 1.024.076.002c.125.004.244.006.356.006.825 0 1.314-.094 1.526-.29.237-.219.357-.482.357-.782v-4.51a36.69 36.69 0 001.729-.72l.092-.041zM135.073 80.386c-.424 1.158-.998 2.098-1.708 2.795-.735-.695-1.375-1.634-1.905-2.795h3.613zm-8.471-4.052v-1.649h1.87v2.865a13.582 13.582 0 00-1.56-1.39l-.078-.058-.232.232zm0 3.265v-2.435c.677.563 1.178 1.042 1.492 1.427l.073.09.305-.264v.813a24.428 24.428 0 01-1.945 2.078c.049-.546.075-1.12.075-1.709zm7.466 4.212c.936-.958 1.616-2.137 2.024-3.505l.005-.882h-6.205v.962h.521c.644 1.425 1.381 2.569 2.191 3.403a9.703 9.703 0 01-3.074 1.444l-.134.037c.022-.096.033-.199.033-.311v-11.23h-3.755v5.772c0 2.363-.346 4.346-1.028 5.894l-.035.08.801.62.059-.129c.433-.94.752-2.232.95-3.842l.312.323.081-.082a53.726 53.726 0 001.658-1.756v4.197c0 .188-.079.273-.272.291a6.757 6.757 0 01-1.109-.007l-.188-.016.416.96.069.004c.517.031.899.021 1.169-.029.45-.084.733-.327.832-.713l.603.843.081-.03c1.264-.483 2.343-1.047 3.21-1.679.982.727 2.128 1.302 3.406 1.708l.085.026.548-.916-.148-.037c-1.184-.294-2.229-.764-3.106-1.4z" fill="#666464"/><path d="M130.427 79.264c.554-.42.968-1.026 1.229-1.801.235-.685.354-1.492.354-2.396v-.362h2.344v2.923c0 .288.094.538.278.741a.92.92 0 00.726.339h1.762v-.926h-1.561c-.049 0-.101-.03-.156-.089a.29.29 0 01-.086-.203v-3.733h-4.263v1.428c0 .737-.087 1.371-.258 1.886-.232.678-.626 1.212-1.169 1.586l-.14.096.878.558.062-.047zM149.581 78.516c1.118-1.103 2.096-2.703 2.907-4.758l.044-.11-.959-.315-.039.099c-.788 2.007-1.713 3.508-2.748 4.462l-.102.094.83.594.067-.066zM155.224 73.716l-.029-.07h-1.755v.941h1.133c.805 1.799 1.757 3.129 2.831 3.952l.085.066.655-.774-.097-.071c-1.115-.819-2.065-2.18-2.823-4.044z" fill="#666464"/><path d="M149.606 73.759l.045-.114-.932-.282-.039.095c-1.009 2.479-2.163 4.322-3.431 5.48l-.062.056.454.944.111-.092c.528-.437 1.093-1.092 1.681-1.951v8.123h.969v-9.706l.462-.93c.319-.643.569-1.188.742-1.623zM156.906 78.624h-7.35v.921h2.808c-.125 2.382-1.313 4.303-3.535 5.71l-.109.068.663.789.084-.057c1.29-.878 2.24-1.855 2.823-2.903.569-1.02.928-2.233 1.066-3.607h2.635c.018.913-.014 1.904-.093 2.948-.082 1.086-.169 1.752-.257 1.981-.085.219-.196.379-.329.474-.092.065-.32.143-.882.143-.369 0-.773-.022-1.201-.063l-.171-.016.32.983.07.009c.261.033.54.05.829.05.665 0 1.133-.076 1.431-.233.295-.154.516-.356.658-.603.138-.243.265-.867.386-1.909.119-1.019.179-2.15.179-3.362 0-.368-.007-.765-.022-1.215l-.003-.108zM170.101 78.306h6.561v1.404h-6.561v-1.404zm6.561 2.367v1.487h-6.66c.036-.38.055-.878.057-1.487h6.603zm-3.863-6.938l.054-.119-.986-.277-.04.089a20.887 20.887 0 01-.791 1.618h-4.94v.963h4.377c-1.064 1.762-2.565 3.301-4.466 4.576l-.115.077.734.725.076-.051c.743-.495 1.552-1.166 2.409-1.998.008.311.013.577.013.797 0 2.591-.582 4.423-1.73 5.444l-.116.103.919.541.061-.063c.795-.808 1.331-1.845 1.592-3.079h6.812v1.747c0 .133-.047.214-.153.262-.074.034-.346.092-1.341.092-.487 0-.95-.019-1.376-.056l-.197-.017.469.974.065.005c.358.028.733.042 1.115.042 1.014 0 1.645-.081 1.93-.248.3-.178.452-.499.452-.957v-7.54h-6.901c.299-.414.599-.876.894-1.376h7.107v-.963h-6.563c.188-.351.402-.79.636-1.311zM197.014 82.891a15.876 15.876 0 002.326-1.953l.085-.087-.748-.629-.073.081a11.015 11.015 0 01-2.059 1.777 9.064 9.064 0 01-.645-1.662l-.034-.124-.906.389.027.095c.637 2.269 2.009 4.08 4.079 5.384l.085.052.661-.821-.115-.065c-1.248-.711-2.151-1.531-2.683-2.437z" fill="#666464"/><path d="M193.482 77.095h4.167v1.585h-4.167v-1.585zm0-2.396h4.167v1.446h-4.167v-1.446zm2.167 9.393c-.741.334-1.47.605-2.167.809v-5.266h5.173v-5.898h-6.157v11.132c0 .125-.04.23-.123.32l-.051.056.414.879.091-.025a24.172 24.172 0 002.966-1.015l.074-.031-.072-1.028-.148.067zM191.401 74.601v-.837H187.5v12.31h.95V74.713h1.976c-.431 1.415-.794 2.52-1.081 3.287l-.023.061.042.051c.838 1.01 1.262 2.023 1.262 3.011 0 .42-.079.705-.235.847-.158.145-.489.218-.982.218-.233 0-.471-.01-.709-.028l-.18-.014.394.987.072.003c1.044.046 1.721-.104 2.082-.456.355-.347.536-.838.536-1.46 0-1.035-.415-2.169-1.234-3.37.5-1.371.845-2.456 1.031-3.249zM216.202 80.549l-.06-.082-.857.504.074.1c.684.935 1.242 1.774 1.66 2.499-2.468.623-4.6 1.009-6.344 1.154 1.261-1.718 2.485-3.977 3.64-6.718l.043-.103-.931-.402-.044.106c-1.313 3.154-2.708 5.61-4.145 7.299l-.04.047.26.87.092-.007a49.482 49.482 0 007.963-1.375c.274.454.554 1.033.833 1.722l.048.12.868-.497-.04-.091c-.688-1.605-1.704-3.335-3.02-5.146zM216.302 73.668l-.025-.077h-1.733v.997h.99c1.021 2.526 2.403 4.37 4.108 5.482l.087.057.617-.807-.101-.066c-1.794-1.168-3.12-3.047-3.943-5.586zM212.752 73.82l.034-.104-.958-.331-.034.11c-.801 2.497-2.253 4.472-4.315 5.872l-.113.076.736.735.077-.055c2.192-1.577 3.73-3.699 4.573-6.303zM230.696 79.845h5.357v2.629h-5.357v-2.629zm6.355-.964h-7.368v4.556h7.368v-4.556z" fill="#666464"/><path d="M228.339 73.661v.955h10.979v10.107c0 .231-.091.278-.121.293-.058.031-.248.082-.86.082a30.28 30.28 0 01-1.906-.083l-.167-.012.333 1.024.077.005c.6.037 1.113.056 1.523.056.963 0 1.52-.086 1.752-.271.234-.187.353-.487.353-.892V73.661h-11.963z" fill="#666464"/><path d="M238.032 76.312h-9.245l-.018.942h9.263v-.942z" fill="#666464"/><path d="M34.231 11.894A5.948 5.948 0 1034.23-.001a5.948 5.948 0 00.001 11.895zM56.171 53.924L34.705 16.745a7.02 7.02 0 00-3.256-2.914l-.04-.017a7.321 7.321 0 00-.555-.216c-.069-.024-.139-.045-.208-.066a6.684 6.684 0 00-.719-.181 6.612 6.612 0 00-.691-.102 6.284 6.284 0 00-.679-.032 6.137 6.137 0 00-1.024.074 6.993 6.993 0 00-.652.126 8.407 8.407 0 00-.413.114c-.07.022-.139.043-.208.067a7.321 7.321 0 00-.555.216l-.04.017a7.022 7.022 0 00-3.257 2.914L.943 53.924c-1.947 3.372-.781 7.724 2.591 9.671 3.372 1.947 7.724.781 9.671-2.591l15.352-26.59 15.352 26.59c1.947 3.372 6.298 4.538 9.671 2.591 3.372-1.947 4.538-6.299 2.591-9.671z" fill="#1A96D5"/><path d="M77.235 11.894a5.948 5.948 0 10-.001-11.895 5.948 5.948 0 00.001 11.895zM99.175 53.924L77.709 16.745a7.02 7.02 0 00-3.256-2.914l-.04-.017a7.49 7.49 0 00-.555-.216c-.069-.024-.139-.045-.208-.067a6.684 6.684 0 00-.719-.18 6.759 6.759 0 00-1.026-.126 5.64 5.64 0 00-.344-.008 6.21 6.21 0 00-1.024.074 6.759 6.759 0 00-.346.06 6.408 6.408 0 00-.719.18c-.07.022-.139.043-.208.067a7.321 7.321 0 00-.555.216l-.04.017a7.022 7.022 0 00-3.257 2.914L51.083 41.572s6.762 11.141 7.221 12.015c.493.938.885 2.225.885 2.225l12.369-21.404 15.355 26.596c1.947 3.372 6.298 4.538 9.671 2.591 3.372-1.947 4.538-6.299 2.591-9.671z" fill="#26ABE3"/><path d="M185.088 51.792c1.167-.934 2.591-1.407 4.233-1.407h.798a.926.926 0 00.597-.196.641.641 0 00.279-.526c0-.202-.093-.379-.275-.523a.94.94 0 00-.601-.198h-.798c-2.104 0-3.929.607-5.424 1.803-1.506 1.205-2.269 2.68-2.269 4.383v.28c0 1.702.763 3.177 2.269 4.382 1.495 1.196 3.32 1.803 5.424 1.803h.798a.938.938 0 00.601-.197c.182-.145.275-.322.275-.524a.634.634 0 00-.275-.523.938.938 0 00-.601-.199h-.798c-1.642 0-3.066-.47-4.233-1.398-1.15-.925-1.733-2.05-1.733-3.344v-.28c0-1.294.583-2.416 1.733-3.336zM199.761 56.442v1.354c0 .687-.298 1.259-.911 1.75-.614.491-1.368.74-2.276.74-.872 0-1.625-.249-2.239-.74-.613-.491-.911-1.063-.911-1.75v-1.354c0-.677.307-1.266.911-1.749.614-.491 1.367-.74 2.276-.74.871 0 1.625.249 2.239.74.604.483.911 1.072.911 1.749zm.17-2.699c-.918-.729-2.035-1.098-3.357-1.098-1.285 0-2.398.369-3.309 1.098-.928.743-1.399 1.65-1.399 2.699v1.354c0 1.049.471 1.955 1.398 2.69.912.733 2.025 1.106 3.31 1.106h.037c1.212 0 2.27-.328 3.15-.973v.32c0 .182.079.34.238.475.148.118.33.178.54.178a.884.884 0 00.545-.181.604.604 0 00.234-.472v-4.497c0-1.048-.466-1.956-1.387-2.699zM211.112 56.365v1.345c0 .671-.306 1.253-.91 1.73-.608.49-1.353.739-2.252.739-.863 0-1.608-.249-2.214-.74-.597-.476-.899-1.058-.899-1.729v-1.345c0-.681.294-1.246.899-1.73.606-.485 1.351-.73 2.251-.73.862 0 1.607.245 2.216.73.612.484.909 1.049.909 1.73zm.171-2.67c-.909-.728-2.019-1.098-3.333-1.098-1.277 0-2.383.371-3.284 1.098-.921.729-1.387 1.627-1.387 2.67v8.326c0 .19.08.35.238.476a.84.84 0 00.541.177.822.822 0 00.525-.174.586.586 0 00.254-.479v-4.177c.864.639 1.912.962 3.15.962 1.279 0 2.388-.366 3.297-1.089.911-.735 1.373-1.636 1.373-2.677v-1.345c0-1.042-.462-1.94-1.374-2.67zM214.838 52.185a.647.647 0 00-.248.505v8.21c0 .194.083.364.255.511a.937.937 0 00.576.184c.217 0 .41-.061.584-.191a.65.65 0 00.246-.504v-8.21c0-.193-.083-.363-.255-.512a.981.981 0 00-1.158.007zM215.421 48.91c-.29 0-.54.097-.743.288a.952.952 0 00-.311.716c0 .28.105.52.31.713.202.192.453.29.744.29.292 0 .542-.098.743-.289a.948.948 0 00.311-.714.948.948 0 00-.311-.715 1.046 1.046 0 00-.743-.289zM223.641 60.295h-.749c-.856 0-1.597-.246-2.203-.731-.605-.483-.899-1.045-.899-1.72v-3.873h2.376c.204 0 .382-.06.529-.178a.587.587 0 00.238-.466.595.595 0 00-.238-.474.822.822 0 00-.529-.179h-2.376v-3.127a.587.587 0 00-.238-.466.897.897 0 00-1.069 0 .584.584 0 00-.238.466v8.297c0 1.035.462 1.93 1.374 2.661.901.721 2.002 1.087 3.273 1.087h.749a.845.845 0 00.54-.178.592.592 0 00.239-.475.58.58 0 00-.238-.466.843.843 0 00-.541-.178zM233.186 56.442v1.354c0 .687-.298 1.259-.911 1.75-.614.491-1.367.74-2.276.74-.871 0-1.625-.249-2.239-.74-.613-.491-.91-1.063-.91-1.75v-1.354c0-.677.306-1.266.91-1.749.614-.491 1.368-.74 2.276-.74.872 0 1.625.249 2.239.74.604.483.911 1.072.911 1.749zm.171-2.699c-.919-.729-2.036-1.098-3.358-1.098-1.284 0-2.397.369-3.309 1.098-.928.742-1.398 1.65-1.398 2.699v1.354c0 1.05.471 1.955 1.398 2.69.911.733 2.025 1.106 3.309 1.106h.037c1.213 0 2.271-.328 3.15-.973v.32c0 .182.079.341.238.475.148.118.33.178.541.178a.88.88 0 00.544-.181.605.605 0 00.235-.472v-4.497c0-1.048-.467-1.955-1.387-2.699zM240.63 60.705a.673.673 0 00-.414-.362c-.631-.221-1.142-.57-1.517-1.035-.371-.46-.559-.965-.559-1.501v-8.25a.581.581 0 00-.237-.465.892.892 0 00-1.07 0 .582.582 0 00-.238.465v8.25c0 .805.28 1.556.831 2.23.541.672 1.274 1.176 2.18 1.497a.842.842 0 00.307.059c.402 0 .602-.205.697-.374a.519.519 0 00.02-.514zM133.195 52.889a.582.582 0 00-.254.478v4.458c0 .68-.294 1.246-.899 1.73-.607.485-1.352.73-2.251.73-.864 0-1.609-.245-2.216-.73-.605-.484-.899-1.05-.899-1.73v-4.458a.578.578 0 00-.249-.475.894.894 0 00-1.07 0 .592.592 0 00-.238.475v4.458c0 1.043.466 1.941 1.386 2.67.901.728 2.007 1.097 3.321 1.097 1.279 0 2.384-.369 3.286-1.097.92-.728 1.386-1.627 1.386-2.67v-4.458a.592.592 0 00-.238-.475c-.292-.232-.775-.237-1.065-.003zM151.233 53.666c-.846-.683-1.907-1.029-3.189-1.029-.801 0-1.542.151-2.202.449a4.136 4.136 0 00-1.449 1.077 4.137 4.137 0 00-1.45-1.077c-.659-.298-1.399-.449-2.237-.449-1.246 0-2.307.346-3.153 1.03-.847.69-1.276 1.565-1.276 2.602v4.67c0 .182.079.34.241.478a.915.915 0 001.082-.006.607.607 0 00.234-.472v-4.67c0-.663.267-1.201.817-1.646.542-.452 1.233-.681 2.092-.681.821 0 1.512.229 2.056.682.549.445.815.983.815 1.645v4.67c0 .182.079.341.238.475a.912.912 0 001.086-.003.608.608 0 00.234-.472v-4.67c0-.663.267-1.201.816-1.646.543-.452 1.234-.681 2.092-.681.822 0 1.513.229 2.057.682.549.444.815.982.815 1.645v4.67a.61.61 0 00.238.475.847.847 0 00.541.179c.201 0 .381-.06.544-.182a.6.6 0 00.234-.472v-4.67c0-1.037-.429-1.912-1.276-2.603zM161.29 59.545c-.614.491-1.367.74-2.275.74-.872 0-1.625-.249-2.24-.74-.612-.49-.91-1.062-.91-1.749v-1.355c0-.676.306-1.265.91-1.749.615-.491 1.368-.74 2.276-.74.872 0 1.625.249 2.239.74.604.484.911 1.073.911 1.749v1.355c0 .687-.298 1.259-.911 1.749zm1.082-5.803c-.919-.728-2.036-1.097-3.357-1.097-1.286 0-2.399.369-3.309 1.097-.929.742-1.399 1.651-1.399 2.699v1.355c0 1.05.471 1.954 1.398 2.689.911.734 2.024 1.107 3.31 1.107h.036c1.213 0 2.271-.328 3.15-.974v.321c0 .181.079.34.238.474.148.118.33.179.541.179a.88.88 0 00.544-.182.604.604 0 00.235-.471v-4.498c0-1.047-.467-1.955-1.387-2.699zM173.604 53.81c-.903-.728-2.008-1.097-3.322-1.097-1.279 0-2.385.369-3.285 1.097-.92.73-1.387 1.629-1.387 2.671v4.458c0 .186.082.35.238.475.292.232.776.237 1.066.002a.58.58 0 00.253-.477v-4.458c0-.681.294-1.246.899-1.731.607-.485 1.353-.73 2.252-.73.863 0 1.608.245 2.215.73.605.485.899 1.05.899 1.731v4.458c0 .189.088.354.25.475a.823.823 0 00.529.178c.21 0 .392-.06.54-.178a.595.595 0 00.238-.475v-4.458c0-1.041-.466-1.94-1.385-2.671zM121.821 49.111a.647.647 0 00-.261.523v4.87h-6.264v-4.87a.646.646 0 00-.263-.523c-.321-.256-.845-.269-1.201 0a.64.64 0 00-.263.523v11.238c0 .201.087.376.266.525.348.266.875.257 1.202-.005a.663.663 0 00.259-.52v-4.916h6.264v4.916c0 .2.087.375.261.523a.936.936 0 00.601.197.977.977 0 00.606-.2.664.664 0 00.257-.52V49.634a.651.651 0 00-.264-.526c-.354-.264-.879-.253-1.2.003zM136.551 13.746a2.019 2.019 0 00-1.071-.489 2.41 2.41 0 00-1.237.096c-.417.146-.735.376-.946.688l-8.003 12.07-8.003-12.07c-.21-.312-.528-.542-.946-.688a2.406 2.406 0 00-1.236-.096 2.016 2.016 0 00-1.071.489c-.315.289-.48.645-.48 1.032v22.385c0 .31.111.761.643 1.155.371.272.825.41 1.351.41.509 0 .955-.138 1.324-.41.532-.393.644-.845.644-1.155V21.115l6.055 9.125c.377.541.948.814 1.699.824v.004l.02-.002.021.002v-.004c.75-.01 1.322-.283 1.699-.824l6.055-9.125v16.048c0 .31.112.762.644 1.155.369.272.814.41 1.324.41.526 0 .98-.138 1.351-.41.531-.394.643-.845.643-1.155V14.778c0-.387-.166-.743-.48-1.032zM167.466 27.992h-8.905l4.453-8.922 4.452 8.922zm8.566 8.65c-7-13.994-10.756-21.513-11.181-22.373l-.064-.127a1.738 1.738 0 00-.449-.484c-.757-.557-1.948-.538-2.674 0a1.712 1.712 0 00-.45.484l-.064.103v.024c-.45.912-4.637 9.286-11.186 22.384-.2.425-.175.869.085 1.309.248.366.625.618 1.121.75.194.061.41.093.642.093 1.102 0 1.61-.535 1.845-.99l3.329-6.672h12.029l3.332 6.679c.233.448.74.983 1.841.983.234 0 .459-.032.656-.089.51-.134.886-.392 1.122-.778.245-.417.27-.863.066-1.296zM205.505 14.125c-.229-.37-.587-.638-1.081-.805a2.56 2.56 0 00-1.456.006c-.481.162-.84.439-1.074.835l-6.361 11.504-6.36-11.498c-.209-.395-.573-.679-1.093-.847a2.461 2.461 0 00-1.425.005c-.498.16-.866.429-1.108.824a1.325 1.325 0 000 1.289l8.018 14.462v7.34c0 .306.105.754.626 1.161.386.268.836.404 1.342.404.526 0 .981-.138 1.36-.418.501-.393.607-.841.607-1.147V29.9l8.019-14.463c.222-.42.222-.866-.014-1.312zM236.95 22.726v6.6c0 1.949-.622 3.455-1.904 4.605-1.274 1.155-3.011 1.741-5.235 1.741-2.152 0-3.888-.586-5.165-1.744-1.281-1.147-1.903-2.653-1.903-4.602v-6.6c0-1.951.622-3.457 1.905-4.606 1.277-1.157 3.014-1.742 5.235-1.742 2.15 0 3.886.585 5.166 1.744 1.279 1.147 1.901 2.653 1.901 4.604zm.617-6.845c-1.984-1.749-4.569-2.636-7.756-2.636-3.116 0-5.701.887-7.684 2.636-1.998 1.762-3.011 4.065-3.011 6.845v6.6c0 2.78 1.013 5.082 3.011 6.845 1.981 1.747 4.567 2.634 7.756 2.634 3.116 0 5.702-.887 7.684-2.634 1.998-1.764 3.011-4.066 3.011-6.845v-6.6c0-2.779-1.013-5.081-3.011-6.845z" fill="#666464"/></g></g></svg>
