<svg viewBox="49.451 199.566 85.673 13.049" width="85.673" height="13.049" xmlns="http://www.w3.org/2000/svg"><defs><clipPath id="prefix__a"><path d="M0 612h792V0H0z" fill="none"/></clipPath></defs><g transform="matrix(1 0 0 -1 -305.851 512)" clip-path="url(#prefix__a)"><path d="M392.106 300.34l-3.75 10.445c-.05.145-.12.335-.12.502 0 .453.382.883.93.883.478 0 .79-.31.933-.763l3.108-9.001 3.13 9.026c.142.428.43.738.906.738h.096c.503 0 .814-.31.956-.738l3.106-9.026 3.157 9.048c.12.383.381.716.884.716.525 0 .908-.404.908-.86 0-.166-.072-.356-.119-.501l-3.775-10.47c-.194-.546-.575-.833-1.005-.833h-.072c-.478 0-.837.287-1.005.834l-3.08 8.875-3.109-8.875c-.167-.547-.526-.834-1.003-.834h-.05c-.453 0-.835.287-1.026.834" fill="#2c2e35"/></g><g transform="matrix(1 0 0 -1 -305.851 512)" clip-path="url(#prefix__a)"><path d="M419.45 311.26c0 .503.406.934.908.934a.92.92 0 00.935-.935v-2.12c.91 2.06 2.925 3.031 4.261 3.031.552 0 .912-.407.912-.933 0-.503-.335-.86-.817-.934-2.394-.287-4.356-2.083-4.356-5.65v-4.197c0-.503-.383-.933-.909-.933a.92.92 0 00-.934.933v10.803" fill="#2c2e35"/></g><g transform="matrix(1 0 0 -1 -305.851 512)" clip-path="url(#prefix__a)"><path d="M435.968 306.492c-.188 2.228-1.456 4.169-3.871 4.169-2.111 0-3.707-1.775-3.938-4.17zm-3.59-7.085c-3.33 0-6.051 2.584-6.051 6.374v.049c0 3.528 2.463 6.372 5.818 6.372 3.587 0 5.63-2.96 5.63-6.207a.849.849 0 00-.846-.855h-8.77c.256-2.651 2.108-4.145 4.268-4.145 1.5 0 2.602.593 3.494 1.422.14.117.305.212.517.212a.79.79 0 00.797-.783.778.778 0 00-.283-.59c-1.148-1.113-2.51-1.85-4.573-1.85" fill="#2c2e35"/></g><g transform="matrix(1 0 0 -1 -305.851 512)" clip-path="url(#prefix__a)"><path d="M415.478 304.197v1.193c-.908.263-2.127.527-3.63.527-2.312 0-3.603-1.004-3.603-2.554v-.048c0-1.55 1.431-2.458 3.103-2.458 2.266 0 4.13 1.385 4.13 3.34m-9.094-.955v.05c0 2.6 2.149 3.985 5.274 3.985a13.11 13.11 0 003.798-.526v.431c0 2.218-1.365 3.365-3.677 3.365-1.242 0-1.965-.158-2.873-.562a.91.91 0 00-.332-.073c-.43 0-.813.36-.813.788 0 .381.166.616.502.765 1.215.527 2.132.703 3.706.703 1.74 0 3.078-.452 3.984-1.36.836-.835 1.266-2.028 1.266-3.604v-6.81c0-.523-.382-.906-.886-.906-.522 0-.877.383-.877.86v1.177c-.861-1.123-2.294-2.125-4.462-2.125-2.293 0-4.61 1.313-4.61 3.842" fill="#2c2e35"/></g><g transform="matrix(1 0 0 -1 -305.851 512)" clip-path="url(#prefix__a)"><path d="M358.672 311.396c-.404.886-1.403 1.288-2.336.873-.934-.415-1.277-1.451-.855-2.338l3.916-8.512c.616-1.335 1.265-2.034 2.483-2.034 1.302 0 1.869.762 2.484 2.034 0 0 3.416 7.438 3.45 7.516a.494.494 0 00.493.317.545.545 0 00.54-.551v-7.275c0-1.121.623-2.041 1.819-2.041 1.195 0 1.842.92 1.842 2.04v5.953c0 1.148.822 1.893 1.943 1.893 1.12 0 1.867-.771 1.867-1.893v-5.952c0-1.121.625-2.041 1.819-2.041 1.195 0 1.845.92 1.845 2.04v5.953c0 1.148.819 1.893 1.94 1.893 1.12 0 1.869-.771 1.869-1.893v-5.952c0-1.121.623-2.041 1.819-2.041 1.194 0 1.842.92 1.842 2.04v6.775c0 2.49-2.001 4.234-4.41 4.234-2.406 0-3.913-1.665-3.913-1.665-.801 1.039-1.905 1.663-3.773 1.663-1.972 0-3.698-1.663-3.698-1.663-.801 1.039-2.166 1.663-3.296 1.663-1.747 0-3.134-.768-3.981-2.704l-2.501-5.895-3.208 7.563" fill="#2c2e35"/></g><g transform="matrix(1 0 0 -1 -305.851 512)" clip-path="url(#prefix__a)"><path d="M440.683 310.668v.004c0 .685-.53 1.247-1.234 1.247a1.24 1.24 0 01-1.237-1.251v-.008a1.23 1.23 0 011.237-1.245 1.24 1.24 0 011.234 1.253m-2.76-.01v.01c0 .833.676 1.534 1.526 1.534.86 0 1.527-.694 1.527-1.527v-.007c0-.836-.674-1.537-1.527-1.537a1.52 1.52 0 00-1.526 1.527" fill="#2c2e35"/></g><g transform="matrix(1 0 0 -1 -305.851 512)" clip-path="url(#prefix__a)"><path d="M439.52 310.717c.159 0 .247.083.247.209v.005c0 .138-.094.21-.252.21h-.324v-.424zm-.655.555c0 .09.072.163.164.163h.51c.19 0 .339-.054.43-.151a.458.458 0 00.13-.337v-.004a.453.453 0 00-.295-.45l.225-.275c.03-.04.053-.074.053-.124 0-.09-.077-.15-.155-.15-.072 0-.121.037-.16.084l-.316.4h-.26v-.322a.16.16 0 00-.162-.162.162.162 0 00-.164.162z" fill="#2c2e35"/></g></svg>
