<svg xmlns="http://www.w3.org/2000/svg" viewBox="0 0 3886.82 2479.72"><defs><style>.cls-1{fill:gray;}.cls-2{opacity:0.25;}.cls-3{fill:#fff;}.cls-4{fill:#8defff;}.cls-5{fill:#4ec9b0;}</style></defs><g id="web"><path class="cls-1" d="M471.71,447.82l-.22-.2-107-96.16.06-.29L394.31,210.4l.27-.09,136.8-44.59.21.19,107,96.17-.06.28L608.78,403.13l-.27.09ZM365.57,351.1,472,446.69l136-44.33,29.6-139.92L531.14,166.85l-136,44.33Z" transform="translate(-18.78 49.17)"/><path class="cls-1" d="M382.18,868.72l-.21-.19L275,772.36l.06-.28,29.77-140.77.27-.09,136.8-44.6.21.2,107,96.17-.06.28L519.25,824l-.27.09ZM276,772l106.38,95.59,136-44.33L548,683.34,441.61,587.75l-136,44.33Z" transform="translate(-18.78 49.17)"/><path class="cls-1" d="M228.47,395.39l-.21-.2L121.24,299l.06-.28L151.07,158l.27-.09,136.8-44.6.22.2,107,96.17-.06.28L365.54,350.7l-.27.09ZM122.33,298.66l106.38,95.6,136-44.33L394.28,210,287.9,114.41l-136,44.33Z" transform="translate(-18.78 49.17)"/><path class="cls-1" d="M304.91,632.1l-.21-.19-107-96.17.06-.29,29.78-140.76.27-.09L364.58,350l.21.19,107,96.17-.06.28L442,587.41l-.27.09ZM198.77,535.38,305.15,631l136-44.33,29.6-139.92L364.34,351.13l-136,44.33Z" transform="translate(-18.78 49.17)"/><path class="cls-1" d="M548.52,684.07l-.21-.19-107-96.17.06-.28,29.78-140.77.27-.09L608.19,402l.21.19,107,96.17-.06.28L685.59,639.38l-.27.09ZM442.38,587.35l106.38,95.59,136-44.33,29.6-139.92L608,403.1,472,447.43Z" transform="translate(-18.78 49.17)"/><path class="cls-1" d="M459.18,1105.46l-.22-.19L352,1009.1l.06-.28L381.8,868.05l.27-.09,136.8-44.6.21.2,107,96.16L626,920l-29.77,140.77-.27.09ZM353,1008.74l106.38,95.59,136-44.33L625,920.08,518.61,824.49l-136,44.33Z" transform="translate(-18.78 49.17)"/><path class="cls-1" d="M216.21,1053.85l-.22-.19L109,957.49l.06-.29,29.78-140.76.27-.09,136.8-44.6.21.19,107,96.17-.06.28-29.77,140.77-.27.09ZM110.07,957.13l106.38,95.59,136-44.33L382,868.47,275.64,772.88l-136,44.33Z" transform="translate(-18.78 49.17)"/><path class="cls-1" d="M293.21,1290.59l-.22-.19-107-96.17.06-.29,29.77-140.76.28-.09,136.79-44.6.22.19,107,96.17-.06.28L430.28,1245.9l-.28.09Zm-106.14-96.72,106.37,95.59,136-44.33L459,1105.21l-106.37-95.59-136,44.33Z" transform="translate(-18.78 49.17)"/><path class="cls-1" d="M536,1341.72l-.22-.19-107-96.17.06-.29,29.78-140.77.27-.09,136.8-44.59.21.19,107,96.17-.06.28L673.06,1297l-.27.09ZM429.85,1245l106.38,95.59,136-44.33,29.6-139.92-106.38-95.59-136,44.33Z" transform="translate(-18.78 49.17)"/><path class="cls-1" d="M370,1527.72l-.22-.19-107-96.17.06-.29,29.78-140.77.27-.09,136.8-44.59.21.19,107,96.17-.06.28L507.06,1483l-.27.09ZM263.85,1431l106.38,95.59,136-44.33,29.6-139.92-106.38-95.59-136,44.33Z" transform="translate(-18.78 49.17)"/><path class="cls-1" d="M203,1711.72l-.22-.19-107-96.17.06-.29,29.78-140.77.27-.09,136.8-44.59.21.19,107,96.17-.06.28L340.06,1667l-.27.09ZM96.85,1615l106.38,95.59,136-44.33,29.6-139.92-106.38-95.59-136,44.33Z" transform="translate(-18.78 49.17)"/><path class="cls-1" d="M126,1475.72l-.22-.19-107-96.17.06-.29L48.59,1238.3l.27-.09,136.8-44.59.21.19,107,96.17-.06.28L263.06,1431l-.27.09ZM19.85,1379l106.38,95.59,136-44.33,29.6-139.92-106.38-95.59-136,44.33Z" transform="translate(-18.78 49.17)"/><path class="cls-1" d="M857,1631.72l-.22-.19-107-96.17.06-.29,29.78-140.77.27-.09,136.8-44.59.21.19,107,96.17-.06.28L994.06,1587l-.27.09ZM750.85,1535l106.38,95.59,136-44.33,29.6-139.92-106.38-95.59-136,44.33Z" transform="translate(-18.78 49.17)"/><path class="cls-1" d="M1280.08,838l-.21-.19-107-96.17.05-.29,29.78-140.76.27-.09,136.8-44.6.21.19,107,96.17-.06.28-29.78,140.77-.27.09Zm-106.14-96.72,106.38,95.59,136-44.33,29.6-139.92L1339.51,557l-136,44.33Z" transform="translate(-18.78 49.17)"/><path class="cls-1" d="M958.05,550.84l-.22-.19-107-96.17.06-.28,29.78-140.77.27-.09,136.8-44.6.21.19,107,96.17-.06.29-29.77,140.76-.28.09ZM851.91,454.12l106.38,95.59,136-44.33,29.6-139.92-106.38-95.59-136,44.33Z" transform="translate(-18.78 49.17)"/><path class="cls-1" d="M791.77,735.94l-.21-.2-107-96.17.06-.28L714.4,498.52l.27-.09,136.8-44.6.21.2,107,96.17-.06.28L928.84,691.25l-.27.09ZM685.63,639.22,792,734.81l136-44.33,29.6-139.92L851.2,455l-136,44.33Z" transform="translate(-18.78 49.17)"/><path class="cls-1" d="M1201.77,601.94l-.21-.2-107-96.17.06-.28,29.78-140.77.27-.09,136.8-44.6.21.2,107,96.17-.06.28-29.77,140.77-.27.09Zm-106.14-96.72L1202,600.81l136-44.33,29.6-139.92L1261.2,321l-136,44.33Z" transform="translate(-18.78 49.17)"/><path class="cls-1" d="M1367.77,416.94l-.21-.2-107-96.17.06-.28,29.78-140.77.27-.09,136.8-44.6.21.2,107,96.17-.06.28-29.77,140.77-.27.09Zm-106.14-96.72L1368,415.81l136-44.33,29.6-139.92L1427.2,136l-136,44.33Z" transform="translate(-18.78 49.17)"/><path class="cls-1" d="M1533.77,232.94l-.21-.2-107-96.17.06-.28L1456.37-4.48l.27-.09,136.8-44.6.21.2,107,96.17-.06.28-29.77,140.77-.27.09Zm-106.14-96.72L1534,231.81l136-44.33,29.6-139.92L1593.2-48l-136,44.33Z" transform="translate(-18.78 49.17)"/><path class="cls-1" d="M1776.77,283.94l-.21-.2-107-96.17.06-.28L1699.4,46.52l.27-.09,136.8-44.6.21.2,107,96.17-.06.28-29.77,140.77-.27.09Zm-106.14-96.72L1777,282.81l136-44.33,29.6-139.92L1836.2,3l-136,44.33Z" transform="translate(-18.78 49.17)"/><path class="cls-1" d="M1610.77,468.94l-.21-.2-107-96.17.06-.28,29.78-140.77.27-.09,136.8-44.6.21.2,107,96.17-.06.28-29.77,140.77-.27.09Zm-106.14-96.72L1611,467.81l136-44.33,29.6-139.92L1670.2,188l-136,44.33Z" transform="translate(-18.78 49.17)"/><path class="cls-1" d="M1930.77,755.94l-.21-.2-107-96.17.06-.28,29.78-140.77.27-.09,136.8-44.6.21.2,107,96.17-.06.28-29.77,140.77-.27.09Zm-106.14-96.72L1931,754.81l136-44.33,29.6-139.92L1990.2,475l-136,44.33Z" transform="translate(-18.78 49.17)"/><path class="cls-1" d="M1124.77,365.94l-.21-.2-107-96.17.06-.28,29.78-140.77.27-.09,136.8-44.6.21.2,107,96.17-.06.28-29.77,140.77-.27.09Zm-106.14-96.72L1125,364.81l136-44.33,29.6-139.92L1184.2,85l-136,44.33Z" transform="translate(-18.78 49.17)"/><path class="cls-1" d="M881.77,313.94l-.21-.2-107-96.17.06-.28L804.37,76.52l.27-.09,136.8-44.6.21.2,107,96.17-.06.28-29.77,140.77-.27.09ZM775.63,217.22,882,312.81l136-44.33,29.6-139.92L941.2,33l-136,44.33Z" transform="translate(-18.78 49.17)"/><path class="cls-1" d="M868.58,972.19l-.21-.19-107-96.17.06-.28,29.78-140.77.27-.09,136.8-44.6.21.19,107,96.17v.28L1005.65,927.5l-.27.09ZM762.44,875.47l106.38,95.59,136-44.33,29.6-139.92L928,691.22,792,735.55Z" transform="translate(-18.78 49.17)"/><path class="cls-1" d="M714.72,499.3l-.22-.19-107-96.17.06-.28,29.77-140.77.28-.09L774.4,217.2l.22.19,107,96.17-.06.28L851.79,454.61l-.28.09ZM608.58,402.58,715,498.17l136-44.33,29.59-139.92L774.15,218.33l-136,44.33Z" transform="translate(-18.78 49.17)"/><path class="cls-1" d="M3797.28,1397.12l-.22-.19-138,45-107.82-96.88,29.94-141.56,137.69-44.89.27-.09,30.12-142.39.06-.28L3641,918.56l-.22-.19-138.37,45.11-.28.09-30,142-137.69,44.89-.28.09L3304.05,1293v.11l-136.58,44.53v-.17l.06-.28-108.26-97.28-.21-.19-138.37,45.11-.28.09-30.11,142.39-.06.28,107.64,96.73h-.15l-30.11,142.39-.06.28.08.07-136.3,44.44-107.47-96.58-.22-.19-138.37,45.11-.27.09-30,142-137.69,44.89-.27.09v.14l-108.11-97.15-.22-.19-138.37,45.11-.27.09L2140,1937.3l-.06.28,108.25,97.28.22.19,138.31-45,.28-.09v-.14l107.88,96.94-30,141.65-.06.28L2573,2325.92l.22.19L2711.68,2281l.28-.09,30.11-142.39.06-.28-.32-.29,136-44.35h0l108,97.06-30.07,142.13,0,.28L3064,2430.36l.21.19,138.38-45.11.27-.09L3233,2243l136.45-44.48,108,97.1.22.19,138.33-45.1.27-.09,30.08-142.2,138.19-45.05.27-.09L3815,1920.89l.06-.28-107.76-96.84,30-141.67,137.85-44.94.27-.09,30.12-142.39.06-.28Zm-259.44,613.42-137.13,44.7-107.81-96.87,29.91-141.45,137.35-44.78,107.64,96.73Zm-305.43,231.6L3125,2145.63l30-141.82,137.19-44.73,107.41,96.52-.23.08-30,141.8Zm90.49-426.3L3215.13,1719,3245,1578l137.65-44.88,107.53,96.63-29.89,141.32Zm-520.94,39,.09-.45,107,96.14h0l-.62.21L2801.72,1855Zm490,103-137.46,44.82-107.41-96.53,30-141.65v-.15l137-44.66,107.77,96.84Zm120.2-567.39-29.91,141.41-137.43,44.81v-.09l-107.44-96.53,29.91-141.37,137.39-44.79ZM3045.8,1906l-135.68,44.24h0l-107.84-96.91,29.78-140.81v-.18l136.31-44.44,107.35,96.46ZM2831,1712.67l-29.64,140.17h-.14l29.65-140.17ZM2801.13,1854v.14l-.14,0V1854Zm-1.27.54-136,44.35v-.15l136-44.34ZM2664,1899.86l136.62-44.54,107.24,96.36-29.77,140.76L2741.55,2137l-107.31-96.42Zm964.35-315.69L3491,1628.94l-107.5-96.61,30-141.67,137.2-44.74,107.61,96.7ZM3503,964.34l137.55-44.84,107.61,96.7-29.94,141.54-137.32,44.77-107.79-96.85Zm-168,187,137.33-44.77,107.78,96.85-29.89,141.32-137.39,44.79-107.52-96.62-.21-.19Zm-413.74,134.31,137.55-44.84,107.61,96.7-29.94,141.54L2999,1523.89l-107.61-96.69Zm77.32,239.45,137.55-44.85.18.16v.18l107.43,96.54-29.9,141.36-137.55,44.85-107.61-96.7Zm-412.72,135.61,137.54-44.84,106.83,96-.23.07-29.89,141.3-136.84,44.61-.27.09-.05.23L2556,1802Zm-199.78,328.4L2248.55,2034l-107.61-96.69,29.94-141.55,137.54-44.84,107.61,96.7Zm31.78-141.4,137.33-44.77,107.47,96.58-29.78,140.81-.06.28.3.28h0l-137.74,44.91-107.46-96.56Zm293.22,432.4L2573.55,2325l-107.61-96.69L2495.83,2087l137.75-44.9L2741,2138.57ZM2879,2093.21l.73-.24.28-.09,29.88-141.3,136.6-44.58,107.25,96.37-30,141.82L2986.55,2190l-107.61-96.69Zm323,291.37-137.55,44.84-107.61-96.69,29.94-141.55,137.46-44.81,107.65,96.73h0Zm413.47-134.73-137.54,44.84-107.42-96.52.24-.08,30-141.8,137.06-44.68,107.61,96.69ZM3784,2062.51l-137.54,44.84-107.61-96.69,29.87-141.22,137.86-45L3813.93,1921Zm-77.62-239.31-137.87,45-107.36-96.47,29.94-141.55,137.55-44.84,107.61,96.7Zm168.12-186.9L3737,1681.14l-107.61-96.69,29.93-141.55,137.55-44.84,107.61,96.7Z" transform="translate(-18.78 49.17)"/></g><g id="fp"><g class="cls-2"><path class="cls-3" d="M2640.92,588.87a.86.86,0,0,1,.72-.74c.21,0,83.92-.07,124.93-.07h4.28a21.51,21.51,0,0,1,3,.21c1.1.17,2.21.19,3.31.34a85.63,85.63,0,0,1,10.39,2.07c2.61.68,5.17,1.51,7.71,2.41a103,103,0,0,1,12,5.24c3.1,1.58,6.12,3.32,9.08,5.17a130.24,130.24,0,0,1,10.9,7.6c2.17,1.68,4.33,3.37,6.39,5.19,1.18,1,2.4,2.06,3.59,3.1.36.31.7.65,1.05,1,1.16,1.08,2.26,2.21,3.47,3.24a21.59,21.59,0,0,1,2.54,2.61c.87,1,1.79,2.08,2.69,3.11,2.58,2.94,4.92,6.06,7.21,9.23,2.44,3.38,4.66,6.91,6.77,10.51.88,1.5,1.73,3,2.53,4.57,1.65,3.18,3.27,6.39,4.67,9.7.76,1.79,1.5,3.6,2.2,5.42a127.92,127.92,0,0,1,5.32,17.57q1.22,5.32,2,10.73c.19,1.31.24,2.63.45,3.93.27,1.67.27,3.36.49,5,.13,1,.07,2.11.12,3.16s.1,1.9.16,2.84a40.22,40.22,0,0,1,0,4.91c-.06.89-.13,1.79-.16,2.68-.06,1.53-.06,3.06-.27,4.58s-.25,3-.43,4.41c-.2,1.62-.44,3.24-.7,4.86a124.44,124.44,0,0,1-2.69,12.37c-.95,3.52-2.08,7-3.34,10.39-.82,2.23-1.71,4.44-2.65,6.62-1.47,3.39-3.06,6.72-4.83,10-1.24,2.27-2.53,4.5-3.87,6.72-1.77,2.94-3.68,5.79-5.68,8.57s-4.06,5.4-6.2,8c-.9,1.1-1.87,2.15-2.79,3.24-2.48,3-5.28,5.6-8,8.32-1.76,1.75-3.65,3.36-5.53,5-2.53,2.16-5.16,4.19-7.84,6.17a110.13,110.13,0,0,1-10.89,7c-1.61.91-3.22,1.81-4.85,2.68-2,1.1-4.18,2-6.3,3a101,101,0,0,1-10.36,3.91,83.76,83.76,0,0,1-12.31,2.92c-1.82.29-3.66.46-5.49.67a55.73,55.73,0,0,1-6.33.25h-64.6c-.82,0-1.1-.34-1.14-1.2,0-.42.34-188.38.37-188.9a2.83,2.83,0,0,1,.19-.76.7.7,0,0,1,.46-.41,1.55,1.55,0,0,1,.31-.07c.21,0,9.08-.05,13.3,0,1.36,0,1.56.23,1.6,1.55,0,.37-.33,172.32-.29,172.9a.75.75,0,0,0,.63.62c.21,0,33.2.06,48.77.07a59,59,0,0,0,13.94-1.72,78.37,78.37,0,0,0,13.72-4.82,108.26,108.26,0,0,0,12.93-7,95.22,95.22,0,0,0,8.57-6q3.41-2.6,6.64-5.39a114.54,114.54,0,0,0,8.64-8.14c1.37-1.46,2.65-3,4-4.51,1.63-1.87,3.15-3.83,4.64-5.81a122.86,122.86,0,0,0,7.1-10.68,113.39,113.39,0,0,0,11.63-27.13c.74-2.7,1.4-5.42,1.93-8.17.51-2.58.94-5.19,1.2-7.81.16-1.53.34-3,.5-4.57,0-.52.07-1.05.08-1.58V709c0-.69-.1-1.37-.16-2a4.5,4.5,0,0,1-.07-.63,43.59,43.59,0,0,0-.42-4.57c-.16-1.63-.43-3.24-.69-4.86a116.3,116.3,0,0,0-2.76-12.51c-.85-3-1.76-6.09-2.9-9-.76-2-1.49-4-2.32-5.9a111.62,111.62,0,0,0-5.14-10.69c-1-1.8-2-3.61-3.07-5.36a115,115,0,0,0-8-11.57c-1.94-2.44-3.94-4.82-6.09-7.08-1-1-1.9-2.13-2.93-3.1-1.84-1.74-3.7-3.47-5.61-5.13a107.48,107.48,0,0,0-13.19-9.56,81.18,81.18,0,0,0-13.55-6.84,79.44,79.44,0,0,0-16.16-4.43c-1.24-.2-2.51-.27-3.76-.47a43.27,43.27,0,0,0-5.21-.34,5.88,5.88,0,0,1-1-.06c-.89,0-1.79-.13-2.69-.14-7.6,0-108.24-.33-108.77-.29a.8.8,0,0,0-.64.62c0,.21-.07,246.33,0,247a.82.82,0,0,0,.71.74h111.48a25.66,25.66,0,0,0,4.11-.18,5.57,5.57,0,0,1,1,0,41.56,41.56,0,0,0,6-.44c2.09-.26,4.18-.61,6.25-1a100,100,0,0,0,15.38-4.31,113.38,113.38,0,0,0,11.06-4.72q6.12-3,11.92-6.57a141.13,141.13,0,0,0,13.21-9.28q3.42-2.69,6.68-5.57c1.78-1.58,3.57-3.14,5.22-4.85,1.33-1.36,2.71-2.67,4-4,1.44-1.54,2.83-3.14,4.24-4.71.45-.51.92-1,1.36-1.54a150.41,150.41,0,0,0,10.41-14c1.76-2.7,3.43-5.44,5-8.26,1.23-2.21,2.37-4.48,3.5-6.74s2-4.4,3-6.63q2.2-5.17,4-10.52c.79-2.41,1.52-4.83,2.16-7.28.8-3.07,1.56-6.14,2.15-9.25.64-3.37,1.22-6.75,1.58-10.17.16-1.52.36-3,.52-4.55.05-.42.05-.85.08-1.27a8.86,8.86,0,0,1,.06-1.26,52,52,0,0,0,.29-6.48,16.18,16.18,0,0,1,.15-2.69,13.48,13.48,0,0,0,0-2.84c-.07-.79-.11-1.58-.14-2.37V708a19.55,19.55,0,0,0-.22-3.15,3.36,3.36,0,0,1-.06-.63c-.28-4.16-.87-8.29-1.55-12.4A147.9,147.9,0,0,0,2887.4,677q-1.4-5-3.23-9.94c-.82-2.22-1.67-4.44-2.57-6.64-.5-1.22-1-2.43-1.57-3.63-1.46-3.22-2.94-6.44-4.62-9.55q-3-5.57-6.4-10.93c-2.1-3.29-4.34-6.49-6.68-9.62-1.79-2.41-3.66-4.77-5.62-7-1.24-1.44-2.57-2.81-3.8-4.25s-2.43-2.64-3.69-3.92c-2.48-2.52-5.1-4.89-7.76-7.23-2.26-2-4.62-3.85-7-5.68a91.41,91.41,0,0,0-8.38-5.69c-3.29-2-6.64-3.92-10.1-5.61a117,117,0,0,0-11.06-4.72,104.12,104.12,0,0,0-11.21-3.4,78.78,78.78,0,0,0-8.07-1.58c-2.4-.33-11.5-1.07-13.4-1.08-12.24,0-130.14-.61-130.61-.65a.81.81,0,0,1-.67-.6,4.22,4.22,0,0,1-.1-.62c0-.37,0-13.72.08-14.24a.81.81,0,0,1,.63-.64c.21,0,86.45-.08,128.57-.08h3.64c.79,0,1.58.09,2.37.15.58,0,1.16.08,1.74.1a30.52,30.52,0,0,1,3.31.25c1.84.19,3.67.43,5.49.7,1,.15,2,.28,3,.46a115,115,0,0,1,12.17,2.88c2.62.8,5.22,1.7,7.81,2.59,2.9,1,5.71,2.22,8.5,3.48,2.07.93,4.1,2,6.12,3,1.65.83,3.28,1.71,4.89,2.61,2.81,1.57,5.57,3.24,8.25,5s5.14,3.51,7.65,5.36c2.21,1.63,4.34,3.37,6.48,5.08,1.15.93,2.21,2,3.35,2.91,1.86,1.56,3.56,3.29,5.33,5,1.08,1,2.2,2,3.2,3.06.79.85,1.56,1.73,2.36,2.56,1.65,1.71,3.18,3.53,4.74,5.32,3,3.46,5.8,7.12,8.47,10.85,1.91,2.66,3.67,5.42,5.46,8.16,1.42,2.16,2.7,4.41,4,6.68,1.83,3.32,3.66,6.65,5.17,10.15.51,1.16,1,2.3,1.57,3.46a152,152,0,0,1,6.89,18.87,150.41,150.41,0,0,1,3.73,15.38c.52,2.75,1,5.51,1.39,8.27.2,1.25.3,2.52.44,3.77l.51,4.72a2.25,2.25,0,0,0,.06.63c.11,3.06.47,6.11.41,9.17a23,23,0,0,0,.15,3.32,16.3,16.3,0,0,1,0,2.21c0,.84-.11,1.69-.13,2.53,0,1.32,0,2.64-.07,4,0,.84-.11,1.68-.17,2.52,0,.26-.07.53-.07.79,0,1.75-.24,3.47-.4,5.21-.08.94-.19,1.88-.31,2.83-.53,4.13-1.16,8.25-2,12.34q-1.32,6.52-3.17,12.91c-.9,3.09-1.87,6.16-3,9.19-1,2.78-2.1,5.53-3.22,8.26-.48,1.17-1,2.33-1.52,3.48-1.2,2.64-2.39,5.29-3.76,7.85-2.24,4.19-4.59,8.32-7.15,12.32q-3.58,5.61-7.61,10.91c-2.11,2.76-4.33,5.45-6.61,8.09-1.21,1.39-2.51,2.71-3.73,4.09-2.71,3-5.62,5.87-8.53,8.71-1.66,1.62-3.4,3.15-5.17,4.66s-3.7,3.14-5.62,4.63c-1.59,1.22-3.17,2.46-4.79,3.63-1.85,1.32-3.72,2.6-5.61,3.86-2.82,1.86-5.73,3.58-8.67,5.24-2.67,1.51-5.4,2.88-8.16,4.21a108,108,0,0,1-10.35,4.37q-2.61,1-5.23,1.84a114.09,114.09,0,0,1-12.86,3.36c-2.32.48-4.67.86-7,1.18-1.36.18-2.73.29-4.09.43h-.48a29.65,29.65,0,0,1-4.89.28h-3.8c-42.28,0-128.21,0-128.89-.07a.82.82,0,0,1-.73-.72,7,7,0,0,1-.08-.79C2640.84,867.29,2640.89,589.13,2640.92,588.87Z" transform="translate(-18.78 49.17)"/><path class="cls-3" d="M2670.64,620.61a1,1,0,0,1,1.05-1.12c.42,0,88.61-.38,93.42-.38h3a47.51,47.51,0,0,1,6.94.55,71.5,71.5,0,0,1,16.94,4.52,79.61,79.61,0,0,1,11.33,5.62,89.3,89.3,0,0,1,10.84,7.69,52.14,52.14,0,0,1,4,3.58c1.41,1.43,2.85,2.83,4.25,4.26a71.89,71.89,0,0,1,5.48,6.35c1.69,2.16,3.34,4.35,4.83,6.66s2.8,4.35,4,6.64c.56,1.07,1.18,2.12,1.72,3.21,1.67,3.35,3.13,6.8,4.47,10.3a107.71,107.71,0,0,1,4.54,15.32c.56,2.58,1,5.18,1.37,7.79a38.86,38.86,0,0,1,.46,4.57c0,.26,0,.53,0,.79a28.09,28.09,0,0,1,.26,4.58v5.7a28.16,28.16,0,0,1-.22,3.31c-.14,1.2-.23,2.41-.37,3.62-.28,2.31-.65,4.6-1.13,6.87a96.62,96.62,0,0,1-3,10.84,91,91,0,0,1-3.41,8.69c-.69,1.54-1.41,3.07-2.14,4.59a89.15,89.15,0,0,1-4.89,8.69,116.52,116.52,0,0,1-8.4,11.7,121.35,121.35,0,0,1-9.64,10.26c-1.43,1.4-3,2.7-4.51,4-1.39,1.13-2.78,2.28-4.21,3.36-1.93,1.46-3.94,2.84-6,4.12-2.87,1.78-5.79,3.47-8.83,5a77.73,77.73,0,0,1-12.05,4.79,53.1,53.1,0,0,1-6.94,1.55c-1.57.24-3.14.41-4.71.58a14.08,14.08,0,0,1-1.59,0h-30.56a14.22,14.22,0,0,1-1.73-.07.84.84,0,0,1-.74-.72V794.54a7,7,0,0,1,.07-.79.86.86,0,0,1,.75-.7h29.14a17.7,17.7,0,0,0,3-.16,5.21,5.21,0,0,1,.79,0,36.19,36.19,0,0,0,9-1.54,54.55,54.55,0,0,0,9-3.48q2.85-1.39,5.54-3.06a76.08,76.08,0,0,0,6.65-4.58,65.17,65.17,0,0,0,6.13-5.24c.41-.4.85-.78,1.29-1.17a33,33,0,0,0,3.12-3.14c.31-.36.62-.72,1-1.06,1.3-1.32,2.44-2.77,3.64-4.18a83.83,83.83,0,0,0,6.64-9.25c1-1.51,1.87-3.06,2.73-4.63a88.42,88.42,0,0,0,7.7-18.7,78.1,78.1,0,0,0,2.12-10.39,68,68,0,0,0,.55-11.05c0-.53-.07-1-.12-1.58,0-.31-.1-.63-.1-.94a42,42,0,0,0-.42-5c-.18-1.58-.44-3.14-.73-4.7a83.24,83.24,0,0,0-3.34-12.53c-.71-2-1.55-4-2.44-6-.58-1.3-1.15-2.61-1.82-3.87a82.78,82.78,0,0,0-7.87-12.41,79.11,79.11,0,0,0-6.65-7.64c-2.25-2.23-4.54-4.41-7-6.41-1.9-1.53-3.82-3-5.84-4.35-2.46-1.64-5-3.14-7.61-4.53a60.36,60.36,0,0,0-6.79-3,47.36,47.36,0,0,0-9.43-2.65,32.66,32.66,0,0,0-5.5-.56c-4.39,0-78.9.37-79.48.41a.77.77,0,0,0-.73.71c0,.26,0,.53-.06.79V839.05a3.48,3.48,0,0,1-.09.79.79.79,0,0,1-.66.6h-14.87a.79.79,0,0,1-.66-.6,3,3,0,0,1-.13-.78C2671,838.33,2670.61,621.14,2670.64,620.61Z" transform="translate(-18.78 49.17)"/><polygon class="cls-3" points="2573.92 1021.17 2557.98 1021.17 2557.98 1210.62 2514.43 1285.28 2528.2 1293.31 2573.92 1214.93 2573.92 1021.17"/><polygon class="cls-3" points="2662.55 1229.05 2604.52 1202.72 2604.52 1185.77 2667.92 1214.37 2992.08 1215.65 2992.14 1199.71 2746.72 1198.74 2746.72 1029.46 2892.74 1029.46 2892.74 1013.52 2746.72 1013.52 2746.72 998.85 2892.33 998.85 2892.33 982.91 2746.72 982.91 2746.72 910.86 2730.78 910.86 2730.78 1198.68 2716.11 1198.62 2716.11 910.86 2700.17 910.86 2700.17 1198.55 2671.38 1198.44 2604.52 1168.29 2604.52 1021.81 2588.58 1021.81 2588.58 1217.58 2539.3 1301.85 2553.06 1309.9 2604.52 1221.9 2604.52 1220.22 2659.07 1244.97 2992.81 1246.26 2992.88 1230.31 2662.55 1229.05"/></g><path class="cls-3" d="M2628.92,579.87a.86.86,0,0,1,.72-.74c.21,0,83.92-.07,124.93-.07h4.28a21.51,21.51,0,0,1,3,.21c1.1.17,2.21.19,3.31.34a85.63,85.63,0,0,1,10.39,2.07c2.61.68,5.17,1.51,7.71,2.41a103,103,0,0,1,12,5.24c3.1,1.58,6.12,3.32,9.08,5.17a130.24,130.24,0,0,1,10.9,7.6c2.17,1.68,4.33,3.37,6.39,5.19,1.18,1,2.4,2.06,3.59,3.1.36.31.7.65,1.05,1,1.16,1.08,2.26,2.21,3.47,3.24a21.59,21.59,0,0,1,2.54,2.61c.87,1,1.79,2.08,2.69,3.11,2.58,2.94,4.92,6.06,7.21,9.23,2.44,3.38,4.66,6.91,6.77,10.51.88,1.5,1.73,3,2.53,4.57,1.65,3.18,3.27,6.39,4.67,9.7.76,1.79,1.5,3.6,2.2,5.42a127.92,127.92,0,0,1,5.32,17.57q1.22,5.32,2,10.73c.19,1.31.24,2.63.45,3.93.27,1.67.27,3.36.49,5,.13,1,.07,2.11.12,3.16s.1,1.9.16,2.84a40.22,40.22,0,0,1,0,4.91c-.06.89-.13,1.79-.16,2.68-.06,1.53-.06,3.06-.27,4.58s-.25,3-.43,4.41c-.2,1.62-.44,3.24-.7,4.86a124.44,124.44,0,0,1-2.69,12.37c-.95,3.52-2.08,7-3.34,10.39-.82,2.23-1.71,4.44-2.65,6.62-1.47,3.39-3.06,6.72-4.83,10-1.24,2.27-2.53,4.5-3.87,6.72-1.77,2.94-3.68,5.79-5.68,8.57s-4.06,5.4-6.2,8c-.9,1.1-1.87,2.15-2.79,3.24-2.48,3-5.28,5.6-8,8.32-1.76,1.75-3.65,3.36-5.53,5-2.53,2.16-5.16,4.19-7.84,6.17a110.13,110.13,0,0,1-10.89,7c-1.61.91-3.22,1.81-4.85,2.68-2,1.1-4.18,2-6.3,3a101,101,0,0,1-10.36,3.91,83.76,83.76,0,0,1-12.31,2.92c-1.82.29-3.66.46-5.49.67a55.73,55.73,0,0,1-6.33.25h-64.6c-.82,0-1.1-.34-1.14-1.2,0-.42.34-188.38.37-188.9a2.83,2.83,0,0,1,.19-.76.7.7,0,0,1,.46-.41,1.55,1.55,0,0,1,.31-.07c.21,0,9.08-.05,13.3,0,1.36,0,1.56.23,1.6,1.55,0,.37-.33,172.32-.29,172.9a.75.75,0,0,0,.63.62c.21,0,33.2.06,48.77.07a59,59,0,0,0,13.94-1.72,78.37,78.37,0,0,0,13.72-4.82,108.26,108.26,0,0,0,12.93-7,95.22,95.22,0,0,0,8.57-6q3.41-2.6,6.64-5.39a114.54,114.54,0,0,0,8.64-8.14c1.37-1.46,2.65-3,4-4.51,1.63-1.87,3.15-3.83,4.64-5.81a122.86,122.86,0,0,0,7.1-10.68,113.39,113.39,0,0,0,11.63-27.13c.74-2.7,1.4-5.42,1.93-8.17.51-2.58.94-5.19,1.2-7.81.16-1.53.34-3,.5-4.57,0-.52.07-1.05.08-1.58V700c0-.69-.1-1.37-.16-2a4.5,4.5,0,0,1-.07-.63,43.59,43.59,0,0,0-.42-4.57c-.16-1.63-.43-3.24-.69-4.86a116.3,116.3,0,0,0-2.76-12.51c-.85-3-1.76-6.09-2.9-9-.76-2-1.49-4-2.32-5.9a111.62,111.62,0,0,0-5.14-10.69c-1-1.8-2-3.61-3.07-5.36a115,115,0,0,0-8-11.57c-1.94-2.44-3.94-4.82-6.09-7.08-1-1-1.9-2.13-2.93-3.1-1.84-1.74-3.7-3.47-5.61-5.13a107.48,107.48,0,0,0-13.19-9.56,81.18,81.18,0,0,0-13.55-6.84,79.44,79.44,0,0,0-16.16-4.43c-1.24-.2-2.51-.27-3.76-.47a43.27,43.27,0,0,0-5.21-.34,5.88,5.88,0,0,1-1-.06c-.89,0-1.79-.13-2.69-.14-7.6,0-108.24-.33-108.77-.29a.8.8,0,0,0-.64.62c0,.21-.07,246.33,0,247a.82.82,0,0,0,.71.74h111.48a25.66,25.66,0,0,0,4.11-.18,5.57,5.57,0,0,1,1,0,41.56,41.56,0,0,0,6-.44c2.09-.26,4.18-.61,6.25-1a100,100,0,0,0,15.38-4.31,113.38,113.38,0,0,0,11.06-4.72q6.12-3,11.92-6.57a141.13,141.13,0,0,0,13.21-9.28q3.42-2.69,6.68-5.57c1.78-1.58,3.57-3.14,5.22-4.85,1.33-1.36,2.71-2.67,4-4,1.44-1.54,2.83-3.14,4.24-4.71.45-.51.92-1,1.36-1.54a150.41,150.41,0,0,0,10.41-14c1.76-2.7,3.43-5.44,5-8.26,1.23-2.21,2.37-4.48,3.5-6.74s2-4.4,3-6.63q2.2-5.17,4-10.52c.79-2.41,1.52-4.83,2.16-7.28.8-3.07,1.56-6.14,2.15-9.25.64-3.37,1.22-6.75,1.58-10.17.16-1.52.36-3,.52-4.55.05-.42.05-.85.08-1.27a8.86,8.86,0,0,1,.06-1.26,52,52,0,0,0,.29-6.48,16.18,16.18,0,0,1,.15-2.69,13.48,13.48,0,0,0,0-2.84c-.07-.79-.11-1.58-.14-2.37V699a19.55,19.55,0,0,0-.22-3.15,3.36,3.36,0,0,1-.06-.63c-.28-4.16-.87-8.29-1.55-12.4A147.9,147.9,0,0,0,2875.4,668q-1.4-5-3.23-9.94c-.82-2.22-1.67-4.44-2.57-6.64-.5-1.22-1-2.43-1.57-3.63-1.46-3.22-2.94-6.44-4.62-9.55q-3-5.57-6.4-10.93c-2.1-3.29-4.34-6.49-6.68-9.62-1.79-2.41-3.66-4.77-5.62-7-1.24-1.44-2.57-2.81-3.8-4.25s-2.43-2.64-3.69-3.92c-2.48-2.52-5.1-4.89-7.76-7.23-2.26-2-4.62-3.85-7-5.68a91.41,91.41,0,0,0-8.38-5.69c-3.29-2-6.64-3.92-10.1-5.61a117,117,0,0,0-11.06-4.72,104.12,104.12,0,0,0-11.21-3.4,78.78,78.78,0,0,0-8.07-1.58c-2.4-.33-11.5-1.07-13.4-1.08-12.24,0-130.14-.61-130.61-.65a.81.81,0,0,1-.67-.6,4.22,4.22,0,0,1-.1-.62c0-.37,0-13.72.08-14.24a.81.81,0,0,1,.63-.64c.21,0,86.45-.08,128.57-.08h3.64c.79,0,1.58.09,2.37.15.58,0,1.16.08,1.74.1a30.52,30.52,0,0,1,3.31.25c1.84.19,3.67.43,5.49.7,1,.15,2,.28,3,.46a115,115,0,0,1,12.17,2.88c2.62.8,5.22,1.7,7.81,2.59,2.9,1,5.71,2.22,8.5,3.48,2.07.93,4.1,2,6.12,3,1.65.83,3.28,1.71,4.89,2.61,2.81,1.57,5.57,3.24,8.25,5s5.14,3.51,7.65,5.36c2.21,1.63,4.34,3.37,6.48,5.08,1.15.93,2.21,2,3.35,2.91,1.86,1.56,3.56,3.29,5.33,5,1.08,1,2.2,2,3.2,3.06.79.85,1.56,1.73,2.36,2.56,1.65,1.71,3.18,3.53,4.74,5.32,3,3.46,5.8,7.12,8.47,10.85,1.91,2.66,3.67,5.42,5.46,8.16,1.42,2.16,2.7,4.41,4,6.68,1.83,3.32,3.66,6.65,5.17,10.15.51,1.16,1,2.3,1.57,3.46a152,152,0,0,1,6.89,18.87,150.41,150.41,0,0,1,3.73,15.38c.52,2.75,1,5.51,1.39,8.27.2,1.25.3,2.52.44,3.77l.51,4.72a2.25,2.25,0,0,0,.06.63c.11,3.06.47,6.11.41,9.17a23,23,0,0,0,.15,3.32,16.3,16.3,0,0,1,0,2.21c0,.84-.11,1.69-.13,2.53,0,1.32,0,2.64-.07,4,0,.84-.11,1.68-.17,2.52,0,.26-.07.53-.07.79,0,1.75-.24,3.47-.4,5.21-.08.94-.19,1.88-.31,2.83-.53,4.13-1.16,8.25-2,12.34q-1.32,6.52-3.17,12.91c-.9,3.09-1.87,6.16-3,9.19-1,2.78-2.1,5.53-3.22,8.26-.48,1.17-1,2.33-1.52,3.48-1.2,2.64-2.39,5.29-3.76,7.85-2.24,4.19-4.59,8.32-7.15,12.32q-3.58,5.61-7.61,10.91c-2.11,2.76-4.33,5.45-6.61,8.09-1.21,1.39-2.51,2.71-3.73,4.09-2.71,3-5.62,5.87-8.53,8.71-1.66,1.62-3.4,3.15-5.17,4.66s-3.7,3.14-5.62,4.63c-1.59,1.22-3.17,2.46-4.79,3.63-1.85,1.32-3.72,2.6-5.61,3.86-2.82,1.86-5.73,3.58-8.67,5.24-2.67,1.51-5.4,2.88-8.16,4.21a108,108,0,0,1-10.35,4.37q-2.61,1-5.23,1.84a114.09,114.09,0,0,1-12.86,3.36c-2.32.48-4.67.86-7,1.18-1.36.18-2.73.29-4.09.43h-.48a29.65,29.65,0,0,1-4.89.28h-3.8c-42.28,0-128.21,0-128.89-.07a.82.82,0,0,1-.73-.72,7,7,0,0,1-.08-.79C2628.84,858.29,2628.89,580.13,2628.92,579.87Z" transform="translate(-18.78 49.17)"/><path class="cls-3" d="M2658.64,611.61a1,1,0,0,1,1.05-1.12c.42,0,88.61-.38,93.42-.38h3a47.51,47.51,0,0,1,6.94.55,71.5,71.5,0,0,1,16.94,4.52,79.61,79.61,0,0,1,11.33,5.62,89.3,89.3,0,0,1,10.84,7.69,52.14,52.14,0,0,1,4,3.58c1.41,1.43,2.85,2.83,4.25,4.26a71.89,71.89,0,0,1,5.48,6.35c1.69,2.16,3.34,4.35,4.83,6.66s2.8,4.35,4,6.64c.56,1.07,1.18,2.12,1.72,3.21,1.67,3.35,3.13,6.8,4.47,10.3a107.71,107.71,0,0,1,4.54,15.32c.56,2.58,1,5.18,1.37,7.79a38.86,38.86,0,0,1,.46,4.57c0,.26,0,.53,0,.79a28.09,28.09,0,0,1,.26,4.58v5.7a28.16,28.16,0,0,1-.22,3.31c-.14,1.2-.23,2.41-.37,3.62-.28,2.31-.65,4.6-1.13,6.87a96.62,96.62,0,0,1-3,10.84,91,91,0,0,1-3.41,8.69c-.69,1.54-1.41,3.07-2.14,4.59a89.15,89.15,0,0,1-4.89,8.69,116.52,116.52,0,0,1-8.4,11.7,121.35,121.35,0,0,1-9.64,10.26c-1.43,1.4-3,2.7-4.51,4-1.39,1.13-2.78,2.28-4.21,3.36-1.93,1.46-3.94,2.84-6,4.12-2.87,1.78-5.79,3.47-8.83,5a77.73,77.73,0,0,1-12.05,4.79,53.1,53.1,0,0,1-6.94,1.55c-1.57.24-3.14.41-4.71.58a14.08,14.08,0,0,1-1.59,0h-30.56a14.22,14.22,0,0,1-1.73-.07.84.84,0,0,1-.74-.72V785.54a7,7,0,0,1,.07-.79.86.86,0,0,1,.75-.7h29.14a17.7,17.7,0,0,0,3-.16,5.21,5.21,0,0,1,.79,0,36.19,36.19,0,0,0,9-1.54,54.55,54.55,0,0,0,9-3.48q2.85-1.39,5.54-3.06a76.08,76.08,0,0,0,6.65-4.58,65.17,65.17,0,0,0,6.13-5.24c.41-.4.85-.78,1.29-1.17a33,33,0,0,0,3.12-3.14c.31-.36.62-.72,1-1.06,1.3-1.32,2.44-2.77,3.64-4.18a83.83,83.83,0,0,0,6.64-9.25c1-1.51,1.87-3.06,2.73-4.63a88.42,88.42,0,0,0,7.7-18.7,78.1,78.1,0,0,0,2.12-10.39,68,68,0,0,0,.55-11.05c0-.53-.07-1-.12-1.58,0-.31-.1-.63-.1-.94a42,42,0,0,0-.42-5c-.18-1.58-.44-3.14-.73-4.7a83.24,83.24,0,0,0-3.34-12.53c-.71-2-1.55-4-2.44-6-.58-1.3-1.15-2.61-1.82-3.87a82.78,82.78,0,0,0-7.87-12.41,79.11,79.11,0,0,0-6.65-7.64c-2.25-2.23-4.54-4.41-7-6.41-1.9-1.53-3.82-3-5.84-4.35-2.46-1.64-5-3.14-7.61-4.53a60.36,60.36,0,0,0-6.79-3,47.36,47.36,0,0,0-9.43-2.65,32.66,32.66,0,0,0-5.5-.56c-4.39,0-78.9.37-79.48.41a.77.77,0,0,0-.73.71c0,.26,0,.53-.06.79V830.05a3.48,3.48,0,0,1-.09.79.79.79,0,0,1-.66.6h-14.87a.79.79,0,0,1-.66-.6,3,3,0,0,1-.13-.78C2659,829.33,2658.61,612.14,2658.64,611.61Z" transform="translate(-18.78 49.17)"/><polygon class="cls-3" points="2561.92 1012.17 2545.98 1012.17 2545.98 1201.62 2502.43 1276.28 2516.2 1284.31 2561.92 1205.93 2561.92 1012.17"/><polygon class="cls-3" points="2650.55 1220.05 2592.52 1193.72 2592.52 1176.77 2655.92 1205.37 2980.08 1206.65 2980.14 1190.71 2734.72 1189.74 2734.72 1020.46 2880.74 1020.46 2880.74 1004.52 2734.72 1004.52 2734.72 989.85 2880.33 989.85 2880.33 973.91 2734.72 973.91 2734.72 901.86 2718.78 901.86 2718.78 1189.68 2704.11 1189.62 2704.11 901.86 2688.17 901.86 2688.17 1189.55 2659.38 1189.44 2592.52 1159.29 2592.52 1012.81 2576.58 1012.81 2576.58 1208.58 2527.3 1292.85 2541.06 1300.9 2592.52 1212.9 2592.52 1211.22 2647.07 1235.97 2980.81 1237.26 2980.88 1221.31 2650.55 1220.05"/><g class="cls-2"><polygon class="cls-3" points="3495.77 926.39 3495.77 855.75 3479.83 855.75 3479.83 926.39 3465.16 926.39 3465.16 855.75 3449.22 855.75 3449.22 926.39 3434.55 926.39 3434.55 855.75 3418.61 855.75 3418.61 926.39 3278.33 926.39 3278.33 942.33 3632.86 942.33 3632.86 926.39 3495.77 926.39"/><polygon class="cls-3" points="3278.33 971.02 3398.21 971.02 3398.21 1294.37 3357.21 1412.01 3372.26 1417.26 3414.15 1297.06 3414.15 971.02 3428.81 971.02 3428.81 1300.46 3387.16 1422.91 3402.25 1428.04 3444.76 1303.09 3444.76 971.02 3470.9 971.02 3471.52 1370.96 3437.1 1370.96 3437.1 1386.9 3487.49 1386.9 3486.84 971.02 3501.5 971.02 3501.5 1390.82 3495.31 1401.56 3437.74 1401.56 3437.74 1417.51 3504.52 1417.51 3517.45 1395.09 3517.45 971.02 3632.86 971.02 3632.86 955.08 3278.33 955.08 3278.33 971.02"/></g><g class="cls-2"><path class="cls-3" d="M3105.82,1275.6h-10.55l-9.85-9.22V1113.92h-15.94v159.36l19.48,18.23,128.43.31v-15.94l-67.61-.17V1159.19h59.91v-15.94h-59.91v-14.67h60.57v-15.94h-60.57v-32.11a123,123,0,0,0,36.84-16.94c25.54-17.52,39-42.56,39-72.42,0-24.89-6.14-59.22-35.36-81.35a82.65,82.65,0,0,0-36-15.82l-.5-.07h-90.1v15.94h89A69,69,0,0,1,3181.28,923c18.9,14.63,28.48,37.58,28.48,68.21,0,24.55-10.67,44.4-31.7,59a107.58,107.58,0,0,1-32.4,15l-67.85-.62.56-125.95h67.08c4.87,1.18,34.34,10,34.34,51.33,0,36.29-33.46,45.61-38.8,46.86h-33.2l.58-83.47-15.94-.11-.69,99.52h50.88l.75-.14a75.76,75.76,0,0,0,26-11.48c12-8.36,26.38-24,26.38-51.18,0-29.83-12.88-46.49-23.69-55.22a59.6,59.6,0,0,0-24.28-11.92l-.72-.13H3062.5l-.7,157.68,44,.4Zm15.94,0V1080.86l12.12.11v194.7Z" transform="translate(-18.78 49.17)"/><polygon class="cls-3" points="3037.31 1328.34 3037.31 1163.09 3021.36 1163.09 3021.36 1335.15 3055.47 1367.77 3199.27 1367.77 3199.27 1351.83 3061.86 1351.83 3037.31 1328.34"/></g><polygon class="cls-3" points="3487.77 916.39 3487.77 845.75 3471.83 845.75 3471.83 916.39 3457.16 916.39 3457.16 845.75 3441.22 845.75 3441.22 916.39 3426.55 916.39 3426.55 845.75 3410.61 845.75 3410.61 916.39 3270.33 916.39 3270.33 932.33 3624.86 932.33 3624.86 916.39 3487.77 916.39"/><polygon class="cls-3" points="3270.33 961.02 3390.21 961.02 3390.21 1284.37 3349.21 1402.01 3364.26 1407.26 3406.15 1287.06 3406.15 961.02 3420.81 961.02 3420.81 1290.46 3379.16 1412.91 3394.25 1418.04 3436.76 1293.09 3436.76 961.02 3462.9 961.02 3463.52 1360.96 3429.1 1360.96 3429.1 1376.9 3479.49 1376.9 3478.84 961.02 3493.5 961.02 3493.5 1380.82 3487.31 1391.56 3429.74 1391.56 3429.74 1407.51 3496.52 1407.51 3509.45 1385.09 3509.45 961.02 3624.86 961.02 3624.86 945.08 3270.33 945.08 3270.33 961.02"/><path class="cls-4" d="M3624.14,1332.88c-1.56,0-3.18-.07-4.85-.2-14.73-1.15-25.36-10.3-29.91-25.78a66,66,0,0,1-2.34-21.34l.08-.63,3.27-20.56,57.82,3.83-1.06,15.91-43.3-2.87-.93,5.83a49.6,49.6,0,0,0,1.85,15.66c3.59,11.78,10.72,13.67,15.77,14.06,12.53,1,22.35-3.18,29.19-12.37a44,44,0,0,0,7.07-15.11l2-29.84-62.17-4.64,1.19-15.9,77.94,5.82-3.11,46.69-.09.47a59.11,59.11,0,0,1-9.61,21.45C3656.34,1322.47,3644.38,1332.88,3624.14,1332.88Z" transform="translate(-18.78 49.17)"/><path class="cls-4" d="M3679.7,1234.31l-82.41-3.83-21.95-76.84-.06-.81a134.72,134.72,0,0,1,3.19-37.18c8.06-33.71,27.62-43.4,42.62-45.59,14.57-2.12,27.47,1.16,38.34,9.75,26.51,21,30.8,66.65,31,68.59l.09,1-9.23,54.89-60.05-2.43-15.1-56.07-.06-.71c-.23-2.6-1.87-25.71,9.09-37.22a20.9,20.9,0,0,1,16.37-6.5c10.43.4,18.81,9.12,24.88,25.9a131.29,131.29,0,0,1,5.64,21.63l.21,1.28-4.68,28.06-15.73-2.62,4.25-25.47c-2.92-16.87-10.17-32.66-15.18-32.85a5,5,0,0,0-4.21,1.57c-4.58,4.78-5.21,17.91-4.81,24.2l11.67,43.35,34.32,1.39,6.55-39c-.72-6.2-5.6-41.32-24.9-56.55-7.39-5.84-15.94-8-26.13-6.46-14.64,2.13-24.51,13.31-29.34,33.2a121,121,0,0,0-2.92,31.86L3609.5,1215l71,3.3Z" transform="translate(-18.78 49.17)"/><rect class="cls-4" x="3619.58" y="1286.93" width="15.94" height="21.55" transform="translate(2071.65 4879.65) rotate(-86.17)"/><path class="cls-4" d="M3281.81,1258.23a39.43,39.43,0,0,1-5.09-.33c-15.81-2-27.75-11.4-34.53-27.16a68.93,68.93,0,0,1-5.29-22.26v-1.1l5.56-23.12,53.22,10-2.94,15.67-38.32-7.2-1.48,6.14c.46,5.4,3.76,30.41,25.83,33.22,8.18,1,14.79-2.12,20.19-9.67a46,46,0,0,0,6.3-13.06l2.67-32.41-62-12,3-15.65,76,14.67-4,48-.15.61a61.42,61.42,0,0,1-8.63,18.61C3304.38,1252.43,3294,1258.23,3281.81,1258.23Z" transform="translate(-18.78 49.17)"/><path class="cls-4" d="M3324.75,1166l-78.92-17.59,6.7-72,.3-.88c1.12-3.34,28.15-81.67,78.19-74.44,14.74,2.13,25.89,9,33.15,20.3,17.51,27.37,4.7,71.45,4.15,73.31l-.38,1.27-31.75,44.68L3277.83,1127l3.08-45.45.36-1c1.41-4.07,14.35-40,33.39-48.11a20.46,20.46,0,0,1,17,.12c6.71,3.08,14.29,11.18,12.26,32.32a111.31,111.31,0,0,1-4.16,20.68l-.5,1.61-20.25,23-12-10.55,18-20.38c3.9-13.45,4.78-29.94,0-32.14a4.6,4.6,0,0,0-4.09.05c-8.79,3.75-19.29,23.94-24.25,37.69l-2,29.77,34.74,8.09,24-33.74c1.77-6.71,9.6-39.92-2.64-59-4.71-7.34-11.9-11.62-22-13.08-14.87-2.15-29.44,7.41-43.31,28.41a176,176,0,0,0-17.2,34.52l-5.23,56.08,65.22,14.54Z" transform="translate(-18.78 49.17)"/><rect class="cls-4" x="3269.13" y="1210.39" width="15.94" height="24.39" transform="translate(1400.72 4235.44) rotate(-78.38)"/><path class="cls-3" d="M3097.82,1265.6h-10.55l-9.85-9.22V1103.92h-15.94v159.36l19.48,18.23,128.43.31v-15.94l-67.61-.17V1149.19h59.91v-15.94h-59.91v-14.67h60.57v-15.94h-60.57v-32.11a123,123,0,0,0,36.84-16.94c25.54-17.52,39-42.56,39-72.42,0-24.89-6.14-59.22-35.36-81.35a82.65,82.65,0,0,0-36-15.82l-.5-.07h-90.1v15.94h89A69,69,0,0,1,3173.28,913c18.9,14.63,28.48,37.58,28.48,68.21,0,24.55-10.67,44.4-31.7,59a107.58,107.58,0,0,1-32.4,15l-67.85-.62.56-125.95h67.08c4.87,1.18,34.34,10,34.34,51.33,0,36.29-33.46,45.61-38.8,46.86h-33.2l.58-83.47-15.94-.11-.69,99.52h50.88l.75-.14a75.76,75.76,0,0,0,26-11.48c12-8.36,26.38-24,26.38-51.18,0-29.83-12.88-46.49-23.69-55.22a59.6,59.6,0,0,0-24.28-11.92l-.72-.13H3054.5l-.7,157.68,44,.4Zm15.94,0V1070.86l12.12.11v194.7Z" transform="translate(-18.78 49.17)"/><polygon class="cls-3" points="3029.31 1318.34 3029.31 1153.09 3013.36 1153.09 3013.36 1325.15 3047.47 1357.77 3191.27 1357.77 3191.27 1341.83 3053.86 1341.83 3029.31 1318.34"/><path class="cls-4" d="M3316.41,1383.84s-35.59-10.67-57.5,23.92-20.32,49.23-20.32,49.23l42.88,21s20.34-15.47,34.93-34S3338.42,1395.83,3316.41,1383.84Z" transform="translate(-18.78 49.17)"/><path class="cls-4" d="M3232.22,1472.73l40.22,19.4s-11,54.46-40,37.3C3203.93,1512.56,3232.22,1472.73,3232.22,1472.73Z" transform="translate(-18.78 49.17)"/><path class="cls-4" d="M3353.7,1659.6s-3.65-42.75,1.33-58.42,20.4-48.81,46.33-39.23,27.46,42.32,20.29,64.83-23.94,50.8-23.94,50.8Z" transform="translate(-18.78 49.17)"/><path class="cls-4" d="M3344.59,1674.84l47.57,20.18s-8.1,47.15-46.32,41.44S3344.59,1674.84,3344.59,1674.84Z" transform="translate(-18.78 49.17)"/><path class="cls-4" d="M3165.43,1611.85s-23.2-23.92-55.49-6.42-37.45,29.67-37.45,29.67l24.39,35.22s22.69-3.22,42.21-11.33S3177.42,1630.87,3165.43,1611.85Z" transform="translate(-18.78 49.17)"/><path class="cls-4" d="M3060.62,1644.64l23,32.79s-32.4,37.85-47.62,11.72C3021,1663.46,3060.62,1644.64,3060.62,1644.64Z" transform="translate(-18.78 49.17)"/><path class="cls-4" d="M3074.8,1827.54s22.13-31.73,34.63-39.71,42.29-22,54.73-.46-5.39,45.16-23.34,56.63-45.9,21.38-45.9,21.38Z" transform="translate(-18.78 49.17)"/><path class="cls-4" d="M3059.7,1832.84l21.32,41.42s-32.82,28-56,2S3059.7,1832.84,3059.7,1832.84Z" transform="translate(-18.78 49.17)"/><path class="cls-4" d="M2895.05,1739.9s-10.51-23.39-38.8-19.93-35.34,10.67-35.34,10.67l8.34,31.73s17.44,4,33.88,3.67S2898.69,1756.72,2895.05,1739.9Z" transform="translate(-18.78 49.17)"/><path class="cls-4" d="M2809.67,1734.12l8,29.63s-33.85,17.87-37.93-4.89C2775.7,1736.5,2809.67,1734.12,2809.67,1734.12Z" transform="translate(-18.78 49.17)"/><path class="cls-4" d="M2729.82,1859s19.43-19,29.2-22.81,32.5-9.66,38.7,6.83-9.21,30.38-23.26,35.93-35,8.73-35,8.73Z" transform="translate(-18.78 49.17)"/><path class="cls-4" d="M2718.52,1860.64l10.09,31.3s-26.52,15-39.78-5.94S2718.52,1860.64,2718.52,1860.64Z" transform="translate(-18.78 49.17)"/></g><g id="Layer_3" data-name="Layer 3"><path class="cls-5" d="M371.52,417.66a25.34,25.34,0,1,1,27.09-23.46A25.34,25.34,0,0,1,371.52,417.66Zm2.61-36.36a11.11,11.11,0,1,0,10.29,11.88,11.1,11.1,0,0,0-10.29-11.88Z" transform="translate(-18.78 49.17)"/><path class="cls-5" d="M592.29,483.47A25.34,25.34,0,1,1,619.39,460,25.34,25.34,0,0,1,592.29,483.47Zm2.62-36.35A11.11,11.11,0,1,0,605.2,459,11.1,11.1,0,0,0,594.91,447.12Z" transform="translate(-18.78 49.17)"/><path class="cls-5" d="M796.8,540.1a25.34,25.34,0,1,1,27.09-23.46A25.34,25.34,0,0,1,796.8,540.1Zm2.62-36.36a11.11,11.11,0,1,0,10.28,11.88h0A11.11,11.11,0,0,0,799.42,503.74Z" transform="translate(-18.78 49.17)"/><path class="cls-5" d="M743.65,325a25.34,25.34,0,1,1,27.09-23.46h0A25.36,25.36,0,0,1,743.65,325Zm2.62-36.36a11.11,11.11,0,1,0,10.29,11.89,11.1,11.1,0,0,0-10.29-11.89Z" transform="translate(-18.78 49.17)"/><path class="cls-5" d="M318.3,203.46A25.34,25.34,0,1,1,345.4,180,25.34,25.34,0,0,1,318.3,203.46Zm2.62-36.36A11.11,11.11,0,1,0,331.21,179a11.1,11.1,0,0,0-10.29-11.9Z" transform="translate(-18.78 49.17)"/><path class="cls-5" d="M955,385.69a25.34,25.34,0,1,1,27.1-23.45A25.34,25.34,0,0,1,955,385.69Zm2.62-36.36a11.11,11.11,0,1,0,10.29,11.89,11.1,11.1,0,0,0-10.29-11.89Z" transform="translate(-18.78 49.17)"/><path class="cls-5" d="M850.58,758.79a25.34,25.34,0,1,1,27.09-23.46h0A25.36,25.36,0,0,1,850.58,758.79Zm2.61-36.36a11.11,11.11,0,1,0,10.29,11.88A11.1,11.1,0,0,0,853.19,722.43Z" transform="translate(-18.78 49.17)"/><path class="cls-5" d="M853.52,715.33,809.86,533.54A7.11,7.11,0,1,0,796,536.62a1.42,1.42,0,0,0,0,.22l44,183.3A18.24,18.24,0,0,1,853.52,715.33Z" transform="translate(-18.78 49.17)"/><path class="cls-5" d="M1222.21,660.76a25.34,25.34,0,1,1,27.09-23.46h0A25.36,25.36,0,0,1,1222.21,660.76Zm2.62-36.36a11.11,11.11,0,1,0,10.28,11.88h0A11.13,11.13,0,0,0,1224.83,624.4Z" transform="translate(-18.78 49.17)"/><path class="cls-5" d="M942.69,348.91,763.51,297.19a18.16,18.16,0,0,1-3.66,13.75l178.87,51.63a18.06,18.06,0,0,1,4-13.66Z" transform="translate(-18.78 49.17)"/><path class="cls-5" d="M728.42,306.14,600.34,438.45a7.11,7.11,0,1,0,10.18,9.93L738.23,316.45A18.27,18.27,0,0,1,728.42,306.14Z" transform="translate(-18.78 49.17)"/><path class="cls-5" d="M1209.59,624.37,816.74,513.11a18.79,18.79,0,0,1,.06,3,18.11,18.11,0,0,1-4.36,10.54L1206,638.13a17.85,17.85,0,0,1-.15-4A18.11,18.11,0,0,1,1209.59,624.37Z" transform="translate(-18.78 49.17)"/><path class="cls-5" d="M784.08,503.85l-172-48.71a18,18,0,0,1-3.3,13.86l171.85,48.67a18.58,18.58,0,0,1-.19-4.15A18.08,18.08,0,0,1,784.08,503.85Z" transform="translate(-18.78 49.17)"/><path class="cls-5" d="M374.64,374.21a6.15,6.15,0,0,1,.75.09L331.88,192.1a18.16,18.16,0,0,1-13.06,4.27l-.56-.07,43.48,182.05A18,18,0,0,1,374.64,374.21Z" transform="translate(-18.78 49.17)"/><path class="cls-5" d="M580.44,446.18l-188.9-53.5v1a18.16,18.16,0,0,1-5.86,12.11L576,459.7a18.83,18.83,0,0,1,0-2.81A18.16,18.16,0,0,1,580.44,446.18Z" transform="translate(-18.78 49.17)"/></g><g id="Layer_2" data-name="Layer 2"><path class="cls-4" d="M1361.57,1525.82c-.8.53-2.3.07-4.5-1.4a31.42,31.42,0,0,1-6.11-5.4,7.81,7.81,0,0,1-1.8-3.41,23.85,23.85,0,0,1,.2-6.8,14.8,14.8,0,0,0,.9-4.21c.07-1.33.1-2.26.1-2.8a48,48,0,0,1,.7-5.61q.7-4.39,1.5-9.3c.53-3.27,1-5.78,1.41-7.51a9.44,9.44,0,0,1,.3-1.3c.2-.73.36-1.3.5-1.7.26-1.21.6-2.71,1-4.51s.8-4.17,1.2-7.1q1.6-5,2.7-9.91a37.28,37.28,0,0,0,1.1-6.71,5.5,5.5,0,0,1,2.81-5.2,14.5,14.5,0,0,1,1.2-3.11c.66-1.4,1.26-2.57,1.8-3.5q4-11.41,6.6-18.12a93.32,93.32,0,0,1,5.41-11.71q1.2-3.6,2.7-7.21a23.08,23.08,0,0,1,3.11-5.6,41.78,41.78,0,0,1,4.9-6.71,103.73,103.73,0,0,1,7.51-7.9q4-3.81,6.4-5.81a69.31,69.31,0,0,1,7.81-3.4,22.62,22.62,0,0,1,7.61-1.2,12.17,12.17,0,0,1,6.2,1.4,44.2,44.2,0,0,1,7,5.8c1.6,1.74,2.43,3.27,2.5,4.61a11.52,11.52,0,0,1-.5,4,80.8,80.8,0,0,1-3.6,7.51,84.33,84.33,0,0,1-4.81,8q-2.4,3.51-3.6,3.71a5.42,5.42,0,0,1-4.5.4c-1.41-.53-2.11-1.8-2.11-3.81,0-.93-.07-2.2-.2-3.8a23.63,23.63,0,0,1,1.1-3.8,23.94,23.94,0,0,1,1.51-3.2,5.22,5.22,0,0,0,.7-4.41c-.47-1.33-1.9-1.8-4.31-1.4-.4.27-1.27.94-2.6,2a50.46,50.46,0,0,0-4.2,3.81c-1.47,1.46-2.78,2.8-3.91,4s-1.7,2-1.7,2.4a33.77,33.77,0,0,1-4.2,6.61,42.75,42.75,0,0,0-2.41,3.8,6.61,6.61,0,0,0-1,2.6,5.07,5.07,0,0,1-.2,1.5.94.94,0,0,1-1,.71,44.09,44.09,0,0,1-3,6.6,40.59,40.59,0,0,1-1.8,3.91,11.67,11.67,0,0,1-1.8,2.7v.2q-1.8,4.6-2.81,7.2a16.77,16.77,0,0,0-1,3c0,.53.87.8,2.61.8a31.34,31.34,0,0,0,6.1-.7c2.34-.47,4.57-1,6.71-1.5a16.51,16.51,0,0,1,4-.8,14.07,14.07,0,0,1,3.8.8,7.59,7.59,0,0,1,2.71,3.3,22.53,22.53,0,0,1,1.6,4.5,4.55,4.55,0,0,1-.1,3.21c-.14.53-1.6,1.27-4.41,2.2a65.65,65.65,0,0,1-8.4,2.2c-2.41.54-5.22,1.14-8.41,1.8s-6,1.27-8.31,1.8-3.57,1.07-3.7,1.61a1.46,1.46,0,0,0-1.3,1,3.79,3.79,0,0,0-.5,1.6,7.18,7.18,0,0,1-1,4.2c-.26.8-.7,2.44-1.3,4.91s-1.23,5.14-1.9,8-1.23,5.54-1.7,8a32.62,32.62,0,0,0-.7,4.91,6,6,0,0,0-1.4,3.5c-.14,1.4-.2,2.64-.2,3.7a9.66,9.66,0,0,0-1,2.91,13.45,13.45,0,0,0-.2,2.1v.8a3.78,3.78,0,0,1-.2,1.2c-.14,1.33-.3,3.1-.5,5.3s-.3,4.37-.3,6.51l-.6,5.81a38,38,0,0,1-.6,4.5A5,5,0,0,1,1361.57,1525.82Z" transform="translate(-18.78 49.17)"/><path class="cls-4" d="M1427,1500.6a7.27,7.27,0,0,1-4.1-1c-1-.67-2.24-1.6-3.7-2.8a31,31,0,0,1-5.81-8.31,13,13,0,0,1-1.4-7.71,11.54,11.54,0,0,0,.4-4.6c-.67-.67-.87-1.1-.6-1.3a3.25,3.25,0,0,0,.8-1.11c.8,0,1.07-.73.8-2.2q-.41-1.6,1.4-6.9a48.32,48.32,0,0,1,4.81-10.11q1.2-2,3.6-5.31t5.31-6.61a49.12,49.12,0,0,1,5.3-5.3,68.66,68.66,0,0,1,9.11-6.61,30.14,30.14,0,0,1,8.51-3.4,36.21,36.21,0,0,1,8.1-1,9,9,0,0,1,6.71,3.2,14.14,14.14,0,0,1,6.61,5.21,20.55,20.55,0,0,1,2.6,8.61,49.49,49.49,0,0,1-1.1,14.41q-1.71,8.4-9.71,19.82a55.06,55.06,0,0,1-9.61,11,79.34,79.34,0,0,1-10.41,7.2,22.59,22.59,0,0,1-8.61,3.61C1433.11,1499.93,1430.1,1500.33,1427,1500.6Zm20-23.22a31.06,31.06,0,0,0,6.81-9.11q2.2-4.71,4.6-11.31a11.43,11.43,0,0,0,1.1-4.41,26.78,26.78,0,0,0,0-5.8c-.2-1.87-.7-2.94-1.5-3.2a4.73,4.73,0,0,0-4.3-.71,19.11,19.11,0,0,0-5.51,3.11,65.41,65.41,0,0,0-11,11.91,53.26,53.26,0,0,0-7.8,16.51c-.94,3.88-.84,6.84.3,8.91s3.2,2.71,6.2,1.9,6.75-3.4,11.15-7.8Z" transform="translate(-18.78 49.17)"/><path class="cls-4" d="M1504.9,1499c-2.8.53-4.77.47-5.9-.2a23.66,23.66,0,0,1-3.9-3,19.56,19.56,0,0,1-5.71-4.3,18.65,18.65,0,0,1-3.7-5.7,10.5,10.5,0,0,1-1-4.81,67.71,67.71,0,0,1,3.3-15.21,91.13,91.13,0,0,1,6.91-15.82,73.06,73.06,0,0,1,9.5-13.51,31.88,31.88,0,0,1,10.91-8.31,17.6,17.6,0,0,1,8.31-1.2c2.87.27,4.84,1.53,5.91,3.8,2,3.88,1.53,6.34-1.4,7.41a2.82,2.82,0,0,0-1.4.5,1.49,1.49,0,0,0-.81,1.3c.54.27,2,.3,4.41.1a47.62,47.62,0,0,0,7.31-1.2,13.35,13.35,0,0,0,4.9-1.9,4.62,4.62,0,0,1,1.8-.6,25.13,25.13,0,0,1,3,.4c2.26.67,3.4,1.47,3.4,2.4a6,6,0,0,0,.6,2.2c.4.94.87,1.41,1.4,1.41.93.13,1.07,1,.4,2.5s-2.34,3.23-5,5.1q-3.81,2.4-4.71,3.11c-.6.46-.7,1.43-.3,2.9q1.61,3.8-.1,9a40.7,40.7,0,0,1-5.7,10.81,64.09,64.09,0,0,1-9.51,10.51,66.64,66.64,0,0,1-11.51,8.3A30.12,30.12,0,0,1,1504.9,1499Zm-.6-14.22a8.48,8.48,0,0,0,2.81-.9c1.33-.6,2.4-1.1,3.2-1.5.53-.53,1.23-1.17,2.1-1.9a6,6,0,0,1,2.1-1.3,1.51,1.51,0,0,0,1.3-.7c.34-.47,1-1.47,2-3s2.69-3.84,5.1-6.91a40.12,40.12,0,0,0,5.61-7.41,7.81,7.81,0,0,0,.6-6.2,1.32,1.32,0,0,0-1.1-1,8.93,8.93,0,0,1-2.31-1,18.92,18.92,0,0,0-3.1.2c-.73.14-1.83-.4-3.3-1.6l-3.2-4-3.41,3.4a35.4,35.4,0,0,0-6,8.51,62,62,0,0,0-4.51,10.81,51.19,51.19,0,0,0-2.1,9.31c-.13,2,.2,3.34,1,4A5.74,5.74,0,0,0,1504.3,1484.78Z" transform="translate(-18.78 49.17)"/><path class="cls-4" d="M1582.78,1503.2a17.06,17.06,0,0,1-5.21-2.5q-2.4-1.7-5.4-4.31a27.45,27.45,0,0,1-3.51-5.9,19.84,19.84,0,0,1-1.3-6.41c-.13-2.46-.19-5.63-.2-9.51a38.24,38.24,0,0,1,.9-6.9q.9-4.5,2-9.51c.74-3.34,1.47-6.31,2.21-8.91s1.16-4.3,1.3-5.1q.6-2.61-2-3a32.06,32.06,0,0,0-5.71-.3c-2.07.07-3.44-.1-4.1-.5-.54-.13-.8-1.13-.8-3a1.12,1.12,0,0,0-.6-1.1,3.43,3.43,0,0,1-1.21-1.3c-.26-.53,0-1.47.81-2.81a4.84,4.84,0,0,1,3.4-2.4,45,45,0,0,1,5.3-.7,32.66,32.66,0,0,0,7-1.4,11.44,11.44,0,0,0,5.51-3.5q1.8-4.41,4.1-9.61t4.4-9.21a39.49,39.49,0,0,1,2.91-5,11,11,0,0,1,6.3-1.5c1.93.2,3.56,1.37,4.91,3.51.66.93,1.2,1.63,1.6,2.1a2.42,2.42,0,0,1,.4,2,20.81,20.81,0,0,1-1.7,4.51q-1.5,3.19-4.91,9.6c-.67,1.34-1.53,3-2.6,5a10.76,10.76,0,0,0,2.4.2c1.07,0,2.4-.07,4-.2s3.13-.5,5-.7a15.83,15.83,0,0,1,4.81.1q4.59,0,6.8,2.3a9.47,9.47,0,0,1,2.4,6.31,3.14,3.14,0,0,1-1.3,3.4q-1.7,1.2-7.1,1.2c-1.21,0-3,.07-5.31.2l-7.31.4c-2.53.14-4.7.3-6.5.5s-2.7.44-2.7.7a10.15,10.15,0,0,0-1.91,3.31,68.27,68.27,0,0,0-2.6,6.9c-.87,2.67-1.63,5.14-2.3,7.41a122.09,122.09,0,0,0-2,13.31,58.55,58.55,0,0,0-.1,11.31c.33,3.2,1.1,5.48,2.3,6.81s3.2,1.27,6,.2a26.6,26.6,0,0,0,7.4-4.21c2.4-2,4.44-2.76,6.11-2.3a4.1,4.1,0,0,1,3,3.61c.33,1.93-.37,4.17-2.1,6.7a20.44,20.44,0,0,1-6.51,6.41,29.06,29.06,0,0,1-8.51,3.7A14.84,14.84,0,0,1,1582.78,1503.2Z" transform="translate(-18.78 49.17)"/><path class="cls-4" d="M1614.81,1549.84a18.6,18.6,0,0,1-3.91-2.6,26.93,26.93,0,0,1-4.4-4.4c-1.27-1.6-1.9-2.8-1.9-3.61a48,48,0,0,1,1-6.3q1-5.1,2.7-12.41t3.8-14.82q2.1-7.5,4.31-13.31c.26-.67,1.16-2.9,2.7-6.71a123.22,123.22,0,0,0,4.5-13.91q1.61-5.2,4.21-11.81t5.4-13.31q2.8-6.7,4.61-11.91t3.7-9.81c1.27-3.07,2-4.88,2.1-5.41a4,4,0,0,1,2-2.1,31.5,31.5,0,0,1,3.31-1.6c1.13-.47,1.9-.77,2.3-.9q3.6-1,6.21,3a6.56,6.56,0,0,1,.4,4.61,33.64,33.64,0,0,1-2.21,6.4l-1.4,4,7.21-1.61c1.2,0,2.83.07,4.9.2s4.07.24,6,.3a16.22,16.22,0,0,1,4.1.51c3.21.13,5.44.73,6.71,1.8a14,14,0,0,1,3.3,4.2q1,1,2.4,2.7a6.6,6.6,0,0,1,1.61,3.31,16.6,16.6,0,0,1-.3,7.8,43.32,43.32,0,0,1-3.31,8.81,38.85,38.85,0,0,1-5.3,8,30.94,30.94,0,0,1-6.11,5.6,48.57,48.57,0,0,0-5.2,2.61c-.14.67-1.57,1.77-4.31,3.3a71.35,71.35,0,0,1-9.21,4.3,42.45,42.45,0,0,1-9.1,2.61c-.94.13-2.27.27-4,.4a7.16,7.16,0,0,1-4-.6,20.21,20.21,0,0,0-3-.4.7.7,0,0,0-.8.58.81.81,0,0,0,0,.22c-.14.27-1.07,2.63-2.81,7.1a166.11,166.11,0,0,0-5.4,17.32l-6.21,18.92q-2.4,7.3-3.7,11.21c-.87,2.61-1.5,4.47-1.9,5.6A6.66,6.66,0,0,1,1614.81,1549.84Zm25.42-77.87c.4.8,1.77,1,4.1.7a38.38,38.38,0,0,0,8.21-2.3,50.35,50.35,0,0,0,8.71-4.3,14.12,14.12,0,0,0,5.4-5.31q4.41-5,6.51-7.91t.1-4.3c-1.47-2.13-3.78-3.13-6.91-3s-7.64,1.79-13.51,5a15.67,15.67,0,0,0-4.8,2.4,8.93,8.93,0,0,0-2.31,3.31c-.6,1.4-1.5,3.44-2.7,6.1a64.36,64.36,0,0,0-2.4,6.61,7.25,7.25,0,0,0-.4,3Z" transform="translate(-18.78 49.17)"/><path class="cls-4" d="M1702.89,1496.59a22.64,22.64,0,0,1-3.41-3.3c-1.07-1.26-1.41-3.23-1-5.9a83.13,83.13,0,0,1,1.6-9.91q1-4.31,2.41-9.91a77.78,77.78,0,0,1,2.1-8.21q1.7-5.8,4.3-12.61t5.21-12.91a59.83,59.83,0,0,1,4.6-9.11,7.91,7.91,0,0,1,5.71-1.7q3.69.09,5.3,1.7c1.47,1.2,1.83,3.3,1.1,6.3s-2.63,7.64-5.7,13.92q-1.6,3.4-3,6.1a20.12,20.12,0,0,0-1.7,4q-.3,1.31.9.9a21.35,21.35,0,0,1,4.41-5.11q3.19-2.89,6.8-5.7c2.41-1.87,4.67-3.54,6.81-5a44.82,44.82,0,0,1,4.4-2.8,17.53,17.53,0,0,1,3.71-1.7,24.7,24.7,0,0,0,2.9-1.1,18.49,18.49,0,0,1,9.91-1.7q5.3.5,6.51,3.5c.13,1.07.93,2.13,2.4,3.2.53,0,.86.4,1,1.2s-.84,2-2.5,3.31a10.31,10.31,0,0,1-5.71,2.1,15.78,15.78,0,0,0-4.6,1c-1.33.53-2.94,1.2-4.81,2q-7.61,4.41-14,8a52.9,52.9,0,0,0-12.81,10.61l-2.9,3.3a31.21,31.21,0,0,0-3.11,4.31,11.28,11.28,0,0,0-2,4.4c-.67,2.27-1.23,4.44-1.7,6.51a27.42,27.42,0,0,0-.7,3.7,18.22,18.22,0,0,1-2.6,5.6c-1.61,2.14-3.12,3.38-4.51,3.71S1705,1498.72,1702.89,1496.59Z" transform="translate(-18.78 49.17)"/><path class="cls-4" d="M1776.55,1495c-.53,0-2.2-.66-5-2a5.56,5.56,0,0,0-.5-2,5.18,5.18,0,0,1-.5-2,7.17,7.17,0,0,1-2.41-2.3,4,4,0,0,1-.2-3.71c.8-1.46,1.91-3.7,3.31-6.7s2.9-6.34,4.5-10,3.1-7.31,4.51-10.91,2.6-6.68,3.6-9.21,1.57-4.07,1.7-4.61a12.53,12.53,0,0,1,.4-2.5,4.87,4.87,0,0,1,2.2-2.9,3.78,3.78,0,0,1,4.71-.3,12.13,12.13,0,0,1,4.3,4.9,16.56,16.56,0,0,1,1.8,7.81c0,.94-.67,3.3-2,7.11s-3.1,8.3-5.3,13.51-4.64,10.48-7.31,15.81q-3,5.82-4.3,7.91A4,4,0,0,1,1776.55,1495Zm28-76.47a10.17,10.17,0,0,1-5.51-2.1,23.07,23.07,0,0,1-5.5-5.3,11.16,11.16,0,0,1-2.4-6.81,7.85,7.85,0,0,1,1.6-3.4c1.06-1.61,2.1-3.17,3.1-4.71a10.35,10.35,0,0,0,1.5-2.7,15.63,15.63,0,0,1,3.4.4,11.52,11.52,0,0,1,3.21,1.2,26.2,26.2,0,0,0,5.7,8.41q3.51,3.4,3.51,7,0,4.41-1.71,6.21t-6.87,1.79Z" transform="translate(-18.78 49.17)"/><path class="cls-4" d="M1873,1501.2a8.55,8.55,0,0,1-5.2-2,15.24,15.24,0,0,1-4.31-5.41,16.83,16.83,0,0,1-1.7-7.6,57.41,57.41,0,0,1,1.2-9.41q1.2-6.4,3.41-14.82a31.49,31.49,0,0,0,.8-4.4c0-.53-.54-.67-1.61-.4a12.88,12.88,0,0,0-1.6.5,6.64,6.64,0,0,0-1.6.9,13.08,13.08,0,0,0-3.9,2.4l-5.51,4.41a27.67,27.67,0,0,0-3,2.4l-3.6,3.2c-1.2,1.07-2.21,2-3,2.8s-2.4,1.84-4.4,3.51-4.07,3.33-6.21,5a65.32,65.32,0,0,1-5.8,4.11,8.11,8.11,0,0,1-3.2.5c-.94-.07-1.48-.37-1.61-.9a16.2,16.2,0,0,0-1.5-3.11,21.63,21.63,0,0,1-2.1-6.1,17.42,17.42,0,0,1,.4-8.21,43.23,43.23,0,0,1,1.4-5.71q1.2-4.09,3.1-9.61t4.31-11.11a21.89,21.89,0,0,0,1-3.9c.27-1.53.57-3.07.9-4.6a8.09,8.09,0,0,1,1.5-3.51,2.19,2.19,0,0,1,1.9-1.3,4,4,0,0,1,2.51.7,8.09,8.09,0,0,1,3.5,3,10.92,10.92,0,0,1,1.5,5.4,10.12,10.12,0,0,1,1.8,5.91,23.6,23.6,0,0,1-.8,6.2,40.47,40.47,0,0,1-1.6,4.81c-.53,1.27-.8,1.77-.8,1.5a8.64,8.64,0,0,0,2.7-1.9,34.76,34.76,0,0,1,5.71-3.91q4.4-3.4,7.1-5.1c1.81-1.14,3.21-2,4.21-2.61a22.44,22.44,0,0,0,2.5-1.7l1.6-.8a3.91,3.91,0,0,0,1-.6,2.42,2.42,0,0,1,.6-.4,5.94,5.94,0,0,0,1.7-.5c.87-.33,1.71-.63,2.51-.9a7.55,7.55,0,0,1,4.1.4,13.27,13.27,0,0,1,4.1,2.3,4.3,4.3,0,0,1,1.81,3.31,1.53,1.53,0,0,0,.5,1.1,3.82,3.82,0,0,1,.7.9q1.2.8,2.2,3.8a19,19,0,0,1,.6,7.61,40.12,40.12,0,0,1-1.3,8.71q-1.3,5.51-2.7,10.91a40.92,40.92,0,0,0-1.7,9.51,23,23,0,0,0,.4,5.8c.33,1.4.63,2.57.9,3.5a5.22,5.22,0,0,1-1.1,3.51A4.87,4.87,0,0,1,1873,1501.2Z" transform="translate(-18.78 49.17)"/><path class="cls-4" d="M1919.48,1514q-8.81-.6-11.31-5.4t-1.3-12.82a33.84,33.84,0,0,0,1.5-6.9c.2-2.07.77-3.37,1.7-3.91q.6-1.2,0-1.8a21.38,21.38,0,0,1,1.81-7.2c.26-.81.86-2.34,1.8-4.61-.67-1.07-.67-1.93,0-2.6a25.17,25.17,0,0,1,2.1-1.9,1.32,1.32,0,0,0,.36-1.82,1.73,1.73,0,0,0-.26-.28c-.27-.54.06-1.77,1-3.71s2-4,3.2-6.1a31.9,31.9,0,0,0,2.4-5,14.59,14.59,0,0,1,1-2.8q1-2.4,2.4-5.61c.93-2.13,1.83-4.07,2.7-5.8l1.7-3.4q2-1-1.6-1.41a48.35,48.35,0,0,0-7.61-.2c-4.13-.13-7.44-.33-9.91-.6a15,15,0,0,1-6.1-1.8,5,5,0,0,1-1-5.8q1.39-3,5.4-3.21c1.74-.13,3.11-.2,4.11-.2a33.49,33.49,0,0,0,4-.3c1.67-.2,4.3-.5,7.91-.9l10.21-.8.6-3.4c1.06-1.74,1.87-3,2.4-3.91a11.36,11.36,0,0,0,1.2-2.6,31.26,31.26,0,0,0,.8-3.7q3.6-6.62,4-10.21c1.6-2.67,3-5.1,4.2-7.31s1.93-3.57,2.2-4.1q3-4,5.51-4.21a8.82,8.82,0,0,1,5.5,1.81,17.68,17.68,0,0,1,3.31,2.4,6.28,6.28,0,0,1,1.9,3.5q.39,2.1-1.6,4.91c-.27.53-.67,1.5-1.21,2.9s-.93,2.57-1.2,3.5a28.14,28.14,0,0,0-2.9,4.51,21.1,21.1,0,0,0-2.3,6.3q-1.61,3.4-2.3,4.81c-.47.93-1,1.4-1.51,1.4a2.1,2.1,0,0,0,2.29,1.91h.12l6.6-.3a29.92,29.92,0,0,0,5.31-.9,4.56,4.56,0,0,1,3.5.5,7.44,7.44,0,0,1,1.2,3.8,13.26,13.26,0,0,1-.4,4.61,3.89,3.89,0,0,1-2,2.8,16.57,16.57,0,0,0-4.1,1.1,26.57,26.57,0,0,1-7.71,1.3l-10.61,1-3.4,6.81q-1.41,2.6-2.41,4.7a12.58,12.58,0,0,1-1.4,2.51,8.64,8.64,0,0,1-1.3,3.6c-.87,1.6-1.77,3.34-2.7,5.2a67.53,67.53,0,0,1-4.2,9q-.81,0-.81,1.2c.67,1.61.47,2.82-.6,3.61a8.73,8.73,0,0,0-2.4,2.8,1.7,1.7,0,0,1,.3,2,23.35,23.35,0,0,1-1.3,2.6,17.28,17.28,0,0,1-.9,4.61c-.6,2-1.24,3.87-1.9,5.6a42,42,0,0,0,.4,4.61c.13.67.46.93,1,.8a8.06,8.06,0,0,0,2.5,0,19.64,19.64,0,0,1,2.3-.2q2.8-1.39-3,14a81.69,81.69,0,0,1-5.7,8C1921.31,1513,1920.15,1514,1919.48,1514Z" transform="translate(-18.78 49.17)"/><path class="cls-4" d="M1978.54,1503.6a31.17,31.17,0,0,1-9-5.3q-3.21-2.91-3.21-5.11a4,4,0,0,1,1.11-2.3c.6-.6,2-.87,4.2-.8a74.51,74.51,0,0,1,10.51,1.5,44.6,44.6,0,0,0,4.9-.3,49.55,49.55,0,0,0,5-.8,6.43,6.43,0,0,0,3.1-1.3q1-.2.6-.9a5.55,5.55,0,0,0-1.4-1.5,5.22,5.22,0,0,0-1.8-1.2,4.87,4.87,0,0,0-1.8-.41,4,4,0,0,0-1.7-2.1,24,24,0,0,0-3.51-2.1c-2.93-2.4-5.54-4.57-7.8-6.51s-3.14-3.3-2.61-4.1v-1c-.93,0-1.87-1.3-2.8-3.9a21.36,21.36,0,0,1-1.4-7.11,19.8,19.8,0,0,1,1.6-7.51,39.39,39.39,0,0,1,4.2-7.6,48.79,48.79,0,0,1,5.41-6.51q3.6-3.4,8.31-7.11a73.88,73.88,0,0,1,9.91-6.6,45.75,45.75,0,0,1,10.41-4.31,27.22,27.22,0,0,1,6.6-.8,9.37,9.37,0,0,1,5.21,1.2,5.07,5.07,0,0,1,4,1.2,23.4,23.4,0,0,1,4.2,4,20.57,20.57,0,0,1,3,4.6c0,1.6-.07,3.5-.2,5.71a45.23,45.23,0,0,1-.7,5.8c-.34,1.67-1,2.51-1.91,2.51a1.11,1.11,0,0,0-1,1.2c0,1.33-1,2.87-3,4.6a33.16,33.16,0,0,1-7,3.8q-3.21,1.2-4.61-.6-1-.8-1.8-1.5c-.54-.46-1.07-1-1.6-1.5a5.33,5.33,0,0,1-1-2.6,4,4,0,0,1,1.2-2.2,19.25,19.25,0,0,0,3.7-4,25.13,25.13,0,0,0,2.4-4.3,9.07,9.07,0,0,0,.9-3.1c0-.81-.16-1.27-.5-1.41a7.07,7.07,0,0,0-2.1-.2,30.27,30.27,0,0,0-5.1,2.11q-3.51,1.69-7.11,3.9a40.66,40.66,0,0,0-5.4,3.8c-.54.94-.91,1.54-1.11,1.81a1.29,1.29,0,0,1-1.1.4c0-.54-.37-.4-1.1.4s-1.6,1.87-2.6,3.2-2,2.74-3,4.2-1.77,2.6-2.31,3.41c-.26.93-.6,1.93-1,3a6.72,6.72,0,0,0-.4,3.2,4.4,4.4,0,0,0,1.31,3.7q1.5,1.5,4.9,4.31,7,5.21,10.71,8.31a44.74,44.74,0,0,1,5.3,5,8.84,8.84,0,0,1,2,3.71q3.39,6.2,1.2,10.3a15.2,15.2,0,0,1-7.61,6.51,26.34,26.34,0,0,1-6.81,1.8,55.22,55.22,0,0,1-10.11.7A28.41,28.41,0,0,1,1978.54,1503.6Z" transform="translate(-18.78 49.17)"/><path class="cls-3" d="M2098.84,1500.6a7.27,7.27,0,0,1-4.1-1c-1-.67-2.24-1.6-3.7-2.8a31,31,0,0,1-5.81-8.31,13,13,0,0,1-1.4-7.71,11.54,11.54,0,0,0,.4-4.6c-.67-.67-.87-1.1-.6-1.3a3.25,3.25,0,0,0,.8-1.11c.8,0,1.07-.73.8-2.2-.27-1.07.19-3.37,1.4-6.9a48.32,48.32,0,0,1,4.81-10.11q1.2-2,3.6-5.31t5.31-6.61a49.12,49.12,0,0,1,5.3-5.3,68.66,68.66,0,0,1,9.11-6.61,30.14,30.14,0,0,1,8.51-3.4,36.21,36.21,0,0,1,8.1-1,9,9,0,0,1,6.71,3.2,14.14,14.14,0,0,1,6.61,5.21,20.55,20.55,0,0,1,2.6,8.61,49.49,49.49,0,0,1-1.1,14.41q-1.71,8.4-9.71,19.82a55.06,55.06,0,0,1-9.61,11,79.34,79.34,0,0,1-10.41,7.2,22.59,22.59,0,0,1-8.61,3.61C2104.92,1499.93,2101.91,1500.33,2098.84,1500.6Zm20-23.22a31.06,31.06,0,0,0,6.81-9.11q2.2-4.71,4.6-11.31a11.43,11.43,0,0,0,1.1-4.41,28.11,28.11,0,0,0,0-5.8c-.2-1.87-.7-2.94-1.5-3.2a4.73,4.73,0,0,0-4.3-.71A19.11,19.11,0,0,0,2120,1446a65.41,65.41,0,0,0-11,11.91,53.26,53.26,0,0,0-7.8,16.51c-.94,3.88-.84,6.84.3,8.91s3.2,2.71,6.2,1.9,6.72-3.4,11.12-7.8Z" transform="translate(-18.78 49.17)"/><path class="cls-3" d="M2167.11,1519.22q-2.61.19-5.11-2.91a23.56,23.56,0,0,1-4-8.5,45,45,0,0,1-1.5-12q-.81-8.2,1.4-20.31t6.6-27.93q1.61-5.4,4.61-13.21t6.3-15.42q3.32-7.61,5.91-12.91a40.12,40.12,0,0,1,3.2-5.91q1.2.41,1.2-1.8a13.1,13.1,0,0,1,1.6-3,54.76,54.76,0,0,0,3-5.6,63.12,63.12,0,0,1,6.5-7.91,87.31,87.31,0,0,1,8.11-7.51,28.12,28.12,0,0,1,7.41-4.6,16,16,0,0,1,6-1.2,15.65,15.65,0,0,1,7.81,2.3,23.72,23.72,0,0,1,6.81,5.8,11.62,11.62,0,0,1,2.8,7.31,14.49,14.49,0,0,1-1.4,6.21,26.62,26.62,0,0,1-2.4,6.6q-1.8,3.6-3.51,6.51a50,50,0,0,1-2.7,4.3q-4.61,3.4-7.41,2.7t-1.8-2.1a14,14,0,0,1,.6-3,29.67,29.67,0,0,0,.8-3.6,10.28,10.28,0,0,1,.9-2.41,9.55,9.55,0,0,0,.91-4c1.2-4.8,1.76-8,1.7-9.71s-.7-2.5-1.9-2.5a4.67,4.67,0,0,0-2.71.6,13.77,13.77,0,0,0-2.9,1.8,2.74,2.74,0,0,0-1.2,2v.8c-.4-.13-1.57,1-3.51,3.31s-4.13,5.14-6.6,8.4a104,104,0,0,0-6.11,8.91c-1.07,2.27-2.3,5-3.7,8.11s-3.24,7.64-5.51,13.51l-1.6,4.81,3.21.4a15.48,15.48,0,0,0,4.4-.3c1.87-.33,3.87-.69,6-1.1q6.79-1,9.4.9a12.21,12.21,0,0,1,4,5.1c1.47,3.21.56,5.38-2.7,6.51s-10,2-20.12,2.5a33.88,33.88,0,0,0-5.51-.3,4.77,4.77,0,0,0-3.1.9c-.54.27-1.27,1.7-2.2,4.31s-1.9,5.67-2.91,9.2a94.74,94.74,0,0,0-2.3,10.11,68.44,68.44,0,0,0-2,13.12,116.48,116.48,0,0,0-.1,12.81,50.84,50.84,0,0,0,1.1,9.11q1.2,4.8-1.1,7.3A13.84,13.84,0,0,1,2167.11,1519.22Z" transform="translate(-18.78 49.17)"/><path class="cls-3" d="M2283.41,1514q-8.8-.6-11.31-5.4t-1.3-12.82a33.84,33.84,0,0,0,1.5-6.9c.2-2.07.77-3.37,1.7-3.91q.6-1.2,0-1.8a21.38,21.38,0,0,1,1.81-7.2c.26-.81.86-2.34,1.8-4.61-.67-1.07-.67-1.93,0-2.6a25.17,25.17,0,0,1,2.1-1.9,1.32,1.32,0,0,0,.36-1.82,1.37,1.37,0,0,0-.26-.28c-.27-.54.06-1.77,1-3.71s2-4,3.2-6.1a31.9,31.9,0,0,0,2.4-5,14.59,14.59,0,0,1,1-2.8q1-2.4,2.4-5.61c.93-2.13,1.83-4.07,2.7-5.8l1.7-3.4q2-1-1.6-1.41a48.35,48.35,0,0,0-7.61-.2c-4.13-.13-7.44-.33-9.91-.6a15,15,0,0,1-6.1-1.8,5,5,0,0,1-1-5.8q1.4-3,5.4-3.21c1.74-.13,3.11-.2,4.11-.2a33.49,33.49,0,0,0,4-.3c1.67-.2,4.3-.5,7.91-.9l10.21-.8.6-3.4c1.06-1.74,1.87-3,2.4-3.91a11.36,11.36,0,0,0,1.2-2.6,31.26,31.26,0,0,0,.8-3.7q3.6-6.62,4-10.21c1.6-2.67,3-5.1,4.2-7.31s1.93-3.57,2.2-4.1q3-4,5.51-4.21a8.82,8.82,0,0,1,5.5,1.81,17.68,17.68,0,0,1,3.31,2.4,6.28,6.28,0,0,1,1.9,3.5c.26,1.4-.27,3-1.61,4.91-.26.53-.66,1.5-1.2,2.9s-.93,2.57-1.2,3.5a28.14,28.14,0,0,0-2.9,4.51,20.83,20.83,0,0,0-2.3,6.3q-1.61,3.4-2.3,4.81c-.47.93-1,1.4-1.51,1.4a2.1,2.1,0,0,0,2.29,1.91h.12l6.6-.3a29.92,29.92,0,0,0,5.31-.9,4.56,4.56,0,0,1,3.5.5,7.44,7.44,0,0,1,1.2,3.8,13.26,13.26,0,0,1-.4,4.61,3.89,3.89,0,0,1-2,2.8,16.57,16.57,0,0,0-4.1,1.1,26.57,26.57,0,0,1-7.71,1.3l-10.61,1-3.4,6.81q-1.41,2.6-2.41,4.7a12.58,12.58,0,0,1-1.4,2.51,8.64,8.64,0,0,1-1.3,3.6c-.87,1.6-1.77,3.34-2.7,5.2a67.59,67.59,0,0,1-4.21,9c-.53,0-.8.4-.8,1.2.67,1.61.47,2.82-.6,3.61a8.73,8.73,0,0,0-2.4,2.8,1.7,1.7,0,0,1,.3,2,23.35,23.35,0,0,1-1.3,2.6,17.28,17.28,0,0,1-.9,4.61c-.6,2-1.24,3.87-1.9,5.6a42,42,0,0,0,.4,4.61c.13.67.46.93,1,.8a8.06,8.06,0,0,0,2.5,0,19.64,19.64,0,0,1,2.3-.2q2.8-1.39-3,14a81.69,81.69,0,0,1-5.7,8C2285.24,1513,2284.08,1514,2283.41,1514Z" transform="translate(-18.78 49.17)"/><path class="cls-3" d="M2338.86,1494a4.45,4.45,0,0,1-3-.8c-1.07-.66-2.07-1.33-3-2a16.16,16.16,0,0,1-2.71-3.7,7.72,7.72,0,0,1-.6-3.61,46.19,46.19,0,0,1,.7-5.5c.67-2.13,1.47-5,2.41-8.71s2-7.51,3.2-11.51c.4-1.73,1-3.74,1.7-6s1.5-4.4,2.3-6.4,1.41-3.54,1.81-4.61q1.39-5.21,2.9-9.71t3.7-10.31q2.2-5.81,5.41-15,4.4-12,6.6-18.12t3.31-8.8a36,36,0,0,0,1.5-4.31,3.62,3.62,0,0,1,1.8-2.9,5.89,5.89,0,0,1,3.4-1.3c1.87.13,3.57,1.19,5.11,3.2a16.93,16.93,0,0,1,3.1,7.11,11.05,11.05,0,0,1-1.2,7.7q-3.21,7.21-6.51,16.52t-6.4,18.32q-3.1,9-6.11,16.21a30.84,30.84,0,0,1-1.1,3.1c-.6,1.54-1.17,2.84-1.7,3.91l-2.2,4.4c-.14.67-.4,1.74-.8,3.21s-.87,2.93-1.41,4.4c-.26.94-.6,2.2-1,3.8a31.57,31.57,0,0,0-.8,4.21,39,39,0,0,1,3.21-3.71c1.46-1.53,3.13-3.17,5-4.9q3.2-2.81,6.21-5.31a65,65,0,0,1,5.4-4.1q2.2-1.6,6-4.2a2.34,2.34,0,0,1,.8-1.3,3.54,3.54,0,0,1,1.2-.7,4.18,4.18,0,0,0,1.3-.81,8.6,8.6,0,0,0,1.3-1.4,11.9,11.9,0,0,1,3.3-1.8,28.45,28.45,0,0,1,4.61-1.3,23.49,23.49,0,0,1,4.5-.5,7.69,7.69,0,0,1,4.61,1.6,18.79,18.79,0,0,1,4.4,5,14.09,14.09,0,0,1,2.8,6.7,31.25,31.25,0,0,1-.2,9.31,33,33,0,0,1-.8,5.51,54.54,54.54,0,0,0-1,6.5l-1.6,6.61h2q2-.6,5.81.6a9.36,9.36,0,0,1,1.8,1.4,3.54,3.54,0,0,0,1.6,1q1.61,1.2.4,3.8a9.13,9.13,0,0,1-3.4,4,21.14,21.14,0,0,1-8.61,3.7,10.08,10.08,0,0,1-7.41-2.1,13.43,13.43,0,0,1-4.8-6.61,23.76,23.76,0,0,1-.4-10q.79-8.8.9-12.81c.07-2.67-.63-4-2.1-4s-3.68.8-6.61,2.4a73.56,73.56,0,0,0-9.81,6.61q-5.4,4.2-10.71,9.2a75.46,75.46,0,0,0-9.11,10.21q-2.4,3-5,5.71A8.91,8.91,0,0,1,2338.86,1494Z" transform="translate(-18.78 49.17)"/><path class="cls-3" d="M2445.16,1505.2q-10.22,0-16-6.5t-5.8-18.72a59.21,59.21,0,0,1,2.8-15.72,86.89,86.89,0,0,1,7-16.51,76.73,76.73,0,0,1,9.71-14,32,32,0,0,1,10.71-8.41,18.13,18.13,0,0,1,4.3-1.5,21.34,21.34,0,0,1,4.51-.5,34.83,34.83,0,0,1,5.1.4,21.09,21.09,0,0,1,5.1,1.4,16,16,0,0,1,7.11,4.7c1.93,2.2,3,5.44,3.3,9.71a26.46,26.46,0,0,1,0,4.71,17.75,17.75,0,0,1-1.2,4.7,43,43,0,0,1-7.4,12.51,31.79,31.79,0,0,1-10.81,8.51,15.05,15.05,0,0,1-6.81,1.6,21.05,21.05,0,0,1-7.61-1.3,18.42,18.42,0,0,1-6-3.7l-1.6-1.4-.8,1.8a57.3,57.3,0,0,0-2.31,7.7,27.11,27.11,0,0,0-.7,5.31,38.54,38.54,0,0,0,.3,4.8,9.78,9.78,0,0,0,1.3,4,5.39,5.39,0,0,0,2.31,1.6,9.32,9.32,0,0,0,3.5.6,21.5,21.5,0,0,0,2.6-.1,7.9,7.9,0,0,0,2.2-.5,13.77,13.77,0,0,0,5.81-2.6,36.42,36.42,0,0,1,4.6-3.21l.8-.4-.2-.4,4.61-2.3a8.27,8.27,0,0,0,1.8-1.1c.53-.27,1.13-.53,1.8-.8a6.08,6.08,0,0,1,5,1.2,5.26,5.26,0,0,1,2.6,4.4c0,.67-.57,1.84-1.7,3.51a28.91,28.91,0,0,1-4,4.7,16.4,16.4,0,0,1-4.5,3.2l-1.2.61a11.47,11.47,0,0,0-1.4.8h.2c-1.2,1.6-2.41,2.4-3.61,2.4H2459c-.53.93-2.27,2-5.2,3.1A23.91,23.91,0,0,1,2445.16,1505.2Zm10-46.84a8.5,8.5,0,0,0,4.3-1.1,22.81,22.81,0,0,0,3.51-2.5,16.7,16.7,0,0,0,5.7-9.31c.73-3.54.37-6.17-1.1-7.91a3.09,3.09,0,0,0-1.3-.8,5.7,5.7,0,0,0-2.1,0,11.5,11.5,0,0,0-5,2,33.51,33.51,0,0,0-5.6,4.61,38.19,38.19,0,0,0-4.81,5.8l-2.6,4.2q.8-.19,1.5-.3c.47-.06.77-.1.9-.1a3.89,3.89,0,0,1,1.8,1.91,9.27,9.27,0,0,0,1.61,2.4,4.1,4.1,0,0,0,3.2,1.1Z" transform="translate(-18.78 49.17)"/><path class="cls-5" d="M2539,1539c-1.73.67-3.53.31-5.4-1.1a12.57,12.57,0,0,1-4.2-5.8,10.89,10.89,0,0,1,0-7.71q.39-1.2,1.2-3.9a27,27,0,0,0,1-4.71,34.82,34.82,0,0,1,1.2-4.7c.67-2.2,1.43-4.37,2.3-6.51a43.31,43.31,0,0,1,2.1-4.6,13.78,13.78,0,0,0,1.7-4.61,23.4,23.4,0,0,0,.5-4c.27-.93.64-2,1.11-3.2a10.42,10.42,0,0,1,1.5-2.81,23.68,23.68,0,0,1,1.2-3.5,16.77,16.77,0,0,1,1.8-3.3,28.24,28.24,0,0,0,.7-3.41c.2-1.33.57-2.06,1.1-2.2a14.54,14.54,0,0,0,.3-1.6,9,9,0,0,1,.7-2.2,53,53,0,0,1,1.8-6.41q1.41-4.2,3.41-9.21a43.4,43.4,0,0,0,2.7-10.4c.33-3.07-.51-5-2.5-5.81a4,4,0,0,1-2-3.2,10.73,10.73,0,0,1,.4-5c.53-1.73,1.33-2.8,2.4-3.2a11.73,11.73,0,0,1,4.3-.9,22.44,22.44,0,0,1,4.41.2c1.26.2,1.83.43,1.7.7a1.11,1.11,0,0,0,1,1.2c.26-.4.83.1,1.7,1.5a39.14,39.14,0,0,1,2.5,4.81,11.55,11.55,0,0,1,1.2,3.7,4.26,4.26,0,0,0-.4.9c0,.07.27.1.8.1,2.94-1.47,5.24-2.71,6.91-3.7a18.45,18.45,0,0,0,3.3-2.31,10.65,10.65,0,0,0,3-1.8,14.78,14.78,0,0,1,8.7-.6,15.5,15.5,0,0,1,7.51,3.61,27.46,27.46,0,0,1,5.41,11.51,22.85,22.85,0,0,1-1.41,13.51,29.38,29.38,0,0,1-1.7,3.3c-.87,1.54-2.1,3.57-3.7,6.11a52.59,52.59,0,0,1-10.31,12,78.38,78.38,0,0,1-12.11,8.41,19.86,19.86,0,0,1-5,2.4,35.75,35.75,0,0,1-5.5,1.4c-1.67.27-2.7.27-3.1,0-1.47-1.07-2.81-3.33-4-6.81q-1,2.61-1.9,5.11a32.92,32.92,0,0,0-1.1,3.3c-.13.94-.27,1.7-.4,2.3a2.49,2.49,0,0,1-1,1.51,9.17,9.17,0,0,1-1.6,3.2q-2,5.81-3.31,9.51t-2.1,6.1c-.53,1.6-1,3.21-1.4,4.81a44.86,44.86,0,0,1-2.4,11.21C2542.71,1536.1,2541.05,1538.37,2539,1539Zm27.83-62.45c.53-.27,1.57-.84,3.1-1.7s3.27-1.94,5.21-3.21,3.73-2.5,5.4-3.7a20.1,20.1,0,0,0,3.51-3,12.89,12.89,0,0,0,2.2-3.21c.4-.93.86-2.26,1.4-4,.4-1.07.87-2.27,1.4-3.6s1-2.61,1.4-3.81a6.52,6.52,0,0,0,.7-3.3,4.35,4.35,0,0,0-1.3-2.9c-.53-.14-1.9.1-4.1.7a26.76,26.76,0,0,0-7.31,3.5,32.18,32.18,0,0,0-7.61,7.21,34.69,34.69,0,0,0-5.8,10.21c-1.07,3.2-1.41,5.8-1,7.8s1.37,3,2.84,3Z" transform="translate(-18.78 49.17)"/><path class="cls-5" d="M2621.12,1495c-.54,0-2.2-.66-5-2a5.56,5.56,0,0,0-.5-2,5.56,5.56,0,0,1-.5-2,7.23,7.23,0,0,1-2.4-2.3,4,4,0,0,1-.2-3.71c.8-1.46,1.9-3.7,3.3-6.7s2.91-6.34,4.51-10,3.1-7.31,4.5-10.91,2.6-6.68,3.61-9.21,1.56-4.07,1.7-4.61a12.53,12.53,0,0,1,.4-2.5,4.84,4.84,0,0,1,2.2-2.9,3.75,3.75,0,0,1,4.7-.3,12.08,12.08,0,0,1,4.31,4.9,16.56,16.56,0,0,1,1.8,7.81c0,.94-.67,3.3-2,7.11s-3.1,8.3-5.31,13.51-4.64,10.48-7.3,15.81q-3,5.82-4.31,7.91A4,4,0,0,1,2621.12,1495Zm28-76.47a10.17,10.17,0,0,1-5.51-2.1,23.12,23.12,0,0,1-5.51-5.3,11.16,11.16,0,0,1-2.4-6.81,7.85,7.85,0,0,1,1.6-3.4c1.07-1.61,2.11-3.17,3.11-4.71a10.35,10.35,0,0,0,1.5-2.7,15.56,15.56,0,0,1,3.4.4,11.46,11.46,0,0,1,3.2,1.2,26.39,26.39,0,0,0,5.71,8.41c2.33,2.27,3.49,4.6,3.5,7q0,4.41-1.7,6.21c-1.1,1.19-3.41,1.79-6.87,1.79Z" transform="translate(-18.78 49.17)"/><path class="cls-5" d="M2668,1500.6a7.27,7.27,0,0,1-4.1-1q-1.5-1-3.71-2.8a31.37,31.37,0,0,1-5.8-8.31,13,13,0,0,1-1.4-7.71,11.54,11.54,0,0,0,.4-4.6c-.67-.67-.87-1.1-.6-1.3a3.39,3.39,0,0,0,.8-1.11c.8,0,1.06-.73.8-2.2-.27-1.07.19-3.37,1.4-6.9a48,48,0,0,1,4.8-10.11c.81-1.33,2-3.1,3.61-5.31s3.36-4.41,5.3-6.61a49.21,49.21,0,0,1,5.31-5.3,68.66,68.66,0,0,1,9.11-6.61,30,30,0,0,1,8.5-3.4,37,37,0,0,1,8.11-1,9,9,0,0,1,6.71,3.2,14.05,14.05,0,0,1,6.6,5.21,20.41,20.41,0,0,1,2.61,8.61,49.49,49.49,0,0,1-1.1,14.41q-1.71,8.4-9.71,19.82a55.06,55.06,0,0,1-9.61,11,79.34,79.34,0,0,1-10.41,7.2,22.59,22.59,0,0,1-8.61,3.61Q2672.56,1500.2,2668,1500.6Zm20-23.22a31.06,31.06,0,0,0,6.81-9.11q2.19-4.71,4.6-11.31a11.61,11.61,0,0,0,1.1-4.41,28.11,28.11,0,0,0,0-5.8c-.2-1.87-.7-2.94-1.5-3.2a4.76,4.76,0,0,0-4.3-.71,18.88,18.88,0,0,0-5.51,3.11,65.41,65.41,0,0,0-11,11.91,53.28,53.28,0,0,0-7.81,16.51c-.93,3.88-.83,6.84.3,8.91s3.21,2.71,6.21,1.9S2683.58,1481.78,2688,1477.38Z" transform="translate(-18.78 49.17)"/><path class="cls-5" d="M2736.42,1495.19a9.46,9.46,0,0,1-3.3-1.4,16.22,16.22,0,0,1-3.3-2.2,7.62,7.62,0,0,1-1.8-3.4,41.71,41.71,0,0,1-.41-7.41,46.21,46.21,0,0,1,2.61-14.31A222.19,222.19,0,0,1,2739,1445l7.6-15.82q1-1.4,1.8-2.4l1.61-2h1.2a2.29,2.29,0,0,1,1,.2,14.31,14.31,0,0,1,4.8,2.1,8.2,8.2,0,0,1,4,5.31,25.56,25.56,0,0,1-.8,5.9q-.81,3.3-4.81,8.91a27.08,27.08,0,0,0-3.4,6.31,66.81,66.81,0,0,0-2.81,7.9,13.77,13.77,0,0,0-1,1.7c-.53,1-1.07,2-1.6,3.11a14,14,0,0,0-1,2.4l-.8,2.8,10.21-10.21q9-9.21,15.11-13.11t10.11-3.3q4,.6,6.61,5.2a13.75,13.75,0,0,1,2,4.11,24.51,24.51,0,0,1,.8,5.1,55.07,55.07,0,0,1-.2,7.81v11.81c2.27-.67,4.07-1.23,5.41-1.7s2.67-.9,4-1.3c1.07-.4,2.23-.77,3.5-1.11a28.06,28.06,0,0,1,4.91-.7,16,16,0,0,1-2.1,6.11,48.3,48.3,0,0,1-4.61,6.91,29.51,29.51,0,0,1-5.9,5.7,10.46,10.46,0,0,1-6,2.3,11.67,11.67,0,0,1-5.9-2,13.85,13.85,0,0,1-5.31-6.4,43.4,43.4,0,0,1-1.4-5.61,44.63,44.63,0,0,1-.6-8v-8.4c0-1.21-.23-1.77-.7-1.71a3.23,3.23,0,0,0-1.3.5,37.91,37.91,0,0,0-5.41,4.71q-4,3.9-8,8.31a139.23,139.23,0,0,1-15.32,14.21Q2738.63,1495.2,2736.42,1495.19Z" transform="translate(-18.78 49.17)"/><path class="cls-5" d="M2837.32,1505.2q-10.21,0-16-6.5t-5.8-18.72a59.21,59.21,0,0,1,2.8-15.72,86.89,86.89,0,0,1,7-16.51,77.18,77.18,0,0,1,9.7-14,32.15,32.15,0,0,1,10.71-8.41,18.37,18.37,0,0,1,4.31-1.5,21.32,21.32,0,0,1,4.5-.5,35,35,0,0,1,5.11.4,21.09,21.09,0,0,1,5.1,1.4,16,16,0,0,1,7.11,4.7q2.89,3.3,3.3,9.71a28.49,28.49,0,0,1,0,4.71,17.75,17.75,0,0,1-1.2,4.7,43.24,43.24,0,0,1-7.41,12.51,31.48,31.48,0,0,1-10.81,8.51,15,15,0,0,1-6.8,1.6,21.05,21.05,0,0,1-7.61-1.3,18.7,18.7,0,0,1-6-3.7l-1.6-1.4-.8,1.8a58.75,58.75,0,0,0-2.3,7.7,27.11,27.11,0,0,0-.7,5.31,38.54,38.54,0,0,0,.3,4.8,9.78,9.78,0,0,0,1.3,4,5.36,5.36,0,0,0,2.3,1.6,9.54,9.54,0,0,0,3.51.6,21.5,21.5,0,0,0,2.6-.1,7.9,7.9,0,0,0,2.2-.5,13.77,13.77,0,0,0,5.81-2.6,36.42,36.42,0,0,1,4.6-3.21l.8-.4-.2-.4,4.6-2.3a7.62,7.62,0,0,0,1.81-1.1c.53-.27,1.13-.53,1.8-.8a6,6,0,0,1,5,1.2,5.23,5.23,0,0,1,2.61,4.4q0,1-1.71,3.51a28.91,28.91,0,0,1-4,4.7,16.61,16.61,0,0,1-4.5,3.2l-1.21.61a11.47,11.47,0,0,0-1.4.8h.2q-1.8,2.4-3.6,2.4h-1.6c-.54.93-2.27,2-5.21,3.1A23.8,23.8,0,0,1,2837.32,1505.2Zm10-46.84a8.5,8.5,0,0,0,4.3-1.1,22.25,22.25,0,0,0,3.5-2.5,16.77,16.77,0,0,0,5.71-9.31c.73-3.54.36-6.17-1.1-7.91a3,3,0,0,0-1.3-.8,5.76,5.76,0,0,0-2.11,0,11.5,11.5,0,0,0-5,2,34,34,0,0,0-5.61,4.61,37.55,37.55,0,0,0-4.8,5.8l-2.6,4.2q.8-.19,1.5-.3c.46-.06.76-.1.9-.1a3.89,3.89,0,0,1,1.8,1.91,9,9,0,0,0,1.6,2.4,4.16,4.16,0,0,0,3.22,1.1Z" transform="translate(-18.78 49.17)"/><path class="cls-5" d="M2897.37,1499.8q-7.8-3.19-10.61-9.91t-1.4-18.72c.27-4.13.23-6.91-.1-8.31a8.37,8.37,0,0,0-2.7-4.1,19.29,19.29,0,0,0-2.61-2.5c-1.33-1.13-1.93-2-1.8-2.71a7.45,7.45,0,0,1,.5-3.4c.47-1.33.9-2,1.3-2a15.16,15.16,0,0,0,2.51-1.1,2.28,2.28,0,0,1,2.1-.3,6,6,0,0,1,2.3.7q1.5.71,1.5,1.5c.53.94,1.37.7,2.5-.7a34,34,0,0,0,3.71-6.11,30.44,30.44,0,0,1,5.1-6.1,78.05,78.05,0,0,1,6.31-5.31,46.5,46.5,0,0,1,5.4-3.6c.67-.27,1.87-.67,3.61-1.2a35.73,35.73,0,0,1,5.5-1.2,18.4,18.4,0,0,1,4.51-.2,13.83,13.83,0,0,1,7.1,2.6,33.18,33.18,0,0,1,5.71,4.8,8.51,8.51,0,0,1,3.4,5.31,26.43,26.43,0,0,1,.6,7.31,16.6,16.6,0,0,1-1.6,6.6q-.6,2-4,5.31a86.72,86.72,0,0,1-7.41,6.4,30.2,30.2,0,0,1-7,4.31,44.61,44.61,0,0,1-6.4.9,49.57,49.57,0,0,1-7,.1,12.5,12.5,0,0,1-4.4-.8c-.94-.53-1.7-.17-2.3,1.1s-1.11,3.77-1.51,7.51a20.22,20.22,0,0,0,.1,4.6,10.21,10.21,0,0,0,.7,2.6,16,16,0,0,0,3.21,3.41q1.8,1.4,5.8.8,3.81-.6,7.71-4.91a65.26,65.26,0,0,1,7.11-6.9,4.2,4.2,0,0,1,3.2-1.81,14.16,14.16,0,0,1,5.61.4,4.31,4.31,0,0,1,2.1,4c-.07,1.73-1,4.34-2.91,7.81a15.2,15.2,0,0,1-3.1,3.9c-1.67,1.67-3.47,3.33-5.4,5a37.64,37.64,0,0,1-4.91,3.71,23.76,23.76,0,0,1-11.61,3.1A31.18,31.18,0,0,1,2897.37,1499.8Zm13.81-43.64c2.27-.53,4.18-1,5.71-1.5a12.38,12.38,0,0,0,4.4-2.51,34.88,34.88,0,0,0,5.11-6,11.92,11.92,0,0,0,.8-4,3.47,3.47,0,0,0-.6-2.4,3.72,3.72,0,0,0-3.7-1.1,12.44,12.44,0,0,0-4.31,2.1,19.29,19.29,0,0,0-4,2.71,53,53,0,0,0-5,4.6,38.82,38.82,0,0,0-3.8,4.5c-.94,1.34-1.14,2.14-.6,2.41-.27.53.5.87,2.3,1s3,.19,3.69.19Z" transform="translate(-18.78 49.17)"/><path class="cls-5" d="M2953.82,1496.59a22.11,22.11,0,0,1-3.4-3.3c-1.07-1.26-1.41-3.23-1-5.9a83.13,83.13,0,0,1,1.6-9.91q1-4.31,2.4-9.91a83,83,0,0,1,2.1-8.21q1.71-5.8,4.31-12.61t5.2-12.91a59,59,0,0,1,4.61-9.11,7.87,7.87,0,0,1,5.7-1.7q3.7.09,5.31,1.7,2.19,1.8,1.1,6.3t-5.75,14q-1.61,3.4-3,6.1a20.12,20.12,0,0,0-1.7,4q-.3,1.31.9.9a21.31,21.31,0,0,1,4.4-5.11q3.21-2.9,6.81-5.7t6.81-5a44.82,44.82,0,0,1,4.4-2.8,17.23,17.23,0,0,1,3.7-1.7,25.55,25.55,0,0,0,2.91-1.1,18.49,18.49,0,0,1,9.91-1.7q5.3.49,6.5,3.5c.13,1.07.93,2.13,2.4,3.2.54,0,.87.4,1,1.2s-.84,2-2.51,3.31a10.25,10.25,0,0,1-5.7,2.1,15.84,15.84,0,0,0-4.61,1q-2,.79-4.8,2-7.61,4.41-14,8a52.76,52.76,0,0,0-12.82,10.61c-.93,1.07-1.89,2.17-2.9,3.3a32,32,0,0,0-3.1,4.31,11.15,11.15,0,0,0-2,4.4c-.67,2.27-1.23,4.44-1.7,6.51a27.44,27.44,0,0,0-.71,3.7,18.45,18.45,0,0,1-2.6,5.6q-2.4,3.21-4.5,3.71C2957.69,1499.67,2955.93,1498.76,2953.82,1496.59Z" transform="translate(-18.78 49.17)"/><path class="cls-5" d="M3040.9,1502.8a24.38,24.38,0,0,1-10.91-2.1,22.58,22.58,0,0,1-8.21-6,13.92,13.92,0,0,1-3.5-7.5,4.5,4.5,0,0,1-.1-3.11,2.42,2.42,0,0,1,1.9-1.1,4.85,4.85,0,0,1,2.6.9l3,1.91a16,16,0,0,0,7.1,2.7,13.91,13.91,0,0,0,7.11-.8c2.13-.87,3.33-2.1,3.6-3.71a14.64,14.64,0,0,0-.7-3.2,34.29,34.29,0,0,0-1.7-4.6,43.23,43.23,0,0,1-6.8-14.52,81.73,81.73,0,0,1-2-13.11,12.39,12.39,0,0,1,2.51-6.71,33.59,33.59,0,0,1,6.3-6.9,57.56,57.56,0,0,1,8.9-7,82.93,82.93,0,0,1,9.71-5.3,35.1,35.1,0,0,1,8.21-2.81c2.13,0,4.5.14,7.1.4s4.37.74,5.31,1.4a17,17,0,0,1,4.9,6.31,17.89,17.89,0,0,1,2.3,7.91,7.37,7.37,0,0,1-1.4,3.8q-1.4,2.2-3,5.21-.8,1.61-1.5,3.3c-.47,1.13-.9,2.17-1.3,3.1a3.11,3.11,0,0,1-3.71,2.2,9.42,9.42,0,0,1-7.5-8.4,7.47,7.47,0,0,1,.9-5.11,17.75,17.75,0,0,0,1.7-3.3c.53-.67.7-1.13.5-1.4s-.77-.4-1.7-.4a15.42,15.42,0,0,0-4.71,1.3,45.14,45.14,0,0,0-6.9,3.5,30.61,30.61,0,0,0-6.41,5.21,19,19,0,0,0-3.7,4.8,11.44,11.44,0,0,0-1.1,5.21,25,25,0,0,0,1.1,6.7,19.89,19.89,0,0,0,2.5,5.91,6.71,6.71,0,0,1,1.4,2.3,50,50,0,0,0,2.6,4.7q6.81,14.42,2.61,21.22T3040.9,1502.8Z" transform="translate(-18.78 49.17)"/><path class="cls-3" d="M423.77,1107.18a173.21,173.21,0,0,1,27.57-2.16c18.57,0,31.87,4.4,40.65,12.6,9,8.13,14.2,19.75,14.2,35.9,0,16.45-5.14,29.76-14.43,39-9.48,9.34-25,14.46-44.42,14.46a208.5,208.5,0,0,1-23.57-1.12Zm13,88.75a92.56,92.56,0,0,0,13,.61c27.77.07,42.72-15.4,42.72-42.53.16-23.69-13.24-38.65-40.57-38.65a77.28,77.28,0,0,0-15.18,1.33Z" transform="translate(-18.78 49.17)"/><path class="cls-3" d="M526.63,1107.18A173.23,173.23,0,0,1,554.2,1105c18.56,0,31.86,4.4,40.64,12.6,9,8.13,14.21,19.75,14.21,35.9,0,16.45-5.14,29.76-14.44,39-9.47,9.34-25,14.46-44.41,14.46a208.5,208.5,0,0,1-23.57-1.12Zm13,88.75a92.56,92.56,0,0,0,13,.61c27.77.07,42.73-15.4,42.73-42.53.15-23.69-13.25-38.65-40.57-38.65a77.45,77.45,0,0,0-15.19,1.33Z" transform="translate(-18.78 49.17)"/><path class="cls-3" d="M629.48,1107.18a173.21,173.21,0,0,1,27.57-2.16c18.56,0,31.87,4.4,40.64,12.6,9,8.13,14.21,19.75,14.21,35.9,0,16.45-5.14,29.76-14.43,39-9.48,9.34-25,14.46-44.42,14.46a208.5,208.5,0,0,1-23.57-1.12Zm13,88.75a92.56,92.56,0,0,0,13,.61c27.77.07,42.73-15.4,42.73-42.53.16-23.69-13.24-38.65-40.57-38.65a77.45,77.45,0,0,0-15.19,1.33Z" transform="translate(-18.78 49.17)"/><path class="cls-3" d="M739.87,1172.5c.26,17.7,11.49,25,24.64,25,9.36,0,15.1-1.68,19.94-3.68l2.29,9.29c-4.58,2.1-12.58,4.59-24,4.59-22.12,0-35.42-14.73-35.42-36.33,0-21.82,12.85-38.85,33.87-38.85,23.49,0,29.63,20.6,29.63,33.85a31.57,31.57,0,0,1-.45,6.14Zm38.32-9.42c.13-8.25-3.38-21.19-18.06-21.19-13.36,0-19,12.08-20.1,21.19Z" transform="translate(-18.78 49.17)"/><path class="cls-3" d="M809,1192.8a35.7,35.7,0,0,0,17.35,5.13c9.56,0,14-4.7,14-10.72,0-6.3-3.81-9.6-13.38-13.18-13-4.71-19.16-11.79-19.13-20.42,0-11.59,9.42-21.1,24.9-21.1a35,35,0,0,1,17.64,4.42l-3.26,9.52a28.25,28.25,0,0,0-14.77-4.24c-7.72,0-11.92,4.46-11.92,9.88,0,6,4.23,8.62,13.67,12.28C846.51,1169,853,1175.25,853,1186c0,12.76-9.91,21.69-26.92,21.69a41.16,41.16,0,0,1-20.23-5Z" transform="translate(-18.78 49.17)"/><path class="cls-3" d="M888.13,1113.79a8.12,8.12,0,1,1-8.1-8.14h0a7.88,7.88,0,0,1,8.09,7.66A3.84,3.84,0,0,1,888.13,1113.79Zm-14.62,92.34v-72h13v72Z" transform="translate(-18.78 49.17)"/><path class="cls-3" d="M974.18,1134.14c-.36,5.09-.61,10.94-.61,19.7v41.8c0,16.67-3.4,26.65-10.28,33-7.07,6.48-17.14,8.64-26.22,8.64-8.71,0-18.19-2-24-5.93l3.28-10.07a40.56,40.56,0,0,0,21.2,5.76c13.36,0,23.18-7,23.18-25.22v-8h-.3c-3.93,6.76-11.78,12.12-22.87,12.12-17.95,0-30.7-15.26-30.7-35.21,0-24.41,15.88-38.16,32.51-38.16,12.49,0,19.25,6.42,22.45,12.41h.3l.54-10.78Zm-13.62,28.32a20,20,0,0,0-.73-5.86c-2.41-7.62-8.74-13.93-18.39-13.93C929,1142.67,920,1153.23,920,1170c0,14.09,7.27,25.93,21.31,25.93a19.18,19.18,0,0,0,18.22-13.5,23.38,23.38,0,0,0,1-7Z" transform="translate(-18.78 49.17)"/><path class="cls-3" d="M998.09,1153.59c0-7.52-.24-13.48-.59-19.45h11.56l.73,11.84h.36c3.54-6.76,11.91-13.47,23.8-13.47,9.89,0,25.37,6,25.37,30.68v42.94h-13v-41.51c0-11.63-4.39-21.38-16.64-21.38-8.6,0-15.3,6.11-17.64,13.44a20.15,20.15,0,0,0-.9,6.07v43.38h-13Z" transform="translate(-18.78 49.17)"/><path class="cls-3" d="M1133.13,1116.75h-30.56v-11h74.29v11h-30.71v89.38h-13Z" transform="translate(-18.78 49.17)"/><path class="cls-3" d="M1214,1206.13l-25.43-100.33h13.74l12,50.77c2.89,12.55,5.57,25,7.36,34.68h.34c1.63-10,4.78-21.93,8.16-34.83l13.48-50.62H1257l12.26,50.84c2.8,12,5.5,23.84,7,34.41h.32c2-11,4.79-22.17,7.91-34.66l13.27-50.59h13.31l-28.47,100.33h-13.53l-12.63-52.2a300.79,300.79,0,0,1-6.63-32.82h-.3a281.4,281.4,0,0,1-7.72,32.8l-14.2,52.22Z" transform="translate(-18.78 49.17)"/><path class="cls-3" d="M1432.68,1202.91c-4.68,2.36-14.29,4.78-26.52,4.78-28.26,0-49.45-17.88-49.45-50.81,0-31.49,21.23-52.64,52.37-52.64,12.39,0,20.39,2.63,23.81,4.42l-3.2,10.54a47.7,47.7,0,0,0-20.18-4.13c-23.56,0-39.13,15-39.13,41.39,0,24.55,14.14,40.23,38.45,40.23,8,0,16-1.6,21.25-4.11Z" transform="translate(-18.78 49.17)"/><path class="cls-3" d="M1515.75,1169.44c0,26.66-18.49,38.33-35.8,38.33-19.52,0-34.6-14.23-34.6-37.09,0-24.09,15.83-38.17,35.74-38.17C1501.79,1132.51,1515.75,1147.52,1515.75,1169.44Zm-57.08.84c0,15.79,9,27.68,21.82,27.68,12.55,0,21.94-11.73,21.94-28.07,0-12.18-6.14-27.57-21.7-27.57-15.38,0-22.06,14.31-22.06,28Z" transform="translate(-18.78 49.17)"/><path class="cls-3" d="M1536,1153.59c0-7.52-.24-13.48-.59-19.45H1547l.73,11.84h.36c3.54-6.76,11.91-13.47,23.8-13.47,9.89,0,25.37,6,25.37,30.68v42.94h-13v-41.51c0-11.63-4.39-21.38-16.64-21.38-8.6,0-15.3,6.11-17.64,13.44a20.15,20.15,0,0,0-.9,6.07v43.38h-13Z" transform="translate(-18.78 49.17)"/><path class="cls-3" d="M1623.64,1206.13v-62.07h-10.05v-9.92h10.05v-3.47c0-10.15,2.33-19.33,8.37-25.22a25.07,25.07,0,0,1,17.5-6.64,28.35,28.35,0,0,1,11.18,2.11l-1.73,10a19.92,19.92,0,0,0-8.41-1.64c-11,0-14,9.81-14,20.92v3.89H1654V1144h-17.33v62.07Z" transform="translate(-18.78 49.17)"/><path class="cls-3" d="M1674.94,1172.5c.26,17.7,11.49,25,24.64,25,9.36,0,15.09-1.68,19.93-3.68l2.3,9.29c-4.58,2.1-12.58,4.59-24,4.59-22.12,0-35.42-14.73-35.42-36.33,0-21.82,12.85-38.85,33.87-38.85,23.49,0,29.63,20.6,29.63,33.85a31.57,31.57,0,0,1-.45,6.14Zm38.32-9.42c.13-8.25-3.38-21.19-18.06-21.19-13.36,0-19,12.08-20.1,21.19Z" transform="translate(-18.78 49.17)"/><path class="cls-3" d="M1745.88,1156.56c0-8.5-.21-15.74-.59-22.42h11.47l.5,14.12h.47c3.36-9.65,11.3-15.75,20-15.75a14.86,14.86,0,0,1,3.64.37v12.31a20.8,20.8,0,0,0-4.45-.38c-9.23,0-15.74,7-17.52,16.75a33.84,33.84,0,0,0-.53,6.11v38.46h-13Z" transform="translate(-18.78 49.17)"/><path class="cls-3" d="M1804.14,1172.5c.26,17.7,11.49,25,24.64,25,9.36,0,15.1-1.68,19.94-3.68l2.29,9.29c-4.58,2.1-12.58,4.59-24,4.59-22.12,0-35.42-14.73-35.42-36.33,0-21.82,12.85-38.85,33.87-38.85,23.49,0,29.63,20.6,29.63,33.85a31.57,31.57,0,0,1-.45,6.14Zm38.32-9.42c.13-8.25-3.38-21.19-18.06-21.19-13.36,0-19.05,12.08-20.1,21.19Z" transform="translate(-18.78 49.17)"/><path class="cls-3" d="M1875.11,1153.59c0-7.52-.25-13.48-.59-19.45h11.56l.73,11.84h.36c3.54-6.76,11.91-13.47,23.8-13.47,9.89,0,25.37,6,25.37,30.68v42.94h-13v-41.51c0-11.63-4.39-21.38-16.64-21.38-8.6,0-15.3,6.11-17.64,13.44a20.15,20.15,0,0,0-.9,6.07v43.38h-13Z" transform="translate(-18.78 49.17)"/><path class="cls-3" d="M2012.77,1203.52a49.58,49.58,0,0,1-20.65,4.17c-21.71,0-35.92-14.77-35.92-36.78,0-22.19,15.13-38.38,38.67-38.38,7.72,0,14.67,2,18.2,3.83l-2.91,10.06a31.89,31.89,0,0,0-15.31-3.46c-16.42,0-25.43,12.31-25.4,27.26,0,16.68,10.73,26.94,25.08,26.94a38.08,38.08,0,0,0,16-3.46Z" transform="translate(-18.78 49.17)"/><path class="cls-3" d="M2038.28,1172.5c.26,17.7,11.49,25,24.64,25,9.36,0,15.1-1.68,19.94-3.68l2.29,9.29c-4.58,2.1-12.58,4.59-24,4.59-22.12,0-35.42-14.73-35.42-36.33,0-21.82,12.85-38.85,33.87-38.85,23.49,0,29.63,20.6,29.63,33.85a31.57,31.57,0,0,1-.45,6.14Zm38.32-9.42c.13-8.25-3.38-21.19-18.06-21.19-13.36,0-19,12.08-20.1,21.19Z" transform="translate(-18.78 49.17)"/><path class="cls-3" d="M2140.27,1206.13v-8l10.27-10c24.7-23.55,35.95-36.12,36-50.7,0-9.83-4.67-18.94-19.07-18.94-8.84,0-16.08,4.54-20.58,8.19l-4.17-9.16a42.47,42.47,0,0,1,27.36-9.84c20.81,0,29.55,14.3,29.55,28.07,0,18-13,32.41-33.31,52l-7.65,7.23v.3H2202v10.84Z" transform="translate(-18.78 49.17)"/><path class="cls-3" d="M2284.77,1156.77c0,32.82-12.28,51-33.66,51-18.89,0-31.74-17.7-32.05-49.66,0-32.52,14-50.37,33.68-50.37C2273.12,1107.74,2284.77,1126,2284.77,1156.77Zm-52.54,1.37c0,25.23,7.74,39.47,19.63,39.47,13.35,0,19.73-15.61,19.73-40.25,0-23.88-6-39.43-19.63-39.43C2240.56,1117.93,2232.22,1131.92,2232.23,1158.14Z" transform="translate(-18.78 49.17)"/><path class="cls-3" d="M2300.43,1206.13v-8l10.27-10c24.7-23.55,36-36.12,36-50.7,0-9.83-4.67-18.94-19.07-18.94-8.84,0-16.08,4.54-20.58,8.19l-4.17-9.16a42.47,42.47,0,0,1,27.36-9.84c20.81,0,29.55,14.3,29.55,28.07,0,18-12.95,32.41-33.31,52l-7.65,7.23v.3h43.35v10.84Z" transform="translate(-18.78 49.17)"/><path class="cls-3" d="M2409,1121.53h-.3l-16.8,9.07-2.51-9.95,21.14-11.27h11.1v96.75H2409Z" transform="translate(-18.78 49.17)"/><path class="cls-3" d="M512.21,1046.7h-91.7l51.14-55.27Q484.58,977.8,490,969.89A31.14,31.14,0,0,0,495.34,952q0-10.05-7.81-17.59a26.79,26.79,0,0,0-19.38-7.54A25.47,25.47,0,0,0,448.86,935q-7.71,8.16-8.79,23.24H425.18q.88-21.18,13.45-33.65a41.62,41.62,0,0,1,30.42-12.47q17.85,0,29.61,11.57A38.18,38.18,0,0,1,510.41,952,43,43,0,0,1,504,974.74q-6.45,10.59-19.56,24.58L454.3,1031.8h58Z" transform="translate(-18.78 49.17)"/><path class="cls-3" d="M584.34,912.11q21.18,0,33.56,17.85t12.38,51.15q0,33.28-12.56,51.05t-33.65,17.77q-21.09,0-32.66-17.5t-11.57-51.5q0-34,11.57-51.41T584.34,912.11Zm.36,123.64q14.71,0,22.88-14.27T615.75,981q0-26.21-8.44-40.2t-22.7-14q-14.26,0-22.16,14t-7.9,40.56Q554.55,1035.76,584.7,1035.75Z" transform="translate(-18.78 49.17)"/><path class="cls-3" d="M746.92,1046.7h-91.7l51.14-55.27q12.93-13.63,18.31-21.54A31.08,31.08,0,0,0,730.05,952q0-10.05-7.81-17.59a26.79,26.79,0,0,0-19.38-7.54A25.47,25.47,0,0,0,683.57,935q-7.71,8.16-8.79,23.24H659.89q.89-21.18,13.46-33.65a41.54,41.54,0,0,1,30.41-12.47q17.85,0,29.61,11.57A38.18,38.18,0,0,1,745.12,952a43.07,43.07,0,0,1-6.46,22.79q-6.45,10.59-19.56,24.58L689,1031.8h58Z" transform="translate(-18.78 49.17)"/><path class="cls-3" d="M829.82,1046.7H814.57V930.41H793.21l9.33-15.07h27.28Z" transform="translate(-18.78 49.17)"/><path class="cls-3" d="M940.36,914.93q10.93,8.07,19.38,15a131.65,131.65,0,0,1,12.74,11.57l-11.13,10.77q-8.43-12.37-26.2-27.1a256.59,256.59,0,0,1-13.37,22.61q-8,12.21-17.13,24a29.66,29.66,0,0,0-10.23-9.69,145.89,145.89,0,0,0,23.15-31.85A149.4,149.4,0,0,0,931,895.73a57.74,57.74,0,0,0,8.62,4.3,72.68,72.68,0,0,0,7.72,2.69q4.3,1.26.17,3.77a22.3,22.3,0,0,0-3.23,3.14A46.19,46.19,0,0,0,940.36,914.93Zm7.35,74.47H924.56c-3.47,0-7,.12-10.76.36s-7.42.65-11.13,1.24V976.48c1.8.24,3.71.44,5.74.62s4.37.3,7,.36l9.15.18q5.21.09,12.21.09c4.67,0,8.52,0,11.93-.09s6.46-.11,9.15-.18,5.09-.18,7.18-.36,4-.38,5.83-.62L940,1022.41q5.73,5.75,10.14,11.13a86.91,86.91,0,0,1,6.9,9.51l-12.56,8.08a130.39,130.39,0,0,0-16-22.61A106.71,106.71,0,0,0,907.16,1010l9.87-9.33q3.59,3.06,7.18,6.37t7.17,6.73Zm-10.94-15.26a39.42,39.42,0,0,0-5.12-10.76,107.56,107.56,0,0,0-8.34-10.23l10.77-7.36a104.67,104.67,0,0,1,9.24,10.5,100.28,100.28,0,0,1,7.44,11.57Zm65.14,54.91c1.91.84,2.84,1.68,2.78,2.52s-1.17,1.37-3.32,1.61a12.89,12.89,0,0,0-4.31,1.89,79.47,79.47,0,0,0-8.07,5.83q-6.29,5.2-11.49,9.06t-10.94,7.45a25.65,25.65,0,0,0-5.84-5.21,42.26,42.26,0,0,0-7.44-3.77A154.38,154.38,0,0,0,973,1036.59a114.18,114.18,0,0,0,16.86-14.89A73.78,73.78,0,0,0,1001.91,1029.05Zm-.36-111.43q-11.67,0-20.37.36t-15.52,1.07V904.34q8.43.9,19.47,1.16t26.83.27q15.78,0,27-.27t19.83-1.16v14.71q-7.71-.7-17.76-1.07t-23.51-.36q-1.44,4.13-2.6,8.34t-2.25,8.53q7.73,0,13.19-.09t9.51-.27c2.69-.12,5-.27,7-.45s3.86-.39,5.65-.63c-.24,1.91-.44,4.67-.62,8.25s-.27,7.12-.27,10.59v50.43c0,3.47.09,7,.27,10.49s.38,6.32.62,8.35c-1.79-.24-3.74-.45-5.83-.63s-4.55-.3-7.36-.36l-9.95-.18q-5.75-.09-14-.09t-14,.09l-10,.18q-4.21.09-7.27.36t-5.74.63c.12-.84.21-1.94.27-3.32s.15-2.93.27-4.67.21-3.52.27-5.38.09-3.68.09-5.47V951.89c0-1.79,0-3.61-.09-5.47s-.15-3.65-.27-5.38-.21-3.29-.27-4.67-.15-2.48-.27-3.32a85.07,85.07,0,0,0,9.69,1q5.38.27,15.26.45a120.4,120.4,0,0,0,2.73-16.88Zm32.66,27.45H987.55v14h46.66Zm0,24.59H987.55v14.53h46.66Zm0,24.4H987.55V1009h46.66Zm14.53,63.53a115.74,115.74,0,0,0-15.7-14.72,136.17,136.17,0,0,0-18.93-12l8.43-10.23q4.67,2.68,9.87,6.1t10.23,6.91q5,3.49,9.51,6.82t7.54,6Z" transform="translate(-18.78 49.17)"/><path class="cls-3" d="M1125.55,1014.16q4.31-2,8.16-3.86c2.57-1.25,4.94-2.54,7.09-3.86a24.27,24.27,0,0,0-.72,7,22.61,22.61,0,0,0,1.44,6.64q-4,1.44-9.07,3.86t-10.76,5.47q-5.65,3.06-11.4,6.82t-11.12,7.72a53.89,53.89,0,0,0-2.43-9,45.86,45.86,0,0,0-3.67-7.72q5-1.79,10-3.77l10-4v-57.7a90.93,90.93,0,0,0-17.58,1.62V948.12a61.29,61.29,0,0,0,7.62,1.08q4.21.36,10,.54,0-9.15-.09-16.06t-.26-12.29c-.13-3.59-.31-6.93-.54-10s-.48-6.13-.72-9.24a46.39,46.39,0,0,0,7.09,1.34,75.74,75.74,0,0,0,8.52.45c1.44,0,2.21.33,2.33,1s-.42,1.28-1.61,1.88a4.57,4.57,0,0,0-1.89,2,6.57,6.57,0,0,0-.44,2.52v38.22a114.53,114.53,0,0,0,16.33-1.44v15.26a114.53,114.53,0,0,0-16.33-1.44Zm67.65.9a22,22,0,0,0,.71,13.64q-6.09,1.6-12.74,3.67t-13,4.49q-6.36,2.43-12.29,5t-10.76,5.12a63.53,63.53,0,0,0-2.25-7.9,69.94,69.94,0,0,0-3.32-7.71,156.76,156.76,0,0,0,25.48-5.84,251.91,251.91,0,0,0,28.17-10.47Zm5-80q-11.13,0-19.56.09c-5.62.07-10.65.18-15.07.36s-8.44.36-12,.54-7,.45-10.4.81V921.39l10.23.71q5,.36,11.39.54t14.72.27q8.34.09,20.18.09-.36-5.93-.62-10.14c-.18-2.81-.34-5.23-.45-7.27s-.21-3.85-.27-5.47-.15-3.26-.27-4.93a59.12,59.12,0,0,0,8.16,1.25,42.45,42.45,0,0,0,7.81,0c2-.24,3.11-.11,3.23.36s-.54,1.56-2,3.23c-.83,1-1.49,3.29-2,7q-.72,6.11-1.08,16,12.39-.18,21.81-.54t17.13-1.07v15.43c-5-.48-10.65-.84-16.86-1.08s-13.46-.47-21.72-.72q1.26,24.94,2.87,41.19a170.76,170.76,0,0,0,4.31,26.29q1.8-5.38,3.5-12.3t3-14q1.35-7.1,2.24-13.73a108.65,108.65,0,0,0,1.08-11.31,67.64,67.64,0,0,0,8.61,3.14,54.69,54.69,0,0,0,5.93,1.35q3.95.54-.18,3.23a4.28,4.28,0,0,0-1.44,2.51q-1.2,4.08-2,8.26a271.6,271.6,0,0,1-7,28.53q-3.95,12.75-7.54,19a122.44,122.44,0,0,0,8.08,12.92c2.15,2.87,3.88,4.3,5.2,4.31s2.36-1.38,3.14-4.13a70.83,70.83,0,0,0,1.88-12.2,29.16,29.16,0,0,0,6.55,8.07,18.91,18.91,0,0,0,7.09,4q-4.12,11.13-6.73,17t-5.29,7.45c-1.79,1-3.83.74-6.1-.81a74.36,74.36,0,0,1-9-7.72q-6.1-5.74-12.39-16.87a159.66,159.66,0,0,1-10.94,13.91,113.46,113.46,0,0,1-13.1,12.65,67.59,67.59,0,0,0-7-5.74,33,33,0,0,0-6.46-3.41q5.75-3.59,10.41-7.09a91.91,91.91,0,0,0,8.43-7.09,76.48,76.48,0,0,0,6.82-7.35,94.67,94.67,0,0,0,5.74-7.9,109.81,109.81,0,0,1-4.57-13.91,165.83,165.83,0,0,1-3.32-16.69q-1.44-9.42-2.42-21.89T1198.22,935Zm-38,77.35H1146q1.08-6.28,1.62-10.5a79.59,79.59,0,0,0,.54-10V968.58c0-1.55,0-3.29-.09-5.2s-.16-3.8-.27-5.66-.24-3.55-.36-5.11-.24-2.81-.36-3.77c1.19.24,2.39.42,3.59.54s2.57.24,4.13.36,3.46.21,5.74.27,5.08.09,8.43.09,6.22,0,8.61-.09,4.46-.15,6.2-.27,3.2-.24,4.39-.36a27.82,27.82,0,0,0,3.41-.54,30,30,0,0,0-.63,3.77c-.18,1.56-.33,3.23-.44,5s-.22,3.62-.27,5.48-.09,3.68-.09,5.47v23.15q0,4.31.27,8.25c.18,2.64.56,6,1.16,10.23h-13.46v-9.33h-17.94Zm17.94-50.79H1160.2V989.4h17.94Zm53.66-41.81q-2.52-4.12-5.12-7.63a58.74,58.74,0,0,0-5.65-6.55l12.2-7.71c1.92,2,3.71,4.07,5.39,6.1s3.41,4.25,5.2,6.64Z" transform="translate(-18.78 49.17)"/><path class="cls-3" d="M1305.35,1005.19q-2,15.79-4.66,29.61l-11.67-.18a121.37,121.37,0,0,0,3.86-15.35,112.08,112.08,0,0,0,1.7-14.26Zm33.74-72.32q4.67,0,9-.27t9-.63v13.28q-4.66-.36-9-.63c-2.87-.18-5.86-.26-9-.26v14.35q5,0,9.78-.27t9.06-.63v12.74c-2.87-.23-5.89-.43-9.06-.62s-6.43-.28-9.78-.27v14.17q7.35,0,12.38-.27c3.35-.18,6.76-.5,10.23-1A35.93,35.93,0,0,0,1361,988c-.12,2-.18,4.52-.18,7.63q-.18,18.3-.54,29t-.72,13.37a24.26,24.26,0,0,1-1.88,6.73,14.65,14.65,0,0,1-4,5.2,25.07,25.07,0,0,1-7.18,4,94.38,94.38,0,0,1-11.3,3.32,15.26,15.26,0,0,0-2.06-7.09,31.89,31.89,0,0,0-5.66-7.45q6.64,0,10.5-.36a18.33,18.33,0,0,0,5.92-1.34,5.67,5.67,0,0,0,2.87-2.78,16.86,16.86,0,0,0,1.17-4.85,105.19,105.19,0,0,0,1.08-14.62q.16-9.24-.72-24H1318q-8.61,0-13.19.18t-8,.54q.54-6.28.81-18.4t.26-28.8q0-11.84-.17-22.61t-.72-19.92q5.73.54,13.28.81t18.3.27h10.32q4.4,0,8-.18l6.64-.36c2-.12,4.19-.29,6.46-.54V919.6q-4.67-.54-9.33-.81c-3.11-.18-6.93-.27-11.48-.27Zm-31.23,98.88q.54-6.46.63-13t-.27-13l9.69-.54q.54,6.82.81,13T1319,1031Zm19.38-98.7V918.51h-16.86v14.54Zm-16.86,11.13v14.71h16.86V944.18Zm16.86,25.3h-16.86v14.35h16.86Zm-5.2,61q.36-6.46.18-12.83a111.64,111.64,0,0,0-1.08-12.65l9-.18q1.08,6.46,1.8,12.2c.48,3.83.83,7.9,1.08,12.2Zm13.28-1.26q-.18-6.27-.72-12.47t-1.61-12.47l9.51-.54c.47,2.87.92,5.45,1.34,7.72s.75,4.37,1,6.28.42,3.74.54,5.47.24,3.5.36,5.3Zm44,29.79h-13.81q.35-4.48.53-11.84t.18-14.18V931.79q0-6.63-.18-13.54t-.53-11.4a39.74,39.74,0,0,0,4.84.81q2.51.27,7,.54c3,.18,6.85.3,11.57.36s10.92.09,18.58.09,14.08,0,18.93-.09,8.76-.18,11.75-.36,5.32-.36,7-.54a46.9,46.9,0,0,0,5-.81V922.1c-1.79-.35-3.49-.62-5.11-.8s-3.65-.33-6.1-.45-5.54-.21-9.24-.27-8.5-.09-14.36-.09H1379.3v115.74h37q9.51,0,15.88-.09t10.68-.27c2.87-.11,5.24-.29,7.09-.54s3.5-.47,4.93-.71v15.07a45.68,45.68,0,0,0-7.09-.81q-4.76-.27-10.94-.54c-4.13-.17-8.53-.3-13.19-.35s-9.16-.09-13.46-.09h-30.87Zm34.82-33.91a36.75,36.75,0,0,0-5.93-.36H1390.5c-2.1,0-3.86.06-5.3.18.12-1.32.18-2.75.18-4.31V984c0-1.55-.06-3-.18-4.3a33.56,33.56,0,0,0,5.3.36h8.88q4.84,0,8.79-.09t5.93-.27c-.12,1.31-.18,2.78-.18,4.39v36.79c0,1.39.08,2.79.18,4.23Zm25.12-56q-4.12-.18-10.5-.18h-27.9q-5.38,0-9.33.18c.11-1.32.2-2.75.26-4.31s.09-3.17.09-4.84V936.19a22.13,22.13,0,0,0-.35-4.22q3.95.36,9.33.45t14,.09q7.55,0,13.91-.18t10.5-.36c-.12,1.32-.21,2.78-.27,4.4s-.09,3.26-.09,4.93v23.78a22.77,22.77,0,0,0,.31,4Zm-35.35,20.28h-8.26v25.48h8.26Zm22.43-45.94h-22.43v15.07h22.43Zm22.79,81.83q-2.34-.18-6.46-.27t-9.15-.09h-9.16c-2.27,0-4.18.06-5.74.18.12-1.32.18-2.75.18-4.31V984c0-1.55-.06-3-.18-4.3a39.33,39.33,0,0,0,5.74.36h9.16q5,0,9.15-.09t6.46-.27c-.12,1.31-.21,2.78-.27,4.39s-.09,3.26-.09,4.94v32a25.31,25.31,0,0,0,.32,4.26Zm-10.23-35.89h-9.51v25.48h9.51Z" transform="translate(-18.78 49.17)"/><path class="cls-3" d="M1547.24,1031.21q10.23-.72,18.67-1.62t13.64-2a36,36,0,0,0-.54,10.77q-12.57,1.25-24.86,2.33t-22.34,2.33l-16.24,2.06q-6.19.81-9.87,1.35a47.87,47.87,0,0,0-5.56,1.08,26.06,26.06,0,0,0-3.5,1.25,54.36,54.36,0,0,0-4.49-15.79q7.55.36,18.94.09t23.77-1.16v-10.77q-6.45,0-11.48.09l-9.15.18q-4.14.09-7.81.36t-7.45.62v-12.92c2.63.25,5.18.45,7.63.63s5.08.3,7.9.36l9.15.18c3.29.06,7,.09,11.21.09v-9.51q-7.53,0-12.56.09t-8.43.18c-2.28.06-4.16.15-5.65.27s-2.85.24-4,.36c.12-.84.21-2,.27-3.32s.11-2.9.18-4.58.11-3.41.18-5.2.09-3.59.09-5.39V967c0-3.47-.07-7-.18-10.59a77.86,77.86,0,0,0-.54-7.9q3.94.36,11.75.63t18.93.45v-8.43q-7.17,0-12.92.08l-10.58.18c-3.23.07-6.23.18-9,.36s-5.44.39-8.07.63V929.46q3.95.36,8.16.63c2.81.18,5.84.3,9.06.36l10.5.18q5.65.09,12.83.09V920.31q-9.51.9-18.21,1.35t-13.73.62a20.08,20.08,0,0,0-1.34-5.56,45.76,45.76,0,0,0-3.86-6.64,142.36,142.36,0,0,0,18,.72q10-.18,22.34-1.44,6.47-.71,11.4-1.34t8.88-1.35c2.63-.48,5.05-1,7.27-1.61s4.45-1.32,6.73-2.16c1.43,2.4,2.71,4.37,3.86,5.92s2.73,3.52,4.75,5.93c1,1.31,1.26,2.21.9,2.69s-1.26.6-2.69.36a30.56,30.56,0,0,0-5.57-.36q-3.77,0-10,.54l-8,.71c-2.57.25-5.36.48-8.35.72v11.31q11.13-.18,18.76-.45t14.44-.81v12.92q-6.82-.54-14.44-.81t-18.76-.44v8.43q11.49,0,19.56-.27c5.39-.18,9.45-.45,12.21-.81-.12.84-.21,1.95-.27,3.32s-.12,2.9-.18,4.58-.12,3.41-.18,5.2-.09,3.59-.09,5.39v16.68c0,1.8,0,3.59.09,5.39s.12,3.53.18,5.2.12,3.2.18,4.58.15,2.48.27,3.32c-2.76-.24-6.82-.45-12.21-.63s-11.9-.27-19.56-.27v9.51q5.74,0,10.14-.18c2.93-.12,5.66-.21,8.17-.27s4.9-.15,7.18-.27,4.6-.29,7-.54v12.92c-2.39-.11-4.73-.26-7-.44s-4.67-.3-7.18-.36-5.24-.15-8.17-.27-6.31-.18-10.14-.18ZM1534.86,960H1517.1v11.12h17.76Zm0,20.45H1517.1v11h17.76Zm12.38-9.33h18.49V960h-18.49Zm0,20.28h18.49v-11h-18.49Zm67.84-53.83h12.83c3.28,0,6-.06,8.25-.18s4.07-.24,5.56-.36,3-.3,4.58-.54l-4,95.47a51,51,0,0,1-1.08,9.78,12,12,0,0,1-3.85,6.46,22.21,22.21,0,0,1-8.44,4.21,116.52,116.52,0,0,1-14.8,3,28.35,28.35,0,0,0-2-8.61,37.55,37.55,0,0,0-4.66-8.08,90.76,90.76,0,0,0,11.66.27,14.64,14.64,0,0,0,6.55-1.61,6.42,6.42,0,0,0,3-3.86,28.74,28.74,0,0,0,.9-6.46l2.69-77.88h-17.76q-.9,18.48-1.8,30.87a145,145,0,0,1-1.79,16.5q-2.34,12.57-4.4,21.36a79.33,79.33,0,0,1-5.47,16,61.06,61.06,0,0,1-9,13.64,130.5,130.5,0,0,1-14.72,14.17,32.88,32.88,0,0,0-6.19-6,42.77,42.77,0,0,0-8.34-4.57,65.14,65.14,0,0,0,14.89-9.16,46.77,46.77,0,0,0,9.78-11.3,59,59,0,0,0,6.19-14.09,171.5,171.5,0,0,0,4.13-17.49c.48-2.52.92-5.21,1.34-8.08s.78-6.25,1.08-10.14.57-8.4.81-13.55.48-11.18.72-18.12q-5.74.18-9.42.45c-2.45.18-5,.45-7.63.81v-14c2.41.36,4.84.6,7.27.72s5.79.24,10,.36q.16-11.31.09-18.58c0-4.85-.11-8.73-.18-11.66s-.18-5.14-.36-6.64-.39-2.78-.63-3.86a76.65,76.65,0,0,0,8.25,1.35c2.75.3,5.69.51,8.8.63,1.43,0,2.27.3,2.51.89s-.24,1.38-1.44,2.34c-1,.83-1.73,2.75-2.33,5.74a79.85,79.85,0,0,0-1.08,13.1q-.35,8.6-.51,16.67Z" transform="translate(-18.78 49.17)"/><path class="cls-3" d="M1756.3,937.18q-6.46-.54-15.16-.72t-20.73-.18q-12.21,0-20.81.09t-15.44.81V923.72q7,.54,15.53.81t20.72.27q12,0,20.64-.27t15.25-.81Zm10,45.58q-6.29.36-10,.54V969.48q8.61.36,18.66.63t19.92.27q9.69,0,18.57-.27t17.5-.63a277.18,277.18,0,0,1-11.48,33.29,111.25,111.25,0,0,1-13.82,24,83.05,83.05,0,0,0,20.54,10.77,87.43,87.43,0,0,0,22.88,4.84,35.66,35.66,0,0,0-6.55,7.27,37.12,37.12,0,0,0-3.85,8.34,168.06,168.06,0,0,1-22.79-9.6,110.28,110.28,0,0,1-18.49-11.93,101.14,101.14,0,0,1-15.88,12.29,181.88,181.88,0,0,1-19.83,10.68,14.09,14.09,0,0,0-3.76-5.92,29,29,0,0,0-8.26-5.38h-14.18V1037h-29.07v15h-15.07q.9-6.29,1.17-11.3t.27-11.13v-25.3q0-4.66-.09-7.72t-.27-5.92l4,.36c1.38.12,3.08.21,5.12.27s4.6.09,7.72.09H1733q4.66,0,7.72-.09c2-.06,3.71-.15,5-.27l3.77-.36A43.92,43.92,0,0,0,1749,996q-.09,3-.09,8.25v21.35c0,3.36.12,6.76.36,10.23s.66,7.12,1.26,11a140.13,140.13,0,0,0,21-8.43,78.79,78.79,0,0,0,16.15-10.77q-6.63-7.17-12-18.93a174.37,174.37,0,0,1-9.33-25.94ZM1748,981.5c-3.48-.36-7.39-.6-11.76-.72s-9.72-.18-16.06-.18-11.63.07-15.88.18-8.11.36-11.57.72V968q5.19.54,11.57.81t15.88.27q9.51,0,16.06-.27c4.37-.18,8.28-.45,11.76-.81Zm.53-22.61a97.71,97.71,0,0,0-11.84-.81q-6.64-.09-16.15-.09t-16,.09a94.78,94.78,0,0,0-11.66.81v-13.1a108.35,108.35,0,0,0,11.66.9q6.46.18,16,.18t16.15-.18a106.65,106.65,0,0,0,11.84-.9Zm-31.76-36.61a59.24,59.24,0,0,0-4-11.12,50.93,50.93,0,0,0-6.55-10.59l14.72-6.64q3,5.75,5.56,10.5t6.1,12.11Zm18.66,104.08V1003h-29.07v23.33Zm108.21-81.83a23.6,23.6,0,0,0-2.33,7.27,40.52,40.52,0,0,0,0,7.63q-12.39.18-19.38-.18a46.52,46.52,0,0,1-10.5-1.44c-2.33-.71-3.76-1.71-4.31-3a13.09,13.09,0,0,1-.8-4.84V918h-23.51a101.32,101.32,0,0,1-1.35,15.16,64.13,64.13,0,0,1-3.41,12.47,56.29,56.29,0,0,1-5.65,10.86,80.1,80.1,0,0,1-7.89,10,23.59,23.59,0,0,0-5.21-5.57,35.69,35.69,0,0,0-6.82-3.76,64.36,64.36,0,0,0,9.6-9.43,29.86,29.86,0,0,0,5.39-10.31,47.54,47.54,0,0,0,1.7-13.37,176.09,176.09,0,0,0-1.26-18.93q8.79.54,27.28.53c6.34,0,11.72,0,16.15-.09s8.13-.2,11.13-.44a36.09,36.09,0,0,0-1.44,5.2,51.4,51.4,0,0,0-.81,6.55q-.27,3.86-.36,9.33t-.09,13.37a8,8,0,0,0,.72,3.59,4.81,4.81,0,0,0,3.23,2.15,24.66,24.66,0,0,0,7.27.54q4.82-.24,12.7-1.32Zm-65,37.87a96,96,0,0,0,7.45,21,64,64,0,0,0,10.14,15.26,71.41,71.41,0,0,0,9.6-16.06,149.72,149.72,0,0,0,6.91-20.19Z" transform="translate(-18.78 49.17)"/><path class="cls-3" d="M1961.59,938.07q-7.18-.52-16.78-.71t-23.06-.18q-13.45,0-23.15.18t-16.87.71V924.26q7.18.54,16.87.8t23.15.27q13.45,0,23.06-.27t16.78-.8Zm-9.15,23q-5.75-.52-13.1-.71t-18.13-.18q-10.77,0-18.21.18t-13.19.71V947.76q5.75.54,13.19.81t18.21.27q10.77,0,18.13-.27t13.1-.81Zm.17,23.69q-5.74-.54-13.09-.72t-18.13-.18q-10.77,0-18.21.18t-13.19.72V971.45q5.74.54,13.19.81t18.21.27q10.77,0,18.13-.27t13.09-.81Zm-46.11,51.86v14.89h-14.36q.54-3.94.72-7.26t.18-7.45v-27.45c0-3.11,0-5.69-.09-7.72s-.15-4-.27-5.92l4.13.36c1.43.12,3.25.21,5.47.27s4.94.08,8.16.08h24.5c3.29,0,6,0,8.17-.08s3.94-.15,5.38-.27l4.12-.36a44,44,0,0,0-.44,5.38q-.09,3.06-.09,8.26v25.12q0,4.13.27,7.53c.18,2.28.44,4.67.8,7.18h-14.71v-12.56Zm10.23-113.95a54.2,54.2,0,0,0-4.49-11.39,58,58,0,0,0-6.64-10.14l14.18-6.64q3,4.85,6.28,10.77t5.56,11.12Zm21.71,103.72V1006.8H1906.5v19.56Zm69.62,3.41q0,6.1.18,13.73t1.08,15.16h-17.41q1.08-7.53,1.53-15.16t.45-13.73V966.25q-11.31,0-21.45.27t-16.24.63v-14.9q6.29.36,16.33.63t21.36.45V921.21q0-9.33-.45-16.42a53.83,53.83,0,0,0-1.53-10.86c3.33.6,6.3,1.05,8.89,1.35a55.12,55.12,0,0,0,8.52.27c2.15-.12,3.44.18,3.86.89s-.45,1.74-2.6,3a5,5,0,0,0-2,2.07,9.23,9.23,0,0,0-.54,3.68v48.09l22-.28q10.23-.18,16.51-.72v14.9q-6.29-.54-16.51-.72t-21.9-.18Z" transform="translate(-18.78 49.17)"/><path class="cls-3" d="M2175.85,919.41q19.2,0,32.12-.27t22.79-1.16v16q-10.05-.72-22.79-1.08t-31.23-.36v27.82q14-.18,25-.45t20.63-1V973.8q-10.23-.52-21.44-.89t-24.14-.54v31.4q15.8,0,26.65-.09t18.13-.27q7.26-.17,11.84-.53t8.16-.72v16.15q-3.22-.36-7.26-.63c-2.7-.18-6.4-.33-11.13-.45s-10.8-.24-18.21-.36-16.81-.18-28.18-.18q0,12.39.27,22.88t1.17,21.45h-18.12q.88-11.13,1.16-21.54t.27-22.79q-19.92,0-33.47.09t-22.52.36q-9,.27-14.53.54t-9.51.63v-16.15q6.09.72,13.81,1t16.87.45V975.4a100.29,100.29,0,0,0-1.25-16.51q10.93.9,23.06,1.17t27.54.27V932.51h-38.22q-5.57,9.51-11,17.14t-9.87,13a30.42,30.42,0,0,0-6.73-3.59c-2.69-1.08-5.65-2.09-8.88-3a106.93,106.93,0,0,0,11.31-12.56,184.07,184.07,0,0,0,10.58-15.25,168.81,168.81,0,0,0,9.07-16.6,148.13,148.13,0,0,0,6.72-16.6q5.2,2,9.07,3.23c2.57.84,4.81,1.49,6.73,2,2.39.6,3.73,1.14,4,1.62s-.45,1.19-2.24,2.15a6.55,6.55,0,0,0-1.61,1.26,29.32,29.32,0,0,0-2.25,2.6q-1.33,1.71-3.23,4.48c-1.25,1.86-2.72,4.22-4.39,7.09Zm-49.17,52.94v31.4h34.81v-31.4Z" transform="translate(-18.78 49.17)"/><path class="cls-3" d="M2296.79,951.71c-1.91,1-3.83,1.86-5.74,2.69s-3.89,1.74-5.92,2.7a38.4,38.4,0,0,0-3.59-6.91,50.91,50.91,0,0,0-4.84-5.83q6.81-2.16,14-5a148.59,148.59,0,0,0,13.82-6.28q6.63-3.41,12.56-7a98.85,98.85,0,0,0,10.23-7q5.57-4.3,9.69-8t7.18-6.91a64,64,0,0,0,5.2-6.19,50.35,50.35,0,0,0,3.77-6c1.08.48,2.33,1,3.77,1.61s2.93,1.2,4.48,1.8,3.11,1.13,4.67,1.61a42.49,42.49,0,0,0,4.13,1.08c1.67.36,2.6,1.07,2.78,2.15s-.69,1.86-2.6,2.33q-.72.18-1.8.54a63.54,63.54,0,0,0,11,9.51,132.22,132.22,0,0,0,16.6,9.87,141,141,0,0,0,22,9.07,117.41,117.41,0,0,0,22.88,4.57,34.75,34.75,0,0,0-5.65,7.18,49,49,0,0,0-4,10.05c-1.68-.6-3.26-1.2-4.76-1.8s-2.9-1.19-4.21-1.79c-.25,3.11-.42,6.61-.54,10.5s-.18,7.51-.18,10.85q0,6.1.18,11.31c.12,3.47.29,7.12.54,10.94L2409,993q-6.73-.18-14.27-.27t-16.15-.09h-19q-19.92,0-35.08.27t-28.44.62c.23-3.23.41-6.84.53-10.85s.18-7.75.18-11.22Zm26.2-14.35q-4.84,3-10.14,5.92t-11,5.92q12.38.36,26.83.54t31,.18q17.58,0,33-.18t28.35-.54q-7.18-3.23-12.92-6t-11.84-6v5.38q-3.78-.36-7.45-.54c-2.45-.12-5.15-.24-8.07-.36s-6.14-.18-9.61-.18H2347.5c-3.41,0-6.55.07-9.42.18s-5.51.24-7.9.36-4.79.3-7.18.54Zm-4.3,120.76h-14.36a70.21,70.21,0,0,0,1.26-14.17v-29.07q0-10.95-1.08-13.46c1.19.12,3.68.21,7.45.27l13.46.18,16.77.18q9,.09,17.41.09,8.61,0,17.67-.09l16.78-.18,13.28-.18c3.71-.06,6.17-.15,7.36-.27q-1.26,2.87-1.26,13.46v28.71c0,2,.09,4.4.27,7.09a48,48,0,0,0,1,7.26h-15.07v-8.79H2318.7Zm33-97.79h-42v22.43h42Zm47.92,60.47v-8.61h-80.93v8.61Zm-80.93,9.33v8.79h80.93v-8.79Zm10.94-48.27a62.94,62.94,0,0,0-7.18-14.89L2335,961.4q2.51,3.78,4.66,7.54a66.77,66.77,0,0,1,3.59,7.18Zm29.25-73.21a143,143,0,0,1-11.75,11.48,146.32,146.32,0,0,1-14.63,11h52.76a99.64,99.64,0,0,1-13.55-9.6,129.89,129.89,0,0,1-12.82-12.88Zm49.71,74.11V960.33h-44.15v22.43h8.62a106.52,106.52,0,0,0,4.93-10.14,110.32,110.32,0,0,0,4-10.86,67.11,67.11,0,0,0,7,3.23q3.22,1.26,6.28,2.16,3.59,1.25-.18,2.87a17.64,17.64,0,0,0-4,3.41,78.75,78.75,0,0,0-6.82,9.33Z" transform="translate(-18.78 49.17)"/></g></svg>