<svg viewBox="-13.299 221.998 346.806 70.121" width="346.806" height="70.121" xmlns="http://www.w3.org/2000/svg"><defs><clipPath id="prefix__a"><path d="M0 183h434V0H0z" fill="none"/></clipPath><clipPath id="prefix__b"><path d="M73.072 123.969c-1.438-.98-3.624-1.537-5.829-1.291-5.371.595-10.062-1.974-12.455-6.294-1.066-1.923-2.942-3.152-4.66-3.736-4.274-1.453-7.795-5.352-8.266-10.43-.221-2.39-1.628-4.278-2.684-5.332-2.869-2.869-4.067-6.225-4.067-9.659v-.17c7.019 7.303 16.465 13.964 27.617 18.968 16.656 7.47 33.562 9.633 46.543 6.958-1.45.663-2.916 1.794-3.808 3.401-2.392 4.32-7.085 6.889-12.452 6.294-2.211-.246-4.393.311-5.833 1.291-2.016 1.372-4.296 2.228-7.052 2.228-2.758 0-5.036-.856-7.054-2.228" fill="none"/></clipPath><clipPath id="prefix__d"><path d="M62.728 106.025C51.576 101.021 42.13 94.36 35.111 87.057c.083-6.75 5.12-12.303 11.642-13.198 7.216 8.621 17.814 16.607 30.679 22.374 14.237 6.386 28.654 8.892 40.647 7.819-1.032 4.159-4.148 7.265-7.957 8.596a9.528 9.528 0 00-.851.335c-3.542.73-7.376 1.1-11.417 1.1-10.771 0-23.014-2.626-35.126-8.058" fill="none"/></clipPath><clipPath id="prefix__f"><path d="M0 183h434V0H0z" fill="none"/></clipPath><linearGradient id="prefix__c" gradientUnits="userSpaceOnUse" x1="0" y1="0" x2="1" y2="0"><stop offset="0" stop-color="#6dc248"/><stop offset=".1" stop-color="#60be48"/><stop offset=".2" stop-color="#54b948"/><stop offset=".3" stop-color="#49b549"/><stop offset=".4" stop-color="#3db149"/><stop offset=".5" stop-color="#32ad49"/><stop offset=".6" stop-color="#28aa4a"/><stop offset=".7" stop-color="#1ea74a"/><stop offset=".8" stop-color="#14a34a"/><stop offset=".9" stop-color="#0ba14a"/><stop offset="1" stop-color="#049e4b"/></linearGradient><linearGradient id="prefix__e" gradientUnits="userSpaceOnUse" x1="0" y1="0" x2="1" y2="0"><stop offset="0" stop-color="#51bc4a"/><stop offset=".1" stop-color="#44b74a"/><stop offset=".2" stop-color="#39b24a"/><stop offset=".3" stop-color="#2eae4a"/><stop offset=".4" stop-color="#24aa4a"/><stop offset=".5" stop-color="#1ca74a"/><stop offset=".6" stop-color="#14a44a"/><stop offset=".7" stop-color="#0ea24a"/><stop offset=".8" stop-color="#09a04b"/><stop offset=".9" stop-color="#069f4b"/><stop offset="1" stop-color="#049e4b"/></linearGradient></defs><g transform="matrix(1 0 0 -1 -48.409 348.197)" clip-path="url(#prefix__a)"><path d="M270.116 111.831c-4.014 2.573-6.7 5.29-8.483 7.451-1.782-2.16-4.472-4.878-8.486-7.45zm10.15-2.325l-.504-1.533s-.256-.793-1.026-.432a47.276 47.276 0 00-7.242 3.442v-1.57a.38.38 0 00-.378-.38h-7.074v-3.906h10.34a.381.381 0 00.378-.38v-2.037c0-.21-.17-.382-.379-.382h-10.339V91.833h14.282a.377.377 0 00.378-.377v-2.035a.381.381 0 00-.378-.383h-33.383a.382.382 0 00-.379.383v2.035c0 .21.17.377.38.377h14.28v10.495h-10.337c-.21 0-.38.172-.38.382v2.036c0 .21.17.381.38.381h10.337v3.905h-7.072a.381.381 0 00-.38.381v1.57a47.276 47.276 0 00-7.242-3.442c-.768-.36-1.029.432-1.029.432l-.499 1.533s-.092.654.615.852c8.227 3.446 12.492 8.911 15.017 12.173.36.478 1.01.58 1.317.6-.005 0-.002.004-.005.004h3.377c-.006 0-.006-.004-.006-.004.306-.02.957-.122 1.317-.6 2.525-3.262 6.791-8.727 15.017-12.173.707-.198.616-.852.616-.852m-10.483-9.113c-.166 0-.302-.118-.305-.269l-1.736-6.646c0-.15.137-.27.306-.27l2.947.003c.293 0 .535.21.535.474l1.004 6.636c0 .042-.039.076-.084.076zm-17.315-6.915l-1.735 6.646v.005c0 .15.136.268.303.268l2.947-.004c.295 0 .533-.21.533-.475l1.01-6.636c0-.042-.039-.075-.087-.075l-2.668.004c-.167 0-.303.121-.303.267" fill="#2c2e35"/></g><g transform="matrix(1 0 0 -1 -48.409 348.197)" clip-path="url(#prefix__a)"><path d="M315.339 106c.77-.822 2.37-.801 3.419-.801h3.642c.208 0 .378.167.378.378v2.271s.017.138-.138.138h-3.446c-.938.088-.927.03-.99 1.352v4.798s.034.373-.334.373h-2.817c-.501 0-.476-.373-.476-.373v-4.883c-.021-1.065-.023-2.412.762-3.253m-15.321-.629c-.015.13-.136.134-.192.109a33.348 33.348 0 00-3.31-1.495v8.186h3.103c.26 0 .467.206.467.466v1.847c0 .261-.207.47-.467.47h-3.102v6.88a.465.465 0 01-.466.466h-3.16a.461.461 0 01-.46-.466l-.004-6.876h-4.141a.464.464 0 01-.468-.466v-1.85c0-.256.208-.467.468-.467h4.14l-.004-9.596c-1.466-.448-2.958-.859-4.458-1.275-.162-.033-.194-.181-.14-.302.327-.715.977-2.158 1.215-2.683.089-.18.179-.301.468-.193.907.307 1.899.7 2.915 1.138v-6.528c-.024-1.023-.22-1.582-1.905-1.582h-1.707c-.116 0-.136-.076-.14-.114v-2.01c0-.21.17-.382.379-.382h2.71c4.226 0 4.758.546 4.758 4.026v8.52a77.73 77.73 0 013.747 2.029c.116.083.159.104.122.327zm24.536-13.466h-9.76v7.699h7.63c.21 0 .38.171.38.382v2.035c0 .21-.17.378-.38.378H303.05a.377.377 0 01-.38-.378v-2.035a.38.38 0 01.38-.382h7.63v-7.699h-9.758a.382.382 0 01-.381-.382v-2.036c0-.209.169-.378.38-.378h23.634c.21 0 .379.169.379.378v2.036a.38.38 0 01-.38.382m-22.668 20.266h2.222c.253 0 .465.215.465.483v4.046h16.353V112.654c0-.264.208-.483.468-.483h2.22c.254 0 .467.215.467.483l.003 4.718c0 1.168-.904 2.125-2.023 2.125h-7.255l.003 2.866a.478.478 0 01-.466.483h-3.181a.475.475 0 01-.468-.483v-2.866h-8.808a.47.47 0 01-.467-.467V112.654c0-.264.21-.483.467-.483m8.885 2.313c.462 0 .41-.39.41-.39 0-5.411-2.7-8.168-8.137-9.956-.45-.177-.404.259-.404.259v1.885s-.003.218.288.336c3.165 1.361 4.223 3.518 4.512 7.488 0 .412.499.378.499.378z" fill="#2c2e35"/></g><g transform="matrix(1 0 0 -1 -48.409 348.197)" clip-path="url(#prefix__a)"><path d="M162.365 109.799h4.501l-.002-5.637-4.5.004zm-2.47-7.773l9.435-.004c1.125 0 2.037.915 2.038 2.04l.001 5.835c0 1.129-.91 2.039-2.036 2.044h-9.435a2.042 2.042 0 01-2.04-2.04l-.002-5.835c0-1.13.912-2.04 2.04-2.04m11.235-4.105c-3.798-1.691-9.984-3.002-12.858-3.12h-.033a.387.387 0 00-.388.383l.002 2.803c0 .215.174.378.388.382h.018c2.55.064 8.147.53 12.832 1.876 0 0 .275.076.275-.221v-1.755c0-.256-.236-.348-.236-.348m12.972-6.784H156.1l.006 22.99h16.476c.507-3.736 1.51-8.566 3.478-13.067-1.698-2.454-3.717-4.676-6.064-6.283-.203-.126-.057-.35-.057-.35l.755-1.44s.112-.285.348-.108c2.455 1.39 4.556 3.304 6.357 5.462 1.211-2.18 2.7-4.194 4.524-5.856.186-.214.372-.046.372-.046l1.131 1.339s.152.122-.019.277c-1.742 2.06-3.085 4.378-4.134 6.758 1.287 1.872 2.386 3.844 3.333 5.775.165.315-.12.416-.12.416l-2.388.96s-.266.115-.367-.162a39.145 39.145 0 00-1.739-3.618c-1.164 3.568-1.752 7.09-2.038 9.943h6.026s.862-.004.823 1.058c-.345 1.889-.692 3.774-.89 4.84h2.191zm-27.997 28.888h15.962c.02-.642.074-1.826.225-3.391h-16.188zm19.59 0h2.858c.15-.76.356-1.935.572-3.391h-3.365a44.663 44.663 0 00-.065 3.39m11.006 2.49h-33.19a2.047 2.047 0 01-2.052-2.04V90.7a2.05 2.05 0 012.038-2.052h33.193a2.04 2.04 0 012.042 2.035l.007 29.782a2.046 2.046 0 01-2.038 2.049" fill="#2c2e35"/></g><g transform="matrix(1 0 0 -1 -48.409 348.197)" clip-path="url(#prefix__a)"><path d="M232.296 92.724c-3.403 1.596-7.366 2.984-10.91 3.79-.335.113-.391-.142-.391-.142l-.69-1.495s-.157-.314.15-.424c3.408-1.482 6.4-2.677 9.6-4.587.328-.143.719-.13.947.17.592.875.84 1.278 1.437 2.159.122.19.056.416-.143.529m-19.535 2.485c-.113.819-.137.709-.302 1.536-.012.135-.16.29-.374.202-3.774-1.956-7.518-2.93-11.607-4.064-.242-.088-.315-.26-.217-.473.334-.714.897-1.957 1.137-2.485.09-.18.342-.323.632-.22 3.33 1.126 7.513 3.246 10.557 5 .2.147.21.282.174.504m22.184 6.276c-2.317 1.09-4.956 2.75-6.91 4.668h6.913c.21 0 .38.17.38.382v2.04c0 .213-.17.38-.38.38h-23.62a47.787 47.787 0 012.302 3.224h16.856c.212 0 .38.173.38.383v2.035a.379.379 0 01-.38.383H215.33a55.057 55.057 0 011.687 3.227h16.577c.213 0 .38.168.38.383v2.039a.38.38 0 01-.38.379h-15.338c.164.406.292.755.382 1.015.129.378.109.659-.313.76-.904.193-2.738.57-3.276.71-.715.18-.843-.542-.843-.542l-.298-.961c-.097-.298-.211-.63-.338-.982h-13.685a.38.38 0 01-.38-.38v-2.038c0-.215.169-.383.38-.383h12.54a49.07 49.07 0 00-1.581-3.227h-7.913a.38.38 0 01-.38-.383v-2.035c0-.21.17-.383.38-.383h6.295a43.129 43.129 0 00-2.23-3.223h-8.591a.378.378 0 01-.378-.381v-2.04a.38.38 0 01.378-.382h6.2c-1.837-1.91-3.914-3.57-6.226-4.66-.603-.206-.314-.74-.314-.74l.446-1.09s.153-.445.692-.244a20.968 20.968 0 014.13 2.04c3.022-.756 6.63-2.38 7.53-2.757.284-.148.402.079.402.079l1.093 2.3s.187.29-.12.428c-1.258.546-4.091 1.36-6.291 1.848a31.358 31.358 0 012.985 2.796h14.8a26.081 26.081 0 012.98-2.637c-1.758-.826-4.61-1.456-6.195-1.642-.206-.02-.29-.158-.231-.39.305-.914.4-1.632.703-2.54.1-.302.243-.297.446-.246 1.054.155 5.619 1.863 7.61 3.207 1.635-1.012 3.359-1.872 5.076-2.498.53-.202.69.247.69.247l.447 1.09s.289.535-.314.74m-16.066.744l-.003-9.554c-.004-3.48-1.274-4.03-5.28-4.025h-1.762a.578.578 0 00-.58.583v1.784s-.017.139.14.139h.968c1.676.004 1.85.562 1.874 1.586v11.064a.47.47 0 00.469.467h2.135c1.125 0 2.039-.92 2.039-2.044" fill="#2c2e35"/></g><g transform="matrix(1 0 0 -1 -48.409 348.197)" clip-path="url(#prefix__a)"><path d="M209.454 70.964h2.4c-.874-2.637-2.527-7.49-3.6-10.176-.89-2.254-1.763-3.815-2.562-4.71l-2.127.946c.82.763 1.782 2.199 2.58 4.109l-4.106 9.83h2.436l2.761-7.488c.763 2.199 1.672 5.36 2.218 7.489m-15.176-7.451c0-1.288 1.072-1.562 1.798-1.562 1.291 0 2.29.908 2.51 1.944v1.473c-3.309-.184-4.308-.457-4.308-1.855m7.087-2.964l-1.835-.327c-.364.474-.583 1.092-.673 1.729-.618-1.163-1.89-1.78-3.197-1.78-1.619 0-3.418.815-3.418 3.287 0 2.544 1.364 3.308 6.343 3.527v.708c0 1.07-.2 1.78-1.89 1.78-1.073 0-2.127-.31-3.144-.835l-.473 1.818c.963.453 2.454.835 3.871.835 2.78 0 3.69-1.162 3.69-3.58v-4.105c0-1.348.235-2.473.726-3.057m-14.67 10.616c2.707 0 3.434-1.708 3.434-3.601v-7.158h-2.163v6.617c0 1.342-.454 2.34-1.926 2.34-1.017 0-2.054-.49-2.6-1.161v-7.796h-2.198v14.428l2.198.327v-5.305c.692.709 1.927 1.309 3.254 1.309m-7.727-9.142v-1.655l-1-.053c-1.799-.093-2.962.56-2.962 2.505v6.309h-1.673v1.709h1.673v2.397l2.144.545v-2.942h2.2v-1.71h-2.2v-5.49c0-1.233.272-1.615 1.2-1.615zm-13.73 1.49c0-1.288 1.07-1.562 1.798-1.562 1.29 0 2.29.908 2.507 1.944v1.473c-3.308-.184-4.306-.457-4.306-1.855m7.087-2.964l-1.837-.327c-.364.474-.58 1.092-.672 1.729-.617-1.163-1.89-1.78-3.197-1.78-1.619 0-3.416.815-3.416 3.287 0 2.544 1.361 3.308 6.341 3.527v.708c0 1.07-.2 1.78-1.89 1.78-1.07 0-2.126-.31-3.143-.835l-.474 1.818c.963.453 2.453.835 3.871.835 2.781 0 3.69-1.162 3.69-3.58v-4.105c0-1.348.236-2.473.727-3.057m-20.863 6.67c0 3.816 1.4 7.434 6.76 7.434 1.2 0 2.472-.24 3.307-.491l-.363-2.018a8.223 8.223 0 01-2.87.528c-3.2 0-4.453-2.237-4.453-5.486 0-3.093 1.435-5.016 4.507-5.016.962 0 2.29.235 3.034.508l.237-2.036c-.764-.256-2.127-.491-3.362-.491-5.288 0-6.797 3.307-6.797 7.052z" fill="#2c2e35"/></g><g transform="matrix(1 0 0 -1 -48.409 348.197)" clip-path="url(#prefix__a)"><path d="M294.798 60.406h-2.2v14.428l2.2.327zm-11.45 3.106c0-1.288 1.072-1.56 1.797-1.56 1.291 0 2.29.906 2.51 1.942v1.474c-3.31-.185-4.308-.457-4.308-1.856m7.086-2.963l-1.834-.328c-.364.475-.582 1.092-.673 1.73-.618-1.163-1.89-1.779-3.198-1.779-1.618 0-3.417.814-3.417 3.286 0 2.544 1.363 3.307 6.343 3.526v.71c0 1.07-.2 1.778-1.89 1.778-1.073 0-2.127-.309-3.144-.835l-.473 1.82c.963.452 2.454.834 3.872.834 2.78 0 3.688-1.162 3.688-3.58v-4.106c0-1.347.236-2.472.726-3.056m-11.272-.143h-2.199v10.558h2.2zm.036 12.141h-2.272v1.997h2.272zm-11.94-6.944c0 2.96 1.164 5.688 5.233 5.688 1 0 1.927-.2 2.472-.382l-.399-1.834a6.238 6.238 0 01-2.037.361c-2.216 0-3.069-1.599-3.069-3.85 0-2.165.944-3.618 3.143-3.618.635 0 1.545.126 2.108.382l.31-1.872c-.49-.18-1.51-.383-2.545-.383-4.052 0-5.216 2.67-5.216 5.491zm-9.522 5.525a6.487 6.487 0 00.345-1.382c.69.764 2.035 1.42 3.363 1.42 2.725 0 3.453-1.709 3.453-3.603v-7.157h-2.18v6.616c0 1.343-.456 2.342-1.928 2.342-1.018 0-2.053-.49-2.617-1.125v-7.833h-2.18v8.266c0 .747-.073 1.548-.256 2.182zm-11.04-7.616c0-1.288 1.072-1.56 1.8-1.56 1.29 0 2.29.906 2.508 1.942v1.474c-3.309-.185-4.308-.457-4.308-1.856m7.087-2.963l-1.835-.328c-.364.475-.583 1.092-.673 1.73-.617-1.163-1.89-1.779-3.197-1.779-1.617 0-3.417.814-3.417 3.286 0 2.544 1.363 3.307 6.343 3.526v.71c0 1.07-.2 1.778-1.892 1.778-1.07 0-2.125-.309-3.143-.835l-.473 1.82c.965.452 2.454.834 3.871.834 2.78 0 3.69-1.162 3.69-3.58v-4.106c0-1.347.235-2.472.726-3.056m-18.386 10.58a6.61 6.61 0 00.345-1.383c.69.764 2.035 1.42 3.361 1.42 2.726 0 3.452-1.709 3.452-3.603v-7.157h-2.179v6.616c0 1.343-.454 2.342-1.927 2.342-1.018 0-2.053-.49-2.617-1.125v-7.833h-2.18v8.266c0 .747-.073 1.548-.255 2.182zm-4.647-10.723h-2.198v10.558h2.198zm.038 12.141h-2.273v1.997h2.273zm-11.796-12.14v13.956h7.541v-1.947h-5.323v-4.144h4.76V66.33h-4.76v-5.924z" fill="#2c2e35"/></g><g transform="matrix(1 0 0 -1 -48.409 348.197)" clip-path="url(#prefix__a)"><path d="M381.188 69.02c-.618.29-1.545.524-2.326.524-.672 0-1.563-.234-1.563-1.216 0-.71.51-1.038 1.835-1.67 1.51-.71 2.781-1.475 2.781-3.292 0-2.543-1.872-3.252-3.508-3.252-1.09 0-2.707.272-3.634.637l.49 1.85c.873-.376 2.11-.65 2.927-.65.836 0 1.562.274 1.562 1.328 0 .813-.744 1.27-2.16 1.925-1.473.672-2.436 1.328-2.436 3.015 0 2.488 2.125 3.033 3.707 3.033.945 0 2.217-.216 2.853-.468zm-10.605-2.489c0 .58-.019 1.162-.11 1.633a3.098 3.098 0 01-2.49 1.254c-1.962 0-2.598-1.654-2.598-3.908 0-1.98.636-3.525 2.363-3.525a2.99 2.99 0 012.725 1.728c.073.345.11.925.11 1.437zm-2.874-8.669c2.31 0 2.837 1.545 2.837 2.797v1.145c-.509-.78-1.58-1.654-3.253-1.654-2.763 0-4.144 1.998-4.144 5.323 0 3.11 1.127 5.78 4.453 5.78 1.254 0 2.49-.525 3.108-1.289 0 .274.09.744.145 1h1.963c-.073-.42-.147-1.399-.147-2v-8.557c0-3.328-2.579-4.328-4.962-4.328-1.342 0-2.778.294-4.013.763l.453 1.835c.964-.453 2.381-.814 3.56-.814m-14.122 13.265c.145-.366.31-1.02.345-1.382.692.764 2.035 1.42 3.362 1.42 2.727 0 3.452-1.709 3.452-3.603v-7.157h-2.18v6.616c0 1.343-.454 2.342-1.926 2.342-1.016 0-2.053-.49-2.617-1.125v-7.833h-2.18v8.265c0 .747-.072 1.55-.254 2.183zm-4.645-10.722h-2.199v10.558h2.2zm.036 12.14h-2.27v1.997h2.27zm-7.22-6.015c0 .58-.019 1.162-.11 1.633a3.096 3.096 0 01-2.488 1.254c-1.964 0-2.618-1.654-2.618-3.908 0-1.98.654-3.525 2.381-3.525 1.49 0 2.4.998 2.725 1.728.073.345.11.925.11 1.437zm-3.308-6.38c-2.743 0-4.143 1.997-4.143 5.322 0 3.11 1.145 5.78 4.452 5.78 1.164 0 2.29-.508 2.926-1.163v4.743l2.127.328v-11.14c0-1.327.053-2.452.436-3.38l-1.89-.365c-.273.436-.417 1.054-.473 1.545-.509-.689-1.563-1.67-3.417-1.67zm-6.568.255h-2.198v14.427l2.198.328zm-9.696 1.47c1.817 0 2.854 1.254 2.854 3.908 0 2.581-1.037 3.76-2.872 3.76-1.834 0-2.854-1.178-2.854-3.76 0-2.654 1.02-3.909 2.854-3.909zm5.088 3.852c0-2.706-1.162-5.702-5.106-5.702-3.925 0-5.088 2.995-5.088 5.723 0 2.633 1.163 5.596 5.088 5.596 3.944 0 5.106-2.964 5.106-5.596zm-21.72-5.321h-2.253v13.956h2.253v-5.856h6.688v5.856h2.235V60.406h-2.235v6.158h-6.688z" fill="#2c2e35"/></g><g transform="matrix(1 0 0 -1 -48.409 348.197)" clip-path="url(#prefix__a)"><path d="M62.728 106.026c16.66 7.471 33.562 9.634 46.543 6.96-1.45.661-2.916 1.793-3.808 3.401-2.392 4.318-7.083 6.89-12.452 6.292-2.21-.245-4.393.311-5.832 1.291-2.016 1.372-4.296 2.23-7.053 2.23-2.756 0-5.036-.858-7.052-2.23-1.44-.98-3.623-1.536-5.832-1.29-5.37.596-10.06-1.975-12.453-6.293-1.067-1.924-2.943-3.154-4.66-3.737-4.274-1.453-7.795-5.353-8.266-10.427-.22-2.393-1.63-4.282-2.685-5.338-2.867-2.869-4.068-6.22-4.068-9.656v-.17c7.02 7.302 16.468 13.965 27.619 18.967" fill="#154b2e"/></g><g transform="matrix(1 0 0 -1 -48.409 348.197)" clip-path="url(#prefix__a)"><path d="M77.433 96.235c14.237 6.386 28.653 8.892 40.646 7.818-1.031 4.16-4.148 7.266-7.956 8.597a8.335 8.335 0 00-.851.335c-12.981 2.675-29.884.512-46.543-6.959-11.151-5.002-20.6-11.665-27.618-18.967.084-6.748 5.12-12.303 11.643-13.2 7.217 8.622 17.813 16.606 30.679 22.376" fill="#154b2e"/></g><g transform="matrix(1 0 0 -1 -48.409 348.197)" clip-path="url(#prefix__a)"><path d="M121.074 96.886c-1.055 1.056-2.464 2.944-2.686 5.338-.058.629-.162 1.24-.31 1.83-11.992 1.073-26.408-1.433-40.645-7.818-12.866-5.77-23.463-13.754-30.68-22.376a13.917 13.917 0 011.85-.125h19.372c1.84 0 3.333-1.525 3.333-3.366v-.782c0-3.097-3.06-3.512-3.06-3.512l-15.751-2.71c-.56-.09-1.041-.473-1.041-1.026v-1.934h57.34v1.934c0 .553-.481.937-1.041 1.027l-15.752 2.709s-3.057.415-3.057 3.512v.782c0 1.84 1.49 3.366 3.33 3.366h19.372c7.453 0 13.495 6.042 13.495 13.495 0 3.435-1.202 6.787-4.07 9.656" fill="#154b2e"/></g><path d="M24.663 224.228c-1.438.98-3.624 1.537-5.829 1.291-5.37-.595-10.062 1.974-12.455 6.294-1.066 1.923-2.942 3.152-4.66 3.736-4.274 1.453-7.795 5.352-8.266 10.43-.22 2.39-1.628 4.278-2.684 5.332-2.869 2.87-4.067 6.225-4.067 9.66v.17c7.02-7.304 16.465-13.965 27.617-18.969 16.656-7.47 33.562-9.633 46.543-6.958-1.45-.663-2.916-1.794-3.808-3.4-2.392-4.32-7.085-6.89-12.452-6.295-2.21.246-4.393-.31-5.833-1.29-2.016-1.373-4.296-2.229-7.052-2.229-2.758 0-5.036.856-7.054 2.228" fill="none"/><g transform="matrix(1 0 0 -1 -48.409 348.197)" clip-path="url(#prefix__b)"><path fill="url(#prefix__c)" d="M-3.79-5.109h6.11v6.656h-6.11z" transform="scale(-67.97887 67.97887) rotate(-51 1.314 2.359)"/></g><path d="M14.32 242.172C3.166 247.176-6.28 253.837-13.299 261.14c.083 6.75 5.12 12.303 11.642 13.198 7.216-8.62 17.814-16.607 30.68-22.374 14.236-6.386 28.653-8.892 40.646-7.819-1.032-4.159-4.148-7.265-7.957-8.596a9.528 9.528 0 01-.85-.335c-3.543-.73-7.377-1.1-11.418-1.1-10.77 0-23.014 2.626-35.126 8.058" fill="none"/><g transform="matrix(1 0 0 -1 -48.409 348.197)" clip-path="url(#prefix__d)"><path fill="url(#prefix__e)" d="M-3.058-4.168h5.124v5.582h-5.124z" transform="matrix(-51.0132 -62.99605 -62.99605 51.01321 104.896 130.503)"/></g><g transform="matrix(1 0 0 -1 -48.409 348.197)" clip-path="url(#prefix__f)"><path d="M121.07 96.886c-1.051 1.054-2.46 2.942-2.682 5.333a12.195 12.195 0 01-.31 1.833c-11.992 1.073-26.41-1.433-40.647-7.818C64.567 90.466 53.969 82.48 46.754 73.86a13.416 13.416 0 011.849-.125h19.372c1.838-.002 3.332-1.527 3.332-3.368v-.782c0-3.095-3.061-3.512-3.061-3.512l-15.75-2.707c-.56-.09-1.04-.474-1.04-1.03v-1.931h57.339v1.932c0 .555-.48.939-1.04 1.029l-15.753 2.707s-3.057.417-3.057 3.512v.782c0 1.84 1.49 3.366 3.329 3.368h19.375c7.452 0 13.492 6.04 13.492 13.493 0 3.433-1.2 6.789-4.07 9.658" fill="#049e4b"/></g></svg>
