<svg viewBox="0 20.9 200 58.2" width="200" height="58.2" xmlns="http://www.w3.org/2000/svg"><linearGradient id="prefix__a" gradientUnits="userSpaceOnUse" x1="4303.126" y1="-265.45" x2="4337.142" y2="-265.45" gradientTransform="translate(-4297.16 310.03)"><stop offset="0" stop-color="#1c50a1"/><stop offset=".8" stop-color="#1c50a1"/></linearGradient><linearGradient id="prefix__b" gradientUnits="userSpaceOnUse" x1="4298.906" y1="-272.325" x2="4332.373" y2="-272.325" gradientTransform="translate(-4297.16 310.03)"><stop offset="0" stop-color="#1c50a1"/><stop offset=".8" stop-color="#1c50a1"/></linearGradient><linearGradient id="prefix__c" gradientUnits="userSpaceOnUse" x1="4300.652" y1="-268.688" x2="4334.919" y2="-268.688" gradientTransform="translate(-4297.16 310.03)"><stop offset="0" stop-color="#1c50a1"/><stop offset=".8" stop-color="#1c50a1"/></linearGradient><linearGradient id="prefix__d" gradientUnits="userSpaceOnUse" x1="4297.16" y1="-276.436" x2="4329.681" y2="-276.436" gradientTransform="translate(-4297.16 310.03)"><stop offset="0" stop-color="#1c50a1"/><stop offset=".8" stop-color="#1c50a1"/></linearGradient><linearGradient id="prefix__e" gradientUnits="userSpaceOnUse" x1="1146.663" y1="-2237.58" x2="1180.679" y2="-2237.58" gradientTransform="rotate(180 592.975 -1091.08)"><stop offset="0" stop-color="#1c50a1"/><stop offset=".8" stop-color="#1c50a1"/></linearGradient><linearGradient id="prefix__f" gradientUnits="userSpaceOnUse" x1="1142.443" y1="-2244.456" x2="1175.91" y2="-2244.456" gradientTransform="rotate(180 592.975 -1091.08)"><stop offset="0" stop-color="#1c50a1"/><stop offset=".8" stop-color="#1c50a1"/></linearGradient><linearGradient id="prefix__g" gradientUnits="userSpaceOnUse" x1="1144.189" y1="-2240.818" x2="1178.456" y2="-2240.818" gradientTransform="rotate(180 592.975 -1091.08)"><stop offset="0" stop-color="#1c50a1"/><stop offset=".8" stop-color="#1c50a1"/></linearGradient><linearGradient id="prefix__h" gradientUnits="userSpaceOnUse" x1="1140.681" y1="-2248.566" x2="1173.202" y2="-2248.566" gradientTransform="rotate(180 592.975 -1091.08)"><stop offset="0" stop-color="#1c50a1"/><stop offset=".8" stop-color="#1c50a1"/></linearGradient><path d="M38.2 35.89C29.54 42.72 15.93 50.36 5.97 51.6c.73.58 1.46 1.16 2.18 1.67 10.04-1.67 24.01-6.48 31.79-14.33l-1.74-3.05z" fill="url(#prefix__a)"/><path d="M32.88 26.72c-8.22 7.64-20.81 17.82-31.14 20.01.44.65.87 1.31 1.38 1.96.73-.15 14.62-2.62 32.08-17.97l-2.32-4z" fill="url(#prefix__b)"/><path d="M35.65 31.52C27.28 39.01 13.53 47.6 3.49 49.13c.58.73 1.24 1.38 1.96 2.04 2.62-.36 15.71-2.91 32.3-16.01l-2.1-3.64z" fill="url(#prefix__c)"/><path d="M32.52 25.99l-2.98-5.09C18.62 35.89 0 43.45 0 43.45c.36 1.02.87 1.96 1.46 2.84 1.67-.36 12.58-3.2 31.06-20.3z" fill="url(#prefix__d)"/><path d="M7.06 64.11c8.66-6.84 22.34-14.48 32.23-15.71-.73-.58-1.46-1.16-2.18-1.67C27.06 48.4 13.1 53.2 5.31 61.06l1.75 3.05z" fill="url(#prefix__e)"/><path d="M12.37 73.28c8.22-7.64 20.88-17.82 31.14-20.01-.44-.65-.87-1.31-1.38-1.96-.73.15-14.62 2.62-32.08 17.97l2.32 4z" fill="url(#prefix__f)"/><path d="M9.6 68.48c8.44-7.49 22.12-16.08 32.16-17.61-.58-.73-1.24-1.38-1.96-2.04-2.62.36-15.71 2.91-32.3 16.01l2.1 3.64z" fill="url(#prefix__g)"/><path d="M12.8 74.01l2.98 5.09c10.84-14.99 29.54-22.55 29.54-22.55-.36-1.02-.87-1.96-1.46-2.84-1.74.36-12.65 3.27-31.06 20.3z" fill="url(#prefix__h)"/><path d="M66.5 46.29c0 1.75-.8 3.35-2.26 4.37-1.53 1.09-3.56 1.67-6.11 1.67-1.31 0-2.62-.15-3.86-.36-1.09-.22-2.11-.58-3.13-1.02v-4.29h.51c.95.8 2.04 1.38 3.2 1.75 1.09.44 2.26.65 3.42.65.36 0 .73 0 1.09-.07.36 0 .73-.15 1.09-.22.29-.15.58-.29.87-.58.22-.29.36-.58.36-.95 0-.36-.22-.8-.51-1.02-.44-.36-.95-.58-1.46-.65-.65-.15-1.38-.29-2.11-.44-.73-.15-1.46-.29-2.11-.51-1.24-.36-2.4-1.02-3.2-2.04-.65-.87-1.02-2.04-1.02-3.13 0-1.67.87-3.2 2.26-4.15a9.987 9.987 0 015.75-1.6c1.16 0 2.33.15 3.49.36 1.02.22 2.04.51 2.98.87V39h-.51c-.8-.65-1.67-1.09-2.62-1.46-1.02-.36-2.11-.58-3.2-.58-.36 0-.8 0-1.16.07s-.73.15-1.09.29c-.29.15-.58.29-.8.58-.22.07-.36.44-.36.73 0 .44.22.87.51 1.09.65.36 1.31.58 2.04.73l1.89.36c.58.15 1.24.29 1.96.51 1.16.29 2.18.95 3.06 1.82.74.97 1.1 2.06 1.03 3.15zm16.73-1.16c.07 1.96-.58 3.86-1.96 5.31-1.31 1.31-3.13 1.96-5.46 1.96s-4.15-.65-5.46-1.96c-1.38-1.46-2.04-3.35-1.96-5.31 0-2.26.65-4 1.96-5.31 1.31-1.31 3.13-1.96 5.46-1.96s4.15.65 5.46 1.96c1.38 1.45 2.11 3.34 1.96 5.31zm-5.31 3.34c.29-.36.51-.8.65-1.24.15-.65.22-1.38.22-2.04 0-.65-.07-1.38-.22-2.04-.15-.44-.29-.87-.58-1.31-.22-.29-.58-.58-.95-.73s-.8-.22-1.16-.22c-.36 0-.73.07-1.09.15-.36.15-.65.36-.95.65-.29.36-.51.8-.65 1.31a9.55 9.55 0 00-.22 2.11c0 .65.07 1.31.22 1.96.07.44.29.95.58 1.31.22.29.58.51.95.73.73.29 1.6.29 2.33 0 .29-.13.65-.35.87-.64zm17.17-12.15h-.29c-.22-.07-.44-.15-.73-.22s-.65-.15-1.02-.15c-.58-.07-1.24.07-1.75.44-.36.51-.51 1.16-.44 1.75v.22h3.35v2.91h-3.2v10.62h-4.37V41.27h-1.89v-2.91h1.89V38c0-1.67.44-2.91 1.31-3.71.87-.8 2.18-1.24 4-1.24.65 0 1.24 0 1.75.07s1.02.07 1.38.15v3.05zm10.33 15.5c-.51.15-.95.22-1.46.29-.65.07-1.31.15-1.96.07-1.67 0-2.91-.36-3.78-1.02-.8-.73-1.24-1.89-1.24-3.49v-6.4h-1.75v-2.91h1.75V34.5h4.37v3.86h4.07v2.91h-4.07v6.04c0 .36.07.65.22.95.15.29.36.51.58.65.36.22.8.29 1.24.22.58-.07 1.09-.15 1.67-.44h.36v3.13zm15.71.14h-12.95V33.92h4.58v14.55h8.29v3.49h.08zM137 45.93h-9.89c0 .95.44 1.89 1.24 2.47.95.65 2.11.95 3.27.87.95 0 1.82-.15 2.69-.51.73-.29 1.38-.65 2.04-1.09h.51v3.56c-.87.36-1.82.65-2.76.87-.95.22-1.89.29-2.84.29-2.69 0-4.8-.58-6.26-1.82-1.46-1.24-2.18-2.98-2.18-5.24-.07-1.96.65-3.93 2.04-5.31 1.38-1.31 3.27-1.96 5.6-1.96 2.18 0 3.86.58 4.95 1.67 1.09 1.09 1.67 2.69 1.67 4.8l-.08 1.4zm-4.3-2.55c.07-.73-.22-1.46-.65-2.04-.51-.51-1.24-.73-1.96-.73-.73 0-1.46.22-2.04.65-.58.51-.95 1.31-.87 2.11h5.52zm15.57 7.13l-.87.65c-.29.22-.65.44-.95.58-.44.22-.87.36-1.31.44-.51.07-1.02.15-1.53.15-1.16 0-2.33-.36-3.2-1.24-.87-.8-1.31-1.89-1.31-3.06-.07-.87.22-1.75.65-2.47.51-.65 1.09-1.16 1.89-1.53.95-.44 1.96-.65 2.98-.8 1.16-.15 2.4-.29 3.71-.36v-.07c.07-.65-.29-1.31-.95-1.53-.87-.36-1.75-.51-2.69-.44-.8 0-1.53.15-2.26.36-.8.22-1.38.44-1.75.58h-.36V38.5c.44-.15 1.16-.29 2.26-.44 1.02-.15 2.04-.22 3.13-.22 2.47 0 4.22.36 5.31 1.16 1.16.8 1.75 2.18 1.67 3.56v9.24h-4.29l-.13-1.29zm0-2.11v-2.84c-.58.07-1.24.15-1.89.22-.51.07-1.02.15-1.53.29-.36.07-.73.29-1.02.58-.22.29-.36.65-.36 1.02 0 .22 0 .44.07.73.07.22.22.36.36.51.22.15.44.29.65.36.36.07.8.15 1.24.15s.87-.07 1.31-.29c.37-.22.81-.44 1.17-.73zm21.39 3.56h-4.37V50.5c-.65.51-1.31 1.02-2.11 1.38-.73.29-1.46.44-2.26.44-1.53.07-3.06-.65-3.93-1.96a7.856 7.856 0 01-1.46-5.17c0-1.02.15-2.04.51-3.06.29-.87.8-1.6 1.38-2.33.58-.58 1.24-1.09 1.96-1.38.73-.36 1.53-.51 2.33-.51.65 0 1.31.07 1.96.29.51.22 1.09.36 1.6.65v-5.82h4.37l.02 18.93zm-4.36-3.78v-6.69c-.29-.15-.65-.22-.95-.29-.29-.07-.58-.07-.95-.07-1.02-.07-1.96.29-2.62 1.09-.58.87-.95 1.89-.87 2.98-.07 1.02.15 2.04.65 2.91.51.65 1.38.95 2.18.87.44 0 .87-.07 1.24-.22.59-.07.95-.29 1.32-.58zm21.75-2.25h-9.97c0 .95.44 1.89 1.24 2.47.95.65 2.11.95 3.27.87.95 0 1.82-.15 2.69-.51.73-.29 1.38-.65 2.04-1.09h.51v3.56c-.87.36-1.82.65-2.76.87-.95.22-1.89.29-2.91.29-2.69 0-4.8-.58-6.26-1.82-1.46-1.24-2.18-2.98-2.18-5.24-.07-1.96.65-3.93 2.04-5.31 1.38-1.31 3.27-1.96 5.6-1.96 2.18 0 3.86.58 4.95 1.67 1.09 1.09 1.67 2.69 1.67 4.8v1.38h.07zm-4.29-2.55c.07-.73-.22-1.46-.65-2.04-.51-.51-1.24-.73-1.96-.73s-1.46.22-2.04.65c-.58.51-.95 1.31-.87 2.11h5.52zm17.17-.87h-.36c-.29-.07-.58-.15-.87-.15-.44 0-.73-.07-1.02-.07-.58 0-1.09 0-1.6.15-.51.07-1.02.22-1.53.44v9.09h-4.37v-13.6h4.37v2.04c.73-.65 1.6-1.24 2.47-1.67.58-.22 1.31-.36 1.96-.44H200l-.07 4.21z" fill="#1c50a1"/><path d="M51.15 62.51l.95-.07c0 .29.15.65.29.95.22.29.44.44.73.58.36.15.73.22 1.16.22.36 0 .65-.07 1.02-.15.29-.07.51-.22.65-.44.15-.22.22-.44.22-.65s-.07-.44-.22-.58c-.15-.22-.36-.36-.65-.44-.22-.07-.65-.22-1.31-.36-.51-.07-.95-.29-1.46-.44-.29-.15-.58-.36-.8-.65-.15-.29-.29-.58-.29-.95 0-.36.15-.73.29-1.02.22-.36.58-.58.95-.73.44-.15.87-.29 1.38-.22.51 0 1.02.07 1.46.29.36.15.73.44.95.8.22.36.36.73.36 1.16l-.95.07c0-.44-.22-.8-.51-1.09-.36-.29-.8-.36-1.31-.36-.44-.07-.95.07-1.31.29-.22.15-.44.44-.44.8 0 .22.07.51.29.65.44.29.95.44 1.46.51.58.07 1.09.29 1.6.44.36.15.73.44.95.73.22.29.29.65.29 1.02s-.15.8-.36 1.09c-.22.36-.58.65-.95.8-.44.22-.95.29-1.46.29-.58 0-1.16-.07-1.67-.29-.44-.15-.8-.51-1.09-.87-.01-.5-.15-.94-.22-1.38zm7.56-.29c-.07-.8.22-1.6.8-2.18.44-.36 1.09-.58 1.67-.58.65 0 1.31.22 1.82.73.51.58.73 1.24.73 1.96 0 .58-.07 1.09-.29 1.6-.22.36-.51.73-.87.95-.36.22-.87.36-1.31.36-.65 0-1.31-.22-1.82-.73-.51-.65-.8-1.38-.73-2.11zm.95 0c-.07.58.15 1.09.44 1.53.51.65 1.46.65 2.11.15l.15-.15c.36-.44.51-1.02.44-1.6.07-.51-.15-1.09-.44-1.53-.51-.65-1.46-.65-2.11-.15l-.15.15c-.37.51-.51 1.02-.44 1.6zm6.11 2.62v-4.66h-.8v-.73h.8v-.58c0-.29 0-.51.07-.8.07-.22.22-.44.44-.58.29-.15.58-.22.95-.22.29 0 .58 0 .87.07l-.15.8c-.15 0-.36-.07-.51-.07-.22 0-.44.07-.58.15-.15.22-.22.44-.15.65v.51h1.02v.73h-1.02v4.66l-.94.07zm5.38-.8l.15.8c-.22.07-.44.07-.65.07-.29 0-.51-.07-.73-.15a.711.711 0 01-.36-.44c-.07-.36-.15-.73-.15-1.09v-3.06h-.65v-.73h.65v-1.31l.87-.51v1.89h.95v.73h-.95v3.13c0 .15 0 .36.07.51 0 .07.07.15.15.15.07.07.22.07.29.07.14.01.29-.06.36-.06zm1.68.8v-7.35h.87v7.42l-.87-.07zm6.76-1.67l.95.15a3.1 3.1 0 01-.8 1.31c-1.09.73-2.47.58-3.42-.29-.51-.58-.73-1.31-.65-2.04-.07-.73.22-1.53.73-2.11.44-.51 1.09-.8 1.82-.73.65 0 1.31.22 1.75.73.51.58.73 1.31.65 2.04v.22h-4c0 .51.15.95.51 1.38.29.29.73.51 1.09.44.29 0 .58-.07.87-.29.21-.16.36-.52.5-.81zm-2.98-1.46h2.98c0-.36-.15-.73-.36-1.02-.29-.36-.65-.51-1.09-.51-.36 0-.8.15-1.02.44-.36.22-.51.66-.51 1.09zm9.31 2.48c-.29.29-.58.44-.95.58-.29.15-.65.15-1.02.15-.51 0-.95-.15-1.38-.44-.29-.29-.51-.65-.44-1.09 0-.51.22-.95.65-1.24.22-.15.44-.22.65-.29.29-.07.51-.07.8-.15.58-.07 1.09-.15 1.6-.29v-.22c0-.29-.07-.58-.29-.8-.29-.22-.65-.36-1.02-.29-.36 0-.65.07-.95.22-.22.22-.36.51-.44.8l-.87-.15c.07-.36.22-.65.44-.95.22-.22.51-.44.8-.51.36-.15.8-.22 1.24-.22.36 0 .73.07 1.09.15.22.07.44.22.65.44.15.22.22.44.29.65.07.29.07.58.07.8v1.24c0 .51 0 1.09.07 1.6.07.22.15.44.22.65h-.95c-.19-.13-.26-.35-.26-.64zm-.07-2.04c-.51.15-.95.29-1.46.36-.29 0-.51.07-.8.15-.15.07-.29.15-.36.29s-.15.29-.15.44c0 .22.07.44.29.58.22.15.51.29.8.22.29 0 .65-.07.95-.22.29-.15.44-.36.58-.65.15-.29.15-.58.15-.87v-.3zm6.55 2.69v-.65c-.29.51-.87.8-1.53.8-.44 0-.8-.15-1.16-.36s-.65-.58-.8-1.02c-.22-.44-.29-.95-.29-1.46s.07-1.02.29-1.46c.29-.8 1.09-1.38 1.96-1.31.58 0 1.16.29 1.46.73v-2.62h.87v7.42l-.8-.07zm-2.84-2.62c-.07.58.15 1.09.44 1.53.22.29.65.51 1.02.51s.73-.15 1.02-.51c.29-.44.44-.95.44-1.46.07-.58-.07-1.16-.44-1.6-.22-.29-.65-.51-1.02-.51s-.8.15-1.02.51c-.37.44-.51.95-.44 1.53zm9.53.95l.95.15a3.1 3.1 0 01-.8 1.31c-1.09.65-2.47.58-3.42-.29-.51-.58-.73-1.31-.65-2.04-.07-.73.22-1.53.73-2.11.44-.51 1.09-.8 1.82-.73.65 0 1.31.22 1.75.73.51.58.73 1.31.65 2.04v.22h-4c0 .51.15.95.51 1.38.29.29.73.51 1.09.44.29 0 .58-.07.87-.29.21-.16.43-.52.5-.81zm-2.98-1.46h2.98c0-.36-.15-.73-.36-1.02-.29-.36-.65-.51-1.09-.51-.36 0-.8.15-1.02.44-.29.22-.51.66-.51 1.09zm5.82 3.13v-5.38h.8v.8c.15-.29.36-.51.58-.73.15-.15.36-.15.58-.15.36 0 .65.15.95.29l-.29.87c-.22-.15-.44-.22-.65-.22-.22 0-.36.07-.51.15-.15.15-.29.29-.36.51-.07.36-.15.73-.15 1.09v2.76h-.95zm9.67 0v-6.55h-2.4v-.87h5.82v.87h-2.47v6.55h-.95zm7.57-1.67l.95.15a3.1 3.1 0 01-.8 1.31c-1.09.73-2.47.58-3.42-.29-.51-.58-.73-1.31-.65-2.04-.07-.73.22-1.53.73-2.11.44-.51 1.09-.8 1.82-.73.65 0 1.31.22 1.75.73.51.58.73 1.31.65 2.04v.22h-4c0 .51.15.95.51 1.38.29.29.73.51 1.09.44.29 0 .58-.07.87-.29.21-.23.43-.52.5-.81zm-2.98-1.46h2.98c0-.36-.15-.73-.36-1.02-.29-.36-.65-.51-1.09-.51-.36 0-.8.15-1.02.44-.29.22-.44.66-.51 1.09zm9.38 1.17l.87.15c-.07.58-.36 1.09-.73 1.46-.44.36-.95.51-1.46.51-.65 0-1.31-.22-1.75-.73-.44-.58-.73-1.31-.65-2.04 0-.51.07-1.02.29-1.53.15-.44.51-.73.87-.95.36-.22.87-.36 1.31-.36.51 0 1.02.15 1.46.44.36.29.65.73.73 1.24l-.87.15c-.07-.29-.22-.58-.44-.8-.22-.22-.51-.29-.8-.29-.44 0-.8.15-1.09.51-.29.44-.51 1.02-.44 1.53-.07.58.07 1.09.44 1.6.29.29.65.51 1.09.51.36 0 .65-.15.87-.36.08-.32.23-.61.3-1.04zm2.4 1.96v-7.35h.87v2.62c.36-.51.95-.73 1.6-.73.36 0 .73.07 1.02.22.29.15.51.36.65.65.15.36.22.8.22 1.24v3.42h-.87V61.5c0-.36-.07-.73-.29-1.02-.22-.22-.51-.36-.8-.29-.29 0-.51.07-.73.22-.22.15-.44.29-.51.58-.15.29-.15.65-.15 1.02v2.91l-1.01-.08zm6.55 0v-5.38h.8v.73c.36-.58 1.02-.87 1.67-.87.29 0 .58.07.87.15.22.07.44.22.58.44.15.22.22.44.29.65.07.29.07.58.07.87v3.27h-.95v-3.2c0-.29 0-.58-.07-.8a.776.776 0 00-.36-.44c-.22-.15-.44-.15-.65-.15-.36 0-.73.15-1.02.36-.36.36-.51.87-.44 1.38v2.91l-.79.08zm6.19-2.62c-.07-.8.22-1.6.8-2.18.44-.36 1.09-.58 1.67-.58.65 0 1.31.22 1.82.73.51.58.73 1.24.73 1.96 0 .58-.07 1.09-.29 1.6-.22.36-.51.73-.87.95-.36.22-.87.36-1.31.36-.65 0-1.31-.22-1.82-.73-.59-.65-.81-1.38-.73-2.11zm.87 0c-.07.58.15 1.09.44 1.53.29.36.73.51 1.16.51s.87-.15 1.09-.51c.36-.44.51-1.02.44-1.6.07-.51-.15-1.09-.44-1.53-.29-.36-.65-.51-1.09-.51s-.87.15-1.16.51c-.3.51-.44 1.02-.44 1.6zm5.89 2.62v-7.35h.95v7.42l-.95-.07zm2.77-2.62c-.07-.8.22-1.6.8-2.18.44-.36 1.09-.58 1.67-.58.65 0 1.31.22 1.82.73.51.58.73 1.24.73 1.96 0 .58-.07 1.09-.29 1.6-.22.36-.51.73-.87.95-.36.22-.87.36-1.31.36-.65 0-1.31-.22-1.82-.73-.59-.65-.81-1.38-.73-2.11zm.94 0c-.07.58.15 1.09.44 1.53.51.65 1.46.65 2.11.15l.15-.15c.36-.44.51-1.02.44-1.6.07-.51-.15-1.09-.44-1.53-.29-.36-.65-.51-1.09-.51s-.87.15-1.09.51c-.44.51-.59 1.02-.52 1.6zm5.75 3.06l.87.15c0 .22.15.44.29.58.29.15.58.29.95.22.36 0 .65-.07.95-.22.22-.15.36-.44.44-.73.07-.36.07-.8.07-1.16-.36.44-.87.73-1.46.73-.65 0-1.31-.29-1.67-.8-.44-.58-.65-1.24-.58-1.96 0-.51.07-.95.29-1.38.15-.44.44-.73.8-1.02.36-.22.8-.36 1.24-.36.58 0 1.16.29 1.6.73v-.58h.8v4.66c.07.58-.07 1.24-.22 1.75-.15.36-.44.65-.8.8-.44.22-.87.29-1.38.29-.58 0-1.09-.15-1.53-.44-.51-.24-.73-.75-.66-1.26zm.73-3.2c-.07.58.07 1.09.44 1.53.51.58 1.38.65 1.96.15l.15-.15c.58-.95.58-2.11 0-2.98-.29-.29-.65-.51-1.02-.51-.44 0-.8.15-1.02.51-.37.43-.51.94-.51 1.45zm5.89 4.87l-.07-.87c.15.07.36.07.51.07s.29 0 .44-.07c.15-.07.22-.15.29-.29.15-.22.22-.44.29-.65 0-.07.07-.15.07-.22l-2.04-5.38h.95l1.09 3.13c.15.36.29.8.36 1.24.07-.44.22-.8.36-1.24l1.16-3.13h.87L165.79 65c-.15.44-.29.8-.51 1.24-.15.29-.29.51-.58.65-.22.15-.51.22-.73.22-.06-.09-.2-.09-.42-.16zm14.99-4.65l.95.22c-.15.73-.51 1.38-1.09 1.82-.58.44-1.24.65-1.96.65-.65 0-1.38-.15-1.96-.51-.51-.36-.95-.8-1.16-1.38-.29-.65-.36-1.31-.36-1.96 0-.73.15-1.38.44-2.04.29-.58.73-1.02 1.24-1.31.58-.29 1.16-.44 1.82-.44s1.31.15 1.89.58c.51.36.87.95 1.02 1.6l-.95.22c-.15-.44-.36-.87-.73-1.16s-.8-.36-1.24-.36c-.51 0-1.02.15-1.46.44-.36.29-.65.65-.8 1.09-.15.44-.22.95-.22 1.38 0 .58.07 1.09.29 1.67.15.44.44.8.87 1.02.36.22.8.36 1.24.36.51 0 1.02-.15 1.38-.44.5-.44.71-.95.79-1.45zm2.54-.08c-.07-.8.22-1.6.8-2.18.44-.36 1.09-.58 1.67-.58.65 0 1.31.22 1.82.73.51.58.73 1.24.73 1.96 0 .58-.07 1.09-.29 1.6-.22.36-.51.73-.87.95-.36.22-.87.36-1.31.36-.65 0-1.31-.22-1.82-.73-.58-.65-.8-1.38-.73-2.11zm.95 0c-.07.58.15 1.09.44 1.53.51.65 1.46.65 2.11.15l.15-.15c.36-.44.51-1.02.44-1.6.07-.51-.15-1.09-.44-1.53-.29-.36-.65-.51-1.09-.51-.44 0-.87.15-1.09.51-.45.51-.59 1.02-.52 1.6zm5.89 2.62v-5.38h.8v.8c.15-.29.36-.51.58-.73.15-.15.36-.22.58-.15.36 0 .65.15.95.29l-.29.87c-.22-.15-.44-.22-.65-.22-.22 0-.36.07-.51.15-.15.15-.29.29-.36.51-.07.36-.15.73-.15 1.09v2.76h-.95zm4.22 2.11v-7.42h.8v.73c.15-.22.36-.44.65-.58.29-.15.58-.22.87-.22.44 0 .87.15 1.24.36.36.22.65.58.8 1.02.36.95.36 1.96 0 2.91-.15.44-.51.8-.87 1.02-.36.22-.73.36-1.16.36-.29 0-.58-.07-.8-.22-.22-.15-.44-.29-.58-.51v2.62l-.95-.07zm.8-4.73c-.07.51.07 1.09.44 1.53.22.29.65.51 1.02.51.44 0 .8-.22 1.02-.51.29-.44.51-1.02.44-1.6.07-.51-.07-1.09-.44-1.53-.22-.29-.58-.51-1.02-.51s-.8.22-1.02.58c-.29.44-.44.95-.44 1.53zm5.97 2.62v-1.02h1.02v1.02h-1.02z" fill="#888"/></svg>
