<svg id="Layer_1" data-name="Layer 1" xmlns="http://www.w3.org/2000/svg" viewBox="0 0 3719.42 2372.88"><defs><style>.cls-1{fill:gray;}.cls-2{opacity:0.25;}.cls-3{fill:#fff;}.cls-4{fill:#8defff;}.cls-5{fill:#4ec9b0;}</style></defs><path class="cls-1" d="M503.05,479.72l-.21-.19-102.39-92,.06-.28L429,252.52l.26-.08,130.9-42.67.2.18,102.39,92v.27L634.22,437H634ZM401.49,387.16l101.84,91.48,130.14-42.42,28.33-133.9L559.92,210.85,429.78,253.27Z" transform="translate(-69.64 -4.14)"/><path class="cls-1" d="M417.38,882.48l-.2-.18-102.36-92,.06-.26L343.36,655.3l.26-.08,130.91-42.68.2.19,102.39,92-.06.26-28.51,134.7-.26.09Zm-101.6-92.55L417.57,881.4,547.71,839l28.35-133.89L474.25,613.62,344.11,656Z" transform="translate(-69.64 -4.14)"/><path class="cls-1" d="M270.29,429.55l-.2-.2-102.41-92,.06-.27,28.49-134.66.26-.08,130.9-42.68.21.19,102.39,92-.05.26L401.46,386.78l-.26.09ZM168.73,337l101.79,91.48L400.66,386,429,252.14,327.2,160.67,197,203.09Z" transform="translate(-69.64 -4.14)"/><path class="cls-1" d="M343.44,656.06l-.2-.18-102.39-92,.06-.28L269.4,428.88l.26-.09,130.88-42.68.2.18,102.39,92-.06.27-28.45,134.7-.25.09ZM241.87,563.5,343.67,655l130.14-42.42,28.33-133.89-101.83-91.5L270.17,429.61Z" transform="translate(-69.64 -4.14)"/><path class="cls-1" d="M576.56,705.79l-.21-.18L474,613.58l.06-.27,28.5-134.7.26-.09,130.87-42.65.21.18,102.39,92-.06.27L707.72,663l-.26.09ZM475,613.24l101.79,91.47,130.15-42.42,28.32-133.9L633.47,436.92,503.33,479.34Z" transform="translate(-69.64 -4.14)"/><path class="cls-1" d="M491.06,1109l-.21-.18-102.39-92,.06-.27L417,881.84l.26-.08,130.9-42.68.2.19,102.39,92-.07.26-28.49,134.71-.26.09Zm-101.6-92.55,101.8,91.47L621.4,1065.5l28.34-133.89L547.93,840.16,417.79,882.58Z" transform="translate(-69.64 -4.14)"/><path class="cls-1" d="M258.56,1059.64l-.21-.18L156,967.43l.06-.28,28.49-134.69.26-.09,130.91-42.68.2.18,102.39,92-.06.27-28.48,134.7-.26.09ZM157,967.08l101.8,91.48,130.14-42.42,28.28-133.9L315.43,790.77,185.29,833.19Z" transform="translate(-69.64 -4.14)"/><path class="cls-1" d="M332.24,1286.18,332,1286l-102.39-92,.06-.28L258.19,1059l.27-.09,130.89-42.68.21.18,102.39,92-.05.27-28.49,134.7-.27.09Zm-101.56-92.55,101.78,91.47,130.15-42.42,28.28-133.89L389.1,1017.31,259,1059.73Z" transform="translate(-69.64 -4.14)"/><path class="cls-1" d="M564.57,1335.11l-.21-.19L462,1242.9l.06-.28,28.5-134.71.26-.08,130.9-42.67.2.18,102.39,92v.27l-28.5,134.67-.26.09ZM463,1242.55,564.79,1334l130.15-42.42,28.32-133.89-101.8-91.47-130.14,42.42Z" transform="translate(-69.64 -4.14)"/><path class="cls-1" d="M405.73,1513.09l-.21-.18-102.39-92,.05-.27,28.5-134.71.26-.08,130.9-42.67.21.18,102.39,92-.06.27-28.5,134.68-.26.09Zm-101.58-92.55L406,1512l130.14-42.42,28.32-133.89-101.8-91.47-130.14,42.42Z" transform="translate(-69.64 -4.14)"/><path class="cls-1" d="M245.92,1689.17l-.21-.19-102.39-92,.06-.28L171.87,1462l.26-.08L303,1419.22l.2.18,102.39,92-.06.27L377,1646.34l-.26.09Zm-101.58-92.56,101.8,91.47,130.14-42.42,28.33-133.89-101.8-91.47-130.14,42.42Z" transform="translate(-69.64 -4.14)"/><path class="cls-1" d="M172.24,1463.33l-.21-.18-102.39-92v-.27l28.47-134.71.26-.08,130.91-42.67.2.18,102.39,92-.06.26-28.47,134.68-.26.09ZM70.66,1370.78l101.8,91.47,130.14-42.42,28.32-133.89-101.79-91.47L99,1236.89Z" transform="translate(-69.64 -4.14)"/><path class="cls-1" d="M871.75,1612.61l-.22-.18-102.39-92,.06-.27,28.5-134.71.26-.09,130.9-42.66.2.18,102.4,92-.06.27-28.5,134.68-.26.09Zm-101.58-92.55L872,1611.53l130.14-42.42,28.32-133.89-101.8-91.47-130.14,42.42Z" transform="translate(-69.64 -4.14)"/><path class="cls-1" d="M1276.6,853.09l-.2-.18-102.39-92v-.28l28.49-134.69.26-.09,130.91-42.68.2.18,102.39,92-.06.27-28.5,134.7-.25.09ZM1175,760.53,1276.83,852,1407,809.59l28.32-133.9-101.82-91.5-130.14,42.42Z" transform="translate(-69.64 -4.14)"/><path class="cls-1" d="M968.44,578.3l-.21-.18-102.39-92,.06-.27,28.5-134.7.25-.09,130.91-42.68.2.18,102.39,92-.06.28-28.48,134.69-.27.09ZM866.87,485.75l101.8,91.47,130.14-42.42,28.33-133.9-101.8-91.47L895.2,351.85Z" transform="translate(-69.64 -4.14)"/><path class="cls-1" d="M809.33,755.42l-.21-.19-102.39-92,.06-.27,28.5-134.71.26-.08,130.9-42.68.2.19,102.39,92v.26l-28.5,134.71-.26.09ZM707.76,662.87l101.79,91.47,130.14-42.42L968,578,866.2,486.59,736.05,529Z" transform="translate(-69.64 -4.14)"/><path class="cls-1" d="M1201.66,627.2l-.2-.19-102.39-92,.06-.27,28.5-134.7.25-.09,130.91-42.68.2.19,102.39,92-.06.27-28.48,134.7-.26.09Zm-101.57-92.56,101.79,91.48L1332,583.7l28.33-133.9-101.82-91.44-130.14,42.42Z" transform="translate(-69.64 -4.14)"/><path class="cls-1" d="M1360.51,450.17l-.2-.19-102.39-92,.06-.27L1286.47,223l.26-.09,130.91-42.68.2.19,102.39,92-.06.27-28.48,134.7-.26.09Zm-101.57-92.56,101.79,91.48,130.14-42.42,28.33-133.9-101.82-91.44-130.14,42.42Z" transform="translate(-69.64 -4.14)"/><path class="cls-1" d="M1519.36,274.09l-.2-.19-102.39-92,.06-.27L1445.29,46.9l.26-.08L1576.46,4.14l.2.19,102.39,92-.06.26L1650.5,231.33l-.25.09Zm-101.57-92.55L1519.58,273l130.14-42.42L1678.05,96.7,1576.23,5.26,1446.09,47.68Z" transform="translate(-69.64 -4.14)"/><path class="cls-1" d="M1751.89,322.9l-.2-.19-102.39-92,.06-.27,28.49-134.7.26-.09L1809,52.94l.2.19,102.39,92-.06.27-28.48,134.7-.26.09Zm-101.57-92.56,101.79,91.48,130.14-42.42,28.33-133.9L1808.76,54.06,1678.62,96.48Z" transform="translate(-69.64 -4.14)"/><path class="cls-1" d="M1593,499.93l-.2-.19-102.39-92,.06-.27,28.5-134.7.25-.09,131-42.68.2.19,102.39,92-.06.27-28.48,134.7-.26.09Zm-101.57-92.56,101.79,91.48,130.14-42.42,28.33-133.9-101.82-91.44-130.14,42.42Z" transform="translate(-69.64 -4.14)"/><path class="cls-1" d="M1899.26,774.56l-.2-.19-102.4-92,.06-.26,28.5-134.71.26-.09,130.9-42.67.21.19,102.39,92-.06.27-28.49,134.7-.26.08ZM1797.69,682l101.79,91.47,130.14-42.42,28.32-133.89-101.81-91.44L1826,548.15Z" transform="translate(-69.64 -4.14)"/><path class="cls-1" d="M1128,401.36l-.2-.19-102.39-92,.06-.27L1054,174.19l.26-.08,130.91-42.68.2.19,102.39,92-.06.26L1259.15,358.6l-.25.09Zm-101.57-92.55,101.79,91.47,130.14-42.42L1286.67,224l-101.82-91.44L1054.71,175Z" transform="translate(-69.64 -4.14)"/><path class="cls-1" d="M895.45,351.6l-.2-.19-102.39-92v-.27l28.47-134.71.26-.08,131-42.7.2.19,102.39,92-.06.26-28.49,134.71-.25.09ZM793.88,259.05l101.79,91.47,130.14-42.42,28.32-133.89L952.32,82.77,822.18,125.19Z" transform="translate(-69.64 -4.14)"/><path class="cls-1" d="M882.83,981.5l-.2-.19-102.39-92V889l28.5-134.71.26-.08,131-42.7.21.18,102.39,92V804L1014,938.73l-.26.09ZM781.26,888.94l101.8,91.47L1013.2,938l28.32-133.89L939.69,712.63,809.55,755.05Z" transform="translate(-69.64 -4.14)"/><path class="cls-1" d="M735.59,529l-.21-.18L633,436.77l.06-.27,28.49-134.7.27-.09L792.7,259l.21.18,102.39,92v.27l-28.49,134.7-.27.09ZM634,436.43,735.86,527.9,866,485.48l28.32-133.89L792.46,260.11,662.32,302.53Z" transform="translate(-69.64 -4.14)"/><path class="cls-1" d="M3685.35,1388.12l-.21-.18-132,43.06L3450,1338.29l28.65-135.46,131.76-42.95.26-.09,28.82-136.26.06-.26-103.65-93.09-.21-.19-132.41,43.17-.27.09-28.71,135.88-131.76,43-.26.08-28.82,136.32v.1l-130.69,42.61V1331l.05-.27-103.59-93.09-.2-.18-132.41,43.17-.27.08L2817.45,1417l-.06.27,103,92.56h-.14l-28.81,136.26-.06.26.08.07L2761,1689l-102.84-92.42-.21-.19-132.41,43.17-.26.09-28.71,135.88-131.76,43-.25.08v.14l-103.46-93-.21-.18-132.41,43.17-.25.08L2099.43,1905v.27L2203,1998.38l.21.19,132.35-43.11.27-.09v-.13L2439,2048l-28.7,135.55-.06.27,103.59,93.09.21.18,132.46-43.17.27-.09,28.81-136.25.06-.27-.3-.28,130.14-42.44h0l103.34,92.88-28.77,136-.05.27,103.64,93.1.21.18,132.41-43.17.26-.08,28.84-136.22L3276,2155l103.34,92.92.21.18L3511.92,2205l.26-.09L3541,2068.79l132.23-43.11.26-.09,28.89-136.26.06-.26-103.12-92.67L3628,1660.82l131.91-43,.26-.09L3789,1481.48l.06-.27Zm-248.26,587-131.22,42.78-103.17-92.7,28.62-135.36L3362.76,1747l103,92.57Zm-292.27,221.63L3042,2104.38l28.7-135.71,131.28-42.8,102.79,92.36-.22.08L3275.88,2154Zm86.59-407.94-103.13-92.67,28.59-134.92,131.72-43,102.89,92.47L3362.88,1746Zm-498.5,37.32.09-.43,102.39,92h0l-.59.2-102.12-91.62Zm468.89,98.56-131.53,42.89-102.79-92.37,28.71-135.55v-.14l131.1-42.74,103.13,92.67Zm115-542.94-28.63,135.31-131.5,42.88v-.08l-102.82-92.37,28.63-135.28L3214,1289.34Zm-350.58,493.34-129.84,42.33h0l-103.19-92.73,28.5-134.75v-.17l130.43-42.53,102.73,92.31Zm-205.55-185-28.36,134.13h-.13l28.37-134.13Zm-28.58,135.24v.13H2732v-.15Zm-1.22.51-130.14,42.44v-.14l130.14-42.43Zm-130,43.37,130.73-42.62,102.62,92.21-28.49,134.69-130.65,42.64-102.69-92.26Zm922.8-302.09L3392.27,1610l-102.87-92.5,28.71-135.56,131.29-42.81,103,92.53ZM3403.75,974l131.63-42.9,103,92.53-28.65,135.44-131.4,42.84-103.15-92.67ZM3243,1153l131.41-42.84,103.14,92.67L3448.94,1338l-131.47,42.86-102.89-92.46-.2-.18Zm-395.92,128.52,131.63-42.91,103,92.54L3053,1466.52l-131.55,42.91-103-92.53Zm74,229.14,131.63-42.92.17.15v.17l102.8,92.38-28.61,135.27-131.62,42.92-103-92.53Zm-394.94,129.76,131.62-42.9L2760,1689.31l-.22.07-28.61,135.21-130.94,42.69-.26.08,0,.22-102.34-92ZM2335,1954.61l-131.6,43-103-92.52,28.6-135.5,131.62-42.91,103,92.53Zm30.41-135.31,131.42-42.84,102.84,92.42-28.5,134.74-.06.27.29.27h0l-131.81,43-102.83-92.4ZM2646,2233.07l-131.61,43-103-92.53,28.6-135.26,131.82-43,102.79,92.36Zm160.69-178.85.69-.23.27-.08,28.59-135.22L2966.91,1876l102.63,92.22L3040.83,2104l-131.28,42.88-103-92.52Zm309,278.78-131.62,43-103-92.53L2909.77,2148l131.54-42.88,103,92.56h0Zm395.66-128.93L3379.76,2247,3277,2154.66l.23-.08,28.71-135.69,131.15-42.75,103,92.52Zm161.27-179.27-131.65,43-103-92.52,28.58-135.14,132-43.09,102.73,92.4Zm-74.28-229-131.93,43.06-102.74-92.31,28.65-135.45L3524,1568.23l103,92.53ZM3759.25,1617l-131.58,42.9-103-92.52,28.64-135.45L3685,1389l103,92.53Z" transform="translate(-69.64 -4.14)"/><g class="cls-2"><path class="cls-3" d="M2578.81,614.69a.84.84,0,0,1,.69-.71c.2,0,80.31-.07,119.55-.07h4.09a19.69,19.69,0,0,1,2.87.21c1.06.16,2.12.18,3.17.32a82.11,82.11,0,0,1,9.94,2c2.5.65,5,1.45,7.38,2.31a98.28,98.28,0,0,1,11.49,5,94.69,94.69,0,0,1,8.68,5A125.13,125.13,0,0,1,2757.1,636c2.08,1.61,4.15,3.23,6.12,5,1.13,1,2.3,2,3.43,3a8.58,8.58,0,0,1,1,1c1.11,1,2.16,2.12,3.32,3.1a21.25,21.25,0,0,1,2.43,2.5l2.57,3c2.47,2.81,4.71,5.79,6.9,8.83,2.34,3.23,4.46,6.61,6.48,10.06.84,1.43,1.66,2.87,2.42,4.37,1.58,3,3.13,6.11,4.47,9.28.73,1.71,1.44,3.45,2.11,5.19a124.7,124.7,0,0,1,5.09,16.81q1.17,5.08,1.91,10.27c.18,1.25.23,2.51.43,3.76.26,1.6.26,3.21.47,4.78.13,1,.07,2,.12,3s.09,1.82.15,2.71a36.85,36.85,0,0,1,0,4.7c-.06.85-.12,1.72-.15,2.57-.06,1.46-.06,2.93-.26,4.38s-.24,2.82-.41,4.22c-.19,1.55-.42,3.1-.67,4.65a119.46,119.46,0,0,1-2.58,11.84c-.91,3.37-2,6.7-3.19,9.94-.79,2.13-1.64,4.25-2.54,6.34-1.41,3.24-2.93,6.43-4.62,9.56-1.19,2.18-2.42,4.31-3.7,6.44-1.7,2.81-3.53,5.54-5.44,8.2s-3.88,5.16-5.93,7.65c-.86,1-1.79,2.06-2.67,3.1-2.38,2.87-5.06,5.36-7.66,8-1.68,1.68-3.49,3.22-5.29,4.79-2.42,2.06-4.94,4-7.5,5.9a103.67,103.67,0,0,1-10.42,6.7c-1.54.87-3.08,1.73-4.64,2.56-1.92,1.06-4,1.92-6,2.88a100.41,100.41,0,0,1-9.92,3.74,80.67,80.67,0,0,1-11.78,2.79c-1.74.28-3.5.44-5.25.64a51.09,51.09,0,0,1-6.06.24H2638c-.79,0-1.06-.32-1.09-1.15,0-.4.32-180.26.35-180.76a3.12,3.12,0,0,1,.18-.73.68.68,0,0,1,.44-.39l.3-.07h12.73c1.3,0,1.49.22,1.53,1.49,0,.35-.32,164.89-.28,165.45a.7.7,0,0,0,.6.59c.2,0,31.77.06,46.67.07a56.59,56.59,0,0,0,13.34-1.65,74.38,74.38,0,0,0,13.13-4.61,104,104,0,0,0,12.37-6.7,91.27,91.27,0,0,0,8.2-5.74q3.26-2.47,6.36-5.16a108.52,108.52,0,0,0,8.26-7.79c1.32-1.39,2.54-2.87,3.83-4.31,1.56-1.79,3-3.67,4.44-5.56a114,114,0,0,0,6.8-10.22,105.84,105.84,0,0,0,5.14-9.78,103.73,103.73,0,0,0,6-16.18c.71-2.59,1.34-5.19,1.85-7.82.49-2.47.9-5,1.15-7.47.15-1.47.33-2.87.48-4.38,0-.49.07-1,.07-1.51v-10.3c0-.64-.07-1.28-.15-1.91,0-.2-.06-.4-.07-.6a40,40,0,0,0-.4-4.38c-.15-1.55-.41-3.1-.66-4.65a111.61,111.61,0,0,0-2.64-12c-.81-2.87-1.68-5.82-2.77-8.61-.73-1.91-1.43-3.83-2.22-5.64a106.81,106.81,0,0,0-4.92-10.23c-1-1.73-1.92-3.46-2.94-5.13a107.91,107.91,0,0,0-7.66-11.07c-1.85-2.34-3.77-4.62-5.82-6.78-1-1-1.82-2-2.81-3-1.76-1.66-3.54-3.32-5.36-4.91a102.19,102.19,0,0,0-12.63-9.14,78.75,78.75,0,0,0-13-6.55,76.73,76.73,0,0,0-15.47-4.24c-1.18-.19-2.4-.26-3.59-.45a39.84,39.84,0,0,0-5-.32,5.6,5.6,0,0,1-1-.06c-.85,0-1.71-.12-2.57-.13-7.27,0-103.58-.32-104.09-.28a.78.78,0,0,0-.61.59c0,.2-.06,235.72,0,236.36a.81.81,0,0,0,.68.71h106.68a24.57,24.57,0,0,0,3.93-.17,5.57,5.57,0,0,1,1,0,39.39,39.39,0,0,0,5.74-.42c2-.25,4-.59,6-1a95.16,95.16,0,0,0,14.72-4.13,107,107,0,0,0,10.58-4.51q5.86-2.88,11.41-6.29a135.34,135.34,0,0,0,12.64-8.88c2.18-1.71,4.31-3.48,6.39-5.33,1.71-1.51,3.42-3,5-4.64,1.27-1.3,2.59-2.56,3.82-3.88,1.38-1.47,2.71-3,4.06-4.5l1.3-1.48a142.8,142.8,0,0,0,10-13.35c1.69-2.58,3.29-5.2,4.79-7.9,1.18-2.12,2.27-4.29,3.35-6.45s1.91-4.21,2.87-6.34q2.12-5,3.83-10.07c.75-2.31,1.45-4.62,2.06-7,.77-2.94,1.5-5.87,2.06-8.85.61-3.22,1.17-6.46,1.51-9.73.16-1.46.35-2.87.5-4.36.05-.4.05-.81.08-1.21a9.8,9.8,0,0,1,.05-1.21,47.57,47.57,0,0,0,.28-6.2,15.77,15.77,0,0,1,.15-2.57,13.73,13.73,0,0,0,0-2.72c-.07-.75-.11-1.51-.14-2.27V728.7a18.84,18.84,0,0,0-.21-3,3.05,3.05,0,0,0-.06-.6c-.26-4-.83-7.93-1.48-11.87a138,138,0,0,0-3.37-14.19c-.89-3.21-1.91-6.38-3.09-9.51-.78-2.12-1.6-4.25-2.46-6.35-.48-1.17-.95-2.33-1.5-3.48-1.4-3.08-2.81-6.16-4.42-9.13-1.91-3.55-3.95-7-6.12-10.46-2-3.15-4.16-6.21-6.4-9.21-1.71-2.31-3.5-4.56-5.37-6.7-1.19-1.38-2.46-2.69-3.64-4.06s-2.33-2.53-3.53-3.76c-2.38-2.41-4.88-4.68-7.43-6.91-2.16-1.92-4.42-3.69-6.7-5.44a85.27,85.27,0,0,0-8-5.44c-3.14-1.92-6.35-3.76-9.66-5.37a110.61,110.61,0,0,0-10.58-4.52,100.41,100.41,0,0,0-10.73-3.25,72.09,72.09,0,0,0-7.72-1.51c-2.3-.32-11-1-12.83-1-11.71,0-124.53-.58-125-.62a.78.78,0,0,1-.64-.57,4.17,4.17,0,0,1-.1-.6c0-.35,0-13.13.08-13.62a.79.79,0,0,1,.6-.62c.2,0,82.73-.07,123-.07H2706c.75,0,1.51.08,2.27.14.55,0,1.11.08,1.66.1a28,28,0,0,1,3.17.24c1.76.18,3.51.41,5.25.66,1,.15,1.92.27,2.87.45a108.27,108.27,0,0,1,11.65,2.75c2.51.77,5,1.63,7.47,2.48,2.78,1,5.47,2.12,8.14,3.33,2,.89,3.92,1.91,5.85,2.87,1.58.79,3.14,1.64,4.68,2.5q4,2.25,7.9,4.78c2.56,1.69,4.91,3.36,7.32,5.13,2.11,1.56,4.15,3.23,6.2,4.86,1.1.89,2.11,1.92,3.2,2.79,1.78,1.49,3.41,3.15,5.1,4.78,1,1,2.11,1.92,3.07,2.93.75.81,1.49,1.66,2.25,2.45,1.58,1.64,3,3.38,4.54,5.09,2.87,3.31,5.55,6.81,8.1,10.38,1.83,2.55,3.52,5.19,5.23,7.81,1.36,2.07,2.58,4.22,3.78,6.39,1.75,3.18,3.5,6.37,5,9.72.48,1.11,1,2.2,1.5,3.31a145.69,145.69,0,0,1,6.59,18,142.78,142.78,0,0,1,3.57,14.72c.5,2.63,1,5.27,1.33,7.92.19,1.19.29,2.41.42,3.6l.49,4.52a2,2,0,0,0,.06.6c.1,2.93.45,5.85.39,8.78a24,24,0,0,0,.14,3.17,15,15,0,0,1,0,2.12c0,.8-.1,1.62-.12,2.42,0,1.26,0,2.53-.07,3.83,0,.8-.1,1.61-.16,2.41,0,.25-.07.51-.07.76,0,1.67-.23,3.32-.38,5-.08.9-.18,1.8-.3,2.71-.5,4-1.11,7.89-1.91,11.81q-1.26,6.24-3,12.35c-.87,3-1.79,5.9-2.88,8.8-1,2.66-2,5.29-3.08,7.9-.46,1.12-1,2.23-1.45,3.33-1.15,2.53-2.29,5.06-3.6,7.51-2.14,4-4.39,8-6.84,11.79q-3.42,5.37-7.28,10.44c-2,2.64-4.15,5.22-6.33,7.74-1.16,1.33-2.4,2.6-3.57,3.92-2.59,2.87-5.38,5.61-8.16,8.33-1.59,1.55-3.25,3-5,4.46s-3.54,3-5.38,4.43c-1.52,1.17-3,2.35-4.58,3.47-1.77,1.27-3.56,2.49-5.37,3.7-2.7,1.78-5.48,3.42-8.29,5-2.56,1.45-5.17,2.76-7.81,4a102.38,102.38,0,0,1-9.91,4.18c-1.66.67-3.33,1.25-5,1.76a111.35,111.35,0,0,1-12.31,3.22c-2.22.46-4.47.82-6.7,1.13-1.3.17-2.61.28-3.91.41h-.46a28.21,28.21,0,0,1-4.68.27h-3.63c-40.46,0-122.69,0-123.34-.07a.78.78,0,0,1-.7-.69,6.36,6.36,0,0,1-.08-.75C2578.74,881.12,2578.78,614.94,2578.81,614.69Z" transform="translate(-69.64 -4.14)"/><path class="cls-3" d="M2607.25,645.06a.94.94,0,0,1,.8-1.06.66.66,0,0,1,.2,0c.4,0,84.79-.36,89.39-.36h2.87a46.18,46.18,0,0,1,6.64.52,68.49,68.49,0,0,1,16.21,4.33,76,76,0,0,1,10.85,5.38,85.35,85.35,0,0,1,10.37,7.36,47.71,47.71,0,0,1,3.83,3.42c1.35,1.37,2.72,2.71,4.06,4.08a70.5,70.5,0,0,1,5.25,6.07c1.61,2.07,3.19,4.17,4.62,6.38s2.68,4.16,3.83,6.35c.53,1,1.13,2,1.64,3.07,1.6,3.21,3,6.51,4.28,9.86a102.34,102.34,0,0,1,4.34,14.66c.54,2.47,1,5,1.32,7.45a37.77,37.77,0,0,1,.44,4.38,4.69,4.69,0,0,0,0,.75,26.81,26.81,0,0,1,.24,4.39v5.45a24,24,0,0,1-.21,3.17c-.13,1.15-.22,2.3-.35,3.46-.27,2.21-.62,4.4-1.08,6.58a95.31,95.31,0,0,1-2.87,10.37,85.77,85.77,0,0,1-3.27,8.31c-.66,1.48-1.34,2.94-2,4.4a88,88,0,0,1-4.68,8.31,114.46,114.46,0,0,1-8,11.2,115.64,115.64,0,0,1-9.22,9.82c-1.37,1.34-2.88,2.58-4.32,3.82-1.33,1.08-2.66,2.19-4,3.22-1.85,1.4-3.77,2.72-5.74,3.94-2.75,1.7-5.54,3.32-8.45,4.79a74.8,74.8,0,0,1-11.53,4.58A51.21,51.21,0,0,1,2706,825c-1.5.23-3,.39-4.51.56-.51,0-1,.06-1.52.05H2670.7a13.17,13.17,0,0,1-1.66-.07.8.8,0,0,1-.71-.69V811.5a6.51,6.51,0,0,1,.07-.76.82.82,0,0,1,.72-.67H2697a17.2,17.2,0,0,0,2.87-.15,4.82,4.82,0,0,1,.76,0,35,35,0,0,0,8.61-1.47,53.21,53.21,0,0,0,8.61-3.33q2.71-1.33,5.3-2.93a73.31,73.31,0,0,0,6.37-4.38,59.47,59.47,0,0,0,5.86-5c.4-.38.82-.74,1.24-1.12a30.34,30.34,0,0,0,3-3c.3-.35.6-.69.91-1,1.25-1.26,2.34-2.65,3.49-4a82.46,82.46,0,0,0,6.35-8.85,47.53,47.53,0,0,0,2.61-4.43,85.12,85.12,0,0,0,7.37-17.89,75.63,75.63,0,0,0,2-10,65.52,65.52,0,0,0,.53-10.57c0-.51-.07-1-.12-1.51,0-.3-.1-.6-.1-.9a40.53,40.53,0,0,0-.4-4.79c-.17-1.51-.42-3-.7-4.49a80.06,80.06,0,0,0-3.19-12c-.68-1.92-1.49-3.83-2.34-5.74-.55-1.25-1.1-2.5-1.74-3.71a78.51,78.51,0,0,0-7.53-11.87,77.63,77.63,0,0,0-6.36-7.31c-2.16-2.14-4.35-4.22-6.7-6.14-1.82-1.46-3.66-2.87-5.59-4.16a82.18,82.18,0,0,0-7.28-4.34,61.67,61.67,0,0,0-6.5-2.87,45.25,45.25,0,0,0-9-2.53,31.08,31.08,0,0,0-5.27-.54c-4.2,0-75.5.36-76,.39a.76.76,0,0,0-.7.68c0,.25,0,.51-.06.76V854.09a3.84,3.84,0,0,1-.08.76.77.77,0,0,1-.64.57H2608.3a.75.75,0,0,1-.63-.57,3.17,3.17,0,0,1-.12-.75C2607.6,853.4,2607.22,645.57,2607.25,645.06Z" transform="translate(-69.64 -4.14)"/><polygon class="cls-3" points="2463.03 977.17 2447.78 977.17 2447.78 1158.46 2406.1 1229.91 2419.28 1237.59 2463.03 1162.59 2463.03 977.17"/><polygon class="cls-3" points="2547.84 1176.1 2492.31 1150.9 2492.31 1134.68 2552.98 1162.05 2863.17 1163.28 2863.23 1148.02 2628.39 1147.09 2628.39 985.11 2768.11 985.11 2768.11 969.85 2628.39 969.85 2628.39 955.82 2767.72 955.82 2767.72 940.56 2628.39 940.56 2628.39 871.62 2613.13 871.62 2613.13 1147.04 2599.09 1146.98 2599.09 871.62 2583.84 871.62 2583.84 1146.91 2556.29 1146.81 2492.31 1117.96 2492.31 977.79 2477.06 977.79 2477.06 1165.12 2429.9 1245.76 2443.07 1253.47 2492.31 1169.26 2492.31 1167.65 2544.51 1191.33 2863.87 1192.57 2863.94 1177.3 2547.84 1176.1"/></g><path class="cls-3" d="M2567.33,606.08a.84.84,0,0,1,.69-.71c.2,0,80.3-.07,119.55-.07h4.09a21.19,21.19,0,0,1,2.87.2c1,.17,2.12.19,3.17.33a80.23,80.23,0,0,1,9.94,2c2.5.65,5,1.44,7.38,2.31a98.14,98.14,0,0,1,11.48,5,94.85,94.85,0,0,1,8.69,5,123,123,0,0,1,10.43,7.27c2.08,1.61,4.15,3.22,6.12,5,1.13,1,2.29,2,3.43,3a9.44,9.44,0,0,1,1,1c1.11,1,2.16,2.11,3.32,3.1a20.5,20.5,0,0,1,2.43,2.5c.83,1,1.71,2,2.57,3,2.47,2.82,4.71,5.8,6.9,8.84,2.34,3.23,4.46,6.61,6.48,10,.84,1.44,1.65,2.87,2.42,4.38,1.58,3,3.13,6.11,4.47,9.28q1.09,2.57,2.1,5.18a123.45,123.45,0,0,1,5.1,16.82q1.15,5.09,1.91,10.27c.18,1.25.23,2.51.43,3.76.26,1.59.26,3.21.47,4.78.12,1,.07,2,.11,3s.1,1.82.16,2.72a36.85,36.85,0,0,1,0,4.7c-.06.85-.13,1.71-.16,2.57a40.06,40.06,0,0,1-.26,4.38c-.2,1.45-.23,2.82-.41,4.22s-.42,3.1-.67,4.65a116.65,116.65,0,0,1-2.57,11.84c-.91,3.36-2,6.69-3.2,9.94-.78,2.13-1.63,4.25-2.53,6.33-1.41,3.25-2.93,6.43-4.62,9.57-1.19,2.17-2.42,4.31-3.71,6.43-1.69,2.82-3.52,5.54-5.43,8.2s-3.89,5.17-5.94,7.66c-.86,1-1.79,2.06-2.67,3.1-2.37,2.87-5,5.36-7.65,8-1.69,1.68-3.49,3.22-5.29,4.79-2.42,2.06-4.94,4-7.5,5.9a102.69,102.69,0,0,1-10.43,6.7c-1.54.87-3.08,1.73-4.64,2.56-1.91,1.06-4,1.92-6,2.87a94.61,94.61,0,0,1-9.91,3.74,79.43,79.43,0,0,1-11.78,2.8c-1.74.28-3.5.44-5.25.64a55.71,55.71,0,0,1-6.06.24h-61.82c-.78,0-1.05-.33-1.09-1.15,0-.4.33-180.26.36-180.76a2.3,2.3,0,0,1,.18-.73.68.68,0,0,1,.44-.39,1.63,1.63,0,0,1,.3-.07c.2,0,8.68-.05,12.72,0,1.3,0,1.49.22,1.53,1.49,0,.35-.31,164.89-.27,165.45a.69.69,0,0,0,.6.59c.2,0,31.77.06,46.67.07a56.59,56.59,0,0,0,13.34-1.65,75.48,75.48,0,0,0,13.13-4.61,104,104,0,0,0,12.37-6.7,89.86,89.86,0,0,0,8.2-5.74q3.26-2.47,6.35-5.16a108.66,108.66,0,0,0,8.27-7.79c1.31-1.4,2.54-2.87,3.83-4.31,1.56-1.79,3-3.67,4.44-5.56a117.57,117.57,0,0,0,6.79-10.22,109.78,109.78,0,0,0,5.15-9.78,105.79,105.79,0,0,0,6-16.18c.71-2.59,1.34-5.19,1.85-7.82.49-2.47.9-5,1.15-7.48.15-1.46.32-2.87.48-4.37,0-.5.06-1,.07-1.51V721c0-.64-.07-1.28-.15-1.91a4.09,4.09,0,0,1-.07-.6,42.68,42.68,0,0,0-.4-4.38c-.15-1.56-.41-3.1-.66-4.65a111.61,111.61,0,0,0-2.64-12c-.81-2.87-1.69-5.83-2.78-8.61-.72-1.92-1.42-3.83-2.22-5.65a104.39,104.39,0,0,0-4.91-10.23c-1-1.72-1.92-3.45-2.94-5.13a110.65,110.65,0,0,0-7.66-11.07c-1.85-2.33-3.77-4.61-5.83-6.77-.95-1-1.81-2-2.8-3-1.76-1.66-3.54-3.32-5.37-4.91a104,104,0,0,0-12.62-9.15,77.93,77.93,0,0,0-13-6.54,75.35,75.35,0,0,0-15.46-4.24c-1.19-.19-2.4-.26-3.6-.45a41.84,41.84,0,0,0-5-.33,6.7,6.7,0,0,1-1,0c-.85,0-1.71-.13-2.57-.14-7.28,0-103.58-.31-104.09-.27a.76.76,0,0,0-.61.59c0,.2-.07,235.72,0,236.36a.79.79,0,0,0,.68.71h106.68a25.8,25.8,0,0,0,3.93-.18,8.34,8.34,0,0,1,1,0,39.39,39.39,0,0,0,5.74-.42c2-.25,4-.58,6-1a95.16,95.16,0,0,0,14.72-4.13,109.53,109.53,0,0,0,10.58-4.52q5.85-2.86,11.41-6.28a135.34,135.34,0,0,0,12.64-8.88c2.18-1.71,4.31-3.48,6.39-5.33,1.7-1.51,3.41-3,5-4.64,1.28-1.3,2.6-2.56,3.83-3.88,1.38-1.47,2.71-3,4.06-4.51l1.3-1.47A142.8,142.8,0,0,0,2787,800c1.69-2.58,3.28-5.2,4.79-7.9,1.17-2.12,2.26-4.29,3.35-6.45s1.91-4.21,2.87-6.35q2.12-5,3.82-10.06c.76-2.31,1.46-4.63,2.07-7,.77-2.94,1.49-5.88,2.06-8.85.61-3.23,1.17-6.46,1.51-9.73.15-1.46.34-2.87.5-4.36.05-.4.05-.81.07-1.21s0-.75,0-1.13a49.4,49.4,0,0,0,.28-6.2,15.76,15.76,0,0,1,.14-2.57,12.37,12.37,0,0,0,0-2.72c-.06-.76-.1-1.51-.13-2.27v-3.19a18.84,18.84,0,0,0-.21-3,3.05,3.05,0,0,0-.06-.6c-.27-4-.83-7.94-1.48-11.87a141.29,141.29,0,0,0-3.37-14.19c-.89-3.21-1.91-6.38-3.09-9.51-.79-2.13-1.6-4.25-2.46-6.35-.48-1.17-1-2.33-1.5-3.48-1.4-3.08-2.82-6.16-4.42-9.14q-2.88-5.32-6.13-10.46c-2-3.14-4.15-6.21-6.39-9.2-1.71-2.31-3.5-4.57-5.38-6.7-1.18-1.38-2.46-2.69-3.63-4.07s-2.33-2.52-3.54-3.75c-2.37-2.41-4.88-4.68-7.42-6.92-2.16-1.91-4.42-3.68-6.7-5.43a90.17,90.17,0,0,0-8-5.45c-3.15-1.91-6.35-3.75-9.66-5.37a112.19,112.19,0,0,0-10.59-4.51,100.29,100.29,0,0,0-10.72-3.26,78.15,78.15,0,0,0-7.73-1.51c-2.29-.31-11-1-12.82-1-11.71,0-124.53-.58-125-.62a.8.8,0,0,1-.64-.58,3.83,3.83,0,0,1-.1-.59c0-.35,0-13.13.08-13.63a.77.77,0,0,1,.6-.61c.2,0,82.73-.08,123-.08h3.48c.76,0,1.52.09,2.27.15.56,0,1.11.07,1.67.09,1.06,0,2.12.11,3.17.24,1.76.18,3.51.41,5.25.67,1,.15,1.91.27,2.87.44a110.57,110.57,0,0,1,11.64,2.76c2.51.76,5,1.63,7.48,2.48,2.77,1,5.46,2.12,8.13,3.33,2,.89,3.93,1.91,5.86,2.87,1.58.79,3.14,1.63,4.68,2.5,2.69,1.5,5.33,3.1,7.89,4.78s4.92,3.36,7.32,5.13c2.12,1.56,4.16,3.22,6.2,4.86,1.1.89,2.12,1.91,3.21,2.79,1.78,1.49,3.41,3.14,5.1,4.78,1,1,2.11,1.91,3.06,2.93.76.81,1.49,1.65,2.26,2.45,1.58,1.63,3,3.38,4.54,5.09,2.87,3.31,5.55,6.81,8.1,10.38,1.83,2.55,3.51,5.19,5.23,7.81,1.35,2.07,2.58,4.22,3.78,6.39,1.75,3.18,3.5,6.37,4.94,9.71.49,1.11,1,2.21,1.51,3.32a145.69,145.69,0,0,1,6.59,18,142.78,142.78,0,0,1,3.57,14.72c.5,2.63.95,5.27,1.33,7.91.19,1.2.28,2.41.42,3.61l.49,4.52a2.43,2.43,0,0,0,.05.6c.11,2.93.45,5.85.4,8.78a22.36,22.36,0,0,0,.14,3.17,15,15,0,0,1,0,2.12c0,.8-.11,1.61-.12,2.42,0,1.26,0,2.52-.07,3.83,0,.8-.11,1.6-.16,2.41,0,.25-.07.5-.07.75,0,1.68-.23,3.32-.38,5-.08.9-.19,1.8-.3,2.71-.51,4-1.11,7.89-1.91,11.81q-1.28,6.22-3,12.35c-.86,3-1.79,5.89-2.87,8.79-1,2.66-2,5.3-3.08,7.91-.46,1.12-1,2.23-1.45,3.33-1.15,2.52-2.29,5.06-3.6,7.51-2.15,4-4.39,8-6.84,11.79q-3.43,5.37-7.29,10.44c-2,2.64-4.14,5.21-6.32,7.74-1.16,1.33-2.4,2.59-3.57,3.91-2.59,2.87-5.38,5.62-8.16,8.34-1.59,1.55-3.26,3-5,4.46s-3.54,3-5.38,4.43c-1.52,1.17-3,2.35-4.58,3.47-1.77,1.27-3.56,2.49-5.37,3.7-2.7,1.78-5.48,3.42-8.3,5-2.55,1.44-5.16,2.76-7.81,4a104.76,104.76,0,0,1-9.9,4.18c-1.66.67-3.33,1.25-5,1.76a111.35,111.35,0,0,1-12.31,3.22c-2.22.46-4.47.82-6.7,1.13-1.3.17-2.61.27-3.91.41h-.46a27.16,27.16,0,0,1-4.68.26h-3.64c-40.46,0-122.68,0-123.33-.06a.79.79,0,0,1-.7-.69,6.53,6.53,0,0,1-.08-.76C2567.25,872.5,2567.3,606.33,2567.33,606.08Z" transform="translate(-69.64 -4.14)"/><path class="cls-3" d="M2595.77,636.45a.91.91,0,0,1,.75-1.06.7.7,0,0,1,.25,0c.4,0,84.8-.37,89.4-.37H2689a46.2,46.2,0,0,1,6.64.53,68.49,68.49,0,0,1,16.21,4.33,76.93,76.93,0,0,1,10.84,5.37,87.72,87.72,0,0,1,10.38,7.36,49.7,49.7,0,0,1,3.82,3.43c1.35,1.37,2.73,2.71,4.07,4.08a70.38,70.38,0,0,1,5.24,6.07c1.62,2.07,3.2,4.16,4.63,6.37s2.68,4.17,3.82,6.36c.54,1,1.13,2,1.65,3.07,1.6,3.21,3,6.51,4.28,9.86A102.65,102.65,0,0,1,2765,706.5c.54,2.47,1,5,1.31,7.45a35.74,35.74,0,0,1,.44,4.37v.76a25.69,25.69,0,0,1,.25,4.38v5.46a27.79,27.79,0,0,1-.21,3.16c-.13,1.15-.22,2.31-.35,3.47q-.41,3.32-1.08,6.57a93.32,93.32,0,0,1-2.88,10.38,85.7,85.7,0,0,1-3.26,8.31c-.66,1.48-1.35,2.94-2,4.39a82.8,82.8,0,0,1-4.68,8.32,114.46,114.46,0,0,1-8,11.2,118.84,118.84,0,0,1-9.23,9.81c-1.37,1.34-2.87,2.59-4.31,3.83-1.33,1.08-2.66,2.18-4,3.22-1.85,1.39-3.77,2.71-5.74,3.94-2.75,1.7-5.54,3.32-8.45,4.78a74.85,74.85,0,0,1-11.53,4.59,51.92,51.92,0,0,1-6.65,1.48c-1.5.23-3,.39-4.5.56a12.85,12.85,0,0,1-1.52,0h-29.25a15.17,15.17,0,0,1-1.65-.06.81.81,0,0,1-.71-.69V802.89a6.51,6.51,0,0,1,.07-.76.81.81,0,0,1,.71-.67h27.89a17.2,17.2,0,0,0,2.87-.15,4.82,4.82,0,0,1,.76,0,34.53,34.53,0,0,0,8.61-1.48,51.09,51.09,0,0,0,8.61-3.33,59.31,59.31,0,0,0,5.3-2.92,71.1,71.1,0,0,0,6.36-4.39,60.76,60.76,0,0,0,5.87-5c.39-.38.81-.75,1.23-1.12a30.34,30.34,0,0,0,3-3c.3-.35.59-.69.91-1,1.24-1.26,2.33-2.65,3.48-4a80.23,80.23,0,0,0,6.36-8.85,48.86,48.86,0,0,0,2.61-4.43,85.2,85.2,0,0,0,7.37-17.9,75.08,75.08,0,0,0,2-9.94,65.51,65.51,0,0,0,.52-10.57c0-.51-.06-1-.11-1.51,0-.3-.1-.61-.1-.9a40.53,40.53,0,0,0-.4-4.79c-.17-1.51-.42-3-.7-4.5a78.91,78.91,0,0,0-3.2-12c-.67-1.91-1.48-3.82-2.33-5.74-.56-1.24-1.1-2.49-1.74-3.7a80.74,80.74,0,0,0-7.53-11.88,77.73,77.73,0,0,0-6.37-7.31c-2.15-2.13-4.34-4.22-6.69-6.13-1.82-1.46-3.66-2.87-5.59-4.16-2.36-1.57-4.79-3-7.29-4.34a56.87,56.87,0,0,0-6.49-2.87,45.25,45.25,0,0,0-9-2.53,30.86,30.86,0,0,0-5.26-.54c-4.2,0-75.5.35-76.06.39a.73.73,0,0,0-.69.68,4.87,4.87,0,0,0-.06.76V845.48a3.22,3.22,0,0,1-.09.76.75.75,0,0,1-.63.57H2597a.75.75,0,0,1-.63-.57,3.17,3.17,0,0,1-.12-.75C2596.11,844.79,2595.74,637,2595.77,636.45Z" transform="translate(-69.64 -4.14)"/><polygon class="cls-3" points="2451.55 968.56 2436.29 968.56 2436.29 1149.85 2394.62 1221.29 2407.8 1228.98 2451.55 1153.98 2451.55 968.56"/><polygon class="cls-3" points="2536.36 1167.49 2480.83 1142.29 2480.83 1126.07 2541.5 1153.44 2851.69 1154.66 2851.75 1139.41 2616.9 1138.48 2616.9 976.49 2756.63 976.49 2756.63 961.24 2616.9 961.24 2616.9 947.2 2756.24 947.2 2756.24 931.95 2616.9 931.95 2616.9 863 2601.65 863 2601.65 1138.43 2587.61 1138.37 2587.61 863 2572.36 863 2572.36 1138.3 2544.81 1138.2 2480.83 1109.34 2480.83 969.17 2465.58 969.17 2465.58 1156.51 2418.42 1237.15 2431.58 1244.85 2480.83 1160.64 2480.83 1159.04 2533.03 1182.72 2852.39 1183.96 2852.46 1168.69 2536.36 1167.49"/><g class="cls-2"><polygon class="cls-3" points="3345.16 886.48 3345.16 818.88 3329.91 818.88 3329.91 886.48 3315.87 886.48 3315.87 818.88 3300.62 818.88 3300.62 886.48 3286.58 886.48 3286.58 818.88 3271.33 818.88 3271.33 886.48 3137.09 886.48 3137.09 901.73 3476.35 901.73 3476.35 886.48 3345.16 886.48"/><polygon class="cls-3" points="3137.09 929.19 3251.81 929.19 3251.81 1238.6 3212.57 1351.18 3226.98 1356.2 3267.06 1241.18 3267.06 929.19 3281.09 929.19 3281.09 1244.43 3241.23 1361.61 3255.67 1366.52 3296.35 1246.95 3296.35 929.19 3321.37 929.19 3321.96 1311.9 3289.02 1311.9 3289.02 1327.15 3337.24 1327.15 3336.62 929.19 3350.65 929.19 3350.65 1330.9 3344.72 1341.18 3289.64 1341.18 3289.64 1356.44 3353.54 1356.44 3365.91 1334.99 3365.91 929.19 3476.35 929.19 3476.35 913.93 3137.09 913.93 3137.09 929.19"/></g><g class="cls-2"><path class="cls-3" d="M3023.68,1271.83h-10.09l-9.43-8.82V1117.12h-15.25v152.49l18.64,17.45,122.9.3V1272.1l-64.7-.16v-111.5h57.33v-15.25h-57.33v-14h58V1115.9h-58v-30.73A117.64,117.64,0,0,0,3101,1069c24.44-16.77,37.32-40.73,37.32-69.3,0-23.82-5.87-56.67-33.83-77.85A79.21,79.21,0,0,0,3070,906.67l-.48-.06H2983.3v15.25h85.17a65.89,65.89,0,0,1,27.38,12.57c18.09,14,27.26,36,27.26,65.27,0,23.49-10.21,42.48-30.34,56.45a103,103,0,0,1-31,14.36l-64.93-.59.54-120.53h64.19c4.66,1.13,32.86,9.57,32.86,49.12,0,34.73-32,43.65-37.13,44.84h-31.77l.55-79.87-15.25-.11-.66,95.23h48.69l.72-.13a72.75,72.75,0,0,0,24.88-11c11.48-8,25.24-23,25.24-49,0-28.54-12.33-44.49-22.67-52.84a57.22,57.22,0,0,0-23.23-11.41l-.69-.12h-80.92l-.67,150.89,42.1.38Zm15.26,0V1085.48l11.59.11V1271.9Z" transform="translate(-69.64 -4.14)"/><polygon class="cls-3" points="2906.46 1271.11 2906.46 1112.98 2891.19 1112.98 2891.19 1277.63 2923.83 1308.84 3061.44 1308.84 3061.44 1293.59 2929.95 1293.59 2906.46 1271.11"/></g><polygon class="cls-3" points="3337.51 876.91 3337.51 809.31 3322.26 809.31 3322.26 876.91 3308.22 876.91 3308.22 809.31 3292.97 809.31 3292.97 876.91 3278.93 876.91 3278.93 809.31 3263.67 809.31 3263.67 876.91 3129.44 876.91 3129.44 892.16 3468.69 892.16 3468.69 876.91 3337.51 876.91"/><polygon class="cls-3" points="3129.44 919.62 3244.15 919.62 3244.15 1229.03 3204.92 1341.61 3219.32 1346.63 3259.41 1231.61 3259.41 919.62 3273.43 919.62 3273.43 1234.86 3233.58 1352.04 3248.02 1356.95 3288.7 1237.38 3288.7 919.62 3313.71 919.62 3314.3 1302.33 3281.37 1302.33 3281.37 1317.58 3329.59 1317.58 3328.96 919.62 3342.99 919.62 3342.99 1321.33 3337.07 1331.61 3281.98 1331.61 3281.98 1346.87 3345.88 1346.87 3358.25 1325.42 3358.25 919.62 3468.69 919.62 3468.69 904.36 3129.44 904.36 3129.44 919.62"/><path class="cls-4" d="M3519.67,1326.65c-1.49,0-3-.07-4.64-.19-14.09-1.1-24.27-9.86-28.62-24.67a62.86,62.86,0,0,1-2.24-20.42l.08-.61,3.13-19.67,55.33,3.66-1,15.23-41.43-2.75-.89,5.58a47.5,47.5,0,0,0,1.77,15c3.43,11.27,10.26,13.08,15.09,13.45,12,1,21.39-3,27.93-11.84A42,42,0,0,0,3551,1285l1.91-28.55-59.49-4.44,1.14-15.22,74.58,5.57-3,44.68-.08.45a56.57,56.57,0,0,1-9.2,20.53C3550.49,1316.69,3539,1326.65,3519.67,1326.65Z" transform="translate(-69.64 -4.14)"/><path class="cls-4" d="M3572.84,1232.32l-78.86-3.66-21-73.53-.06-.78a129.25,129.25,0,0,1,3-35.57c7.71-32.26,26.43-41.53,40.78-43.63,14-2,26.29,1.11,36.69,9.33,25.37,20.09,29.48,63.78,29.67,65.63l.08,1-8.83,52.53-57.46-2.33-14.45-53.65-.06-.68c-.22-2.49-1.79-24.6,8.7-35.62a20,20,0,0,1,15.66-6.22c10,.38,18,8.73,23.81,24.79a126.15,126.15,0,0,1,5.4,20.69l.2,1.23-4.48,26.85-15-2.51,4.07-24.37c-2.8-16.14-9.73-31.25-14.53-31.43a4.76,4.76,0,0,0-4,1.5c-4.38,4.57-5,17.14-4.6,23.15l11.17,41.49,32.84,1.33,6.27-37.32c-.69-5.94-5.36-39.54-23.83-54.12-7.07-5.58-15.25-7.65-25-6.18-14,2-23.45,12.74-28.07,31.77a115.75,115.75,0,0,0-2.8,30.49l17.55,61.42,68,3.16Z" transform="translate(-69.64 -4.14)"/><rect class="cls-4" x="3515.32" y="1282.68" width="15.25" height="20.62" transform="translate(1927.88 4717.56) rotate(-86.17)"/><path class="cls-4" d="M3192.09,1255.21a37.69,37.69,0,0,1-4.87-.31c-15.13-1.92-26.55-10.91-33-26a66.06,66.06,0,0,1-5.06-21.3v-1.06l5.32-22.12,50.92,9.57-2.81,15-36.67-6.89-1.41,5.88c.44,5.17,3.59,29.1,24.71,31.79,7.83,1,14.16-2,19.32-9.25a44,44,0,0,0,6-12.5l2.56-31-59.33-11.48,2.87-15,72.72,14-3.82,45.94-.15.58a58.66,58.66,0,0,1-8.26,17.81C3213.69,1249.66,3203.76,1255.21,3192.09,1255.21Z" transform="translate(-69.64 -4.14)"/><path class="cls-4" d="M3233.18,1167l-75.52-16.84,6.41-68.89.29-.85c1.07-3.19,26.94-78.15,74.82-71.23,14.11,2,24.78,8.61,31.72,19.43,16.76,26.19,4.5,68.37,4,70.15l-.36,1.21-30.38,42.76-55.85-13.06,3-43.5.34-1c1.35-3.9,13.74-38.28,32-46a19.56,19.56,0,0,1,16.26.12c6.42,2.94,13.68,10.69,11.74,30.92a107.66,107.66,0,0,1-4,19.79l-.48,1.54-19.38,22-11.44-10.09,17.23-19.51c3.73-12.87,4.57-28.65,0-30.75a4.43,4.43,0,0,0-3.92,0c-8.41,3.59-18.45,22.91-23.2,36.06l-1.91,28.49,33.24,7.74,23-32.28c1.7-6.43,9.19-38.2-2.52-56.46-4.51-7-11.39-11.12-21-12.52-14.23-2.06-28.18,7.09-41.45,27.19a168.05,168.05,0,0,0-16.46,33l-5,53.66,62.41,13.92Z" transform="translate(-69.64 -4.14)"/><rect class="cls-4" x="3179.96" y="1209.44" width="15.25" height="23.34" transform="translate(1279.82 4093.27) rotate(-78.38)"/><path class="cls-3" d="M3016,1262.27h-10.1l-9.42-8.83V1107.55h-15.26v152.5l18.64,17.44,122.9.3v-15.26l-64.7-.16v-111.5h57.33v-15.25h-57.33v-14h58v-15.25h-58V1075.6a117.43,117.43,0,0,0,35.26-16.21c24.44-16.77,37.32-40.73,37.32-69.3,0-23.82-5.88-56.67-33.84-77.85a79.14,79.14,0,0,0-34.45-15.13l-.48-.07h-86.22v15.25h85.17a65.93,65.93,0,0,1,27.39,12.57c18.08,14,27.25,36,27.25,65.27,0,23.49-10.21,42.48-30.33,56.46a103.35,103.35,0,0,1-31,14.35l-64.93-.59.54-120.53H3054c4.66,1.13,32.86,9.57,32.86,49.12,0,34.73-32,43.65-37.13,44.84H3018l.56-79.87-15.25-.11-.67,95.24h48.69l.72-.14a72.75,72.75,0,0,0,24.88-11c11.48-8,25.24-23,25.24-49,0-28.54-12.32-44.49-22.67-52.84a57.22,57.22,0,0,0-23.23-11.41l-.69-.12h-80.92l-.67,150.89,42.11.38Zm15.25,0V1075.92l11.6.1v186.31Z" transform="translate(-69.64 -4.14)"/><polygon class="cls-3" points="2898.8 1261.54 2898.8 1103.41 2883.54 1103.41 2883.54 1268.06 2916.18 1299.27 3053.78 1299.27 3053.78 1284.02 2922.29 1284.02 2898.8 1261.54"/><path class="cls-4" d="M3225.2,1375.41s-34.06-10.21-55,22.89-19.45,47.11-19.45,47.11l41,20.1s19.46-14.81,33.42-32.54S3246.26,1386.89,3225.2,1375.41Z" transform="translate(-69.64 -4.14)"/><path class="cls-4" d="M3144.64,1460.47l38.49,18.57s-10.53,52.11-38.28,35.69C3117.57,1498.59,3144.64,1460.47,3144.64,1460.47Z" transform="translate(-69.64 -4.14)"/><path class="cls-4" d="M3260.88,1639.29s-3.49-40.91,1.28-55.9,19.52-46.71,44.33-37.54,26.28,40.5,19.42,62S3303,1656.5,3303,1656.5Z" transform="translate(-69.64 -4.14)"/><path class="cls-4" d="M3252.17,1653.87l45.52,19.32s-7.75,45.11-44.33,39.65S3252.17,1653.87,3252.17,1653.87Z" transform="translate(-69.64 -4.14)"/><path class="cls-4" d="M3080.73,1593.6s-22.21-22.89-53.1-6.14-35.84,28.39-35.84,28.39l23.34,33.7s21.71-3.08,40.39-10.84S3092.2,1611.8,3080.73,1593.6Z" transform="translate(-69.64 -4.14)"/><path class="cls-4" d="M2980.43,1625l22,31.37s-31,36.22-45.57,11.22C2942.52,1643,2980.43,1625,2980.43,1625Z" transform="translate(-69.64 -4.14)"/><path class="cls-4" d="M2994,1800s21.18-30.37,33.14-38,40.47-21,52.37-.44-5.16,43.21-22.33,54.19-43.93,20.46-43.93,20.46Z" transform="translate(-69.64 -4.14)"/><path class="cls-4" d="M2979.55,1805.07l20.4,39.63s-31.4,26.8-53.59,1.92S2979.55,1805.07,2979.55,1805.07Z" transform="translate(-69.64 -4.14)"/><path class="cls-4" d="M2822,1716.13s-10-22.38-37.12-19.07-33.82,10.21-33.82,10.21l8,30.36s16.69,3.83,32.42,3.52S2825.48,1732.23,2822,1716.13Z" transform="translate(-69.64 -4.14)"/><path class="cls-4" d="M2740.29,1710.6,2748,1739s-32.39,17.1-36.3-4.67C2707.79,1712.88,2740.29,1710.6,2740.29,1710.6Z" transform="translate(-69.64 -4.14)"/><path class="cls-4" d="M2663.88,1830.1s18.59-18.18,27.94-21.83,31.1-9.24,37,6.54-8.82,29.07-22.26,34.38-33.49,8.36-33.49,8.36Z" transform="translate(-69.64 -4.14)"/><path class="cls-4" d="M2653.07,1831.67l9.65,29.95s-25.37,14.36-38.06-5.68S2653.07,1831.67,2653.07,1831.67Z" transform="translate(-69.64 -4.14)"/><path class="cls-5" d="M407.18,450.86A24.25,24.25,0,1,1,433.1,428.4h0A24.24,24.24,0,0,1,407.18,450.86Zm2.5-34.8a10.63,10.63,0,1,0,9.84,11.37,10.62,10.62,0,0,0-9.84-11.37Z" transform="translate(-69.64 -4.14)"/><path class="cls-5" d="M618.44,513.83a24.25,24.25,0,1,1,25.93-22.46,24.25,24.25,0,0,1-25.93,22.46ZM621,479.05a10.63,10.63,0,1,0,9.84,11.37h0A10.65,10.65,0,0,0,621,479.05Z" transform="translate(-69.64 -4.14)"/><path class="cls-5" d="M814.14,568a24.25,24.25,0,1,1,25.92-22.46h0A24.23,24.23,0,0,1,814.15,568Zm2.51-34.79a10.63,10.63,0,1,0,9.83,11.37h0a10.63,10.63,0,0,0-9.83-11.35Z" transform="translate(-69.64 -4.14)"/><path class="cls-5" d="M763.28,362.19a24.25,24.25,0,1,1,25.92-22.46h0A24.27,24.27,0,0,1,763.28,362.19Zm2.51-34.8a10.63,10.63,0,1,0,9.84,11.38A10.63,10.63,0,0,0,765.79,327.39Z" transform="translate(-69.64 -4.14)"/><path class="cls-5" d="M356.25,245.88a24.25,24.25,0,1,1,25.94-22.45,24.24,24.24,0,0,1-25.94,22.45Zm2.51-34.79a10.63,10.63,0,1,0,9.85,11.39,10.63,10.63,0,0,0-9.85-11.39Z" transform="translate(-69.64 -4.14)"/><path class="cls-5" d="M965.52,420.26a24.25,24.25,0,1,1,25.94-22.44,24.24,24.24,0,0,1-25.94,22.44ZM968,385.47a10.63,10.63,0,1,0,9.85,11.38A10.63,10.63,0,0,0,968,385.47Z" transform="translate(-69.64 -4.14)"/><path class="cls-5" d="M865.6,777.29a24.25,24.25,0,1,1,25.93-22.45h0A24.27,24.27,0,0,1,865.6,777.29Zm2.5-34.79a10.63,10.63,0,1,0,9.9,11.36,10.63,10.63,0,0,0-9.9-11.36Z" transform="translate(-69.64 -4.14)"/><path class="cls-5" d="M868.42,735.7l-41.78-174a6.81,6.81,0,1,0-13.29,3v.2l42.11,175.4A17.44,17.44,0,0,1,868.42,735.7Z" transform="translate(-69.64 -4.14)"/><path class="cls-5" d="M1221.22,683.48A24.25,24.25,0,1,1,1247.15,661h0a24.26,24.26,0,0,1-25.92,22.48Zm2.51-34.79a10.63,10.63,0,1,0,9.84,11.37h0A10.65,10.65,0,0,0,1223.73,648.69Z" transform="translate(-69.64 -4.14)"/><path class="cls-5" d="M953.74,385.07,782.28,335.58a17.31,17.31,0,0,1-3.5,13.15l171.16,49.41a19.27,19.27,0,0,1-.08-3.31A17.3,17.3,0,0,1,953.74,385.07Z" transform="translate(-69.64 -4.14)"/><path class="cls-5" d="M748.7,344.14,626.14,470.75a6.8,6.8,0,1,0,9.74,9.5L758.09,354A17.52,17.52,0,0,1,748.7,344.14Z" transform="translate(-69.64 -4.14)"/><path class="cls-5" d="M1209.15,648.66,833.22,542.19a17.18,17.18,0,0,1,.06,2.87,17.38,17.38,0,0,1-4.17,10.09l376.6,106.68a16.93,16.93,0,0,1-.14-3.83A17.28,17.28,0,0,1,1209.15,648.66Z" transform="translate(-69.64 -4.14)"/><path class="cls-5" d="M802,533.33,637.38,486.72A17.22,17.22,0,0,1,634.22,500l164.45,46.58A17.09,17.09,0,0,1,802,533.33Z" transform="translate(-69.64 -4.14)"/><path class="cls-5" d="M410.17,409.28c.24,0,.47.06.71.08L369.25,235a17.36,17.36,0,0,1-12.5,4.09l-.53-.07,41.6,174.21A17.21,17.21,0,0,1,410.17,409.28Z" transform="translate(-69.64 -4.14)"/><path class="cls-5" d="M607.1,478.15,426.34,427v1a17.36,17.36,0,0,1-5.61,11.59l182.12,51.58a17.13,17.13,0,0,1,0-2.68A17.35,17.35,0,0,1,607.1,478.15Z" transform="translate(-69.64 -4.14)"/><path class="cls-3" d="M457.18,1110.67a166.46,166.46,0,0,1,26.38-2.07c17.77,0,30.5,4.21,38.9,12.06,8.61,7.78,13.59,18.9,13.59,34.35,0,15.75-4.92,28.48-13.81,37.32-9.07,8.94-23.92,13.84-42.51,13.84a199.8,199.8,0,0,1-22.55-1.07Zm12.44,84.93a89.12,89.12,0,0,0,12.44.58c26.57.07,40.88-14.74,40.88-40.7.15-22.67-12.67-37-38.82-37a73.79,73.79,0,0,0-14.53,1.27Z" transform="translate(-69.64 -4.14)"/><path class="cls-3" d="M555.61,1110.67a165.22,165.22,0,0,1,26.38-2.09c17.76,0,30.49,4.21,38.89,12.06,8.61,7.78,13.6,18.9,13.6,34.35,0,15.75-4.92,28.48-13.82,37.32-9.06,8.94-23.92,13.84-42.5,13.84a199.8,199.8,0,0,1-22.55-1.07Zm12.44,84.93a89.12,89.12,0,0,0,12.44.58c26.57.07,40.89-14.74,40.89-40.7.14-22.67-12.68-37-38.83-37a73.79,73.79,0,0,0-14.53,1.27Z" transform="translate(-69.64 -4.14)"/><path class="cls-3" d="M654,1110.67a166.46,166.46,0,0,1,26.38-2.07c17.76,0,30.5,4.21,38.89,12.06,8.61,7.78,13.6,18.9,13.6,34.35,0,15.75-4.92,28.48-13.81,37.32-9.07,8.94-23.92,13.84-42.51,13.84A199.8,199.8,0,0,1,654,1205.1Zm12.44,84.93a89.12,89.12,0,0,0,12.44.58c26.57.07,40.89-14.74,40.89-40.7.15-22.67-12.67-37-38.83-37a73.79,73.79,0,0,0-14.53,1.27Z" transform="translate(-69.64 -4.14)"/><path class="cls-3" d="M759.66,1173.18c.25,16.93,11,23.92,23.58,23.92,9,0,14.45-1.61,19.08-3.52l2.19,8.89c-4.38,2-12,4.39-23,4.39-21.17,0-33.9-14.1-33.9-34.76,0-20.88,12.3-37.18,32.41-37.18,22.48,0,28.36,19.71,28.36,32.39a31.28,31.28,0,0,1-.43,5.88Zm36.67-9c.13-7.89-3.23-20.27-17.28-20.27-12.79,0-18.18,11.55-19.24,20.27Z" transform="translate(-69.64 -4.14)"/><path class="cls-3" d="M825.81,1192.6a34.08,34.08,0,0,0,16.61,4.91c9.14,0,13.39-4.5,13.39-10.26,0-6-3.64-9.18-12.8-12.61-12.44-4.51-18.34-11.28-18.31-19.54,0-11.09,9-20.19,23.83-20.19a33.32,33.32,0,0,1,16.88,4.23l-3.12,9.11a27.07,27.07,0,0,0-14.13-4.06c-7.39,0-11.41,4.27-11.41,9.46,0,5.74,4,8.24,13.08,11.75,11.88,4.42,18,10.41,18.07,20.69,0,12.22-9.48,20.76-25.76,20.76a39.4,39.4,0,0,1-19.36-4.78Z" transform="translate(-69.64 -4.14)"/><path class="cls-3" d="M901.53,1117a7.77,7.77,0,1,1-7.75-7.79h0a7.54,7.54,0,0,1,7.75,7.32h0A3.53,3.53,0,0,1,901.53,1117Zm-14,88.36v-68.9H900v68.9Z" transform="translate(-69.64 -4.14)"/><path class="cls-3" d="M983.88,1136.47c-.35,4.87-.59,10.47-.59,18.85v40c0,16-3.25,25.5-9.83,31.58-6.77,6.2-16.41,8.27-25.09,8.27-8.34,0-17.41-1.92-23-5.68l3.14-9.64a38.86,38.86,0,0,0,20.29,5.52c12.78,0,22.18-6.7,22.18-24.14v-7.65h-.29c-3.76,6.47-11.27,11.6-21.89,11.6-17.17,0-29.37-14.61-29.37-33.7,0-23.36,15.19-36.51,31.11-36.51,12,0,18.42,6.14,21.48,11.87h.29l.51-10.31Zm-13,27.1a19.35,19.35,0,0,0-.69-5.61c-2.31-7.29-8.37-13.33-17.6-13.33-11.91,0-20.52,10.11-20.52,26.15,0,13.49,7,24.82,20.39,24.82a18.35,18.35,0,0,0,17.44-12.92,22.38,22.38,0,0,0,1-6.7Z" transform="translate(-69.64 -4.14)"/><path class="cls-3" d="M1006.76,1155.08c0-7.19-.23-12.9-.57-18.61h11.06l.7,11.33h.35c3.38-6.47,11.39-12.89,22.77-12.89,9.47,0,24.28,5.74,24.28,29.36v41.09h-12.44v-39.72c0-11.13-4.2-20.46-15.92-20.46-8.23,0-14.64,5.84-16.88,12.86a19.08,19.08,0,0,0-.87,5.81v41.51H1006.8Z" transform="translate(-69.64 -4.14)"/><path class="cls-3" d="M1136,1119.83h-29.24V1109.3h71.09v10.53h-29.39v85.53H1136Z" transform="translate(-69.64 -4.14)"/><path class="cls-3" d="M1213.37,1205.36l-24.34-96h13.15l11.48,48.58c2.77,12,5.33,23.93,7,33.19h.33c1.56-9.57,4.57-21,7.81-33.33l12.9-48.44h12.77L1266.2,1158c2.68,11.48,5.27,22.81,6.7,32.93h.31c1.91-10.53,4.58-21.22,7.57-33.17l12.7-48.41h12.73l-27.24,96h-13l-12-49.95a286.82,286.82,0,0,1-6.35-31.41h-.28a270.39,270.39,0,0,1-7.39,31.39l-13.59,50Z" transform="translate(-69.64 -4.14)"/><path class="cls-3" d="M1422.62,1202.28c-4.47,2.25-13.67,4.57-25.37,4.57-27,0-47.32-17.11-47.32-48.62,0-30.13,20.31-50.37,50.11-50.37,11.86,0,19.51,2.51,22.79,4.23l-3.07,10.08a45.56,45.56,0,0,0-19.31-4c-22.54,0-37.44,14.35-37.44,39.61,0,23.49,13.53,38.49,36.79,38.49,7.66,0,15.31-1.53,20.34-3.93Z" transform="translate(-69.64 -4.14)"/><path class="cls-3" d="M1502.12,1170.25c0,25.51-17.7,36.68-34.26,36.68-18.68,0-33.11-13.62-33.11-35.5,0-23,15.15-36.52,34.2-36.52C1488.76,1134.91,1502.12,1149.27,1502.12,1170.25Zm-54.63.8c0,15.11,8.62,26.49,20.88,26.49,12,0,21-11.23,21-26.86,0-11.66-5.88-26.38-20.77-26.38C1453.89,1144.3,1447.49,1158,1447.49,1171.05Z" transform="translate(-69.64 -4.14)"/><path class="cls-3" d="M1521.49,1155.08c0-7.19-.23-12.9-.56-18.61H1532l.7,11.33h.34c3.39-6.47,11.4-12.89,22.78-12.89,9.46,0,24.27,5.74,24.27,29.36v41.09h-12.44v-39.72c0-11.13-4.2-20.46-15.92-20.46-8.23,0-14.64,5.84-16.88,12.86a19.38,19.38,0,0,0-.86,5.81v41.51h-12.44Z" transform="translate(-69.64 -4.14)"/><path class="cls-3" d="M1605.36,1205.36V1146h-9.62v-9.49h9.62v-3.32c0-9.71,2.23-18.5,8-24.13a24,24,0,0,1,16.74-6.36,26.85,26.85,0,0,1,10.7,2l-1.65,9.57a19.21,19.21,0,0,0-8.05-1.57c-10.53,0-13.4,9.39-13.4,20v3.72h16.7v9.49h-16.58v59.4Z" transform="translate(-69.64 -4.14)"/><path class="cls-3" d="M1654.45,1173.18c.25,16.93,11,23.92,23.58,23.92,9,0,14.44-1.61,19.07-3.52l2.2,8.89c-4.38,2-12,4.39-23,4.39-21.16,0-33.89-14.1-33.89-34.76,0-20.88,12.29-37.18,32.41-37.18,22.48,0,28.35,19.71,28.35,32.39a30.47,30.47,0,0,1-.43,5.88Zm36.67-9c.12-7.89-3.24-20.27-17.29-20.27-12.78,0-18.18,11.55-19.23,20.27Z" transform="translate(-69.64 -4.14)"/><path class="cls-3" d="M1722.33,1157.92c0-8.13-.2-15.06-.56-21.45h11l.48,13.51h.45c3.22-9.23,10.81-15.07,19.14-15.07a14,14,0,0,1,3.48.35V1147a20.27,20.27,0,0,0-4.26-.36c-8.83,0-15.06,6.7-16.76,16a33.63,33.63,0,0,0-.51,5.84v36.81h-12.44Z" transform="translate(-69.64 -4.14)"/><path class="cls-3" d="M1778.08,1173.18c.25,16.93,11,23.92,23.58,23.92,9,0,14.45-1.61,19.08-3.52l2.19,8.89c-4.38,2-12,4.39-23,4.39-21.17,0-33.9-14.1-33.9-34.76,0-20.88,12.3-37.18,32.41-37.18,22.48,0,28.36,19.71,28.36,32.39a31.28,31.28,0,0,1-.43,5.88Zm36.67-9c.12-7.89-3.23-20.27-17.28-20.27-12.79,0-18.23,11.55-19.24,20.27Z" transform="translate(-69.64 -4.14)"/><path class="cls-3" d="M1846,1155.08c0-7.19-.24-12.9-.56-18.61h11.06l.7,11.33h.34c3.39-6.47,11.4-12.89,22.78-12.89,9.46,0,24.28,5.74,24.28,29.36v41.09h-12.44v-39.72c0-11.13-4.2-20.46-15.93-20.46-8.23,0-14.64,5.84-16.88,12.86a19.38,19.38,0,0,0-.86,5.81v41.51H1846Z" transform="translate(-69.64 -4.14)"/><path class="cls-3" d="M1977.72,1202.86a47.44,47.44,0,0,1-19.76,4c-20.77,0-34.37-14.13-34.37-35.2,0-21.23,14.48-36.72,37-36.72a41.34,41.34,0,0,1,17.42,3.66l-2.78,9.63a30.42,30.42,0,0,0-14.65-3.31c-15.72,0-24.34,11.78-24.31,26.08,0,16,10.27,25.78,24,25.78a36.43,36.43,0,0,0,15.31-3.31Z" transform="translate(-69.64 -4.14)"/><path class="cls-3" d="M2002.13,1173.18c.25,16.93,11,23.92,23.58,23.92,9,0,14.45-1.61,19.08-3.52l2.19,8.89c-4.38,2-12,4.39-23,4.39-21.17,0-33.9-14.1-33.9-34.76,0-20.88,12.3-37.18,32.42-37.18,22.47,0,28.35,19.71,28.35,32.39a30.47,30.47,0,0,1-.43,5.88Zm36.67-9c.13-7.89-3.23-20.27-17.28-20.27-12.78,0-18.18,11.55-19.23,20.27Z" transform="translate(-69.64 -4.14)"/><path class="cls-3" d="M2099.73,1205.36v-7.66l9.83-9.57c23.63-22.53,34.4-34.56,34.45-48.51,0-9.41-4.47-18.13-18.25-18.13-8.46,0-15.39,4.35-19.69,7.84l-4-8.76a40.61,40.61,0,0,1,26.19-9.42c19.91,0,28.27,13.68,28.27,26.86,0,17.22-12.44,31-31.87,49.76l-7.32,6.92v.29h41.46v10.37Z" transform="translate(-69.64 -4.14)"/><path class="cls-3" d="M2238,1158.12c0,31.41-11.76,48.81-32.21,48.81-18.08,0-30.38-16.94-30.67-47.52,0-31.12,13.39-48.2,32.23-48.2C2226.86,1111.21,2238,1128.68,2238,1158.12Zm-50.28,1.32c0,24.14,7.41,37.76,18.78,37.76,12.78,0,18.88-14.93,18.88-38.51,0-22.85-5.74-37.73-18.78-37.73-10.9,0-18.88,13.38-18.87,38.48Z" transform="translate(-69.64 -4.14)"/><path class="cls-3" d="M2253,1205.36v-7.66l9.83-9.57c23.63-22.53,34.45-34.56,34.45-48.51,0-9.41-4.47-18.13-18.25-18.13-8.46,0-15.39,4.35-19.69,7.84l-4-8.76a40.61,40.61,0,0,1,26.19-9.42c19.91,0,28.27,13.68,28.27,26.86,0,17.22-12.39,31-31.87,49.76l-7.32,6.92v.29h41.48v10.37Z" transform="translate(-69.64 -4.14)"/><path class="cls-3" d="M2356.88,1124.4h-.28l-16.08,8.68-2.4-9.52,20.23-10.78H2369v92.58h-12.09Z" transform="translate(-69.64 -4.14)"/><path class="cls-3" d="M541.81,1052.8H454.06L503,999.91q12.38-13,17.56-20.61a29.9,29.9,0,0,0,5.11-17.12q0-9.63-7.48-16.84a25.64,25.64,0,0,0-18.54-7.21,24.38,24.38,0,0,0-18.46,7.78q-7.38,7.8-8.41,22.24H458.53q.84-20.26,12.87-32.2a39.83,39.83,0,0,1,29.11-12q17.09,0,28.33,11.08a36.52,36.52,0,0,1,11.25,27.09A41.21,41.21,0,0,1,534,983.94q-6.16,10.13-18.71,23.52l-28.85,31.08H541.9Z" transform="translate(-69.64 -4.14)"/><path class="cls-3" d="M610.83,924q20.26,0,32.12,17.09T654.79,990q0,31.85-12,48.85t-32.2,17q-20.18,0-31.25-16.75t-11.07-49.28q0-32.54,11.07-49.2T610.83,924Zm.35,118.32q14.07,0,21.89-13.66t7.82-38.73q0-25.08-8.08-38.47t-21.72-13.4q-13.65,0-21.21,13.4t-7.55,38.81Q582.33,1042.34,611.18,1042.32Z" transform="translate(-69.64 -4.14)"/><path class="cls-3" d="M766.41,1052.8H678.66l48.94-52.89q12.36-13,17.52-20.61a29.66,29.66,0,0,0,5.14-17.12q0-9.63-7.47-16.84a25.64,25.64,0,0,0-18.54-7.21,24.38,24.38,0,0,0-18.46,7.78q-7.38,7.8-8.41,22.24H683.13Q684,947.89,696,936a39.81,39.81,0,0,1,29.11-12q17.07,0,28.33,11.08a36.53,36.53,0,0,1,11.25,27.09A41.08,41.08,0,0,1,758.5,984q-6.16,10.14-18.71,23.53l-28.81,31h55.5Z" transform="translate(-69.64 -4.14)"/><path class="cls-3" d="M845.74,1052.8h-14.6V941.52H810.7l8.93-14.42h26.11Z" transform="translate(-69.64 -4.14)"/><path class="cls-3" d="M951.51,926.7q10.47,7.72,18.55,14.36a126.53,126.53,0,0,1,12.19,11.07l-10.65,10.3q-8.07-11.83-25.07-25.93a244.91,244.91,0,0,1-12.8,21.64q-7.65,11.68-16.39,23a28.4,28.4,0,0,0-9.79-9.27,139.85,139.85,0,0,0,22.16-30.48,143.3,143.3,0,0,0,12.85-33,55.16,55.16,0,0,0,8.25,4.11,68.58,68.58,0,0,0,7.38,2.58c2.75.8,2.8,2,.17,3.61a20.88,20.88,0,0,0-3.09,3A43.65,43.65,0,0,0,951.51,926.7Zm7,71.26H936.39q-5,0-10.29.35c-3.55.23-7.1.62-10.65,1.19V985.6c1.72.23,3.55.42,5.49.59s4.18.29,6.7.35,5.43.11,8.75.17,7.22.09,11.69.09,8.15,0,11.41-.09,6.19-.1,8.76-.17,4.87-.17,6.87-.35,3.83-.36,5.58-.59l-29.53,43.95q5.49,5.51,9.7,10.65a83.1,83.1,0,0,1,6.61,9.1l-12,7.74a124.5,124.5,0,0,0-15.31-21.64,102.08,102.08,0,0,0-20.41-17.72l9.45-8.93q3.43,2.93,6.87,6.09t6.86,6.44ZM948,983.36a37.45,37.45,0,0,0-4.9-10.29,100.14,100.14,0,0,0-8-9.79l10.3-7a98.84,98.84,0,0,1,8.85,10,96.51,96.51,0,0,1,7.12,11.07Zm62.33,52.55c1.83.8,2.72,1.6,2.66,2.41s-1.12,1.31-3.17,1.54a12.22,12.22,0,0,0-4.13,1.81,74.2,74.2,0,0,0-7.72,5.58q-6,5-11,8.67T976.59,1063a24.22,24.22,0,0,0-5.59-5,39.68,39.68,0,0,0-7.12-3.61,147.79,147.79,0,0,0,18.87-11.33,109.26,109.26,0,0,0,16.13-14.25,70.73,70.73,0,0,0,11.53,7.1ZM1010,929.28q-11.17,0-19.49.34t-14.86,1v-14q8.07.85,18.64,1.11t25.67.26q15.1,0,25.84-.26t19-1.11v14.08q-7.38-.67-17-1t-22.5-.34c-.92,2.63-1.75,5.29-2.49,8s-1.46,5.43-2.15,8.16q7.39,0,12.62-.09c3.48,0,6.52-.14,9.1-.25s4.79-.26,6.7-.43,3.69-.38,5.41-.61c-.23,1.83-.43,4.47-.6,7.9s-.26,6.81-.26,10.13v48.26c0,3.32.09,6.66.26,10s.37,6,.6,8q-2.58-.35-5.58-.61c-2-.17-4.36-.28-7-.34l-9.52-.17q-5.51-.09-13.39-.09t-13.4.09l-9.57.17c-2.69.06-5,.17-7,.34s-3.78.38-5.49.61c.12-.81.2-1.86.26-3.18s.14-2.8.26-4.47.2-3.37.26-5.15.08-3.52.08-5.23V962.07c0-1.71,0-3.45-.08-5.23s-.15-3.5-.26-5.15-.2-3.15-.26-4.47-.14-2.37-.26-3.18a80.07,80.07,0,0,0,9.27,1q5.16.26,14.61.43a116.09,116.09,0,0,0,2.61-16.15Zm31.25,26.26H996.67v13.4h44.65Zm0,23.54H996.67V993h44.65Zm0,23.34H996.67v14.3h44.65Zm13.9,60.8a109.88,109.88,0,0,0-15-14.09,129.89,129.89,0,0,0-18.11-11.48l8.06-9.79q4.47,2.57,9.45,5.84t9.79,6.61q4.79,3.33,9.1,6.52t7.21,5.75Z" transform="translate(-69.64 -4.14)"/><path class="cls-3" d="M1128.73,1021.66q4.13-1.92,7.8-3.7c2.46-1.19,4.73-2.43,6.79-3.69a23.25,23.25,0,0,0-.69,6.7,21.68,21.68,0,0,0,1.38,6.35q-3.83,1.38-8.68,3.7t-10.3,5.23q-5.4,2.93-10.91,6.53t-10.64,7.38a51.4,51.4,0,0,0-2.32-8.61,45,45,0,0,0-3.51-7.39q4.77-1.71,9.56-3.6l9.62-3.83V971.52a87.09,87.09,0,0,0-16.82,1.55V958.46a59.69,59.69,0,0,0,7.29,1q4,.35,9.57.51c0-5.83,0-11-.09-15.36s-.14-8.33-.25-11.77-.29-6.62-.51-9.56-.46-5.87-.69-8.85a43.36,43.36,0,0,0,6.78,1.29,71.71,71.71,0,0,0,8.16.43c1.37,0,2.11.31,2.23,1s-.41,1.23-1.54,1.8a4.36,4.36,0,0,0-1.81,1.92,6.22,6.22,0,0,0-.42,2.41V959.8a110.54,110.54,0,0,0,15.62-1.38V973a110.54,110.54,0,0,0-15.62-1.38Zm64.73.86a21.1,21.1,0,0,0,.68,13q-5.82,1.53-12.19,3.51t-12.44,4.3q-6.09,2.33-11.76,4.78t-10.3,4.9a60.27,60.27,0,0,0-2.15-7.56,65.75,65.75,0,0,0-3.18-7.37,149.88,149.88,0,0,0,24.39-5.59,240.15,240.15,0,0,0,27-10Zm4.79-76.55q-10.65,0-18.72.08c-5.38.07-10.19.17-14.42.35s-8.08.34-11.49.51-6.69.43-9.95.78V932.88l9.79.68c3.19.23,6.83.41,10.9.52s8.77.2,14.09.26,11.75.09,19.31.09c-.23-3.79-.43-7-.6-9.71s-.32-5-.43-7-.2-3.69-.25-5.24-.15-3.12-.26-4.72A56.76,56.76,0,0,0,1204,909a40.52,40.52,0,0,0,7.47,0c1.91-.23,3-.11,3.09.34s-.52,1.5-1.91,3.09c-.79.92-1.43,3.16-1.92,6.7q-.69,5.85-1,15.31,11.85-.16,20.87-.51t16.39-1V947.7c-4.78-.46-10.19-.81-16.13-1s-12.88-.45-20.79-.69q1.22,23.87,2.75,39.41a164.78,164.78,0,0,0,4.12,25.16q1.72-5.15,3.35-11.77t2.87-13.4q1.3-6.79,2.15-13.14a106.1,106.1,0,0,0,1-10.82,65.44,65.44,0,0,0,8.24,3,55.5,55.5,0,0,0,5.68,1.29q3.76.51-.18,3.09c-.46.23-1,1-1.38,2.4-.77,2.6-1.4,5.24-1.91,7.9a258.94,258.94,0,0,1-6.7,27.31q-3.76,12.19-7.21,18.18a118.82,118.82,0,0,0,7.73,12.36c2.05,2.74,3.71,4.12,5,4.12s2.25-1.32,3-4a67.75,67.75,0,0,0,1.8-11.67,27.82,27.82,0,0,0,6.27,7.72,18.2,18.2,0,0,0,6.78,3.83q-3.95,10.65-6.44,16.27t-5.06,7.12c-1.71,1-3.67.71-5.84-.77a71.27,71.27,0,0,1-8.61-7.39q-5.85-5.49-11.86-16.14a150.87,150.87,0,0,1-10.47,13.31,109.33,109.33,0,0,1-12.53,12.1,66.51,66.51,0,0,0-6.7-5.49,31.46,31.46,0,0,0-6.18-3.26q5.49-3.43,10-6.79a86.94,86.94,0,0,0,8.07-6.78,74.41,74.41,0,0,0,6.52-7q2.94-3.65,5.5-7.56a107.35,107.35,0,0,1-4.38-13.31,158.77,158.77,0,0,1-3.17-16q-1.38-9-2.32-20.95t-1.66-28.44Zm-36.37,74h-13.59q1-6,1.56-10a76.52,76.52,0,0,0,.51-9.57V978c0-1.48,0-3.15-.08-5s-.16-3.64-.26-5.42-.23-3.4-.35-4.89-.23-2.69-.34-3.61c1.14.23,2.29.4,3.43.52s2.46.23,4,.34,3.31.2,5.49.26,4.86.09,8.07.09,6,0,8.23-.09,4.27-.14,5.94-.26,3.06-.23,4.2-.34a27.64,27.64,0,0,0,3.26-.52,31.6,31.6,0,0,0-.6,3.61c-.17,1.49-.32,3.09-.42,4.78s-.21,3.47-.26,5.25-.09,3.52-.09,5.23v22.16c0,2.74.09,5.38.26,7.89s.54,5.74,1.11,9.79h-13v-8.93h-17.17Zm17.17-48.6h-17.17V998h17.17Zm51.35-40q-2.42-3.95-4.9-7.3a57.66,57.66,0,0,0-5.41-6.27l11.68-7.37c1.83,1.91,3.55,3.89,5.15,5.83s3.27,4.07,5,6.36Z" transform="translate(-69.64 -4.14)"/><path class="cls-3" d="M1300.78,1013.07q-1.92,15.12-4.46,28.34l-11.17-.17a117.81,117.81,0,0,0,3.7-14.69,107.92,107.92,0,0,0,1.62-13.65Zm32.29-69.2q4.47,0,8.61-.26t8.61-.6v12.71c-3-.23-5.84-.44-8.61-.61s-5.61-.25-8.61-.25V968.6q4.79,0,9.35-.26t8.67-.6v12.19q-4.11-.33-8.67-.6c-3-.18-6.14-.26-9.35-.26v13.56q7,0,11.84-.25c3.21-.18,6.47-.48,9.79-1a35.32,35.32,0,0,0-.69,5.23c-.11,1.92-.17,4.33-.17,7.3q-.16,17.52-.52,27.76t-.68,12.79a23.66,23.66,0,0,1-1.8,6.44,14.21,14.21,0,0,1-3.83,5,24.26,24.26,0,0,1-6.87,3.82,88.78,88.78,0,0,1-10.82,3.18,14.48,14.48,0,0,0-2-6.78,30.58,30.58,0,0,0-5.41-7.13c4.23,0,7.57-.12,10-.35a17.57,17.57,0,0,0,5.67-1.28,5.4,5.4,0,0,0,2.75-2.66,16.48,16.48,0,0,0,1.12-4.64,102.53,102.53,0,0,0,1-14q.15-8.85-.69-23h-29q-8.25,0-12.62.17c-2.91.11-5.47.29-7.66.52q.51-6,.78-17.61t.24-27.56q0-11.33-.16-21.63t-.69-19.06q5.49.51,12.71.77T1323,919h9.88c2.8,0,5.36-.06,7.65-.17l6.36-.35c1.91-.11,4-.27,6.18-.51v13.22q-4.47-.51-8.93-.77c-3-.18-6.63-.26-11-.26Zm-29.89,94.62q.52-6.18.6-12.44t-.25-12.44l9.27-.52q.51,6.52.77,12.44t.27,12.24ZM1321.73,944V930.13h-16.14V944Zm-16.14,10.65v14.08h16.14v-14Zm16.14,24.21h-16.14v13.73h16.14Zm-5,58.37q.35-6.18.17-12.27a106.68,106.68,0,0,0-1-12.11l8.61-.17q1,6.18,1.72,11.67t1,11.68Zm12.71-1.2q-.18-6-.69-11.93t-1.54-11.94l9.1-.51c.45,2.74.88,5.21,1.28,7.38s.72,4.19,1,6,.4,3.58.52,5.24.23,3.35.34,5.07Zm42.1,28.51h-13.21c.22-2.87.39-6.64.51-11.33s.18-9.21.17-13.57v-96.8q0-6.35-.17-13c-.12-4.41-.29-8-.51-10.91a40.3,40.3,0,0,0,4.63.78q2.4.25,6.7.51c2.87.18,6.55.29,11.07.35s10.45.08,17.78.08,13.47,0,18.11-.08,8.39-.17,11.25-.35,5.09-.34,6.7-.51a45.33,45.33,0,0,0,4.78-.78v14.59c-1.71-.33-3.34-.59-4.89-.76s-3.49-.32-5.84-.43-5.3-.2-8.84-.26-8.13-.09-13.74-.09h-34.52v110.76H1407q9.11,0,15.2-.09c4.06-.06,7.47-.14,10.22-.26s5-.27,6.78-.51,3.35-.45,4.72-.68v14.42a43.06,43.06,0,0,0-6.79-.78q-4.55-.25-10.47-.51T1414,1054c-4.46,0-8.76-.09-12.88-.09h-29.54Zm33.32-32.45a34.69,34.69,0,0,0-5.67-.35h-17c-2,0-3.69.06-5.07.17.11-1.26.17-2.63.17-4.12v-35c0-1.49-.06-2.87-.17-4.12a31.85,31.85,0,0,0,5.07.35h8.5q4.63,0,8.41-.09c2.52-.06,4.41-.14,5.67-.26-.11,1.26-.17,2.66-.17,4.2v35.21c0,1.33.08,2.67.17,4.05Zm24-53.59c-2.63-.12-6-.17-10-.17h-26.69c-3.44,0-6.41,0-8.93.17.1-1.26.19-2.63.25-4.13s.08-3,.08-4.63V947.05a22.34,22.34,0,0,0-.33-4c2.51.23,5.48.38,8.93.43s7.91.08,13.39.09q7.23,0,13.31-.18c4.06-.11,7.41-.23,10-.34-.11,1.26-.2,2.66-.26,4.21s-.08,3.12-.08,4.72v22.75a21.79,21.79,0,0,0,.29,3.87ZM1395.09,998h-7.9v24.38h7.9Zm21.47-44h-21.47v14.43h21.47Zm21.81,78.31c-1.5-.12-3.56-.2-6.19-.26s-5.54-.09-8.75-.09h-8.77q-3.26,0-5.49.18c.12-1.27.17-2.63.17-4.13V992.8a31.51,31.51,0,0,0-.17-4.12,37.31,37.31,0,0,0,5.49.35h8.77c3.19,0,6.1,0,8.75-.09s4.71-.14,6.19-.26c-.12,1.26-.21,2.66-.26,4.2s-.09,3.12-.09,4.73v30.62a24.22,24.22,0,0,0,.31,4.08ZM1428.58,998h-9.1v24.38h9.1Z" transform="translate(-69.64 -4.14)"/><path class="cls-3" d="M1532.25,1038q9.8-.69,17.86-1.55t13.06-1.91a34.64,34.64,0,0,0-.52,10.31q-12,1.19-23.79,2.22t-21.38,2.23l-15.54,2c-4,.51-7.09.94-9.44,1.29a43.72,43.72,0,0,0-5.32,1,25.23,25.23,0,0,0-3.35,1.2,52,52,0,0,0-4.3-15.11q7.23.35,18.13.08t22.74-1.11v-10.3q-6.17,0-11,.08l-8.76.18c-2.64.05-5.13.17-7.47.34s-4.72.37-7.13.59v-12.36c2.52.24,5,.43,7.3.6s4.86.29,7.56.35l8.76.17c3.14.06,6.69.09,10.72.09v-9.1q-7.2,0-12,.08l-8.06.17c-2.19.06-4,.15-5.41.26s-2.73.23-3.83.35c.12-.81.2-1.87.26-3.18s.11-2.78.17-4.38.11-3.27.18-5,.08-3.43.08-5.16v-15.9c0-3.32-.07-6.7-.17-10.13q-.07-3.79-.52-7.56c2.52.23,6.26.43,11.25.6s11,.31,18.11.43V951.8q-6.86,0-12.36.08l-10.13.17c-3.09.07-6,.17-8.61.35s-5.2.37-7.72.6V940.61q3.78.35,7.81.6c2.69.17,5.59.29,8.67.34l10,.18q5.42.07,12.28.08v-10q-9.11.87-17.42,1.29t-13.14.6a20,20,0,0,0-1.28-5.32,43.38,43.38,0,0,0-3.7-6.36,134,134,0,0,0,17.23.69q9.57-.16,21.37-1.38,6.19-.68,10.91-1.28t8.5-1.29c2.52-.46,4.83-1,7-1.54a62.43,62.43,0,0,0,6.44-2.07,65.49,65.49,0,0,0,3.69,5.67c1.1,1.48,2.61,3.37,4.55,5.67,1,1.25,1.2,2.12.86,2.57s-1.21.58-2.58.35a29.72,29.72,0,0,0-5.33-.35c-2.4,0-5.59.18-9.57.52l-7.65.68c-2.46.24-5.13.46-8,.69v10.82q10.65-.16,18-.43t13.82-.77V953q-6.52-.51-13.82-.77t-18-.43v8.07q11,0,18.72-.26t11.68-.77c-.12.8-.2,1.86-.26,3.17s-.11,2.78-.17,4.39-.12,3.26-.17,5-.09,3.44-.09,5.16v16c0,1.72,0,3.44.09,5.16s.11,3.38.17,5,.11,3.06.17,4.38.14,2.37.26,3.18q-4-.35-11.68-.61t-18.72-.26v9.1c3.66,0,6.89,0,9.7-.17s5.42-.2,7.82-.26,4.69-.14,6.87-.25,4.4-.28,6.7-.52v12.36q-3.43-.17-6.7-.42c-2.18-.17-4.47-.29-6.87-.34s-5-.15-7.82-.26-6-.17-9.7-.17Zm-11.85-68.14h-17V980.5h17Zm0,19.57h-17V1000h17Zm11.85-8.93h17.69V969.83h-17.69Zm0,19.41h17.69V989.35h-17.69Zm64.92-51.51h12.27c3.14,0,5.75-.06,7.9-.17s3.89-.23,5.32-.35,2.87-.29,4.38-.52l-3.83,91.36a49.1,49.1,0,0,1-1,9.36,11.6,11.6,0,0,1-3.68,6.18,21.21,21.21,0,0,1-8.08,4,111.68,111.68,0,0,1-14.16,2.87,26.9,26.9,0,0,0-1.92-8.24,36.05,36.05,0,0,0-4.46-7.73,86.61,86.61,0,0,0,11.16.26,14.09,14.09,0,0,0,6.27-1.54,6.1,6.1,0,0,0,2.87-3.7,27.4,27.4,0,0,0,.86-6.18l2.58-74.52h-17q-.86,17.68-1.72,29.54a139.56,139.56,0,0,1-1.71,15.79q-2.25,12-4.22,20.44a75.19,75.19,0,0,1-5.23,15.31,58.47,58.47,0,0,1-8.61,13,126.22,126.22,0,0,1-14.09,13.56,31,31,0,0,0-5.92-5.74,41.44,41.44,0,0,0-8-4.38,61.94,61.94,0,0,0,14.25-8.76,44.79,44.79,0,0,0,9.36-10.81,56.92,56.92,0,0,0,5.92-13.49,162.55,162.55,0,0,0,4-16.73c.46-2.41.88-5,1.28-7.74s.75-6,1-9.7.54-8,.77-13,.46-10.7.69-17.34c-3.66.11-6.67.25-9,.43s-4.78.43-7.3.77v-13.4a68.53,68.53,0,0,0,7,.69c2.35.12,5.54.23,9.57.35q.15-10.83.09-17.78c0-4.64-.1-8.36-.17-11.16s-.18-4.92-.35-6.35-.37-2.66-.6-3.7a78.15,78.15,0,0,0,7.89,1.3c2.64.28,5.44.48,8.42.6,1.37,0,2.18.28,2.41.85s-.23,1.32-1.38,2.24-1.66,2.63-2.23,5.49a76.38,76.38,0,0,0-1,12.54c-.21,5.48-.38,10.79-.48,16Z" transform="translate(-69.64 -4.14)"/><path class="cls-3" d="M1732.3,948q-6.18-.51-14.5-.68t-19.84-.18q-11.68,0-19.91.09t-14.78.77V935.11q6.7.52,14.86.78t19.83.26q11.47,0,19.75-.26t14.59-.78Zm9.57,43.62c-4,.23-7.19.41-9.57.52V978.9q8.25.35,17.86.61t19.06.25q9.27,0,17.77-.25t16.75-.61a267.56,267.56,0,0,1-11,31.86,106.19,106.19,0,0,1-13.22,23,79.3,79.3,0,0,0,19.65,10.31,83.38,83.38,0,0,0,21.9,4.63,34.25,34.25,0,0,0-6.27,7,35.62,35.62,0,0,0-3.69,8,159.68,159.68,0,0,1-21.8-9.19,104.56,104.56,0,0,1-17.7-11.41,97.23,97.23,0,0,1-15.19,11.76,175.3,175.3,0,0,1-19,10.22,13.49,13.49,0,0,0-3.6-5.67,27.75,27.75,0,0,0-7.9-5.15h-13.57v-10.65h-27.82V1058h-14.42q.87-6,1.12-10.82c.17-3.21.25-6.76.26-10.65v-24.21q0-4.45-.09-7.38c0-2-.14-3.84-.26-5.67l3.83.35c1.32.11,3,.2,4.9.25s4.4.09,7.39.09H1710q4.45,0,7.38-.09c1.92,0,3.55-.14,4.79-.25l3.61-.35a42.14,42.14,0,0,0-.47,5.14c-.06,1.91-.09,4.55-.09,7.89v20.44c0,3.21.12,6.46.35,9.78s.63,6.82,1.2,10.53a133.26,133.26,0,0,0,20.1-8.07,75.36,75.36,0,0,0,15.45-10.3,68.26,68.26,0,0,1-11.48-18.12,166.5,166.5,0,0,1-8.93-24.82Zm-17.51-1.21c-3.33-.34-7.07-.57-11.25-.68s-9.3-.18-15.37-.18-11.13.07-15.2.18-7.76.34-11.07.68V977.49q5,.51,11.07.77t15.2.26q9.1,0,15.37-.26c4.18-.17,7.92-.43,11.25-.77Zm.51-21.63a93.35,93.35,0,0,0-11.33-.78q-6.37-.07-15.46-.08t-15.31.08a90.59,90.59,0,0,0-11.16.78V956.23a101.66,101.66,0,0,0,11.16.86q6.2.18,15.31.18t15.46-.18a102.29,102.29,0,0,0,11.33-.86Zm-30.39-35a56.52,56.52,0,0,0-3.83-10.64,49.24,49.24,0,0,0-6.27-10.14l14.09-6.35q2.87,5.51,5.32,10t5.83,11.58Zm17.85,99.59V1011h-27.82v22.32ZM1815.88,955a22.38,22.38,0,0,0-2.23,7,38.81,38.81,0,0,0,0,7.31q-11.85.16-18.54-.18a43.88,43.88,0,0,1-10-1.37c-2.23-.68-3.6-1.64-4.13-2.88a12.58,12.58,0,0,1-.76-4.63V929.64h-22.5a98,98,0,0,1-1.29,14.51,62.53,62.53,0,0,1-3.26,11.93,54.84,54.84,0,0,1-5.41,10.39,75.82,75.82,0,0,1-7.55,9.57,23,23,0,0,0-5-5.33,34.53,34.53,0,0,0-6.52-3.6,62,62,0,0,0,9.18-9,28.63,28.63,0,0,0,5.16-9.87,45.27,45.27,0,0,0,1.63-12.79,168.75,168.75,0,0,0-1.21-18.11q8.41.51,26.11.5c6.06,0,11.21,0,15.45-.08s7.78-.19,10.65-.42a35.92,35.92,0,0,0-1.38,5,50.87,50.87,0,0,0-.77,6.27q-.26,3.69-.35,8.93t-.08,12.79a7.58,7.58,0,0,0,.69,3.44,4.54,4.54,0,0,0,3.09,2,23.18,23.18,0,0,0,7,.52q4.61-.22,12.16-1.26Zm-62.2,36.24a91.89,91.89,0,0,0,7.13,20.09,61.25,61.25,0,0,0,9.7,14.6,67.76,67.76,0,0,0,9.19-15.36,142.87,142.87,0,0,0,6.61-19.32Z" transform="translate(-69.64 -4.14)"/><path class="cls-3" d="M1928.75,948.85q-6.87-.51-16.06-.68t-22.07-.18q-12.87,0-22.15.18t-16.14.68V935.63q6.87.52,16.14.77t22.15.25q12.87,0,22.07-.25t16.06-.77Zm-8.76,22q-5.51-.51-12.53-.68c-4.69-.13-10.48-.18-17.35-.18s-12.68.06-17.43.18-9,.34-12.62.68V958.12q5.51.51,12.62.77t17.43.26q10.31,0,17.35-.26t12.53-.77Zm.17,22.66q-5.51-.51-12.53-.68t-17.35-.18q-10.3,0-17.43.18t-12.62.68V980.79q5.49.51,12.62.77t17.43.26q10.31,0,17.35-.26t12.53-.77ZM1876,1043.15v14.25h-13.74q.51-3.78.69-7c.12-2.15.18-4.52.17-7.13V1017c0-3,0-5.45-.08-7.39s-.15-3.83-.26-5.67l4,.35c1.37.11,3.11.2,5.23.26s4.73.07,7.81.07h23.45c3.14,0,5.74,0,7.81-.07s3.77-.15,5.15-.26l4-.35a42.41,42.41,0,0,0-.43,5.15c0,1.95-.07,4.59-.08,7.91v24c0,2.64.08,5,.26,7.21s.42,4.47.76,6.87H1906.6v-12Zm9.79-109a51.62,51.62,0,0,0-4.3-10.9,55.1,55.1,0,0,0-6.35-9.7l13.57-6.36q2.86,4.65,6,10.31t5.32,10.64Zm20.78,99.25v-18.75H1876v18.72Zm66.62,3.26q0,5.85.17,13.14t1,14.51H1957.7q1-7.2,1.47-14.51t.43-13.14V975.81q-10.83,0-20.53.26t-15.54.6V962.42c4,.22,9.22.43,15.63.6s13.21.31,20.44.43V932.71q0-8.93-.43-15.71a52,52,0,0,0-1.47-10.39q4.79.85,8.51,1.29a54.12,54.12,0,0,0,8.15.26c2.06-.12,3.29.17,3.7.85s-.43,1.66-2.49,2.87a4.81,4.81,0,0,0-1.92,2,9,9,0,0,0-.51,3.52v46l21-.27q9.79-.17,15.8-.69V976.7q-6-.51-15.8-.69t-21-.17Z" transform="translate(-69.64 -4.14)"/><path class="cls-3" d="M2133.78,931q18.38,0,30.73-.26t21.81-1.11v15.31q-9.62-.69-21.81-1t-29.88-.35v26.63q13.39-.18,23.92-.43t19.74-1V983q-9.78-.51-20.51-.85t-23.1-.52v30q15.12,0,25.5-.09t17.35-.26c4.63-.11,8.4-.28,11.33-.51s5.53-.46,7.81-.69v15.46c-2.06-.23-4.37-.43-7-.6s-6.13-.32-10.65-.43-10.34-.23-17.43-.35-16.08-.17-27-.17q0,11.85.26,21.89t1.12,20.53h-17.34q.84-10.65,1.11-20.61T2120,1024q-19,0-32,.08t-21.55.35q-8.62.26-13.91.52t-9.1.6v-15.46q5.83.69,13.22,1t16.14.43v-27a95,95,0,0,0-1.2-15.8q10.47.86,22.07,1.12t26.35.26V943.53h-36.57q-5.33,9.09-10.48,16.4t-9.44,12.44a29.1,29.1,0,0,0-6.44-3.44q-3.87-1.54-8.5-2.92a100.92,100.92,0,0,0,10.82-12,176.44,176.44,0,0,0,10.13-14.59,162.78,162.78,0,0,0,8.68-15.88,141.92,141.92,0,0,0,6.43-15.89c3.31,1.28,6.21,2.31,8.68,3.09s4.6,1.43,6.44,1.92c2.28.57,3.57,1.09,3.82,1.55s-.43,1.14-2.14,2a6.43,6.43,0,0,0-1.54,1.21,30,30,0,0,0-2.15,2.49c-.86,1.09-1.89,2.51-3.09,4.28s-2.61,4-4.2,6.79Zm-47.05,50.66v30.05H2120V981.65Z" transform="translate(-69.64 -4.14)"/><path class="cls-3" d="M2249.51,961.9c-1.83,1-3.67,1.78-5.5,2.57s-3.72,1.67-5.66,2.59a36.48,36.48,0,0,0-3.44-6.62,48.33,48.33,0,0,0-4.63-5.57q6.53-2.07,13.4-4.79a139,139,0,0,0,13.22-6q6.34-3.26,12-6.7a93,93,0,0,0,9.79-6.7q5.34-4.12,9.28-7.65t6.87-6.61a61.49,61.49,0,0,0,5-5.93,46.11,46.11,0,0,0,3.61-5.74c1,.46,2.23,1,3.61,1.54s2.8,1.15,4.28,1.72,3,1.09,4.47,1.55a34.09,34.09,0,0,0,4,1c1.6.34,2.49,1,2.66,2.06s-.66,1.78-2.48,2.23c-.46.11-1,.28-1.73.51a60.51,60.51,0,0,0,10.53,9.1,127.19,127.19,0,0,0,15.89,9.45,135.5,135.5,0,0,0,21,8.68,111.86,111.86,0,0,0,21.89,4.37,32.94,32.94,0,0,0-5.4,6.87,47,47,0,0,0-3.83,9.62c-1.61-.58-3.12-1.15-4.56-1.72s-2.77-1.14-4-1.72c-.24,3-.4,6.33-.51,10s-.18,7.19-.18,10.38q0,5.84.18,10.83c.11,3.32.27,6.81.51,10.46l-12.86-.34q-6.43-.18-13.65-.26t-15.46-.09h-18.18q-19.07,0-33.57.26t-27.21.6q.33-4.64.51-10.39t.17-10.73Zm25.07-13.73q-4.64,2.87-9.7,5.66c-3.39,1.86-6.89,3.75-10.53,5.67q11.85.35,25.67.51t29.62.18q16.83,0,31.58-.18t27.13-.51q-6.87-3.09-12.37-5.75T2344.65,948v5.15c-2.41-.23-4.78-.4-7.13-.52l-7.72-.34c-2.79-.11-5.87-.17-9.19-.17H2298c-3.26,0-6.27.07-9,.17s-5.27.23-7.56.34-4.58.29-6.87.52Zm-4.12,115.55h-13.74a67.8,67.8,0,0,0,1.21-13.56v-27.81q0-10.49-1-12.88c1.14.11,3.53.2,7.13.26l12.88.17,16,.17q8.61.09,16.66.09,8.24,0,16.91-.09l16.06-.17,12.7-.17q5.34-.09,7-.26-1.21,2.74-1.21,12.88v27.47c0,1.91.09,4.21.26,6.78a44.54,44.54,0,0,0,1,7H2347.9v-8.41h-77.45ZM2302,970.15h-40.19v21.46H2302Zm45.9,57.85v-8.24h-77.45V1028Zm-77.45,8.93v8.41h77.45v-8.41Zm10.47-46.19a60,60,0,0,0-6.87-14.25l12-5.33q2.4,3.62,4.46,7.22a64.76,64.76,0,0,1,3.44,6.87Zm28-70.06a134.12,134.12,0,0,1-11.24,11,140.55,140.55,0,0,1-14,10.52h50.49a95,95,0,0,1-13-9.18,125.27,125.27,0,0,1-12.27-12.33Zm47.57,70.92V970.15h-42.25v21.46h8.25a103.31,103.31,0,0,0,4.72-9.7,109.54,109.54,0,0,0,3.83-10.39,68.78,68.78,0,0,0,6.7,3.09q3.08,1.2,6,2.06,3.42,1.2-.18,2.75a16.8,16.8,0,0,0-3.82,3.26,76.21,76.21,0,0,0-6.53,8.93Z" transform="translate(-69.64 -4.14)"/><path class="cls-4" d="M1354.58,1511.27c-.77.51-2.2.07-4.31-1.33a30.29,30.29,0,0,1-5.85-5.17,7.44,7.44,0,0,1-1.72-3.27,23.22,23.22,0,0,1,.19-6.5,13.37,13.37,0,0,0,.86-4c.07-1.27.1-2.16.1-2.68a46.34,46.34,0,0,1,.67-5.37q.68-4.2,1.44-8.9c.51-3.13,1-5.53,1.35-7.18a7.77,7.77,0,0,1,.28-1.25c.19-.7.35-1.24.48-1.63.25-1.15.57-2.59,1-4.31s.76-4,1.15-6.8c1-3.18,1.88-6.35,2.58-9.48a36.65,36.65,0,0,0,1-6.42,5.29,5.29,0,0,1,2.69-5,14,14,0,0,1,1.15-3c.63-1.34,1.21-2.46,1.72-3.35q3.83-10.92,6.32-17.34a88.8,88.8,0,0,1,5.17-11.21c.77-2.29,1.64-4.58,2.59-6.89a22.39,22.39,0,0,1,3-5.36,40.46,40.46,0,0,1,4.69-6.42,96.87,96.87,0,0,1,7.19-7.56c2.55-2.43,4.59-4.29,6.12-5.56a65.31,65.31,0,0,1,7.48-3.26,22,22,0,0,1,7.28-1.15,11.77,11.77,0,0,1,5.93,1.34,43,43,0,0,1,6.7,5.55c1.53,1.67,2.33,3.13,2.39,4.42a11,11,0,0,1-.48,3.82,75.25,75.25,0,0,1-3.44,7.19,81.3,81.3,0,0,1-4.6,7.66c-1.53,2.23-2.68,3.42-3.45,3.55a5.22,5.22,0,0,1-4.3.38c-1.35-.51-2-1.72-2-3.65,0-.89-.07-2.1-.19-3.63a22.79,22.79,0,0,1,1-3.64,21.35,21.35,0,0,1,1.44-3.06,5,5,0,0,0,.67-4.22c-.45-1.28-1.82-1.72-4.12-1.34-.38.26-1.22.9-2.49,1.91a47.68,47.68,0,0,0-4,3.65c-1.41,1.39-2.66,2.68-3.74,3.83s-1.63,1.91-1.63,2.29a32.34,32.34,0,0,1-4,6.33,40.36,40.36,0,0,0-2.3,3.63,6.29,6.29,0,0,0-1,2.49,5,5,0,0,1-.19,1.44.9.9,0,0,1-1,.68,41.69,41.69,0,0,1-2.87,6.31,39.48,39.48,0,0,1-1.72,3.74,11.22,11.22,0,0,1-1.72,2.59v.19c-1.15,2.93-2,5.22-2.69,6.89a16,16,0,0,0-1,2.87c0,.51.83.76,2.5.76a29.46,29.46,0,0,0,5.84-.67c2.23-.44,4.37-1,6.42-1.43a16.09,16.09,0,0,1,3.82-.77,13.74,13.74,0,0,1,3.64.77,7.2,7.2,0,0,1,2.59,3.16,20.38,20.38,0,0,1,1.53,4.3,4.36,4.36,0,0,1-.09,3.08c-.13.5-1.53,1.21-4.22,2.1a63.21,63.21,0,0,1-8,2.11c-2.31.51-5,1.09-8,1.72s-5.74,1.21-8,1.72-3.41,1-3.54,1.54a1.42,1.42,0,0,0-1.24,1,3.48,3.48,0,0,0-.48,1.53,7,7,0,0,1-1,4c-.25.76-.67,2.33-1.24,4.7s-1.18,4.92-1.82,7.65-1.18,5.3-1.63,7.66a32.44,32.44,0,0,0-.67,4.7,5.77,5.77,0,0,0-1.34,3.34c-.13,1.34-.19,2.53-.19,3.55a9.54,9.54,0,0,0-1,2.78,13.41,13.41,0,0,0-.19,2v.77a3.41,3.41,0,0,1-.19,1.14c-.13,1.28-.29,3-.48,5.08s-.28,4.18-.28,6.22l-.58,5.56a34.58,34.58,0,0,1-.57,4.31A4.77,4.77,0,0,1,1354.58,1511.27Z" transform="translate(-69.64 -4.14)"/><path class="cls-4" d="M1417.19,1487.14a6.85,6.85,0,0,1-3.92-1,39.48,39.48,0,0,1-3.54-2.67,29.59,29.59,0,0,1-5.56-8,12.32,12.32,0,0,1-1.34-7.37,11.14,11.14,0,0,0,.38-4.41c-.64-.64-.83-1-.58-1.24a3.21,3.21,0,0,0,.77-1.06c.77,0,1-.7.77-2.11q-.39-1.53,1.34-6.6a45.69,45.69,0,0,1,4.6-9.68q1.14-1.9,3.44-5.08c1.53-2.11,3.23-4.22,5.08-6.32a45.89,45.89,0,0,1,5.08-5.07,65.16,65.16,0,0,1,8.71-6.33,28.49,28.49,0,0,1,8.15-3.25,35,35,0,0,1,7.75-1,8.61,8.61,0,0,1,6.42,3.06,13.47,13.47,0,0,1,6.32,5,19.61,19.61,0,0,1,2.49,8.24,47.33,47.33,0,0,1-1,13.79q-1.63,8-9.29,19a53.08,53.08,0,0,1-9.2,10.53,76.17,76.17,0,0,1-10,6.89,21.58,21.58,0,0,1-8.24,3.45A72.88,72.88,0,0,1,1417.19,1487.14Zm19.14-22.22a29.49,29.49,0,0,0,6.51-8.72q2.12-4.5,4.41-10.82a11.39,11.39,0,0,0,1-4.22,25.74,25.74,0,0,0,0-5.55q-.29-2.68-1.44-3.06a4.51,4.51,0,0,0-4.11-.68,18.26,18.26,0,0,0-5.27,3,62.18,62.18,0,0,0-10.53,11.39,50.93,50.93,0,0,0-7.46,15.8c-.9,3.71-.81,6.56.28,8.53s3.06,2.59,5.94,1.82,6.45-3.26,10.67-7.47Z" transform="translate(-69.64 -4.14)"/><path class="cls-4" d="M1491.73,1485.61q-4,.77-5.64-.19a23.13,23.13,0,0,1-3.73-2.87,18.86,18.86,0,0,1-5.47-4.12,17.53,17.53,0,0,1-3.54-5.45,10.15,10.15,0,0,1-1-4.6,64.81,64.81,0,0,1,3.16-14.56,88.11,88.11,0,0,1,6.61-15.14,70.93,70.93,0,0,1,9.09-12.92,30.64,30.64,0,0,1,10.44-8,16.94,16.94,0,0,1,8-1.15,6.37,6.37,0,0,1,5.65,3.64q2.88,5.57-1.34,7.09a2.72,2.72,0,0,0-1.34.48,1.44,1.44,0,0,0-.77,1.24c.51.26,1.91.29,4.22.1a46,46,0,0,0,7-1.15,12.81,12.81,0,0,0,4.69-1.82,4.54,4.54,0,0,1,1.72-.57,25.34,25.34,0,0,1,2.87.38c2.17.64,3.26,1.41,3.26,2.3a5.71,5.71,0,0,0,.57,2.1c.39.9.84,1.35,1.34,1.35.89.13,1,1,.39,2.4s-2.24,3.09-4.79,4.88q-3.64,2.29-4.51,3c-.57.44-.67,1.37-.28,2.78q1.53,3.63-.1,8.61a38.93,38.93,0,0,1-5.45,10.34,62.09,62.09,0,0,1-9.1,10.06,64.07,64.07,0,0,1-11,7.94A28.92,28.92,0,0,1,1491.73,1485.61Zm-.57-13.61a8,8,0,0,0,2.69-.86c1.27-.57,2.29-1.05,3.06-1.43.51-.51,1.18-1.12,2-1.82a6,6,0,0,1,2-1.25,1.43,1.43,0,0,0,1.24-.67c.33-.44,1-1.4,1.92-2.87s2.57-3.67,4.88-6.61a38.57,38.57,0,0,0,5.37-7.09,7.49,7.49,0,0,0,.57-5.93,1.25,1.25,0,0,0-1.05-1,8.63,8.63,0,0,1-2.21-1,17.73,17.73,0,0,0-3,.2c-.7.13-1.75-.39-3.16-1.54l-3.06-3.82-3.26,3.25a33.57,33.57,0,0,0-5.74,8.14,59.7,59.7,0,0,0-4.32,10.35,47.65,47.65,0,0,0-2,8.91c-.12,1.91.19,3.19,1,3.82A5.33,5.33,0,0,0,1491.16,1472Z" transform="translate(-69.64 -4.14)"/><path class="cls-4" d="M1566.26,1489.63a16.58,16.58,0,0,1-5-2.39c-1.53-1.09-3.25-2.46-5.17-4.13a26.32,26.32,0,0,1-3.35-5.64,18.72,18.72,0,0,1-1.25-6.14q-.18-3.52-.19-9.1a36.71,36.71,0,0,1,.86-6.6c.58-2.87,1.21-5.9,1.92-9.1s1.4-6,2.11-8.53,1.11-4.11,1.24-4.88c.39-1.66-.25-2.62-1.91-2.87a31.19,31.19,0,0,0-5.46-.28,8.35,8.35,0,0,1-3.93-.48c-.51-.13-.76-1.08-.76-2.87a1.08,1.08,0,0,0-.58-1.06,3.12,3.12,0,0,1-1.15-1.24c-.25-.51,0-1.41.77-2.69a4.63,4.63,0,0,1,3.25-2.3,45.86,45.86,0,0,1,5.08-.67,30,30,0,0,0,6.69-1.34,11,11,0,0,0,5.28-3.34q1.72-4.23,3.92-9.2t4.21-8.81a37.6,37.6,0,0,1,2.79-4.79,10.5,10.5,0,0,1,6-1.43c1.85.19,3.41,1.31,4.7,3.35.63.89,1.15,1.56,1.53,2a2.31,2.31,0,0,1,.39,1.92,19.51,19.51,0,0,1-1.63,4.31q-1.44,3.06-4.7,9.19c-.64,1.28-1.46,2.87-2.49,4.78a10.47,10.47,0,0,0,2.3.2c1,0,2.3-.07,3.83-.2s3-.47,4.78-.66a15.16,15.16,0,0,1,4.61.09q4.38,0,6.5,2.2a9.09,9.09,0,0,1,2.3,6,3,3,0,0,1-1.24,3.25c-1.09.77-3.35,1.15-6.8,1.15-1.16,0-2.87.07-5.08.19l-7,.39c-2.42.13-4.49.28-6.22.47s-2.58.43-2.58.67a10.06,10.06,0,0,0-1.83,3.17,68.11,68.11,0,0,0-2.48,6.6c-.84,2.56-1.56,4.92-2.21,7.1a116,116,0,0,0-1.91,12.73,56.69,56.69,0,0,0-.1,10.82c.32,3.07,1.06,5.25,2.21,6.52s3.06,1.22,5.74.19a25.16,25.16,0,0,0,7.08-4c2.3-1.91,4.25-2.65,5.85-2.2a4,4,0,0,1,2.87,3.46c.31,1.84-.36,4-2,6.41a19.61,19.61,0,0,1-6.23,6.13,27.64,27.64,0,0,1-8.15,3.54A14.22,14.22,0,0,1,1566.26,1489.63Z" transform="translate(-69.64 -4.14)"/><path class="cls-4" d="M1596.91,1534.26a18,18,0,0,1-3.74-2.49,26.19,26.19,0,0,1-4.21-4.21c-1.22-1.53-1.82-2.68-1.82-3.45a45.12,45.12,0,0,1,.95-6q1-4.87,2.59-11.88t3.63-14.18q2-7.17,4.13-12.73c.25-.65,1.11-2.78,2.58-6.43a117.32,117.32,0,0,0,4.31-13.31q1.55-5,4-11.3t5.16-12.73q2.68-6.42,4.42-11.4c1.15-3.33,2.33-6.45,3.54-9.39s1.88-4.67,2-5.18a3.88,3.88,0,0,1,1.91-2,30.81,30.81,0,0,1,3.17-1.53c1.08-.45,1.82-.73,2.2-.86q3.45-1,5.94,2.87a6.22,6.22,0,0,1,.38,4.41,31.73,31.73,0,0,1-2.11,6.13l-1.34,3.83,6.9-1.54c1.15,0,2.71.06,4.69.19s3.89.23,5.74.28a15.71,15.71,0,0,1,3.92.49c3.07.13,5.21.71,6.42,1.72a13.65,13.65,0,0,1,3.16,4c.64.64,1.4,1.5,2.3,2.59a6.39,6.39,0,0,1,1.54,3.16,15.86,15.86,0,0,1-.29,7.47,41,41,0,0,1-3.17,8.43,36.82,36.82,0,0,1-5.07,7.65,29.15,29.15,0,0,1-5.84,5.36,46.63,46.63,0,0,0-5,2.5c-.13.67-1.51,1.72-4.12,3.16A68,68,0,0,1,1637,1472a40,40,0,0,1-8.71,2.5c-.9.13-2.17.26-3.82.38a6.74,6.74,0,0,1-3.83-.57,18.49,18.49,0,0,0-2.87-.38.67.67,0,0,0-.77.55.74.74,0,0,0,0,.21c-.13.26-1,2.52-2.69,6.8a160.4,160.4,0,0,0-5.16,16.57l-6,18.11q-2.3,7-3.54,10.72c-.83,2.5-1.43,4.28-1.82,5.36A6.13,6.13,0,0,1,1596.91,1534.26Zm24.32-74.52c.39.77,1.7,1,3.93.67a36.93,36.93,0,0,0,7.85-2.2,47.15,47.15,0,0,0,8.34-4.11,13.47,13.47,0,0,0,5.16-5.08q4.23-4.79,6.23-7.57c1.34-1.86,1.38-3.23.1-4.12q-2.11-3-6.61-2.87t-12.93,4.79a15,15,0,0,0-4.59,2.29,8.46,8.46,0,0,0-2.21,3.17q-.87,2-2.59,5.84a58.81,58.81,0,0,0-2.29,6.32,6.83,6.83,0,0,0-.39,2.9Z" transform="translate(-69.64 -4.14)"/><path class="cls-4" d="M1681.19,1483.3a21.58,21.58,0,0,1-3.26-3.15c-1-1.21-1.36-3.1-1-5.65a80,80,0,0,1,1.53-9.48l2.31-9.49a75.84,75.84,0,0,1,2-7.85c1.08-3.7,2.46-7.72,4.11-12.07s3.33-8.46,5-12.35a55.66,55.66,0,0,1,4.4-8.72,7.6,7.6,0,0,1,5.47-1.63q3.52.09,5.07,1.63,2.1,1.73,1,6t-5.45,13.32c-1,2.17-2,4.11-2.87,5.84a18.38,18.38,0,0,0-1.63,3.82c-.19.84.09,1.13.86.86a20.3,20.3,0,0,1,4.22-4.88q3-2.77,6.51-5.46c2.3-1.79,4.47-3.39,6.51-4.78a42.16,42.16,0,0,1,4.21-2.68,16.76,16.76,0,0,1,3.55-1.63,22.43,22.43,0,0,0,2.78-1,17.61,17.61,0,0,1,9.48-1.63c3.38.32,5.45,1.44,6.23,3.35a4.88,4.88,0,0,0,2.3,3.06c.51,0,.82.38,1,1.15s-.81,1.91-2.4,3.17a9.92,9.92,0,0,1-5.46,2,14.81,14.81,0,0,0-4.4,1c-1.28.51-2.81,1.15-4.61,1.92q-7.26,4.21-13.39,7.65a50.55,50.55,0,0,0-12.26,10.16l-2.78,3.15a30.42,30.42,0,0,0-3,4.13,10.76,10.76,0,0,0-1.92,4.21c-.63,2.17-1.18,4.24-1.62,6.23a25.1,25.1,0,0,0-.67,3.54,17.47,17.47,0,0,1-2.49,5.36c-1.54,2-3,3.24-4.32,3.55S1683.22,1485.38,1681.19,1483.3Z" transform="translate(-69.64 -4.14)"/><path class="cls-4" d="M1751.68,1481.78c-.51,0-2.11-.63-4.78-1.91a5.48,5.48,0,0,0-.48-1.91,4.9,4.9,0,0,1-.48-1.92,6.94,6.94,0,0,1-2.31-2.2,3.84,3.84,0,0,1-.19-3.55c.77-1.4,1.82-3.54,3.17-6.41s2.77-6.07,4.3-9.57,3-7,4.32-10.44,2.49-6.39,3.45-8.81,1.5-3.9,1.62-4.41a12.24,12.24,0,0,1,.38-2.4,4.7,4.7,0,0,1,2.11-2.77,3.62,3.62,0,0,1,4.51-.29,11.65,11.65,0,0,1,4.11,4.69,15.76,15.76,0,0,1,1.72,7.47c0,.9-.64,3.16-1.91,6.81s-3,7.94-5.07,12.92-4.44,10-7,15.13q-2.87,5.58-4.11,7.57A3.83,3.83,0,0,1,1751.68,1481.78Zm26.79-73.17a9.82,9.82,0,0,1-5.27-2,22.22,22.22,0,0,1-5.26-5.07,10.72,10.72,0,0,1-2.3-6.52,7.45,7.45,0,0,1,1.53-3.25l3-4.51a10,10,0,0,0,1.43-2.58,14.31,14.31,0,0,1,3.26.38,11.15,11.15,0,0,1,3.07,1.15,25.15,25.15,0,0,0,5.45,8c2.24,2.17,3.36,4.41,3.36,6.7q0,4.23-1.63,5.94c-1.09,1.15-3.29,1.72-6.58,1.72Z" transform="translate(-69.64 -4.14)"/><path class="cls-4" d="M1844,1487.72a8.2,8.2,0,0,1-5-1.92,14.47,14.47,0,0,1-4.13-5.18,16,16,0,0,1-1.62-7.27,53.4,53.4,0,0,1,1.15-9q1.14-6.13,3.26-14.18a30,30,0,0,0,.76-4.21c0-.51-.51-.65-1.54-.39a13.57,13.57,0,0,0-1.53.48,6.07,6.07,0,0,0-1.53.86,12.5,12.5,0,0,0-3.73,2.3l-5.27,4.22a26.52,26.52,0,0,0-2.87,2.3l-3.45,3.06c-1.15,1-2.11,1.91-2.87,2.68s-2.3,1.76-4.21,3.36-3.89,3.18-5.94,4.78a63.19,63.19,0,0,1-5.55,3.93,7.8,7.8,0,0,1-3.06.48c-.9-.06-1.42-.35-1.54-.86a15.91,15.91,0,0,0-1.44-3,20.44,20.44,0,0,1-2-5.83,16.73,16.73,0,0,1,.38-7.86,42.63,42.63,0,0,1,1.34-5.46q1.16-3.91,3-9.2t4.12-10.63a20.14,20.14,0,0,0,1-3.73c.26-1.47.55-2.94.86-4.4a7.7,7.7,0,0,1,1.44-3.36,2.09,2.09,0,0,1,1.82-1.25,3.86,3.86,0,0,1,2.4.67,7.84,7.84,0,0,1,3.35,2.87,10.44,10.44,0,0,1,1.43,5.17,9.69,9.69,0,0,1,1.72,5.66,22,22,0,0,1-.76,5.93,41.32,41.32,0,0,1-1.53,4.6c-.51,1.22-.77,1.7-.77,1.44a8.38,8.38,0,0,0,2.59-1.82,33.39,33.39,0,0,1,5.46-3.74q4.2-3.26,6.79-4.88l4-2.5a21.43,21.43,0,0,0,2.39-1.63l1.54-.76a4,4,0,0,0,1-.58,2.53,2.53,0,0,1,.58-.38,5.71,5.71,0,0,0,1.62-.48c.84-.31,1.64-.6,2.41-.86a7.19,7.19,0,0,1,3.92.38,12.56,12.56,0,0,1,3.92,2.21,4,4,0,0,1,1.73,3.16,1.48,1.48,0,0,0,.48,1.06,3.5,3.5,0,0,1,.67.86c.77.5,1.47,1.72,2.11,3.63a18.26,18.26,0,0,1,.57,7.28,38.55,38.55,0,0,1-1.24,8.34q-1.25,5.27-2.59,10.44a39.59,39.59,0,0,0-1.62,9.1,22,22,0,0,0,.38,5.55c.32,1.34.6,2.46.86,3.35a5,5,0,0,1-1,3.36A4.68,4.68,0,0,1,1844,1487.72Z" transform="translate(-69.64 -4.14)"/><path class="cls-4" d="M1888.45,1500q-8.43-.57-10.82-5.16c-1.6-3.07-2-7.15-1.24-12.27a33.22,33.22,0,0,0,1.43-6.6c.19-2,.74-3.23,1.63-3.75.38-.76.38-1.33,0-1.72a20.32,20.32,0,0,1,1.73-6.89c.25-.77.83-2.24,1.72-4.41q-1-1.53,0-2.49a24.55,24.55,0,0,1,2-1.81,1.24,1.24,0,0,0,.34-1.73h0a1.22,1.22,0,0,0-.24-.27c-.26-.52,0-1.7,1-3.55s1.92-3.83,3.07-5.84a30.5,30.5,0,0,0,2.29-4.79,14.42,14.42,0,0,1,1-2.68c.64-1.53,1.4-3.32,2.3-5.36s1.75-3.9,2.58-5.55l1.63-3.26q1.91-1-1.53-1.35a48,48,0,0,0-7.29-.19c-4-.12-7.12-.31-9.48-.57a14.27,14.27,0,0,1-5.84-1.73,4.77,4.77,0,0,1-1-5.55c.89-1.91,2.61-2.94,5.16-3.07,1.67-.12,3-.19,3.94-.19a32.57,32.57,0,0,0,3.82-.29l7.57-.86,9.77-.76.58-3.26c1-1.66,1.79-2.87,2.29-3.74a10.42,10.42,0,0,0,1.15-2.49,28.24,28.24,0,0,0,.77-3.54q3.45-6.33,3.83-9.77c1.53-2.55,2.87-4.88,4-7s1.85-3.42,2.1-3.92c1.91-2.56,3.66-3.89,5.27-4a8.48,8.48,0,0,1,5.27,1.73,16.59,16.59,0,0,1,3.16,2.3,5.89,5.89,0,0,1,1.82,3.34q.38,2-1.53,4.7c-.26.51-.64,1.44-1.16,2.78s-.89,2.46-1.15,3.35a26.35,26.35,0,0,0-2.77,4.31,20.15,20.15,0,0,0-2.2,6c-1,2.17-1.76,3.71-2.2,4.6s-1,1.34-1.45,1.34a2,2,0,0,0,2.14,1.84h.17l6.31-.28a27.51,27.51,0,0,0,5.09-.87,4.39,4.39,0,0,1,3.34.48,7,7,0,0,1,1.15,3.64,12.86,12.86,0,0,1-.38,4.41,3.74,3.74,0,0,1-1.91,2.68,15.65,15.65,0,0,0-3.93,1,25.66,25.66,0,0,1-7.37,1.25l-10.16,1-3.25,6.52q-1.35,2.49-2.31,4.5a11.77,11.77,0,0,1-1.34,2.4,8.15,8.15,0,0,1-1.24,3.44q-1.24,2.31-2.58,5a66.57,66.57,0,0,1-4,8.61c-.52,0-.78.39-.78,1.15.64,1.54.45,2.7-.57,3.46a8.43,8.43,0,0,0-2.3,2.67,1.63,1.63,0,0,1,.29,1.92,20.69,20.69,0,0,1-1.25,2.49,16.19,16.19,0,0,1-.86,4.41c-.57,1.91-1.18,3.69-1.82,5.36a40.58,40.58,0,0,0,.39,4.41c.12.64.44.89,1,.76a7.43,7.43,0,0,0,2.4,0,20.19,20.19,0,0,1,2.2-.19q2.67-1.33-2.87,13.4a79.22,79.22,0,0,1-5.46,7.65C1890.2,1499,1889.09,1500,1888.45,1500Z" transform="translate(-69.64 -4.14)"/><path class="cls-4" d="M1945,1490a29.44,29.44,0,0,1-8.61-5.07q-3.08-2.79-3.08-4.89a3.85,3.85,0,0,1,1.07-2.2c.57-.57,1.91-.83,4-.77a70.92,70.92,0,0,1,10,1.44,43.25,43.25,0,0,0,4.69-.29,48.21,48.21,0,0,0,4.79-.76,6.15,6.15,0,0,0,3-1.25c.64-.12.83-.41.58-.86a5.53,5.53,0,0,0-1.34-1.43,4.77,4.77,0,0,0-1.73-1.15,4.64,4.64,0,0,0-1.72-.39,3.85,3.85,0,0,0-1.62-2,23.26,23.26,0,0,0-3.36-2c-2.81-2.3-5.31-4.38-7.47-6.23s-3-3.16-2.5-3.93v-1q-1.34,0-2.67-3.74a20,20,0,0,1-1.34-6.8,18.74,18.74,0,0,1,1.53-7.19,37.27,37.27,0,0,1,4-7.27,47.35,47.35,0,0,1,5.17-6.23q3.45-3.26,8-6.8a70.81,70.81,0,0,1,9.49-6.32,43.64,43.64,0,0,1,10-4.12,26.41,26.41,0,0,1,6.32-.77,9,9,0,0,1,5,1.15,4.86,4.86,0,0,1,3.83,1.15,22.33,22.33,0,0,1,4,3.83,19.71,19.71,0,0,1,2.87,4.4c0,1.53-.07,3.35-.19,5.46a45,45,0,0,1-.67,5.55c-.33,1.6-1,2.41-1.83,2.41a1.05,1.05,0,0,0-1,1.1v0c0,1.28-1,2.75-2.87,4.41a32.15,32.15,0,0,1-6.7,3.63c-2,.77-3.52.58-4.41-.57-.64-.51-1.21-1-1.72-1.44s-1-1-1.53-1.43a5,5,0,0,1-1-2.49,3.84,3.84,0,0,1,1.15-2.11,18.09,18.09,0,0,0,3.54-3.82,26,26,0,0,0,2.3-4.12,8.76,8.76,0,0,0,.86-3c0-.77-.16-1.21-.48-1.34a6.74,6.74,0,0,0-2-.2,29.6,29.6,0,0,0-4.88,2,76,76,0,0,0-6.8,3.74,37.83,37.83,0,0,0-5.17,3.63c-.52.9-.87,1.48-1.06,1.73a1.28,1.28,0,0,1-1.06.39c0-.52-.35-.39-1.05.38s-1.53,1.79-2.49,3.06-1.91,2.62-2.87,4l-2.21,3.26a24.18,24.18,0,0,1-1,2.87,6.43,6.43,0,0,0-.39,3.07,4.22,4.22,0,0,0,1.26,3.54c1,1,2.51,2.33,4.68,4.12q6.7,5,10.25,8a43.43,43.43,0,0,1,5.08,4.79,8.47,8.47,0,0,1,1.91,3.55q3.24,5.92,1.15,9.85a14.51,14.51,0,0,1-7.28,6.23,25,25,0,0,1-6.52,1.73,53.18,53.18,0,0,1-9.68.67A26.91,26.91,0,0,1,1945,1490Z" transform="translate(-69.64 -4.14)"/><path class="cls-3" d="M2060.09,1487.14a7,7,0,0,1-3.93-1c-.95-.64-2.14-1.53-3.54-2.67a30.13,30.13,0,0,1-5.56-8,12.47,12.47,0,0,1-1.34-7.37,11.14,11.14,0,0,0,.38-4.41c-.64-.64-.83-1-.57-1.24a3.21,3.21,0,0,0,.77-1.06c.76,0,1-.7.76-2.11q-.39-1.53,1.34-6.6a46.93,46.93,0,0,1,4.6-9.68q1.15-1.9,3.45-5.08c1.53-2.12,3.23-4.23,5.08-6.32a45.8,45.8,0,0,1,5.07-5.07,65.26,65.26,0,0,1,8.72-6.33,28.54,28.54,0,0,1,8.14-3.25,35,35,0,0,1,7.75-1,8.63,8.63,0,0,1,6.43,3.06,13.47,13.47,0,0,1,6.32,5,19.61,19.61,0,0,1,2.49,8.24,47.67,47.67,0,0,1-1,13.79q-1.63,8-9.3,19a52.71,52.71,0,0,1-9.19,10.53,76.17,76.17,0,0,1-10,6.89,21.58,21.58,0,0,1-8.24,3.45A74.69,74.69,0,0,1,2060.09,1487.14Zm19.13-22.22a29.35,29.35,0,0,0,6.52-8.72q2.1-4.5,4.4-10.82a11,11,0,0,0,1.06-4.22,27.09,27.09,0,0,0,0-5.55c-.2-1.79-.67-2.81-1.44-3.06a4.53,4.53,0,0,0-4.12-.68,18.26,18.26,0,0,0-5.27,3,62.12,62.12,0,0,0-10.52,11.39,51,51,0,0,0-7.47,15.8c-.9,3.71-.8,6.56.29,8.53s3.06,2.59,5.93,1.82,6.43-3.26,10.64-7.47Z" transform="translate(-69.64 -4.14)"/><path class="cls-3" d="M2125.41,1505q-2.49.18-4.89-2.79a22.33,22.33,0,0,1-3.82-8.13,42.77,42.77,0,0,1-1.44-11.48q-.78-7.85,1.34-19.44t6.32-26.72q1.53-5.18,4.41-12.64t6-14.76q3.16-7.29,5.65-12.35A39.1,39.1,0,0,1,2142,1391c.77.26,1.15-.32,1.15-1.72a13,13,0,0,1,1.53-2.87,52,52,0,0,0,2.87-5.36,61.06,61.06,0,0,1,6.22-7.57,82.48,82.48,0,0,1,7.76-7.19,26.85,26.85,0,0,1,7.1-4.4,15.27,15.27,0,0,1,5.74-1.15,14.94,14.94,0,0,1,7.47,2.2,23.17,23.17,0,0,1,6.52,5.55,11.2,11.2,0,0,1,2.68,7,14,14,0,0,1-1.34,5.94,25.87,25.87,0,0,1-2.3,6.32c-1.15,2.29-2.27,4.36-3.36,6.23q-1.18,2.12-2.58,4.11c-2.94,2.17-5.31,3-7.09,2.58s-2.36-1.11-1.72-2a12.89,12.89,0,0,1,.57-2.88,28.92,28.92,0,0,0,.76-3.44,9.63,9.63,0,0,1,.87-2.31,9.35,9.35,0,0,0,.87-3.82c1.15-4.6,1.68-7.66,1.62-9.3s-.67-2.39-1.81-2.39a4.53,4.53,0,0,0-2.6.58,12.81,12.81,0,0,0-2.77,1.72,2.6,2.6,0,0,0-1.15,1.91v.77c-.38-.12-1.5.93-3.36,3.17s-4,4.91-6.32,8a101.19,101.19,0,0,0-5.84,8.53c-1,2.17-2.2,4.78-3.54,7.76s-3.1,7.31-5.28,12.93l-1.53,4.6,3.07.38a15,15,0,0,0,4.22-.28c1.78-.32,3.7-.67,5.74-1.06,4.33-.63,7.33-.35,9,.87a11.76,11.76,0,0,1,3.83,4.88c1.41,3.07.54,5.14-2.58,6.22s-9.57,1.92-19.26,2.4a32.06,32.06,0,0,0-5.27-.29,4.6,4.6,0,0,0-3,.86c-.51.26-1.21,1.63-2.1,4.13s-1.82,5.42-2.79,8.8a91.38,91.38,0,0,0-2.2,9.67,65.86,65.86,0,0,0-1.91,12.56,111.41,111.41,0,0,0-.1,12.26,48.11,48.11,0,0,0,1.06,8.71c.76,3.07.41,5.39-1.06,7A13.12,13.12,0,0,1,2125.41,1505Z" transform="translate(-69.64 -4.14)"/><path class="cls-3" d="M2236.7,1500q-8.41-.57-10.82-5.16c-1.6-3.07-2-7.15-1.24-12.27a33.22,33.22,0,0,0,1.43-6.6c.19-2,.74-3.23,1.63-3.75.38-.76.38-1.33,0-1.72a20.32,20.32,0,0,1,1.73-6.89c.25-.77.83-2.24,1.72-4.41q-1-1.53,0-2.49a24.55,24.55,0,0,1,2-1.81,1.24,1.24,0,0,0,.34-1.73h0a.78.78,0,0,0-.24-.27c-.26-.52.06-1.7,1-3.55s1.91-3.83,3.06-5.84a30.5,30.5,0,0,0,2.29-4.79,14.42,14.42,0,0,1,1-2.68c.64-1.53,1.4-3.32,2.3-5.36s1.75-3.9,2.58-5.55l1.63-3.26q1.91-1-1.53-1.35a48,48,0,0,0-7.29-.19q-5.92-.18-9.48-.57A14.59,14.59,0,0,1,2223,1418a4.79,4.79,0,0,1-1-5.55c.89-1.91,2.61-2.94,5.16-3.07,1.67-.12,3-.19,3.94-.19a32.74,32.74,0,0,0,3.83-.29l7.56-.86,9.77-.76.58-3.26c1-1.66,1.79-2.87,2.3-3.74a11,11,0,0,0,1.14-2.49,28.24,28.24,0,0,0,.77-3.54q3.45-6.33,3.83-9.77c1.53-2.55,2.87-4.88,4-7s1.85-3.42,2.1-3.92c1.92-2.56,3.67-3.9,5.27-4a8.48,8.48,0,0,1,5.27,1.73,16.59,16.59,0,0,1,3.16,2.3,5.89,5.89,0,0,1,1.82,3.34c.25,1.34-.26,2.88-1.54,4.7-.25.51-.63,1.44-1.15,2.78s-.89,2.46-1.14,3.35a26.4,26.4,0,0,0-2.78,4.31,20.15,20.15,0,0,0-2.2,6c-1,2.17-1.76,3.71-2.2,4.6s-1,1.34-1.45,1.34a2,2,0,0,0,2.15,1.84h.16l6.32-.28a27.26,27.26,0,0,0,5.08-.87,4.41,4.41,0,0,1,3.35.48,7.16,7.16,0,0,1,1.14,3.64,12.62,12.62,0,0,1-.38,4.41,3.74,3.74,0,0,1-1.91,2.68,15.65,15.65,0,0,0-3.93,1,25.6,25.6,0,0,1-7.37,1.25l-10.16,1-3.25,6.52q-1.35,2.49-2.31,4.5a11.77,11.77,0,0,1-1.34,2.4,8.15,8.15,0,0,1-1.24,3.44q-1.25,2.31-2.58,5a65.26,65.26,0,0,1-4,8.61c-.51,0-.77.39-.77,1.15.64,1.54.45,2.7-.57,3.46a8.43,8.43,0,0,0-2.3,2.67,1.63,1.63,0,0,1,.29,1.92,20.69,20.69,0,0,1-1.25,2.49,16.19,16.19,0,0,1-.86,4.41c-.57,1.91-1.18,3.7-1.81,5.36a38.2,38.2,0,0,0,.38,4.41c.12.64.44.89,1,.76a7.37,7.37,0,0,0,2.39,0,20.19,20.19,0,0,1,2.2-.19q2.67-1.33-2.87,13.4a79.22,79.22,0,0,1-5.46,7.65C2238.45,1499,2237.35,1500,2236.7,1500Z" transform="translate(-69.64 -4.14)"/><path class="cls-3" d="M2289.77,1480.83a4.29,4.29,0,0,1-2.88-.77c-1-.63-2-1.27-2.87-1.91a16.35,16.35,0,0,1-2.59-3.54,7.33,7.33,0,0,1-.57-3.46,42.25,42.25,0,0,1,.67-5.26c.64-2,1.4-4.79,2.3-8.34s1.92-7.18,3.06-11c.39-1.66,1-3.58,1.63-5.74s1.44-4.21,2.2-6.13,1.35-3.38,1.73-4.41q1.34-5,2.78-9.29t3.54-9.87q2.1-5.55,5.18-14.35,4.2-11.48,6.31-17.34c1.41-3.9,2.46-6.71,3.17-8.42a33.45,33.45,0,0,0,1.43-4.12,3.49,3.49,0,0,1,1.73-2.78,5.58,5.58,0,0,1,3.25-1.24,6.85,6.85,0,0,1,4.89,3.06,16.22,16.22,0,0,1,3,6.8,10.64,10.64,0,0,1-1.15,7.37q-3.07,6.9-6.23,15.81t-6.12,17.53q-3,8.61-5.85,15.51a31,31,0,0,1-1,3c-.58,1.47-1.12,2.72-1.63,3.74l-2.11,4.21c-.13.64-.38,1.67-.76,3.07s-.83,2.81-1.35,4.21l-1,3.64a30,30,0,0,0-.76,4,34.58,34.58,0,0,1,3.07-3.55q2.1-2.21,4.78-4.69c2-1.79,4-3.49,6-5.08a61.54,61.54,0,0,1,5.16-3.93q2.11-1.53,5.74-4a2.23,2.23,0,0,1,.77-1.24,3.17,3.17,0,0,1,1.15-.67,4,4,0,0,0,1.24-.77,8.82,8.82,0,0,0,1.25-1.34,11.52,11.52,0,0,1,3.15-1.73,28.15,28.15,0,0,1,4.42-1.24,22.13,22.13,0,0,1,4.3-.48,7.41,7.41,0,0,1,4.41,1.53,17.87,17.87,0,0,1,4.21,4.79,13.34,13.34,0,0,1,2.68,6.41,29.91,29.91,0,0,1-.19,8.91,31.14,31.14,0,0,1-.76,5.27,50.34,50.34,0,0,0-1,6.22l-1.53,6.32h1.91q1.92-.57,5.56.58a9.69,9.69,0,0,1,1.72,1.34,3.49,3.49,0,0,0,1.53,1c1,.76,1.15,2,.39,3.63a8.74,8.74,0,0,1-3.26,3.83,20.27,20.27,0,0,1-8.24,3.54,9.61,9.61,0,0,1-7.09-2,12.87,12.87,0,0,1-4.59-6.32,22.89,22.89,0,0,1-.38-9.57q.76-8.43.86-12.26c.06-2.55-.61-3.83-2-3.83s-3.52.77-6.33,2.3a69.69,69.69,0,0,0-9.38,6.32,133.84,133.84,0,0,0-10.25,8.81,71,71,0,0,0-8.72,9.77q-2.29,2.86-4.78,5.46A8.54,8.54,0,0,1,2289.77,1480.83Z" transform="translate(-69.64 -4.14)"/><path class="cls-3" d="M2391.49,1491.54q-9.78,0-15.32-6.22t-5.55-17.91a57.11,57.11,0,0,1,2.68-15,83.21,83.21,0,0,1,6.7-15.8,73.67,73.67,0,0,1,9.29-13.4,30.69,30.69,0,0,1,10.25-8,17.2,17.2,0,0,1,4.12-1.43,20.85,20.85,0,0,1,4.31-.48,33.31,33.31,0,0,1,4.88.38,21.28,21.28,0,0,1,4.88,1.34,15.3,15.3,0,0,1,6.81,4.5c1.84,2.11,2.87,5.21,3.16,9.29a26.13,26.13,0,0,1,0,4.51,17.52,17.52,0,0,1-1.15,4.5,41.31,41.31,0,0,1-7.08,12,30.3,30.3,0,0,1-10.35,8.14,14.42,14.42,0,0,1-6.51,1.53,20.11,20.11,0,0,1-7.29-1.24,17.84,17.84,0,0,1-5.74-3.54l-1.53-1.34-.77,1.72a57.29,57.29,0,0,0-2.21,7.37,26.39,26.39,0,0,0-.67,5.08,37.1,37.1,0,0,0,.29,4.59,9.31,9.31,0,0,0,1.25,3.83,5.25,5.25,0,0,0,2.21,1.53,9.13,9.13,0,0,0,3.35.58,18.64,18.64,0,0,0,2.48-.1,7.69,7.69,0,0,0,2.11-.48,13,13,0,0,0,5.56-2.49,36.09,36.09,0,0,1,4.4-3.07l.77-.38-.2-.38,4.42-2.2a8.21,8.21,0,0,0,1.72-1.06c.51-.26,1.08-.5,1.72-.76a5.78,5.78,0,0,1,4.79,1.15,5,5,0,0,1,2.48,4.21,7.81,7.81,0,0,1-1.62,3.35,28.39,28.39,0,0,1-3.83,4.5,15.37,15.37,0,0,1-4.31,3.06l-1.15.59a10.89,10.89,0,0,0-1.33.76h.19c-1.15,1.53-2.31,2.3-3.46,2.3h-1.51c-.51.89-2.17,1.91-5,3A22.75,22.75,0,0,1,2391.49,1491.54Zm9.56-44.82a8.11,8.11,0,0,0,4.12-1,22,22,0,0,0,3.36-2.39,16.05,16.05,0,0,0,5.45-8.91c.7-3.39.36-5.91-1.05-7.57a2.92,2.92,0,0,0-1.24-.77,5.18,5.18,0,0,0-2,0,11,11,0,0,0-4.79,1.92,31.93,31.93,0,0,0-5.36,4.41,36.55,36.55,0,0,0-4.6,5.55l-2.49,4c.51-.12,1-.22,1.44-.29a6.86,6.86,0,0,1,.86-.1,3.69,3.69,0,0,1,1.72,1.83,8.91,8.91,0,0,0,1.54,2.3,4,4,0,0,0,3.06,1Z" transform="translate(-69.64 -4.14)"/><path class="cls-5" d="M2481.28,1523.89c-1.65.64-3.38.29-5.16-1.06a12,12,0,0,1-4-5.55,10.4,10.4,0,0,1,0-7.37c.25-.77.63-2,1.14-3.74a24.79,24.79,0,0,0,1-4.5,34.92,34.92,0,0,1,1.15-4.5c.64-2.11,1.37-4.18,2.2-6.23a42.42,42.42,0,0,1,2-4.4,13.41,13.41,0,0,0,1.63-4.41,22.41,22.41,0,0,0,.48-3.83c.25-.89.61-1.91,1.06-3.06a10.23,10.23,0,0,1,1.43-2.69,23.66,23.66,0,0,1,1.15-3.35,15.35,15.35,0,0,1,1.64-3.2,25.81,25.81,0,0,0,.67-3.26c.2-1.27.55-2,1.06-2.11a12.89,12.89,0,0,0,.28-1.53,9.18,9.18,0,0,1,.67-2.1,50.43,50.43,0,0,1,1.73-6.14q1.35-4,3.26-8.81a41.3,41.3,0,0,0,2.58-10c.32-2.94-.48-4.8-2.39-5.56a3.8,3.8,0,0,1-1.91-3.06,10.11,10.11,0,0,1,.38-4.79c.51-1.65,1.27-2.68,2.3-3.06a11.36,11.36,0,0,1,4.11-.86,21.28,21.28,0,0,1,4.22.19c1.21.19,1.75.41,1.63.67a1.06,1.06,0,0,0,1,1.15h0c.25-.39.8.09,1.63,1.43a38,38,0,0,1,2.39,4.61,11.06,11.06,0,0,1,1.15,3.54,3.88,3.88,0,0,0-.38.86c0,.06.26.09.76.09,2.82-1.41,5-2.59,6.62-3.54a17.67,17.67,0,0,0,3.15-2.21,10,10,0,0,0,2.87-1.72,14.2,14.2,0,0,1,8.33-.57,14.73,14.73,0,0,1,7.19,3.45,26.26,26.26,0,0,1,5.17,11,21.87,21.87,0,0,1-1.35,12.93,26.88,26.88,0,0,1-1.62,3.16c-.84,1.47-2,3.42-3.54,5.85a50.39,50.39,0,0,1-9.87,11.48,76.07,76.07,0,0,1-11.59,8,18.62,18.62,0,0,1-4.78,2.29,32.71,32.71,0,0,1-5.26,1.34q-2.4.39-3,0c-1.41-1-2.69-3.18-3.83-6.51-.64,1.66-1.24,3.29-1.82,4.89a22,22,0,0,0-1,3.15c-.12.9-.26,1.63-.38,2.21a2.42,2.42,0,0,1-1,1.44,8.64,8.64,0,0,1-1.53,3.06q-1.92,5.57-3.17,9.1t-2,5.84c-.5,1.53-.95,3.07-1.34,4.6a42.8,42.8,0,0,1-2.29,10.73C2484.83,1521.11,2483.24,1523.28,2481.28,1523.89Zm26.63-59.76c.51-.26,1.51-.81,3-1.63s3.13-1.86,5-3.07,3.57-2.39,5.16-3.54a19.17,19.17,0,0,0,3.36-2.87,12,12,0,0,0,2.11-3.07c.38-.89.82-2.17,1.34-3.83.38-1,.83-2.17,1.34-3.45s1-2.49,1.34-3.64a6.2,6.2,0,0,0,.67-3.16,4.19,4.19,0,0,0-1.25-2.78,11.38,11.38,0,0,0-3.92.67,25.94,25.94,0,0,0-7,3.35,30.8,30.8,0,0,0-7.28,6.9,33.21,33.21,0,0,0-5.55,9.77c-1,3.07-1.35,5.55-1,7.47s1.32,2.91,2.72,2.91Z" transform="translate(-69.64 -4.14)"/><path class="cls-5" d="M2559.86,1481.78c-.51,0-2.1-.63-4.78-1.91a5.27,5.27,0,0,0-.48-1.91,5.32,5.32,0,0,1-.48-1.92,6.88,6.88,0,0,1-2.29-2.2,3.79,3.79,0,0,1-.19-3.55q1.14-2.1,3.15-6.41c1.34-2.87,2.79-6.07,4.32-9.57s3-7,4.31-10.44,2.48-6.39,3.45-8.81,1.49-3.9,1.63-4.41a11.44,11.44,0,0,1,.38-2.4,4.62,4.62,0,0,1,2.1-2.77,3.6,3.6,0,0,1,4.5-.29,11.62,11.62,0,0,1,4.13,4.69,15.76,15.76,0,0,1,1.72,7.47c0,.9-.64,3.16-1.92,6.81s-3,7.94-5.08,12.92-4.44,10-7,15.13c-1.92,3.72-3.29,6.24-4.13,7.57A3.81,3.81,0,0,1,2559.86,1481.78Zm26.8-73.17a9.82,9.82,0,0,1-5.27-2,22.31,22.31,0,0,1-5.28-5.07,10.71,10.71,0,0,1-2.29-6.52,7.34,7.34,0,0,1,1.53-3.25c1-1.54,2-3,3-4.51a10,10,0,0,0,1.44-2.58,14.29,14.29,0,0,1,3.25.38,11.27,11.27,0,0,1,3.07,1.15,25.07,25.07,0,0,0,5.46,8c2.23,2.17,3.34,4.41,3.35,6.7q0,4.23-1.63,5.94c-1.05,1.14-3.26,1.72-6.57,1.72Z" transform="translate(-69.64 -4.14)"/><path class="cls-5" d="M2604.73,1487.14a7,7,0,0,1-3.93-1,40.38,40.38,0,0,1-3.55-2.67,30.1,30.1,0,0,1-5.55-8,12.47,12.47,0,0,1-1.34-7.37,11.14,11.14,0,0,0,.38-4.41c-.64-.64-.83-1-.57-1.24a3.21,3.21,0,0,0,.77-1.06c.76,0,1-.7.76-2.11q-.39-1.53,1.34-6.6a46.38,46.38,0,0,1,4.59-9.68q1.17-1.9,3.46-5.08a78.77,78.77,0,0,1,5.07-6.32,46.77,46.77,0,0,1,5.08-5.07,65.26,65.26,0,0,1,8.72-6.33,28.78,28.78,0,0,1,8.13-3.25,35,35,0,0,1,7.76-1,8.58,8.58,0,0,1,6.42,3.06,13.47,13.47,0,0,1,6.32,5,19.48,19.48,0,0,1,2.5,8.24A47.7,47.7,0,0,1,2650,1446q-1.65,8-9.3,19a52.71,52.71,0,0,1-9.19,10.53,76.17,76.17,0,0,1-10,6.89,21.74,21.74,0,0,1-8.24,3.45A71.46,71.46,0,0,1,2604.73,1487.14Zm19.13-22.22a29.83,29.83,0,0,0,6.52-8.72q2.1-4.5,4.4-10.82a11,11,0,0,0,1-4.22,25.74,25.74,0,0,0,0-5.55c-.19-1.79-.66-2.81-1.43-3.06a4.56,4.56,0,0,0-4.12-.68,18.26,18.26,0,0,0-5.27,3,62.12,62.12,0,0,0-10.52,11.39A51.13,51.13,0,0,0,2607,1462c-.89,3.71-.8,6.56.29,8.53s3.07,2.59,5.94,1.82,6.4-3.22,10.63-7.43Z" transform="translate(-69.64 -4.14)"/><path class="cls-5" d="M2670.2,1482a8.93,8.93,0,0,1-3.16-1.34,15.24,15.24,0,0,1-3.16-2.1,7.37,7.37,0,0,1-1.72-3.25,40.05,40.05,0,0,1-.39-7.09,44.15,44.15,0,0,1,2.49-13.7,214.25,214.25,0,0,1,8.41-20.54l7.27-15.14c.64-.89,1.21-1.65,1.72-2.3l1.54-1.91h1.15a2.15,2.15,0,0,1,1,.19,13.54,13.54,0,0,1,4.59,2,7.81,7.81,0,0,1,3.83,5.08,24.49,24.49,0,0,1-.77,5.65q-.77,3.15-4.6,8.52a26.39,26.39,0,0,0-3.25,6,65.31,65.31,0,0,0-2.69,7.56,12.94,12.94,0,0,0-1,1.63c-.51,1-1,1.91-1.53,3a13.44,13.44,0,0,0-1,2.3l-.76,2.68,9.77-9.77q8.61-8.82,14.46-12.55c3.89-2.48,7.12-3.54,9.67-3.15s4.66,2,6.33,5a13.51,13.51,0,0,1,1.91,3.93,24.44,24.44,0,0,1,.77,4.88,51.93,51.93,0,0,1-.2,7.48v11.3c2.18-.64,3.9-1.18,5.18-1.63s2.56-.86,3.83-1.24c1.1-.41,2.22-.76,3.35-1.06a25.72,25.72,0,0,1,4.7-.67,15.54,15.54,0,0,1-2,5.84,47.32,47.32,0,0,1-4.41,6.62,28.34,28.34,0,0,1-5.65,5.45,10,10,0,0,1-5.74,2.2,11.13,11.13,0,0,1-5.65-1.91,13.25,13.25,0,0,1-5.08-6.13,38.74,38.74,0,0,1-1.91-13v-8c0-1.16-.22-1.69-.67-1.63a3,3,0,0,0-1.25.47,37,37,0,0,0-5.17,4.51q-3.84,3.73-7.66,8a132.82,132.82,0,0,1-14.66,13.6Q2672.31,1482,2670.2,1482Z" transform="translate(-69.64 -4.14)"/><path class="cls-5" d="M2766.75,1491.54q-9.77,0-15.31-6.22t-5.55-17.91a56.3,56.3,0,0,1,2.68-15,82.3,82.3,0,0,1,6.7-15.8,73.61,73.61,0,0,1,9.28-13.4,30.81,30.81,0,0,1,10.25-8,17.2,17.2,0,0,1,4.12-1.43,20.85,20.85,0,0,1,4.31-.48,33.34,33.34,0,0,1,4.89.38A21.28,21.28,0,0,1,2793,1415a15.41,15.41,0,0,1,6.8,4.5q2.77,3.16,3.16,9.29a26.13,26.13,0,0,1,0,4.51,16.64,16.64,0,0,1-1.15,4.5,41.56,41.56,0,0,1-7.09,12,30.26,30.26,0,0,1-10.34,8.14,14.29,14.29,0,0,1-6.51,1.53,20.09,20.09,0,0,1-7.28-1.24,18,18,0,0,1-5.74-3.54l-1.53-1.34-.77,1.72a55.71,55.71,0,0,0-2.2,7.37,25.63,25.63,0,0,0-.67,5.08,37.1,37.1,0,0,0,.29,4.59,9.29,9.29,0,0,0,1.24,3.83,5.29,5.29,0,0,0,2.2,1.53,9.15,9.15,0,0,0,3.36.58,18.85,18.85,0,0,0,2.49-.1,7.21,7.21,0,0,0,2.1-.48,13,13,0,0,0,5.56-2.49,35.44,35.44,0,0,1,4.41-3.07l.76-.38-.19-.38,4.4-2.2a7.88,7.88,0,0,0,1.73-1.06c.51-.26,1.08-.5,1.73-.76a5.68,5.68,0,0,1,4.78,1.15,5,5,0,0,1,2.5,4.21c0,.63-.55,1.75-1.64,3.35a27.88,27.88,0,0,1-3.83,4.5,15.53,15.53,0,0,1-4.3,3.06l-1.16.59a11.82,11.82,0,0,0-1.34.76h.19c-1.15,1.53-2.29,2.3-3.44,2.3H2780c-.52.89-2.18,1.91-5,3A22.59,22.59,0,0,1,2766.75,1491.54Zm9.57-44.82a8.1,8.1,0,0,0,4.11-1,21.25,21.25,0,0,0,3.35-2.39,16,16,0,0,0,5.47-8.91c.7-3.39.34-5.91-1.05-7.57a3,3,0,0,0-1.25-.77,5.18,5.18,0,0,0-2,0,11,11,0,0,0-4.78,1.92,32.4,32.4,0,0,0-5.37,4.41,35.91,35.91,0,0,0-4.59,5.55l-2.49,4c.5-.12,1-.22,1.43-.29a6.67,6.67,0,0,1,.86-.1,3.75,3.75,0,0,1,1.73,1.83,8.63,8.63,0,0,0,1.53,2.3,4,4,0,0,0,3.08,1Z" transform="translate(-69.64 -4.14)"/><path class="cls-5" d="M2824.21,1486.38q-7.46-3.06-10.15-9.49t-1.34-17.91a33.45,33.45,0,0,0-.09-8,8,8,0,0,0-2.59-3.93,18.84,18.84,0,0,0-2.5-2.39c-1.27-1.08-1.84-1.91-1.72-2.59a7.11,7.11,0,0,1,.48-3.26c.45-1.27.86-1.91,1.24-1.91a14.93,14.93,0,0,0,2.41-1,2.17,2.17,0,0,1,2-.29,5.69,5.69,0,0,1,2.2.67c1,.45,1.43.93,1.43,1.44.51.9,1.31.67,2.39-.67a32,32,0,0,0,3.55-5.85,29.69,29.69,0,0,1,4.88-5.84,76.65,76.65,0,0,1,6-5.08,43.37,43.37,0,0,1,5.17-3.44c.64-.26,1.79-.64,3.45-1.15a33.92,33.92,0,0,1,5.27-1.15,17.76,17.76,0,0,1,4.31-.19,13.19,13.19,0,0,1,6.8,2.49,31.56,31.56,0,0,1,5.46,4.59,8.14,8.14,0,0,1,3.26,5.08,25.73,25.73,0,0,1,.57,7,15.87,15.87,0,0,1-1.53,6.31q-.57,1.92-3.83,5.08a82.63,82.63,0,0,1-7.09,6.13,29,29,0,0,1-6.7,4.12,42.12,42.12,0,0,1-6.12.86,48.34,48.34,0,0,1-6.7.1,12.11,12.11,0,0,1-4.21-.77c-.9-.5-1.63-.16-2.2,1.06a26.41,26.41,0,0,0-1.45,7.18,19.62,19.62,0,0,0,.1,4.4,9.76,9.76,0,0,0,.67,2.49,14.9,14.9,0,0,0,3.07,3.27c1.15.89,3,1.15,5.55.76s4.89-2,7.38-4.7a63.26,63.26,0,0,1,6.8-6.6,4,4,0,0,1,3.06-1.73,13.34,13.34,0,0,1,5.37.38,4.12,4.12,0,0,1,2,3.83c-.07,1.65-1,4.15-2.78,7.47a14.61,14.61,0,0,1-3,3.73c-1.59,1.6-3.32,3.19-5.17,4.79a36,36,0,0,1-4.7,3.55,22.63,22.63,0,0,1-11.1,3A29.62,29.62,0,0,1,2824.21,1486.38Zm13.22-41.76c2.17-.51,4-1,5.46-1.44a11.86,11.86,0,0,0,4.21-2.4,33.4,33.4,0,0,0,4.9-5.78,11.17,11.17,0,0,0,.77-3.83,3.31,3.31,0,0,0-.58-2.3,3.58,3.58,0,0,0-3.54-1,12,12,0,0,0-4.12,2,18.42,18.42,0,0,0-3.83,2.59,53.81,53.81,0,0,0-4.78,4.4,39.32,39.32,0,0,0-3.64,4.31q-1.35,1.92-.57,2.31c-.26.5.48.83,2.2,1s2.9.19,3.53.19Z" transform="translate(-69.64 -4.14)"/><path class="cls-5" d="M2878.23,1483.3a21.51,21.51,0,0,1-3.25-3.15c-1-1.21-1.37-3.1-1-5.65a80,80,0,0,1,1.53-9.48c.67-2.75,1.43-5.91,2.3-9.49.54-2.67,1.21-5.28,2-7.85q1.64-5.55,4.12-12.07t5-12.35a55.71,55.71,0,0,1,4.41-8.72,7.5,7.5,0,0,1,5.45-1.63c2.37.06,4.06.6,5.09,1.63q2.09,1.73,1,6t-5.5,13.37q-1.54,3.25-2.87,5.83a19,19,0,0,0-1.63,3.83c-.19.84.09,1.12.86.86a20.73,20.73,0,0,1,4.21-4.89q3.08-2.76,6.52-5.45c2.29-1.79,4.47-3.39,6.51-4.79a46.1,46.1,0,0,1,4.21-2.68,16.92,16.92,0,0,1,3.54-1.62,27.22,27.22,0,0,0,2.79-1,17.52,17.52,0,0,1,9.48-1.63c3.38.32,5.46,1.43,6.22,3.35a4.88,4.88,0,0,0,2.3,3.06c.52,0,.83.38,1,1.15s-.81,1.91-2.41,3.17a9.89,9.89,0,0,1-5.45,2,14.87,14.87,0,0,0-4.41,1q-1.92.76-4.6,1.92-7.26,4.21-13.39,7.65a50.52,50.52,0,0,0-12.27,10.15c-.89,1-1.81,2.08-2.78,3.16a30.42,30.42,0,0,0-3,4.13,10.76,10.76,0,0,0-1.92,4.21c-.63,2.17-1.18,4.24-1.62,6.23a26.64,26.64,0,0,0-.68,3.54,17.47,17.47,0,0,1-2.49,5.36c-1.53,2-3,3.23-4.31,3.55S2880.25,1485.38,2878.23,1483.3Z" transform="translate(-69.64 -4.14)"/><path class="cls-5" d="M2961.56,1489.25a23.28,23.28,0,0,1-10.44-2,21.81,21.81,0,0,1-7.86-5.74,13.44,13.44,0,0,1-3.35-7.18,4.36,4.36,0,0,1-.09-3,2.34,2.34,0,0,1,1.82-1,4.64,4.64,0,0,1,2.49.86L2947,1473a15.27,15.27,0,0,0,6.79,2.58,13.37,13.37,0,0,0,6.8-.76c2-.84,3.19-2,3.45-3.55a13.94,13.94,0,0,0-.67-3.06,32.83,32.83,0,0,0-1.63-4.41,41.49,41.49,0,0,1-6.5-13.89,78.13,78.13,0,0,1-1.92-12.55,11.9,11.9,0,0,1,2.4-6.42,31.9,31.9,0,0,1,6-6.6,55.28,55.28,0,0,1,8.52-6.65,78.06,78.06,0,0,1,9.29-5.07,33.65,33.65,0,0,1,7.86-2.69c2,0,4.3.13,6.79.38a11.58,11.58,0,0,1,5.08,1.34,16.18,16.18,0,0,1,4.69,6,17.1,17.1,0,0,1,2.2,7.57,7,7,0,0,1-1.34,3.63c-.89,1.41-1.84,3.08-2.87,5-.5,1-1,2.07-1.43,3.16s-.87,2.07-1.25,3a3,3,0,0,1-3.55,2.11,9,9,0,0,1-7.18-8,7.21,7.21,0,0,1,.87-4.89,16.83,16.83,0,0,0,1.62-3.16c.51-.64.67-1.08.48-1.34s-.74-.38-1.63-.38a14.36,14.36,0,0,0-4.5,1.25,42.66,42.66,0,0,0-6.61,3.34,29.17,29.17,0,0,0-6.13,5,18.59,18.59,0,0,0-3.54,4.59,10.9,10.9,0,0,0-1,5,24,24,0,0,0,1,6.41,19.48,19.48,0,0,0,2.39,5.66,6.3,6.3,0,0,1,1.34,2.2,47.9,47.9,0,0,0,2.49,4.49q6.51,13.8,2.5,20.31T2961.56,1489.25Z" transform="translate(-69.64 -4.14)"/></svg>
